<svg width="1100" height="240" viewBox="0 0 1100 240" fill="none" xmlns="http://www.w3.org/2000/svg">
<g clip-path="url(#clip0_307_581)">
<circle cx="128.5" cy="86" r="75" fill="#D9D9D9"/>
<g clip-path="url(#clip1_307_581)">
<path d="M10.5 11H246.5V86H10.5V11Z" fill="#0072CE"/>
<path d="M10.5 61H246.5V136H10.5V61Z" fill="black"/>
<path d="M10.5 111H246.5V161H10.5V111Z" fill="white"/>
</g>
</g>
<path d="M88.8793 211.96V216.16H94.5193V218.824H88.8793V223.264H95.2393V226H85.5193V209.224H95.2393V211.96H88.8793ZM103.381 226.216C102.293 226.216 101.317 226.024 100.453 225.64C99.5887 225.24 98.9007 224.704 98.3887 224.032C97.8927 223.36 97.6207 222.616 97.5727 221.8H100.957C101.021 222.312 101.269 222.736 101.701 223.072C102.149 223.408 102.701 223.576 103.357 223.576C103.997 223.576 104.493 223.448 104.845 223.192C105.213 222.936 105.397 222.608 105.397 222.208C105.397 221.776 105.173 221.456 104.725 221.248C104.293 221.024 103.597 220.784 102.637 220.528C101.645 220.288 100.829 220.04 100.189 219.784C99.5647 219.528 99.0207 219.136 98.5567 218.608C98.1087 218.08 97.8847 217.368 97.8847 216.472C97.8847 215.736 98.0927 215.064 98.5087 214.456C98.9407 213.848 99.5487 213.368 100.333 213.016C101.133 212.664 102.069 212.488 103.141 212.488C104.725 212.488 105.989 212.888 106.933 213.688C107.877 214.472 108.397 215.536 108.493 216.88H105.277C105.229 216.352 105.005 215.936 104.605 215.632C104.221 215.312 103.701 215.152 103.045 215.152C102.437 215.152 101.965 215.264 101.629 215.488C101.309 215.712 101.149 216.024 101.149 216.424C101.149 216.872 101.373 217.216 101.821 217.456C102.269 217.68 102.965 217.912 103.909 218.152C104.869 218.392 105.661 218.64 106.285 218.896C106.909 219.152 107.445 219.552 107.893 220.096C108.357 220.624 108.597 221.328 108.613 222.208C108.613 222.976 108.397 223.664 107.965 224.272C107.549 224.88 106.941 225.36 106.141 225.712C105.357 226.048 104.437 226.216 103.381 226.216ZM115.283 215.464V221.896C115.283 222.344 115.387 222.672 115.595 222.88C115.819 223.072 116.187 223.168 116.699 223.168H118.259V226H116.147C113.315 226 111.899 224.624 111.899 221.872V215.464H110.315V212.704H111.899V209.416H115.283V212.704H118.259V215.464H115.283ZM126.58 226.216C125.3 226.216 124.148 225.936 123.124 225.376C122.1 224.8 121.292 223.992 120.7 222.952C120.124 221.912 119.836 220.712 119.836 219.352C119.836 217.992 120.132 216.792 120.724 215.752C121.332 214.712 122.156 213.912 123.196 213.352C124.236 212.776 125.396 212.488 126.676 212.488C127.956 212.488 129.116 212.776 130.156 213.352C131.196 213.912 132.012 214.712 132.604 215.752C133.212 216.792 133.516 217.992 133.516 219.352C133.516 220.712 133.204 221.912 132.58 222.952C131.972 223.992 131.14 224.8 130.084 225.376C129.044 225.936 127.876 226.216 126.58 226.216ZM126.58 223.288C127.188 223.288 127.756 223.144 128.284 222.856C128.828 222.552 129.26 222.104 129.58 221.512C129.9 220.92 130.06 220.2 130.06 219.352C130.06 218.088 129.724 217.12 129.052 216.448C128.396 215.76 127.588 215.416 126.628 215.416C125.668 215.416 124.86 215.76 124.204 216.448C123.564 217.12 123.244 218.088 123.244 219.352C123.244 220.616 123.556 221.592 124.18 222.28C124.82 222.952 125.62 223.288 126.58 223.288ZM143.348 212.512C144.932 212.512 146.212 213.016 147.188 214.024C148.164 215.016 148.652 216.408 148.652 218.2V226H145.292V218.656C145.292 217.6 145.028 216.792 144.5 216.232C143.972 215.656 143.252 215.368 142.34 215.368C141.412 215.368 140.676 215.656 140.132 216.232C139.604 216.792 139.34 217.6 139.34 218.656V226H135.98V212.704H139.34V214.36C139.788 213.784 140.356 213.336 141.044 213.016C141.748 212.68 142.516 212.512 143.348 212.512ZM153.551 211.12C152.959 211.12 152.463 210.936 152.063 210.568C151.679 210.184 151.487 209.712 151.487 209.152C151.487 208.592 151.679 208.128 152.063 207.76C152.463 207.376 152.959 207.184 153.551 207.184C154.143 207.184 154.631 207.376 155.015 207.76C155.415 208.128 155.615 208.592 155.615 209.152C155.615 209.712 155.415 210.184 155.015 210.568C154.631 210.936 154.143 211.12 153.551 211.12ZM155.207 212.704V226H151.847V212.704H155.207ZM157.663 219.304C157.663 217.96 157.927 216.768 158.455 215.728C158.999 214.688 159.727 213.888 160.639 213.328C161.567 212.768 162.599 212.488 163.735 212.488C164.727 212.488 165.591 212.688 166.327 213.088C167.079 213.488 167.679 213.992 168.127 214.6V212.704H171.511V226H168.127V224.056C167.695 224.68 167.095 225.2 166.327 225.616C165.575 226.016 164.703 226.216 163.711 226.216C162.591 226.216 161.567 225.928 160.639 225.352C159.727 224.776 158.999 223.968 158.455 222.928C157.927 221.872 157.663 220.664 157.663 219.304ZM168.127 219.352C168.127 218.536 167.967 217.84 167.647 217.264C167.327 216.672 166.895 216.224 166.351 215.92C165.807 215.6 165.223 215.44 164.599 215.44C163.975 215.44 163.399 215.592 162.871 215.896C162.343 216.2 161.911 216.648 161.575 217.24C161.255 217.816 161.095 218.504 161.095 219.304C161.095 220.104 161.255 220.808 161.575 221.416C161.911 222.008 162.343 222.464 162.871 222.784C163.415 223.104 163.991 223.264 164.599 223.264C165.223 223.264 165.807 223.112 166.351 222.808C166.895 222.488 167.327 222.04 167.647 221.464C167.967 220.872 168.127 220.168 168.127 219.352Z" fill="black"/>
<g clip-path="url(#clip2_307_581)">
<circle cx="409.5" cy="86" r="75" fill="#D9D9D9"/>
<g clip-path="url(#clip3_307_581)">
<path d="M298.5 11H598.5V86L345.167 159.333L298.5 11Z" fill="#0038A8"/>
<path d="M345.167 86H598.5V161H298.5L345.167 86Z" fill="#CE1126"/>
<path d="M428.403 86L298.5 161V11L428.403 86Z" fill="white"/>
<path d="M345.168 101C353.452 101 360.168 94.2843 360.168 86C360.168 77.7157 353.452 71 345.168 71C336.884 71 330.168 77.7157 330.168 86C330.168 94.2843 336.884 101 345.168 101Z" fill="#FCD116"/>
<path d="M345.168 85.9997L339.895 59.4847L341.47 57.908L345.168 85.9997ZM345.168 85.9997L343.22 56.2813L345.168 54.333L347.116 56.2813L345.168 85.9997ZM345.168 85.9997L348.866 57.908L350.441 59.4847L345.168 85.9997Z" fill="#FCD116"/>
<path d="M345.168 85.9993L350.441 112.514L348.866 114.091L345.168 85.9993ZM345.168 85.9993L347.116 115.718L345.168 117.666L343.22 115.718L345.168 85.9993ZM345.168 85.9993L341.47 114.091L339.895 112.514L345.168 85.9993Z" fill="#FCD116"/>
<path d="M345.165 85.9999L371.68 80.7266L373.257 82.3016L345.165 85.9999ZM345.165 85.9999L374.884 84.0516L376.832 85.9999L374.884 87.9482L345.165 85.9999ZM345.165 85.9999L373.257 89.6982L371.68 91.2732L345.165 85.9999Z" fill="#FCD116"/>
<path d="M345.167 86.0001L318.652 91.2734L317.075 89.6984L345.167 86.0001ZM345.167 86.0001L315.448 87.9484L313.5 86.0001L315.448 84.0518L345.167 86.0001ZM345.167 86.0001L317.075 82.3018L318.652 80.7268L345.167 86.0001Z" fill="#FCD116"/>
<path d="M345.169 86.0004L360.189 63.5227L362.418 63.5215L345.169 86.0004ZM345.169 86.0004L364.805 63.6087L367.561 63.6087L367.561 66.3641L345.169 86.0004ZM345.169 86.0004L367.648 68.7517L367.647 70.9803L345.169 86.0004Z" fill="#FCD116"/>
<path d="M345.171 86.0006L330.151 108.478L327.922 108.479L345.171 86.0006ZM345.171 86.0006L325.534 108.392L322.779 108.392L322.779 105.637L345.171 86.0006ZM345.171 86.0006L322.692 103.249L322.693 101.021L345.171 86.0006Z" fill="#FCD116"/>
<path d="M345.169 86.0002L367.646 101.02L367.647 103.249L345.169 86.0002ZM345.169 86.0002L367.56 105.637L367.56 108.392L364.805 108.392L345.169 86.0002ZM345.169 86.0002L362.417 108.479L360.189 108.478L345.169 86.0002Z" fill="#FCD116"/>
<path d="M345.167 85.9998L322.69 70.9797L322.688 68.7511L345.167 85.9998ZM345.167 85.9998L322.776 66.3635L322.776 63.6081L325.531 63.6081L345.167 85.9998ZM345.167 85.9998L327.919 63.5209L330.147 63.5221L345.167 85.9998Z" fill="#FCD116"/>
<path d="M413.403 86.0002L407.766 87.9602L407.645 93.9252L404.04 89.1702L398.328 90.8985L401.736 86.0002L398.328 81.1019L404.04 82.8302L407.645 78.0752L407.766 84.0402L413.403 86.0002Z" fill="#FCD116"/>
</g>
</g>
<path d="M377.578 209.248V211.96H370.594V216.256H375.946V218.92H370.594V226H367.234V209.248H377.578ZM381.665 211.12C381.073 211.12 380.577 210.936 380.177 210.568C379.793 210.184 379.601 209.712 379.601 209.152C379.601 208.592 379.793 208.128 380.177 207.76C380.577 207.376 381.073 207.184 381.665 207.184C382.257 207.184 382.745 207.376 383.129 207.76C383.529 208.128 383.729 208.592 383.729 209.152C383.729 209.712 383.529 210.184 383.129 210.568C382.745 210.936 382.257 211.12 381.665 211.12ZM383.321 212.704V226H379.961V212.704H383.321ZM390 208.24V226H386.64V208.24H390ZM395.024 211.12C394.432 211.12 393.936 210.936 393.536 210.568C393.152 210.184 392.96 209.712 392.96 209.152C392.96 208.592 393.152 208.128 393.536 207.76C393.936 207.376 394.432 207.184 395.024 207.184C395.616 207.184 396.104 207.376 396.488 207.76C396.888 208.128 397.088 208.592 397.088 209.152C397.088 209.712 396.888 210.184 396.488 210.568C396.104 210.936 395.616 211.12 395.024 211.12ZM396.68 212.704V226H393.32V212.704H396.68ZM403.36 214.624C403.792 214.016 404.384 213.512 405.136 213.112C405.904 212.696 406.776 212.488 407.752 212.488C408.888 212.488 409.912 212.768 410.824 213.328C411.752 213.888 412.48 214.688 413.008 215.728C413.552 216.752 413.824 217.944 413.824 219.304C413.824 220.664 413.552 221.872 413.008 222.928C412.48 223.968 411.752 224.776 410.824 225.352C409.912 225.928 408.888 226.216 407.752 226.216C406.776 226.216 405.912 226.016 405.16 225.616C404.424 225.216 403.824 224.712 403.36 224.104V232.336H400V212.704H403.36V214.624ZM410.392 219.304C410.392 218.504 410.224 217.816 409.888 217.24C409.568 216.648 409.136 216.2 408.592 215.896C408.064 215.592 407.488 215.44 406.864 215.44C406.256 215.44 405.68 215.6 405.136 215.92C404.608 216.224 404.176 216.672 403.84 217.264C403.52 217.856 403.36 218.552 403.36 219.352C403.36 220.152 403.52 220.848 403.84 221.44C404.176 222.032 404.608 222.488 405.136 222.808C405.68 223.112 406.256 223.264 406.864 223.264C407.488 223.264 408.064 223.104 408.592 222.784C409.136 222.464 409.568 222.008 409.888 221.416C410.224 220.824 410.392 220.12 410.392 219.304ZM417.969 211.12C417.377 211.12 416.881 210.936 416.481 210.568C416.097 210.184 415.905 209.712 415.905 209.152C415.905 208.592 416.097 208.128 416.481 207.76C416.881 207.376 417.377 207.184 417.969 207.184C418.561 207.184 419.049 207.376 419.433 207.76C419.833 208.128 420.033 208.592 420.033 209.152C420.033 209.712 419.833 210.184 419.433 210.568C419.049 210.936 418.561 211.12 417.969 211.12ZM419.625 212.704V226H416.265V212.704H419.625ZM430.313 212.512C431.897 212.512 433.177 213.016 434.153 214.024C435.129 215.016 435.617 216.408 435.617 218.2V226H432.257V218.656C432.257 217.6 431.993 216.792 431.465 216.232C430.937 215.656 430.217 215.368 429.305 215.368C428.377 215.368 427.641 215.656 427.097 216.232C426.569 216.792 426.305 217.6 426.305 218.656V226H422.945V212.704H426.305V214.36C426.753 213.784 427.321 213.336 428.009 213.016C428.713 212.68 429.481 212.512 430.313 212.512ZM437.948 219.304C437.948 217.96 438.212 216.768 438.74 215.728C439.284 214.688 440.012 213.888 440.924 213.328C441.852 212.768 442.884 212.488 444.02 212.488C445.012 212.488 445.876 212.688 446.612 213.088C447.364 213.488 447.964 213.992 448.412 214.6V212.704H451.796V226H448.412V224.056C447.98 224.68 447.38 225.2 446.612 225.616C445.86 226.016 444.988 226.216 443.996 226.216C442.876 226.216 441.852 225.928 440.924 225.352C440.012 224.776 439.284 223.968 438.74 222.928C438.212 221.872 437.948 220.664 437.948 219.304ZM448.412 219.352C448.412 218.536 448.252 217.84 447.932 217.264C447.612 216.672 447.18 216.224 446.636 215.92C446.092 215.6 445.508 215.44 444.884 215.44C444.26 215.44 443.684 215.592 443.156 215.896C442.628 216.2 442.196 216.648 441.86 217.24C441.54 217.816 441.38 218.504 441.38 219.304C441.38 220.104 441.54 220.808 441.86 221.416C442.196 222.008 442.628 222.464 443.156 222.784C443.7 223.104 444.276 223.264 444.884 223.264C445.508 223.264 446.092 223.112 446.636 222.808C447.18 222.488 447.612 222.04 447.932 221.464C448.252 220.872 448.412 220.168 448.412 219.352Z" fill="black"/>
<g clip-path="url(#clip4_307_581)">
<circle cx="690.5" cy="86" r="75" fill="#D9D9D9"/>
<g clip-path="url(#clip5_307_581)">
<path d="M822.5 11H577.5V161H822.5V11Z" fill="white"/>
<path d="M577.5 85.9996H822.5H577.5ZM665.972 11.1592V160.84V11.1592Z" fill="black"/>
<path d="M577.5 85.9996H822.5M665.972 11.1592V160.84" stroke="#002F6C" stroke-width="20"/>
</g>
</g>
<path d="M645.852 209.248V211.96H638.868V216.256H644.22V218.92H638.868V226H635.508V209.248H645.852ZM649.938 211.12C649.346 211.12 648.85 210.936 648.45 210.568C648.066 210.184 647.874 209.712 647.874 209.152C647.874 208.592 648.066 208.128 648.45 207.76C648.85 207.376 649.346 207.184 649.938 207.184C650.53 207.184 651.018 207.376 651.402 207.76C651.802 208.128 652.002 208.592 652.002 209.152C652.002 209.712 651.802 210.184 651.402 210.568C651.018 210.936 650.53 211.12 649.938 211.12ZM651.594 212.704V226H648.234V212.704H651.594ZM662.282 212.512C663.866 212.512 665.146 213.016 666.122 214.024C667.098 215.016 667.586 216.408 667.586 218.2V226H664.226V218.656C664.226 217.6 663.962 216.792 663.434 216.232C662.906 215.656 662.186 215.368 661.274 215.368C660.346 215.368 659.61 215.656 659.066 216.232C658.538 216.792 658.274 217.6 658.274 218.656V226H654.914V212.704H658.274V214.36C658.722 213.784 659.29 213.336 659.978 213.016C660.682 212.68 661.45 212.512 662.282 212.512ZM674.141 208.24V226H670.781V208.24H674.141ZM676.597 219.304C676.597 217.96 676.861 216.768 677.389 215.728C677.933 214.688 678.661 213.888 679.573 213.328C680.501 212.768 681.533 212.488 682.669 212.488C683.661 212.488 684.525 212.688 685.261 213.088C686.013 213.488 686.613 213.992 687.061 214.6V212.704H690.445V226H687.061V224.056C686.629 224.68 686.029 225.2 685.261 225.616C684.509 226.016 683.637 226.216 682.645 226.216C681.525 226.216 680.501 225.928 679.573 225.352C678.661 224.776 677.933 223.968 677.389 222.928C676.861 221.872 676.597 220.664 676.597 219.304ZM687.061 219.352C687.061 218.536 686.901 217.84 686.581 217.264C686.261 216.672 685.829 216.224 685.285 215.92C684.741 215.6 684.157 215.44 683.533 215.44C682.909 215.44 682.333 215.592 681.805 215.896C681.277 216.2 680.845 216.648 680.509 217.24C680.189 217.816 680.029 218.504 680.029 219.304C680.029 220.104 680.189 220.808 680.509 221.416C680.845 222.008 681.277 222.464 681.805 222.784C682.349 223.104 682.925 223.264 683.533 223.264C684.157 223.264 684.741 223.112 685.285 222.808C685.829 222.488 686.261 222.04 686.581 221.464C686.901 220.872 687.061 220.168 687.061 219.352ZM701.094 212.512C702.678 212.512 703.958 213.016 704.934 214.024C705.91 215.016 706.398 216.408 706.398 218.2V226H703.038V218.656C703.038 217.6 702.774 216.792 702.246 216.232C701.718 215.656 700.998 215.368 700.086 215.368C699.158 215.368 698.422 215.656 697.878 216.232C697.35 216.792 697.086 217.6 697.086 218.656V226H693.726V212.704H697.086V214.36C697.534 213.784 698.102 213.336 698.79 213.016C699.494 212.68 700.262 212.512 701.094 212.512ZM708.729 219.304C708.729 217.96 708.993 216.768 709.521 215.728C710.066 214.688 710.802 213.888 711.73 213.328C712.658 212.768 713.69 212.488 714.826 212.488C715.69 212.488 716.514 212.68 717.298 213.064C718.082 213.432 718.706 213.928 719.17 214.552V208.24H722.578V226H719.17V224.032C718.754 224.688 718.17 225.216 717.418 225.616C716.666 226.016 715.794 226.216 714.802 226.216C713.682 226.216 712.658 225.928 711.73 225.352C710.802 224.776 710.066 223.968 709.521 222.928C708.993 221.872 708.729 220.664 708.729 219.304ZM719.194 219.352C719.194 218.536 719.034 217.84 718.714 217.264C718.394 216.672 717.962 216.224 717.418 215.92C716.874 215.6 716.29 215.44 715.666 215.44C715.042 215.44 714.466 215.592 713.938 215.896C713.41 216.2 712.978 216.648 712.642 217.24C712.322 217.816 712.162 218.504 712.162 219.304C712.162 220.104 712.322 220.808 712.642 221.416C712.978 222.008 713.41 222.464 713.938 222.784C714.482 223.104 715.058 223.264 715.666 223.264C716.29 223.264 716.874 223.112 717.418 222.808C717.962 222.488 718.394 222.04 718.714 221.464C719.034 220.872 719.194 220.168 719.194 219.352ZM727.563 211.12C726.971 211.12 726.475 210.936 726.075 210.568C725.691 210.184 725.499 209.712 725.499 209.152C725.499 208.592 725.691 208.128 726.075 207.76C726.475 207.376 726.971 207.184 727.563 207.184C728.155 207.184 728.643 207.376 729.027 207.76C729.427 208.128 729.627 208.592 729.627 209.152C729.627 209.712 729.427 210.184 729.027 210.568C728.643 210.936 728.155 211.12 727.563 211.12ZM729.219 212.704V226H725.859V212.704H729.219ZM731.675 219.304C731.675 217.96 731.939 216.768 732.467 215.728C733.011 214.688 733.739 213.888 734.651 213.328C735.579 212.768 736.611 212.488 737.747 212.488C738.739 212.488 739.603 212.688 740.339 213.088C741.091 213.488 741.691 213.992 742.139 214.6V212.704H745.523V226H742.139V224.056C741.707 224.68 741.107 225.2 740.339 225.616C739.587 226.016 738.715 226.216 737.723 226.216C736.603 226.216 735.579 225.928 734.651 225.352C733.739 224.776 733.011 223.968 732.467 222.928C731.939 221.872 731.675 220.664 731.675 219.304ZM742.139 219.352C742.139 218.536 741.979 217.84 741.659 217.264C741.339 216.672 740.907 216.224 740.363 215.92C739.819 215.6 739.235 215.44 738.611 215.44C737.987 215.44 737.411 215.592 736.883 215.896C736.355 216.2 735.923 216.648 735.587 217.24C735.267 217.816 735.107 218.504 735.107 219.304C735.107 220.104 735.267 220.808 735.587 221.416C735.923 222.008 736.355 222.464 736.883 222.784C737.427 223.104 738.003 223.264 738.611 223.264C739.235 223.264 739.819 223.112 740.363 222.808C740.907 222.488 741.339 222.04 741.659 221.464C741.979 220.872 742.139 220.168 742.139 219.352Z" fill="black"/>
<g clip-path="url(#clip6_307_581)">
<circle cx="971.5" cy="86" r="75" fill="#D9D9D9"/>
<g clip-path="url(#clip7_307_581)">
<path d="M884.5 11H1057.5V161H884.5V11Z" fill="#EF3340"/>
<path d="M884.5 11H999.833V161H884.5V11Z" fill="#FDDA25"/>
<path d="M884.5 11H942.167V161H884.5V11Z" fill="black"/>
</g>
</g>
<path d="M936.004 209.248V211.96H929.02V216.256H934.372V218.92H929.02V226H925.66V209.248H936.004ZM941.746 208.24V226H938.386V208.24H941.746ZM957.426 219.064C957.426 219.544 957.394 219.976 957.33 220.36H947.61C947.69 221.32 948.026 222.072 948.618 222.616C949.21 223.16 949.938 223.432 950.802 223.432C952.05 223.432 952.938 222.896 953.466 221.824H957.09C956.706 223.104 955.97 224.16 954.882 224.992C953.794 225.808 952.458 226.216 950.874 226.216C949.594 226.216 948.442 225.936 947.418 225.376C946.41 224.8 945.618 223.992 945.042 222.952C944.482 221.912 944.202 220.712 944.202 219.352C944.202 217.976 944.482 216.768 945.042 215.728C945.602 214.688 946.386 213.888 947.394 213.328C948.402 212.768 949.562 212.488 950.874 212.488C952.138 212.488 953.266 212.76 954.258 213.304C955.266 213.848 956.042 214.624 956.586 215.632C957.146 216.624 957.426 217.768 957.426 219.064ZM953.946 218.104C953.93 217.24 953.618 216.552 953.01 216.04C952.402 215.512 951.658 215.248 950.778 215.248C949.946 215.248 949.242 215.504 948.666 216.016C948.106 216.512 947.762 217.208 947.634 218.104H953.946ZM976.391 212.512C978.023 212.512 979.335 213.016 980.327 214.024C981.335 215.016 981.839 216.408 981.839 218.2V226H978.479V218.656C978.479 217.616 978.215 216.824 977.687 216.28C977.159 215.72 976.439 215.44 975.527 215.44C974.615 215.44 973.887 215.72 973.343 216.28C972.815 216.824 972.551 217.616 972.551 218.656V226H969.191V218.656C969.191 217.616 968.927 216.824 968.399 216.28C967.871 215.72 967.151 215.44 966.239 215.44C965.311 215.44 964.575 215.72 964.031 216.28C963.503 216.824 963.239 217.616 963.239 218.656V226H959.879V212.704H963.239V214.312C963.671 213.752 964.223 213.312 964.895 212.992C965.583 212.672 966.335 212.512 967.151 212.512C968.191 212.512 969.119 212.736 969.935 213.184C970.751 213.616 971.383 214.24 971.831 215.056C972.263 214.288 972.887 213.672 973.703 213.208C974.535 212.744 975.431 212.512 976.391 212.512ZM986.731 211.12C986.139 211.12 985.643 210.936 985.243 210.568C984.859 210.184 984.667 209.712 984.667 209.152C984.667 208.592 984.859 208.128 985.243 207.76C985.643 207.376 986.139 207.184 986.731 207.184C987.323 207.184 987.811 207.376 988.195 207.76C988.595 208.128 988.795 208.592 988.795 209.152C988.795 209.712 988.595 210.184 988.195 210.568C987.811 210.936 987.323 211.12 986.731 211.12ZM988.387 212.704V226H985.027V212.704H988.387ZM996.795 226.216C995.707 226.216 994.731 226.024 993.867 225.64C993.003 225.24 992.315 224.704 991.803 224.032C991.307 223.36 991.035 222.616 990.987 221.8H994.371C994.435 222.312 994.683 222.736 995.115 223.072C995.563 223.408 996.115 223.576 996.771 223.576C997.411 223.576 997.907 223.448 998.259 223.192C998.627 222.936 998.811 222.608 998.811 222.208C998.811 221.776 998.587 221.456 998.139 221.248C997.707 221.024 997.011 220.784 996.051 220.528C995.059 220.288 994.243 220.04 993.603 219.784C992.979 219.528 992.435 219.136 991.971 218.608C991.523 218.08 991.299 217.368 991.299 216.472C991.299 215.736 991.507 215.064 991.923 214.456C992.355 213.848 992.963 213.368 993.747 213.016C994.547 212.664 995.483 212.488 996.555 212.488C998.139 212.488 999.403 212.888 1000.35 213.688C1001.29 214.472 1001.81 215.536 1001.91 216.88H998.691C998.643 216.352 998.419 215.936 998.019 215.632C997.635 215.312 997.115 215.152 996.459 215.152C995.851 215.152 995.379 215.264 995.043 215.488C994.723 215.712 994.563 216.024 994.563 216.424C994.563 216.872 994.787 217.216 995.235 217.456C995.683 217.68 996.379 217.912 997.323 218.152C998.283 218.392 999.075 218.64 999.699 218.896C1000.32 219.152 1000.86 219.552 1001.31 220.096C1001.77 220.624 1002.01 221.328 1002.03 222.208C1002.03 222.976 1001.81 223.664 1001.38 224.272C1000.96 224.88 1000.35 225.36 999.555 225.712C998.771 226.048 997.851 226.216 996.795 226.216ZM1012.27 212.512C1013.28 212.512 1014.18 212.736 1014.96 213.184C1015.74 213.616 1016.35 214.264 1016.78 215.128C1017.23 215.976 1017.46 217 1017.46 218.2V226H1014.1V218.656C1014.1 217.6 1013.83 216.792 1013.3 216.232C1012.78 215.656 1012.06 215.368 1011.14 215.368C1010.22 215.368 1009.48 215.656 1008.94 216.232C1008.41 216.792 1008.14 217.6 1008.14 218.656V226H1004.78V208.24H1008.14V214.36C1008.58 213.784 1009.15 213.336 1009.87 213.016C1010.59 212.68 1011.39 212.512 1012.27 212.512Z" fill="black"/>
<defs>
<clipPath id="clip0_307_581">
<rect x="53.5" y="11" width="150" height="150" rx="75" fill="white"/>
</clipPath>
<clipPath id="clip1_307_581">
<rect width="236" height="150" fill="white" transform="translate(10.5 11)"/>
</clipPath>
<clipPath id="clip2_307_581">
<rect x="334.5" y="11" width="150" height="150" rx="75" fill="white"/>
</clipPath>
<clipPath id="clip3_307_581">
<rect width="300" height="150" fill="white" transform="translate(298.5 11)"/>
</clipPath>
<clipPath id="clip4_307_581">
<rect x="615.5" y="11" width="150" height="150" rx="75" fill="white"/>
</clipPath>
<clipPath id="clip5_307_581">
<rect width="245" height="150" fill="white" transform="translate(577.5 11)"/>
</clipPath>
<clipPath id="clip6_307_581">
<rect x="896.5" y="11" width="150" height="150" rx="75" fill="white"/>
</clipPath>
<clipPath id="clip7_307_581">
<rect width="173" height="150" fill="white" transform="translate(884.5 11)"/>
</clipPath>
</defs>
</svg>
