<svg width="1100" height="240" viewBox="0 0 1100 240" fill="none" xmlns="http://www.w3.org/2000/svg">
<g clip-path="url(#clip0_307_600)">
<circle cx="128.5" cy="86" r="75" fill="#D9D9D9"/>
<g clip-path="url(#clip1_307_600)">
<path d="M16.5 11H241.5V161H16.5V11Z" fill="white"/>
<path d="M16.5 11H241.5V61H16.5V11Z" fill="#FF6820"/>
<path d="M16.5 111H241.5V161H16.5V111Z" fill="#046A38"/>
<path d="M129 109.125C141.772 109.125 152.125 98.7716 152.125 86C152.125 73.2284 141.772 62.875 129 62.875C116.228 62.875 105.875 73.2284 105.875 86C105.875 98.7716 116.228 109.125 129 109.125Z" fill="#07038D"/>
<path d="M129 106C140.046 106 149 97.0457 149 86C149 74.9543 140.046 66 129 66C117.954 66 109 74.9543 109 86C109 97.0457 117.954 106 129 106Z" fill="white"/>
<path d="M129 90C131.209 90 133 88.2091 133 86C133 83.7909 131.209 82 129 82C126.791 82 125 83.7909 125 86C125 88.2091 126.791 90 129 90Z" fill="#07038D"/>
<path d="M129 66L129.75 78.0352L129 83.9941L128.25 78.0352L129 66Z" fill="#07038D"/>
<path d="M131.495 67.0387C131.974 67.1018 132.413 66.7645 132.476 66.2854C132.539 65.8063 132.202 65.3667 131.723 65.3037C131.244 65.2406 130.804 65.5779 130.741 66.057C130.678 66.5361 131.015 66.9756 131.495 67.0387Z" fill="#07038D"/>
<path d="M129 106L128.25 93.9648L129 88.0059L129.75 93.9648L129 106Z" fill="#07038D"/>
<path d="M126.505 104.961C126.026 104.898 125.587 105.235 125.524 105.715C125.461 106.194 125.798 106.633 126.277 106.696C126.756 106.759 127.196 106.422 127.259 105.943C127.322 105.464 126.985 105.024 126.505 104.961Z" fill="#07038D"/>
<path d="M134.178 66.6824L131.787 78.5016L129.52 84.0634L130.338 78.1134L134.178 66.6824Z" fill="#07038D"/>
<path d="M136.322 68.3315C136.769 68.5165 137.281 68.3044 137.466 67.858C137.65 67.4115 137.438 66.8997 136.992 66.7147C136.546 66.5298 136.034 66.7418 135.849 67.1883C135.664 67.6347 135.876 68.1466 136.322 68.3315Z" fill="#07038D"/>
<path d="M123.826 105.319L126.217 93.4993L128.484 87.9376L127.666 93.8876L123.826 105.319Z" fill="#07038D"/>
<path d="M121.682 103.669C121.235 103.485 120.723 103.697 120.538 104.143C120.353 104.589 120.565 105.101 121.012 105.286C121.458 105.471 121.97 105.259 122.155 104.813C122.34 104.366 122.128 103.854 121.682 103.669Z" fill="#07038D"/>
<path d="M139.001 68.6797L133.633 79.4775L130.004 84.2631L132.334 78.7275L139.001 68.6797Z" fill="#07038D"/>
<path d="M140.644 70.8273C141.028 71.1215 141.577 71.0492 141.871 70.6658C142.166 70.2824 142.093 69.7331 141.71 69.4389C141.326 69.1447 140.777 69.217 140.483 69.6004C140.189 69.9838 140.261 70.5331 140.644 70.8273Z" fill="#07038D"/>
<path d="M119.003 103.32L124.371 92.5225L128 87.7369L125.67 93.2725L119.003 103.32Z" fill="#07038D"/>
<path d="M117.359 101.173C116.976 100.879 116.427 100.951 116.133 101.334C115.838 101.718 115.911 102.267 116.294 102.561C116.677 102.855 117.227 102.783 117.521 102.4C117.815 102.016 117.743 101.467 117.359 101.173Z" fill="#07038D"/>
<path d="M143.14 71.8585L135.16 80.899L130.416 84.5822L134.099 79.8383L143.14 71.8585Z" fill="#07038D"/>
<path d="M144.172 74.3572C144.466 74.7406 145.015 74.8129 145.398 74.5187C145.782 74.2245 145.854 73.6752 145.56 73.2918C145.266 72.9085 144.717 72.8361 144.333 73.1303C143.95 73.4245 143.877 73.9738 144.172 74.3572Z" fill="#07038D"/>
<path d="M114.86 100.143L122.84 91.102L127.584 87.4188L123.901 92.1627L114.86 100.143Z" fill="#07038D"/>
<path d="M113.828 97.6438C113.534 97.2604 112.985 97.1881 112.602 97.4823C112.218 97.7765 112.146 98.3257 112.44 98.7091C112.734 99.0925 113.283 99.1648 113.667 98.8707C114.05 98.5765 114.123 98.0272 113.828 97.6438Z" fill="#07038D"/>
<path d="M146.324 76.0011L136.276 82.6682L130.741 84.9981L135.526 81.3692L146.324 76.0011Z" fill="#07038D"/>
<path d="M146.671 78.6822C146.856 79.1287 147.368 79.3407 147.814 79.1557C148.261 78.9708 148.473 78.459 148.288 78.0125C148.103 77.566 147.591 77.354 147.145 77.5389C146.698 77.7239 146.486 78.2357 146.671 78.6822Z" fill="#07038D"/>
<path d="M111.68 96.0009L121.727 89.3337L127.263 87.0038L122.477 90.6328L111.68 96.0009Z" fill="#07038D"/>
<path d="M111.333 93.3198C111.148 92.8733 110.636 92.6613 110.189 92.8462C109.743 93.0311 109.531 93.543 109.716 93.9895C109.901 94.4359 110.413 94.6479 110.859 94.463C111.306 94.2781 111.518 93.7662 111.333 93.3198Z" fill="#07038D"/>
<path d="M148.319 80.8241L136.888 84.6634L130.938 85.4813L136.5 83.2146L148.319 80.8241Z" fill="#07038D"/>
<path d="M147.961 83.5041C148.024 83.9833 148.464 84.3205 148.943 84.2574C149.422 84.1944 149.759 83.7548 149.696 83.2757C149.633 82.7966 149.194 82.4593 148.715 82.5224C148.235 82.5855 147.898 83.025 147.961 83.5041Z" fill="#07038D"/>
<path d="M109.681 91.1769L121.112 87.3375L127.062 86.5197L121.5 88.7864L109.681 91.1769Z" fill="#07038D"/>
<path d="M110.039 88.4968C109.976 88.0177 109.536 87.6805 109.057 87.7435C108.578 87.8066 108.241 88.2461 108.304 88.7253C108.367 89.2044 108.806 89.5416 109.285 89.4786C109.765 89.4155 110.102 88.976 110.039 88.4968Z" fill="#07038D"/>
<path d="M149 86L136.965 86.75L131.006 86L136.965 85.25L149 86Z" fill="#07038D"/>
<path d="M147.963 88.4965C147.9 88.9756 148.237 89.4152 148.717 89.4782C149.196 89.5413 149.635 89.2041 149.698 88.7249C149.761 88.2458 149.424 87.8063 148.945 87.7432C148.466 87.6801 148.026 88.0174 147.963 88.4965Z" fill="#07038D"/>
<path d="M109.004 86L121.039 85.25L126.998 86L121.039 86.75L109.004 86Z" fill="#07038D"/>
<path d="M110.041 83.5035C110.104 83.0244 109.766 82.5848 109.287 82.5218C108.808 82.4587 108.369 82.7959 108.306 83.2751C108.243 83.7542 108.58 84.1937 109.059 84.2568C109.538 84.3199 109.978 83.9826 110.041 83.5035Z" fill="#07038D"/>
<path d="M148.318 91.1766L136.498 88.7861L130.937 86.5194L136.887 87.3372L148.318 91.1766Z" fill="#07038D"/>
<path d="M146.669 93.3184C146.485 93.7648 146.697 94.2767 147.143 94.4616C147.589 94.6466 148.101 94.4345 148.286 93.9881C148.471 93.5416 148.259 93.0298 147.813 92.8448C147.366 92.6599 146.854 92.8719 146.669 93.3184Z" fill="#07038D"/>
<path d="M109.682 80.8234L121.502 83.2139L127.063 85.4806L121.113 84.6628L109.682 80.8234Z" fill="#07038D"/>
<path d="M111.331 78.6816C111.515 78.2352 111.303 77.7233 110.857 77.5384C110.411 77.3534 109.899 77.5655 109.714 78.0119C109.529 78.4584 109.741 78.9702 110.187 79.1552C110.634 79.3401 111.146 79.1281 111.331 78.6816Z" fill="#07038D"/>
<path d="M146.316 96.0001L135.519 90.632L130.733 87.003L136.269 89.333L146.316 96.0001Z" fill="#07038D"/>
<path d="M144.169 97.6425C143.875 98.0259 143.947 98.5752 144.33 98.8694C144.714 99.1636 145.263 99.0912 145.557 98.7079C145.851 98.3245 145.779 97.7752 145.396 97.481C145.012 97.1868 144.463 97.2591 144.169 97.6425Z" fill="#07038D"/>
<path d="M111.68 75.9999L122.477 81.368L127.263 84.997L121.727 82.667L111.68 75.9999Z" fill="#07038D"/>
<path d="M113.827 74.3575C114.121 73.9741 114.049 73.4248 113.666 73.1306C113.282 72.8364 112.733 72.9088 112.439 73.2921C112.145 73.6755 112.217 74.2248 112.6 74.519C112.984 74.8132 113.533 74.7409 113.827 74.3575Z" fill="#07038D"/>
<path d="M143.138 100.142L134.097 92.1618L130.414 87.4179L135.158 91.1011L143.138 100.142Z" fill="#07038D"/>
<path d="M140.639 101.172C140.256 101.466 140.183 102.015 140.477 102.398C140.772 102.782 141.321 102.854 141.704 102.56C142.088 102.266 142.16 101.717 141.866 101.333C141.572 100.95 141.022 100.877 140.639 101.172Z" fill="#07038D"/>
<path d="M114.858 71.8574L123.899 79.8372L127.582 84.5811L122.838 80.8979L114.858 71.8574Z" fill="#07038D"/>
<path d="M117.357 70.8274C117.741 70.5332 117.813 69.9839 117.519 69.6005C117.225 69.2171 116.675 69.1448 116.292 69.439C115.908 69.7332 115.836 70.2825 116.13 70.6659C116.425 71.0493 116.974 71.1216 117.357 70.8274Z" fill="#07038D"/>
<path d="M139.003 103.32L132.336 93.2725L130.006 87.7369L133.635 92.5225L139.003 103.32Z" fill="#07038D"/>
<path d="M136.323 103.669C135.876 103.854 135.664 104.366 135.849 104.812C136.034 105.259 136.546 105.471 136.992 105.286C137.439 105.101 137.651 104.589 137.466 104.143C137.281 103.696 136.769 103.484 136.323 103.669Z" fill="#07038D"/>
<path d="M119.001 68.6797L125.668 78.7275L127.998 84.2631L124.369 79.4775L119.001 68.6797Z" fill="#07038D"/>
<path d="M121.681 68.3308C122.128 68.1458 122.34 67.634 122.155 67.1875C121.97 66.7411 121.458 66.529 121.012 66.714C120.565 66.8989 120.353 67.4108 120.538 67.8572C120.723 68.3037 121.235 68.5157 121.681 68.3308Z" fill="#07038D"/>
<path d="M134.174 105.318L130.335 93.8871L129.517 87.9371L131.783 93.4989L134.174 105.318Z" fill="#07038D"/>
<path d="M131.494 104.961C131.015 105.024 130.678 105.464 130.741 105.943C130.804 106.422 131.243 106.759 131.722 106.696C132.201 106.633 132.539 106.194 132.476 105.715C132.413 105.235 131.973 104.898 131.494 104.961Z" fill="#07038D"/>
<path d="M123.822 66.6819L127.661 78.1129L128.479 84.0629L126.213 78.5011L123.822 66.6819Z" fill="#07038D"/>
<path d="M126.502 67.0388C126.981 66.9757 127.319 66.5362 127.255 66.0571C127.192 65.5779 126.753 65.2407 126.274 65.3038C125.795 65.3668 125.457 65.8064 125.52 66.2855C125.584 66.7646 126.023 67.1019 126.502 67.0388Z" fill="#07038D"/>
</g>
</g>
<path d="M95.5661 214.288C95.1821 213.584 94.6541 213.048 93.9821 212.68C93.3101 212.312 92.5261 212.128 91.6301 212.128C90.6381 212.128 89.7581 212.352 88.9901 212.8C88.2221 213.248 87.6221 213.888 87.1901 214.72C86.7581 215.552 86.5421 216.512 86.5421 217.6C86.5421 218.72 86.7581 219.696 87.1901 220.528C87.6381 221.36 88.2541 222 89.0381 222.448C89.8221 222.896 90.7341 223.12 91.7741 223.12C93.0541 223.12 94.1021 222.784 94.9181 222.112C95.7341 221.424 96.2701 220.472 96.5261 219.256H90.7661V216.688H99.8381V219.616C99.6141 220.784 99.1341 221.864 98.3981 222.856C97.6621 223.848 96.7101 224.648 95.5421 225.256C94.3901 225.848 93.0941 226.144 91.6541 226.144C90.0381 226.144 88.5741 225.784 87.2621 225.064C85.9661 224.328 84.9421 223.312 84.1901 222.016C83.4541 220.72 83.0861 219.248 83.0861 217.6C83.0861 215.952 83.4541 214.48 84.1901 213.184C84.9421 211.872 85.9661 210.856 87.2621 210.136C88.5741 209.4 90.0301 209.032 91.6301 209.032C93.5181 209.032 95.1581 209.496 96.5501 210.424C97.9421 211.336 98.9021 212.624 99.4301 214.288H95.5661ZM114.876 212.704V226H111.492V224.32C111.06 224.896 110.492 225.352 109.788 225.688C109.1 226.008 108.348 226.168 107.532 226.168C106.492 226.168 105.572 225.952 104.772 225.52C103.972 225.072 103.34 224.424 102.876 223.576C102.428 222.712 102.204 221.688 102.204 220.504V212.704H105.564V220.024C105.564 221.08 105.828 221.896 106.356 222.472C106.884 223.032 107.604 223.312 108.516 223.312C109.444 223.312 110.172 223.032 110.7 222.472C111.228 221.896 111.492 221.08 111.492 220.024V212.704H114.876ZM119.895 211.12C119.287 211.12 118.783 210.936 118.383 210.568C117.999 210.184 117.807 209.712 117.807 209.152C117.807 208.592 117.999 208.128 118.383 207.76C118.783 207.376 119.287 207.184 119.895 207.184C120.487 207.184 120.975 207.376 121.359 207.76C121.743 208.128 121.935 208.592 121.935 209.152C121.935 209.712 121.743 210.184 121.359 210.568C120.975 210.936 120.487 211.12 119.895 211.12ZM121.551 228.184C121.551 229.656 121.183 230.712 120.447 231.352C119.727 232.008 118.687 232.336 117.327 232.336H115.839V229.48H116.799C117.311 229.48 117.671 229.376 117.879 229.168C118.087 228.976 118.191 228.656 118.191 228.208V212.704H121.551V228.184ZM124.007 219.304C124.007 217.96 124.271 216.768 124.799 215.728C125.343 214.688 126.071 213.888 126.983 213.328C127.911 212.768 128.943 212.488 130.079 212.488C131.071 212.488 131.935 212.688 132.671 213.088C133.423 213.488 134.023 213.992 134.471 214.6V212.704H137.855V226H134.471V224.056C134.039 224.68 133.439 225.2 132.671 225.616C131.919 226.016 131.047 226.216 130.055 226.216C128.935 226.216 127.911 225.928 126.983 225.352C126.071 224.776 125.343 223.968 124.799 222.928C124.271 221.872 124.007 220.664 124.007 219.304ZM134.471 219.352C134.471 218.536 134.311 217.84 133.991 217.264C133.671 216.672 133.239 216.224 132.695 215.92C132.151 215.6 131.567 215.44 130.943 215.44C130.319 215.44 129.743 215.592 129.215 215.896C128.687 216.2 128.255 216.648 127.919 217.24C127.599 217.816 127.439 218.504 127.439 219.304C127.439 220.104 127.599 220.808 127.919 221.416C128.255 222.008 128.687 222.464 129.215 222.784C129.759 223.104 130.335 223.264 130.943 223.264C131.567 223.264 132.151 223.112 132.695 222.808C133.239 222.488 133.671 222.04 133.991 221.464C134.311 220.872 134.471 220.168 134.471 219.352ZM144.496 214.768C144.928 214.064 145.488 213.512 146.176 213.112C146.88 212.712 147.68 212.512 148.576 212.512V216.04H147.688C146.632 216.04 145.832 216.288 145.288 216.784C144.76 217.28 144.496 218.144 144.496 219.376V226H141.136V212.704H144.496V214.768ZM149.976 219.304C149.976 217.96 150.24 216.768 150.768 215.728C151.312 214.688 152.04 213.888 152.952 213.328C153.88 212.768 154.912 212.488 156.048 212.488C157.04 212.488 157.904 212.688 158.64 213.088C159.392 213.488 159.992 213.992 160.44 214.6V212.704H163.824V226H160.44V224.056C160.008 224.68 159.408 225.2 158.64 225.616C157.888 226.016 157.016 226.216 156.024 226.216C154.904 226.216 153.88 225.928 152.952 225.352C152.04 224.776 151.312 223.968 150.768 222.928C150.24 221.872 149.976 220.664 149.976 219.304ZM160.44 219.352C160.44 218.536 160.28 217.84 159.96 217.264C159.64 216.672 159.208 216.224 158.664 215.92C158.12 215.6 157.536 215.44 156.912 215.44C156.288 215.44 155.712 215.592 155.184 215.896C154.656 216.2 154.224 216.648 153.888 217.24C153.568 217.816 153.408 218.504 153.408 219.304C153.408 220.104 153.568 220.808 153.888 221.416C154.224 222.008 154.656 222.464 155.184 222.784C155.728 223.104 156.304 223.264 156.912 223.264C157.536 223.264 158.12 223.112 158.664 222.808C159.208 222.488 159.64 222.04 159.96 221.464C160.28 220.872 160.44 220.168 160.44 219.352ZM171.017 215.464V221.896C171.017 222.344 171.121 222.672 171.329 222.88C171.553 223.072 171.921 223.168 172.433 223.168H173.993V226H171.881C169.049 226 167.633 224.624 167.633 221.872V215.464H166.049V212.704H167.633V209.416H171.017V212.704H173.993V215.464H171.017Z" fill="black"/>
<g clip-path="url(#clip2_307_600)">
<circle cx="409.5" cy="86" r="75" fill="#D9D9D9"/>
<g clip-path="url(#clip3_307_600)">
<path d="M297.5 11H522.5V161H297.5V11Z" fill="white"/>
<path d="M297.5 11H522.5V61H297.5V11Z" fill="#FF6820"/>
<path d="M297.5 111H522.5V161H297.5V111Z" fill="#046A38"/>
<path d="M410 109.125C422.772 109.125 433.125 98.7716 433.125 86C433.125 73.2284 422.772 62.875 410 62.875C397.228 62.875 386.875 73.2284 386.875 86C386.875 98.7716 397.228 109.125 410 109.125Z" fill="#07038D"/>
<path d="M410 106C421.046 106 430 97.0457 430 86C430 74.9543 421.046 66 410 66C398.954 66 390 74.9543 390 86C390 97.0457 398.954 106 410 106Z" fill="white"/>
<path d="M410 90C412.209 90 414 88.2091 414 86C414 83.7909 412.209 82 410 82C407.791 82 406 83.7909 406 86C406 88.2091 407.791 90 410 90Z" fill="#07038D"/>
<path d="M410 66L410.75 78.0352L410 83.9941L409.25 78.0352L410 66Z" fill="#07038D"/>
<path d="M412.495 67.0387C412.974 67.1018 413.413 66.7645 413.476 66.2854C413.539 65.8063 413.202 65.3667 412.723 65.3037C412.244 65.2406 411.804 65.5779 411.741 66.057C411.678 66.5361 412.015 66.9756 412.495 67.0387Z" fill="#07038D"/>
<path d="M410 106L409.25 93.9648L410 88.0059L410.75 93.9648L410 106Z" fill="#07038D"/>
<path d="M407.505 104.961C407.026 104.898 406.587 105.235 406.524 105.715C406.461 106.194 406.798 106.633 407.277 106.696C407.756 106.759 408.196 106.422 408.259 105.943C408.322 105.464 407.985 105.024 407.505 104.961Z" fill="#07038D"/>
<path d="M415.178 66.6824L412.787 78.5016L410.52 84.0634L411.338 78.1134L415.178 66.6824Z" fill="#07038D"/>
<path d="M417.322 68.3315C417.769 68.5165 418.281 68.3044 418.466 67.858C418.65 67.4115 418.438 66.8997 417.992 66.7147C417.546 66.5298 417.034 66.7418 416.849 67.1883C416.664 67.6347 416.876 68.1466 417.322 68.3315Z" fill="#07038D"/>
<path d="M404.826 105.319L407.217 93.4993L409.484 87.9376L408.666 93.8876L404.826 105.319Z" fill="#07038D"/>
<path d="M402.682 103.669C402.235 103.485 401.723 103.697 401.538 104.143C401.353 104.589 401.565 105.101 402.012 105.286C402.458 105.471 402.97 105.259 403.155 104.813C403.34 104.366 403.128 103.854 402.682 103.669Z" fill="#07038D"/>
<path d="M420.001 68.6797L414.633 79.4775L411.004 84.2631L413.334 78.7275L420.001 68.6797Z" fill="#07038D"/>
<path d="M421.644 70.8273C422.028 71.1215 422.577 71.0492 422.871 70.6658C423.166 70.2824 423.093 69.7331 422.71 69.4389C422.326 69.1447 421.777 69.217 421.483 69.6004C421.189 69.9838 421.261 70.5331 421.644 70.8273Z" fill="#07038D"/>
<path d="M400.003 103.32L405.371 92.5225L409 87.7369L406.67 93.2725L400.003 103.32Z" fill="#07038D"/>
<path d="M398.359 101.173C397.976 100.879 397.427 100.951 397.133 101.334C396.838 101.718 396.911 102.267 397.294 102.561C397.677 102.855 398.227 102.783 398.521 102.4C398.815 102.016 398.743 101.467 398.359 101.173Z" fill="#07038D"/>
<path d="M424.14 71.8585L416.16 80.899L411.416 84.5822L415.099 79.8383L424.14 71.8585Z" fill="#07038D"/>
<path d="M425.172 74.3572C425.466 74.7406 426.015 74.8129 426.398 74.5187C426.782 74.2245 426.854 73.6752 426.56 73.2918C426.266 72.9085 425.717 72.8361 425.333 73.1303C424.95 73.4245 424.877 73.9738 425.172 74.3572Z" fill="#07038D"/>
<path d="M395.86 100.143L403.84 91.102L408.584 87.4188L404.901 92.1627L395.86 100.143Z" fill="#07038D"/>
<path d="M394.828 97.6438C394.534 97.2604 393.985 97.1881 393.602 97.4823C393.218 97.7765 393.146 98.3257 393.44 98.7091C393.734 99.0925 394.283 99.1648 394.667 98.8707C395.05 98.5765 395.123 98.0272 394.828 97.6438Z" fill="#07038D"/>
<path d="M427.324 76.0011L417.276 82.6682L411.741 84.9981L416.526 81.3692L427.324 76.0011Z" fill="#07038D"/>
<path d="M427.671 78.6822C427.856 79.1287 428.368 79.3407 428.814 79.1557C429.261 78.9708 429.473 78.459 429.288 78.0125C429.103 77.566 428.591 77.354 428.145 77.5389C427.698 77.7239 427.486 78.2357 427.671 78.6822Z" fill="#07038D"/>
<path d="M392.68 96.0009L402.727 89.3337L408.263 87.0038L403.477 90.6328L392.68 96.0009Z" fill="#07038D"/>
<path d="M392.333 93.3198C392.148 92.8733 391.636 92.6613 391.189 92.8462C390.743 93.0311 390.531 93.543 390.716 93.9895C390.901 94.4359 391.413 94.6479 391.859 94.463C392.306 94.2781 392.518 93.7662 392.333 93.3198Z" fill="#07038D"/>
<path d="M429.319 80.8241L417.888 84.6634L411.938 85.4813L417.5 83.2146L429.319 80.8241Z" fill="#07038D"/>
<path d="M428.961 83.5041C429.024 83.9833 429.464 84.3205 429.943 84.2574C430.422 84.1944 430.759 83.7548 430.696 83.2757C430.633 82.7966 430.194 82.4593 429.715 82.5224C429.235 82.5855 428.898 83.025 428.961 83.5041Z" fill="#07038D"/>
<path d="M390.681 91.1769L402.112 87.3375L408.062 86.5197L402.5 88.7864L390.681 91.1769Z" fill="#07038D"/>
<path d="M391.039 88.4968C390.976 88.0177 390.536 87.6805 390.057 87.7435C389.578 87.8066 389.241 88.2461 389.304 88.7253C389.367 89.2044 389.806 89.5416 390.285 89.4786C390.765 89.4155 391.102 88.976 391.039 88.4968Z" fill="#07038D"/>
<path d="M430 86L417.965 86.75L412.006 86L417.965 85.25L430 86Z" fill="#07038D"/>
<path d="M428.963 88.4965C428.9 88.9756 429.237 89.4152 429.717 89.4782C430.196 89.5413 430.635 89.2041 430.698 88.7249C430.761 88.2458 430.424 87.8063 429.945 87.7432C429.466 87.6801 429.026 88.0174 428.963 88.4965Z" fill="#07038D"/>
<path d="M390.004 86L402.039 85.25L407.998 86L402.039 86.75L390.004 86Z" fill="#07038D"/>
<path d="M391.041 83.5035C391.104 83.0244 390.766 82.5848 390.287 82.5218C389.808 82.4587 389.369 82.7959 389.306 83.2751C389.243 83.7542 389.58 84.1937 390.059 84.2568C390.538 84.3199 390.978 83.9826 391.041 83.5035Z" fill="#07038D"/>
<path d="M429.318 91.1766L417.498 88.7861L411.937 86.5194L417.887 87.3372L429.318 91.1766Z" fill="#07038D"/>
<path d="M427.669 93.3184C427.485 93.7648 427.697 94.2767 428.143 94.4616C428.589 94.6466 429.101 94.4345 429.286 93.9881C429.471 93.5416 429.259 93.0298 428.813 92.8448C428.366 92.6599 427.854 92.8719 427.669 93.3184Z" fill="#07038D"/>
<path d="M390.682 80.8234L402.502 83.2139L408.063 85.4806L402.113 84.6628L390.682 80.8234Z" fill="#07038D"/>
<path d="M392.331 78.6816C392.515 78.2352 392.303 77.7233 391.857 77.5384C391.411 77.3534 390.899 77.5655 390.714 78.0119C390.529 78.4584 390.741 78.9702 391.187 79.1552C391.634 79.3401 392.146 79.1281 392.331 78.6816Z" fill="#07038D"/>
<path d="M427.316 96.0001L416.519 90.632L411.733 87.003L417.269 89.333L427.316 96.0001Z" fill="#07038D"/>
<path d="M425.169 97.6425C424.875 98.0259 424.947 98.5752 425.33 98.8694C425.714 99.1636 426.263 99.0912 426.557 98.7079C426.851 98.3245 426.779 97.7752 426.396 97.481C426.012 97.1868 425.463 97.2591 425.169 97.6425Z" fill="#07038D"/>
<path d="M392.68 75.9999L403.477 81.368L408.263 84.997L402.727 82.667L392.68 75.9999Z" fill="#07038D"/>
<path d="M394.827 74.3575C395.121 73.9741 395.049 73.4248 394.666 73.1306C394.282 72.8364 393.733 72.9088 393.439 73.2921C393.145 73.6755 393.217 74.2248 393.6 74.519C393.984 74.8132 394.533 74.7409 394.827 74.3575Z" fill="#07038D"/>
<path d="M424.138 100.142L415.097 92.1618L411.414 87.4179L416.158 91.1011L424.138 100.142Z" fill="#07038D"/>
<path d="M421.639 101.172C421.256 101.466 421.183 102.015 421.477 102.398C421.772 102.782 422.321 102.854 422.704 102.56C423.088 102.266 423.16 101.717 422.866 101.333C422.572 100.95 422.022 100.877 421.639 101.172Z" fill="#07038D"/>
<path d="M395.858 71.8574L404.899 79.8372L408.582 84.5811L403.838 80.8979L395.858 71.8574Z" fill="#07038D"/>
<path d="M398.357 70.8274C398.741 70.5332 398.813 69.9839 398.519 69.6005C398.225 69.2171 397.675 69.1448 397.292 69.439C396.908 69.7332 396.836 70.2825 397.13 70.6659C397.425 71.0493 397.974 71.1216 398.357 70.8274Z" fill="#07038D"/>
<path d="M420.003 103.32L413.336 93.2725L411.006 87.7369L414.635 92.5225L420.003 103.32Z" fill="#07038D"/>
<path d="M417.323 103.669C416.876 103.854 416.664 104.366 416.849 104.812C417.034 105.259 417.546 105.471 417.992 105.286C418.439 105.101 418.651 104.589 418.466 104.143C418.281 103.696 417.769 103.484 417.323 103.669Z" fill="#07038D"/>
<path d="M400.001 68.6797L406.668 78.7275L408.998 84.2631L405.369 79.4775L400.001 68.6797Z" fill="#07038D"/>
<path d="M402.681 68.3308C403.128 68.1458 403.34 67.634 403.155 67.1875C402.97 66.7411 402.458 66.529 402.012 66.714C401.565 66.8989 401.353 67.4108 401.538 67.8572C401.723 68.3037 402.235 68.5157 402.681 68.3308Z" fill="#07038D"/>
<path d="M415.174 105.318L411.335 93.8871L410.517 87.9371L412.783 93.4989L415.174 105.318Z" fill="#07038D"/>
<path d="M412.494 104.961C412.015 105.024 411.678 105.464 411.741 105.943C411.804 106.422 412.243 106.759 412.722 106.696C413.201 106.633 413.539 106.194 413.476 105.715C413.413 105.235 412.973 104.898 412.494 104.961Z" fill="#07038D"/>
<path d="M404.822 66.6819L408.661 78.1129L409.479 84.0629L407.213 78.5011L404.822 66.6819Z" fill="#07038D"/>
<path d="M407.502 67.0388C407.981 66.9757 408.319 66.5362 408.255 66.0571C408.192 65.5779 407.753 65.2407 407.274 65.3038C406.795 65.3668 406.457 65.8064 406.52 66.2855C406.584 66.7646 407.023 67.1019 407.502 67.0388Z" fill="#07038D"/>
</g>
</g>
<path d="M393.704 209.248V226H390.344V218.872H383.168V226H379.808V209.248H383.168V216.136H390.344V209.248H393.704ZM398.715 211.12C398.123 211.12 397.627 210.936 397.227 210.568C396.843 210.184 396.651 209.712 396.651 209.152C396.651 208.592 396.843 208.128 397.227 207.76C397.627 207.376 398.123 207.184 398.715 207.184C399.307 207.184 399.795 207.376 400.179 207.76C400.579 208.128 400.779 208.592 400.779 209.152C400.779 209.712 400.579 210.184 400.179 210.568C399.795 210.936 399.307 211.12 398.715 211.12ZM400.371 212.704V226H397.011V212.704H400.371ZM411.059 212.512C412.643 212.512 413.923 213.016 414.899 214.024C415.875 215.016 416.363 216.408 416.363 218.2V226H413.003V218.656C413.003 217.6 412.739 216.792 412.211 216.232C411.683 215.656 410.963 215.368 410.051 215.368C409.123 215.368 408.387 215.656 407.843 216.232C407.315 216.792 407.051 217.6 407.051 218.656V226H403.691V212.704H407.051V214.36C407.499 213.784 408.067 213.336 408.755 213.016C409.459 212.68 410.227 212.512 411.059 212.512ZM418.694 219.304C418.694 217.96 418.958 216.768 419.486 215.728C420.03 214.688 420.766 213.888 421.694 213.328C422.622 212.768 423.654 212.488 424.79 212.488C425.654 212.488 426.478 212.68 427.262 213.064C428.046 213.432 428.67 213.928 429.134 214.552V208.24H432.542V226H429.134V224.032C428.718 224.688 428.134 225.216 427.382 225.616C426.63 226.016 425.758 226.216 424.766 226.216C423.646 226.216 422.622 225.928 421.694 225.352C420.766 224.776 420.03 223.968 419.486 222.928C418.958 221.872 418.694 220.664 418.694 219.304ZM429.158 219.352C429.158 218.536 428.998 217.84 428.678 217.264C428.358 216.672 427.926 216.224 427.382 215.92C426.838 215.6 426.254 215.44 425.63 215.44C425.006 215.44 424.43 215.592 423.902 215.896C423.374 216.2 422.942 216.648 422.606 217.24C422.286 217.816 422.126 218.504 422.126 219.304C422.126 220.104 422.286 220.808 422.606 221.416C422.942 222.008 423.374 222.464 423.902 222.784C424.446 223.104 425.022 223.264 425.63 223.264C426.254 223.264 426.838 223.112 427.382 222.808C427.926 222.488 428.358 222.04 428.678 221.464C428.998 220.872 429.158 220.168 429.158 219.352ZM437.528 211.12C436.936 211.12 436.44 210.936 436.04 210.568C435.656 210.184 435.464 209.712 435.464 209.152C435.464 208.592 435.656 208.128 436.04 207.76C436.44 207.376 436.936 207.184 437.528 207.184C438.12 207.184 438.608 207.376 438.992 207.76C439.392 208.128 439.592 208.592 439.592 209.152C439.592 209.712 439.392 210.184 438.992 210.568C438.608 210.936 438.12 211.12 437.528 211.12ZM439.184 212.704V226H435.824V212.704H439.184Z" fill="black"/>
<g clip-path="url(#clip4_307_600)">
<circle cx="690.5" cy="86" r="75" fill="#D9D9D9"/>
<g clip-path="url(#clip5_307_600)">
<path d="M558.5 11H858.5V161H558.5" fill="#477050"/>
<path d="M558.5 11H858.5V111H558.5" fill="white"/>
<path d="M558.5 11H858.5V61H558.5" fill="#CE2939"/>
</g>
</g>
<path d="M648.993 209.248V226H645.633V218.872H638.457V226H635.097V209.248H638.457V216.136H645.633V209.248H648.993ZM664.853 212.704V226H661.469V224.32C661.037 224.896 660.469 225.352 659.765 225.688C659.077 226.008 658.325 226.168 657.509 226.168C656.469 226.168 655.549 225.952 654.749 225.52C653.949 225.072 653.317 224.424 652.853 223.576C652.405 222.712 652.181 221.688 652.181 220.504V212.704H655.541V220.024C655.541 221.08 655.805 221.896 656.333 222.472C656.861 223.032 657.581 223.312 658.493 223.312C659.421 223.312 660.149 223.032 660.677 222.472C661.205 221.896 661.469 221.08 661.469 220.024V212.704H664.853ZM675.536 212.512C677.12 212.512 678.4 213.016 679.376 214.024C680.352 215.016 680.84 216.408 680.84 218.2V226H677.48V218.656C677.48 217.6 677.216 216.792 676.688 216.232C676.16 215.656 675.44 215.368 674.528 215.368C673.6 215.368 672.864 215.656 672.32 216.232C671.792 216.792 671.528 217.6 671.528 218.656V226H668.168V212.704H671.528V214.36C671.976 213.784 672.544 213.336 673.232 213.016C673.936 212.68 674.704 212.512 675.536 212.512ZM689.243 212.488C690.235 212.488 691.107 212.688 691.859 213.088C692.611 213.472 693.203 213.976 693.635 214.6V212.704H697.019V226.096C697.019 227.328 696.771 228.424 696.275 229.384C695.779 230.36 695.035 231.128 694.043 231.688C693.051 232.264 691.851 232.552 690.443 232.552C688.555 232.552 687.003 232.112 685.787 231.232C684.587 230.352 683.907 229.152 683.747 227.632H687.083C687.259 228.24 687.635 228.72 688.211 229.072C688.803 229.44 689.515 229.624 690.347 229.624C691.323 229.624 692.115 229.328 692.723 228.736C693.331 228.16 693.635 227.28 693.635 226.096V224.032C693.203 224.656 692.603 225.176 691.835 225.592C691.083 226.008 690.219 226.216 689.243 226.216C688.123 226.216 687.099 225.928 686.171 225.352C685.243 224.776 684.507 223.968 683.963 222.928C683.435 221.872 683.171 220.664 683.171 219.304C683.171 217.96 683.435 216.768 683.963 215.728C684.507 214.688 685.235 213.888 686.147 213.328C687.075 212.768 688.107 212.488 689.243 212.488ZM693.635 219.352C693.635 218.536 693.475 217.84 693.155 217.264C692.835 216.672 692.403 216.224 691.859 215.92C691.315 215.6 690.731 215.44 690.107 215.44C689.483 215.44 688.907 215.592 688.379 215.896C687.851 216.2 687.419 216.648 687.083 217.24C686.763 217.816 686.603 218.504 686.603 219.304C686.603 220.104 686.763 220.808 687.083 221.416C687.419 222.008 687.851 222.464 688.379 222.784C688.923 223.104 689.499 223.264 690.107 223.264C690.731 223.264 691.315 223.112 691.859 222.808C692.403 222.488 692.835 222.04 693.155 221.464C693.475 220.872 693.635 220.168 693.635 219.352ZM699.437 219.304C699.437 217.96 699.701 216.768 700.229 215.728C700.773 214.688 701.501 213.888 702.413 213.328C703.341 212.768 704.373 212.488 705.509 212.488C706.501 212.488 707.365 212.688 708.101 213.088C708.853 213.488 709.453 213.992 709.901 214.6V212.704H713.285V226H709.901V224.056C709.469 224.68 708.869 225.2 708.101 225.616C707.349 226.016 706.477 226.216 705.485 226.216C704.365 226.216 703.341 225.928 702.413 225.352C701.501 224.776 700.773 223.968 700.229 222.928C699.701 221.872 699.437 220.664 699.437 219.304ZM709.901 219.352C709.901 218.536 709.741 217.84 709.421 217.264C709.101 216.672 708.669 216.224 708.125 215.92C707.581 215.6 706.997 215.44 706.373 215.44C705.749 215.44 705.173 215.592 704.645 215.896C704.117 216.2 703.685 216.648 703.349 217.24C703.029 217.816 702.869 218.504 702.869 219.304C702.869 220.104 703.029 220.808 703.349 221.416C703.685 222.008 704.117 222.464 704.645 222.784C705.189 223.104 705.765 223.264 706.373 223.264C706.997 223.264 707.581 223.112 708.125 222.808C708.669 222.488 709.101 222.04 709.421 221.464C709.741 220.872 709.901 220.168 709.901 219.352ZM719.926 214.768C720.358 214.064 720.918 213.512 721.606 213.112C722.31 212.712 723.11 212.512 724.006 212.512V216.04H723.118C722.062 216.04 721.262 216.288 720.718 216.784C720.19 217.28 719.926 218.144 719.926 219.376V226H716.566V212.704H719.926V214.768ZM727.973 211.12C727.381 211.12 726.885 210.936 726.485 210.568C726.101 210.184 725.909 209.712 725.909 209.152C725.909 208.592 726.101 208.128 726.485 207.76C726.885 207.376 727.381 207.184 727.973 207.184C728.565 207.184 729.053 207.376 729.437 207.76C729.837 208.128 730.037 208.592 730.037 209.152C730.037 209.712 729.837 210.184 729.437 210.568C729.053 210.936 728.565 211.12 727.973 211.12ZM729.629 212.704V226H726.269V212.704H729.629ZM732.085 219.304C732.085 217.96 732.349 216.768 732.877 215.728C733.421 214.688 734.149 213.888 735.061 213.328C735.989 212.768 737.021 212.488 738.157 212.488C739.149 212.488 740.013 212.688 740.749 213.088C741.501 213.488 742.101 213.992 742.549 214.6V212.704H745.933V226H742.549V224.056C742.117 224.68 741.517 225.2 740.749 225.616C739.997 226.016 739.125 226.216 738.133 226.216C737.013 226.216 735.989 225.928 735.061 225.352C734.149 224.776 733.421 223.968 732.877 222.928C732.349 221.872 732.085 220.664 732.085 219.304ZM742.549 219.352C742.549 218.536 742.389 217.84 742.069 217.264C741.749 216.672 741.317 216.224 740.773 215.92C740.229 215.6 739.645 215.44 739.021 215.44C738.397 215.44 737.821 215.592 737.293 215.896C736.765 216.2 736.333 216.648 735.997 217.24C735.677 217.816 735.517 218.504 735.517 219.304C735.517 220.104 735.677 220.808 735.997 221.416C736.333 222.008 736.765 222.464 737.293 222.784C737.837 223.104 738.413 223.264 739.021 223.264C739.645 223.264 740.229 223.112 740.773 222.808C741.317 222.488 741.749 222.04 742.069 221.464C742.389 220.872 742.549 220.168 742.549 219.352Z" fill="black"/>
<g clip-path="url(#clip6_307_600)">
<circle cx="971.5" cy="86" r="75" fill="#D9D9D9"/>
<g clip-path="url(#clip7_307_600)">
<path d="M868.5 11H1074.5V161H868.5V11Z" fill="white"/>
<path d="M868.5 30H1074.5V53.4375H868.5V30Z" fill="#0038B8"/>
<path d="M868.5 115.438H1074.5V138.875H868.5V115.438Z" fill="#0038B8"/>
<path d="M947.867 99.6602H995.129L971.498 58.6807L947.867 99.6602ZM971.498 113.32L995.129 72.3405H947.867L971.498 113.32Z" stroke="#0038B8" stroke-width="4"/>
</g>
</g>
<path d="M940.786 209.248V226H937.426V209.248H940.786ZM947.465 214.648C947.897 214.008 948.489 213.488 949.241 213.088C950.009 212.688 950.881 212.488 951.857 212.488C952.993 212.488 954.017 212.768 954.929 213.328C955.857 213.888 956.585 214.688 957.113 215.728C957.657 216.752 957.929 217.944 957.929 219.304C957.929 220.664 957.657 221.872 957.113 222.928C956.585 223.968 955.857 224.776 954.929 225.352C954.017 225.928 952.993 226.216 951.857 226.216C950.865 226.216 949.993 226.024 949.241 225.64C948.505 225.24 947.913 224.728 947.465 224.104V226H944.105V208.24H947.465V214.648ZM954.497 219.304C954.497 218.504 954.329 217.816 953.993 217.24C953.673 216.648 953.241 216.2 952.697 215.896C952.169 215.592 951.593 215.44 950.969 215.44C950.361 215.44 949.785 215.6 949.241 215.92C948.713 216.224 948.281 216.672 947.945 217.264C947.625 217.856 947.465 218.552 947.465 219.352C947.465 220.152 947.625 220.848 947.945 221.44C948.281 222.032 948.713 222.488 949.241 222.808C949.785 223.112 950.361 223.264 950.969 223.264C951.593 223.264 952.169 223.104 952.697 222.784C953.241 222.464 953.673 222.008 953.993 221.416C954.329 220.824 954.497 220.12 954.497 219.304ZM963.731 214.768C964.163 214.064 964.723 213.512 965.411 213.112C966.115 212.712 966.915 212.512 967.811 212.512V216.04H966.923C965.867 216.04 965.067 216.288 964.523 216.784C963.995 217.28 963.731 218.144 963.731 219.376V226H960.371V212.704H963.731V214.768ZM969.21 219.304C969.21 217.96 969.474 216.768 970.002 215.728C970.546 214.688 971.274 213.888 972.186 213.328C973.114 212.768 974.146 212.488 975.282 212.488C976.274 212.488 977.138 212.688 977.874 213.088C978.626 213.488 979.226 213.992 979.674 214.6V212.704H983.058V226H979.674V224.056C979.242 224.68 978.642 225.2 977.874 225.616C977.122 226.016 976.25 226.216 975.258 226.216C974.138 226.216 973.114 225.928 972.186 225.352C971.274 224.776 970.546 223.968 970.002 222.928C969.474 221.872 969.21 220.664 969.21 219.304ZM979.674 219.352C979.674 218.536 979.514 217.84 979.194 217.264C978.874 216.672 978.442 216.224 977.898 215.92C977.354 215.6 976.77 215.44 976.146 215.44C975.522 215.44 974.946 215.592 974.418 215.896C973.89 216.2 973.458 216.648 973.122 217.24C972.802 217.816 972.642 218.504 972.642 219.304C972.642 220.104 972.802 220.808 973.122 221.416C973.458 222.008 973.89 222.464 974.418 222.784C974.962 223.104 975.538 223.264 976.146 223.264C976.77 223.264 977.354 223.112 977.898 222.808C978.442 222.488 978.874 222.04 979.194 221.464C979.514 220.872 979.674 220.168 979.674 219.352ZM993.708 212.512C995.292 212.512 996.572 213.016 997.548 214.024C998.524 215.016 999.012 216.408 999.012 218.2V226H995.652V218.656C995.652 217.6 995.388 216.792 994.86 216.232C994.332 215.656 993.612 215.368 992.7 215.368C991.772 215.368 991.036 215.656 990.492 216.232C989.964 216.792 989.7 217.6 989.7 218.656V226H986.34V212.704H989.7V214.36C990.148 213.784 990.716 213.336 991.404 213.016C992.108 212.68 992.876 212.512 993.708 212.512ZM1003.91 211.12C1003.32 211.12 1002.82 210.936 1002.42 210.568C1002.04 210.184 1001.85 209.712 1001.85 209.152C1001.85 208.592 1002.04 208.128 1002.42 207.76C1002.82 207.376 1003.32 207.184 1003.91 207.184C1004.5 207.184 1004.99 207.376 1005.37 207.76C1005.77 208.128 1005.97 208.592 1005.97 209.152C1005.97 209.712 1005.77 210.184 1005.37 210.568C1004.99 210.936 1004.5 211.12 1003.91 211.12ZM1005.57 212.704V226H1002.21V212.704H1005.57Z" fill="black"/>
<defs>
<clipPath id="clip0_307_600">
<rect x="53.5" y="11" width="150" height="150" rx="75" fill="white"/>
</clipPath>
<clipPath id="clip1_307_600">
<rect width="225" height="150" fill="white" transform="translate(16.5 11)"/>
</clipPath>
<clipPath id="clip2_307_600">
<rect x="334.5" y="11" width="150" height="150" rx="75" fill="white"/>
</clipPath>
<clipPath id="clip3_307_600">
<rect width="225" height="150" fill="white" transform="translate(297.5 11)"/>
</clipPath>
<clipPath id="clip4_307_600">
<rect x="615.5" y="11" width="150" height="150" rx="75" fill="white"/>
</clipPath>
<clipPath id="clip5_307_600">
<rect width="300" height="150" fill="white" transform="translate(558.5 11)"/>
</clipPath>
<clipPath id="clip6_307_600">
<rect x="896.5" y="11" width="150" height="150" rx="75" fill="white"/>
</clipPath>
<clipPath id="clip7_307_600">
<rect width="206" height="150" fill="white" transform="translate(868.5 11)"/>
</clipPath>
</defs>
</svg>
