<svg width="1100" height="240" viewBox="0 0 1100 240" fill="none" xmlns="http://www.w3.org/2000/svg">
<g clip-path="url(#clip0_307_676)">
<circle cx="128.5" cy="86" r="75" fill="#D9D9D9"/>
<g clip-path="url(#clip1_307_676)">
<path d="M-21.5 11H278.5V161H-21.5" fill="#9D2235"/>
<path d="M-21.5 71H278.5V101H-21.5" fill="white"/>
</g>
</g>
<path d="M96.5668 223.336H102.087V226H93.2068V209.248H96.5668V223.336ZM103.358 219.304C103.358 217.96 103.622 216.768 104.15 215.728C104.694 214.688 105.422 213.888 106.334 213.328C107.262 212.768 108.294 212.488 109.43 212.488C110.422 212.488 111.286 212.688 112.022 213.088C112.774 213.488 113.374 213.992 113.822 214.6V212.704H117.206V226H113.822V224.056C113.39 224.68 112.79 225.2 112.022 225.616C111.27 226.016 110.398 226.216 109.406 226.216C108.286 226.216 107.262 225.928 106.334 225.352C105.422 224.776 104.694 223.968 104.15 222.928C103.622 221.872 103.358 220.664 103.358 219.304ZM113.822 219.352C113.822 218.536 113.662 217.84 113.342 217.264C113.022 216.672 112.59 216.224 112.046 215.92C111.502 215.6 110.918 215.44 110.294 215.44C109.67 215.44 109.094 215.592 108.566 215.896C108.038 216.2 107.606 216.648 107.27 217.24C106.95 217.816 106.79 218.504 106.79 219.304C106.79 220.104 106.95 220.808 107.27 221.416C107.606 222.008 108.038 222.464 108.566 222.784C109.11 223.104 109.686 223.264 110.294 223.264C110.918 223.264 111.502 223.112 112.046 222.808C112.59 222.488 113.022 222.04 113.342 221.464C113.662 220.872 113.822 220.168 113.822 219.352ZM124.4 215.464V221.896C124.4 222.344 124.504 222.672 124.712 222.88C124.936 223.072 125.304 223.168 125.816 223.168H127.376V226H125.264C122.432 226 121.016 224.624 121.016 221.872V215.464H119.432V212.704H121.016V209.416H124.4V212.704H127.376V215.464H124.4ZM135.337 222.904L138.697 212.704H142.273L137.353 226H133.273L128.377 212.704H131.977L135.337 222.904ZM145.864 211.12C145.272 211.12 144.776 210.936 144.376 210.568C143.992 210.184 143.8 209.712 143.8 209.152C143.8 208.592 143.992 208.128 144.376 207.76C144.776 207.376 145.272 207.184 145.864 207.184C146.456 207.184 146.944 207.376 147.328 207.76C147.728 208.128 147.928 208.592 147.928 209.152C147.928 209.712 147.728 210.184 147.328 210.568C146.944 210.936 146.456 211.12 145.864 211.12ZM147.52 212.704V226H144.16V212.704H147.52ZM149.976 219.304C149.976 217.96 150.24 216.768 150.768 215.728C151.312 214.688 152.04 213.888 152.952 213.328C153.88 212.768 154.912 212.488 156.048 212.488C157.04 212.488 157.904 212.688 158.64 213.088C159.392 213.488 159.992 213.992 160.44 214.6V212.704H163.824V226H160.44V224.056C160.008 224.68 159.408 225.2 158.64 225.616C157.888 226.016 157.016 226.216 156.024 226.216C154.904 226.216 153.88 225.928 152.952 225.352C152.04 224.776 151.312 223.968 150.768 222.928C150.24 221.872 149.976 220.664 149.976 219.304ZM160.44 219.352C160.44 218.536 160.28 217.84 159.96 217.264C159.64 216.672 159.208 216.224 158.664 215.92C158.12 215.6 157.536 215.44 156.912 215.44C156.288 215.44 155.712 215.592 155.184 215.896C154.656 216.2 154.224 216.648 153.888 217.24C153.568 217.816 153.408 218.504 153.408 219.304C153.408 220.104 153.568 220.808 153.888 221.416C154.224 222.008 154.656 222.464 155.184 222.784C155.728 223.104 156.304 223.264 156.912 223.264C157.536 223.264 158.12 223.112 158.664 222.808C159.208 222.488 159.64 222.04 159.96 221.464C160.28 220.872 160.44 220.168 160.44 219.352Z" fill="black"/>
<g clip-path="url(#clip2_307_676)">
<circle cx="409.5" cy="86" r="75" fill="#D9D9D9"/>
<g clip-path="url(#clip3_307_676)">
<path d="M284.5 11H534.5V161H284.5V11Z" fill="#C1272D"/>
<path d="M284.5 11H534.5V111H284.5V11Z" fill="#006A44"/>
<path d="M284.5 11H534.5V61H284.5V11Z" fill="#FDB913"/>
</g>
</g>
<path d="M365.543 223.336H371.063V226H362.183V209.248H365.543V223.336ZM374.903 211.12C374.311 211.12 373.815 210.936 373.415 210.568C373.031 210.184 372.839 209.712 372.839 209.152C372.839 208.592 373.031 208.128 373.415 207.76C373.815 207.376 374.311 207.184 374.903 207.184C375.495 207.184 375.983 207.376 376.367 207.76C376.767 208.128 376.967 208.592 376.967 209.152C376.967 209.712 376.767 210.184 376.367 210.568C375.983 210.936 375.495 211.12 374.903 211.12ZM376.559 212.704V226H373.199V212.704H376.559ZM383.791 215.464V221.896C383.791 222.344 383.895 222.672 384.103 222.88C384.327 223.072 384.695 223.168 385.207 223.168H386.767V226H384.655C381.823 226 380.407 224.624 380.407 221.872V215.464H378.823V212.704H380.407V209.416H383.791V212.704H386.767V215.464H383.791ZM401.735 212.704V226H398.351V224.32C397.919 224.896 397.351 225.352 396.647 225.688C395.959 226.008 395.207 226.168 394.391 226.168C393.351 226.168 392.431 225.952 391.631 225.52C390.831 225.072 390.199 224.424 389.735 223.576C389.287 222.712 389.063 221.688 389.063 220.504V212.704H392.423V220.024C392.423 221.08 392.687 221.896 393.215 222.472C393.743 223.032 394.463 223.312 395.375 223.312C396.303 223.312 397.031 223.032 397.559 222.472C398.087 221.896 398.351 221.08 398.351 220.024V212.704H401.735ZM404.187 219.304C404.187 217.96 404.451 216.768 404.979 215.728C405.523 214.688 406.251 213.888 407.163 213.328C408.091 212.768 409.123 212.488 410.259 212.488C411.251 212.488 412.115 212.688 412.851 213.088C413.603 213.488 414.203 213.992 414.651 214.6V212.704H418.035V226H414.651V224.056C414.219 224.68 413.619 225.2 412.851 225.616C412.099 226.016 411.227 226.216 410.235 226.216C409.115 226.216 408.091 225.928 407.163 225.352C406.251 224.776 405.523 223.968 404.979 222.928C404.451 221.872 404.187 220.664 404.187 219.304ZM414.651 219.352C414.651 218.536 414.491 217.84 414.171 217.264C413.851 216.672 413.419 216.224 412.875 215.92C412.331 215.6 411.747 215.44 411.123 215.44C410.499 215.44 409.923 215.592 409.395 215.896C408.867 216.2 408.435 216.648 408.099 217.24C407.779 217.816 407.619 218.504 407.619 219.304C407.619 220.104 407.779 220.808 408.099 221.416C408.435 222.008 408.867 222.464 409.395 222.784C409.939 223.104 410.515 223.264 411.123 223.264C411.747 223.264 412.331 223.112 412.875 222.808C413.419 222.488 413.851 222.04 414.171 221.464C414.491 220.872 414.651 220.168 414.651 219.352ZM428.684 212.512C430.268 212.512 431.548 213.016 432.524 214.024C433.5 215.016 433.988 216.408 433.988 218.2V226H430.628V218.656C430.628 217.6 430.364 216.792 429.836 216.232C429.308 215.656 428.588 215.368 427.676 215.368C426.748 215.368 426.012 215.656 425.468 216.232C424.94 216.792 424.676 217.6 424.676 218.656V226H421.316V212.704H424.676V214.36C425.124 213.784 425.692 213.336 426.38 213.016C427.084 212.68 427.852 212.512 428.684 212.512ZM438.887 211.12C438.295 211.12 437.799 210.936 437.399 210.568C437.015 210.184 436.823 209.712 436.823 209.152C436.823 208.592 437.015 208.128 437.399 207.76C437.799 207.376 438.295 207.184 438.887 207.184C439.479 207.184 439.967 207.376 440.351 207.76C440.751 208.128 440.951 208.592 440.951 209.152C440.951 209.712 440.751 210.184 440.351 210.568C439.967 210.936 439.479 211.12 438.887 211.12ZM440.543 212.704V226H437.183V212.704H440.543ZM442.999 219.304C442.999 217.96 443.263 216.768 443.791 215.728C444.335 214.688 445.063 213.888 445.975 213.328C446.903 212.768 447.935 212.488 449.071 212.488C450.063 212.488 450.927 212.688 451.663 213.088C452.415 213.488 453.015 213.992 453.463 214.6V212.704H456.847V226H453.463V224.056C453.031 224.68 452.431 225.2 451.663 225.616C450.911 226.016 450.039 226.216 449.047 226.216C447.927 226.216 446.903 225.928 445.975 225.352C445.063 224.776 444.335 223.968 443.791 222.928C443.263 221.872 442.999 220.664 442.999 219.304ZM453.463 219.352C453.463 218.536 453.303 217.84 452.983 217.264C452.663 216.672 452.231 216.224 451.687 215.92C451.143 215.6 450.559 215.44 449.935 215.44C449.311 215.44 448.735 215.592 448.207 215.896C447.679 216.2 447.247 216.648 446.911 217.24C446.591 217.816 446.431 218.504 446.431 219.304C446.431 220.104 446.591 220.808 446.911 221.416C447.247 222.008 447.679 222.464 448.207 222.784C448.751 223.104 449.327 223.264 449.935 223.264C450.559 223.264 451.143 223.112 451.687 222.808C452.231 222.488 452.663 222.04 452.983 221.464C453.303 220.872 453.463 220.168 453.463 219.352Z" fill="black"/>
<g clip-path="url(#clip4_307_676)">
<circle cx="690.5" cy="86" r="75" fill="#D9D9D9"/>
<g clip-path="url(#clip5_307_676)">
<path d="M578.5 11H803.5V161H578.5V11Z" fill="white"/>
<path d="M578.5 11H803.5V61H578.5V11Z" fill="#FF6820"/>
<path d="M578.5 111H803.5V161H578.5V111Z" fill="#046A38"/>
<path d="M691 109.125C703.772 109.125 714.125 98.7716 714.125 86C714.125 73.2284 703.772 62.875 691 62.875C678.228 62.875 667.875 73.2284 667.875 86C667.875 98.7716 678.228 109.125 691 109.125Z" fill="#07038D"/>
<path d="M691 106C702.046 106 711 97.0457 711 86C711 74.9543 702.046 66 691 66C679.954 66 671 74.9543 671 86C671 97.0457 679.954 106 691 106Z" fill="white"/>
<path d="M691 90C693.209 90 695 88.2091 695 86C695 83.7909 693.209 82 691 82C688.791 82 687 83.7909 687 86C687 88.2091 688.791 90 691 90Z" fill="#07038D"/>
<path d="M691 66L691.75 78.0352L691 83.9941L690.25 78.0352L691 66Z" fill="#07038D"/>
<path d="M693.495 67.0387C693.974 67.1018 694.413 66.7645 694.476 66.2854C694.539 65.8063 694.202 65.3667 693.723 65.3037C693.244 65.2406 692.804 65.5779 692.741 66.057C692.678 66.5361 693.015 66.9756 693.495 67.0387Z" fill="#07038D"/>
<path d="M691 106L690.25 93.9648L691 88.0059L691.75 93.9648L691 106Z" fill="#07038D"/>
<path d="M688.505 104.961C688.026 104.898 687.587 105.235 687.524 105.715C687.461 106.194 687.798 106.633 688.277 106.696C688.756 106.759 689.196 106.422 689.259 105.943C689.322 105.464 688.985 105.024 688.505 104.961Z" fill="#07038D"/>
<path d="M696.178 66.6824L693.787 78.5016L691.52 84.0634L692.338 78.1134L696.178 66.6824Z" fill="#07038D"/>
<path d="M698.322 68.3315C698.769 68.5165 699.281 68.3044 699.466 67.858C699.65 67.4115 699.438 66.8997 698.992 66.7147C698.546 66.5298 698.034 66.7418 697.849 67.1883C697.664 67.6347 697.876 68.1466 698.322 68.3315Z" fill="#07038D"/>
<path d="M685.826 105.319L688.217 93.4993L690.484 87.9376L689.666 93.8876L685.826 105.319Z" fill="#07038D"/>
<path d="M683.682 103.669C683.235 103.485 682.723 103.697 682.538 104.143C682.353 104.589 682.565 105.101 683.012 105.286C683.458 105.471 683.97 105.259 684.155 104.813C684.34 104.366 684.128 103.854 683.682 103.669Z" fill="#07038D"/>
<path d="M701.001 68.6797L695.633 79.4775L692.004 84.2631L694.334 78.7275L701.001 68.6797Z" fill="#07038D"/>
<path d="M702.644 70.8273C703.028 71.1215 703.577 71.0492 703.871 70.6658C704.166 70.2824 704.093 69.7331 703.71 69.4389C703.326 69.1447 702.777 69.217 702.483 69.6004C702.189 69.9838 702.261 70.5331 702.644 70.8273Z" fill="#07038D"/>
<path d="M681.003 103.32L686.371 92.5225L690 87.7369L687.67 93.2725L681.003 103.32Z" fill="#07038D"/>
<path d="M679.359 101.173C678.976 100.879 678.427 100.951 678.133 101.334C677.838 101.718 677.911 102.267 678.294 102.561C678.677 102.855 679.227 102.783 679.521 102.4C679.815 102.016 679.743 101.467 679.359 101.173Z" fill="#07038D"/>
<path d="M705.14 71.8585L697.16 80.899L692.416 84.5822L696.099 79.8383L705.14 71.8585Z" fill="#07038D"/>
<path d="M706.172 74.3572C706.466 74.7406 707.015 74.8129 707.398 74.5187C707.782 74.2245 707.854 73.6752 707.56 73.2918C707.266 72.9085 706.717 72.8361 706.333 73.1303C705.95 73.4245 705.877 73.9738 706.172 74.3572Z" fill="#07038D"/>
<path d="M676.86 100.143L684.84 91.102L689.584 87.4188L685.901 92.1627L676.86 100.143Z" fill="#07038D"/>
<path d="M675.828 97.6438C675.534 97.2604 674.985 97.1881 674.602 97.4823C674.218 97.7765 674.146 98.3257 674.44 98.7091C674.734 99.0925 675.283 99.1648 675.667 98.8707C676.05 98.5765 676.123 98.0272 675.828 97.6438Z" fill="#07038D"/>
<path d="M708.324 76.0011L698.276 82.6682L692.741 84.9981L697.526 81.3692L708.324 76.0011Z" fill="#07038D"/>
<path d="M708.671 78.6822C708.856 79.1287 709.368 79.3407 709.814 79.1557C710.261 78.9708 710.473 78.459 710.288 78.0125C710.103 77.566 709.591 77.354 709.145 77.5389C708.698 77.7239 708.486 78.2357 708.671 78.6822Z" fill="#07038D"/>
<path d="M673.68 96.0009L683.727 89.3337L689.263 87.0038L684.477 90.6328L673.68 96.0009Z" fill="#07038D"/>
<path d="M673.333 93.3198C673.148 92.8733 672.636 92.6613 672.189 92.8462C671.743 93.0311 671.531 93.543 671.716 93.9895C671.901 94.4359 672.413 94.6479 672.859 94.463C673.306 94.2781 673.518 93.7662 673.333 93.3198Z" fill="#07038D"/>
<path d="M710.319 80.8241L698.888 84.6634L692.938 85.4813L698.5 83.2146L710.319 80.8241Z" fill="#07038D"/>
<path d="M709.961 83.5041C710.024 83.9833 710.464 84.3205 710.943 84.2574C711.422 84.1944 711.759 83.7548 711.696 83.2757C711.633 82.7966 711.194 82.4593 710.715 82.5224C710.235 82.5855 709.898 83.025 709.961 83.5041Z" fill="#07038D"/>
<path d="M671.681 91.1769L683.112 87.3375L689.062 86.5197L683.5 88.7864L671.681 91.1769Z" fill="#07038D"/>
<path d="M672.039 88.4968C671.976 88.0177 671.536 87.6805 671.057 87.7435C670.578 87.8066 670.241 88.2461 670.304 88.7253C670.367 89.2044 670.806 89.5416 671.285 89.4786C671.765 89.4155 672.102 88.976 672.039 88.4968Z" fill="#07038D"/>
<path d="M711 86L698.965 86.75L693.006 86L698.965 85.25L711 86Z" fill="#07038D"/>
<path d="M709.963 88.4965C709.9 88.9756 710.237 89.4152 710.717 89.4782C711.196 89.5413 711.635 89.2041 711.698 88.7249C711.761 88.2458 711.424 87.8063 710.945 87.7432C710.466 87.6801 710.026 88.0174 709.963 88.4965Z" fill="#07038D"/>
<path d="M671.004 86L683.039 85.25L688.998 86L683.039 86.75L671.004 86Z" fill="#07038D"/>
<path d="M672.041 83.5035C672.104 83.0244 671.766 82.5848 671.287 82.5218C670.808 82.4587 670.369 82.7959 670.306 83.2751C670.243 83.7542 670.58 84.1937 671.059 84.2568C671.538 84.3199 671.978 83.9826 672.041 83.5035Z" fill="#07038D"/>
<path d="M710.318 91.1766L698.498 88.7861L692.937 86.5194L698.887 87.3372L710.318 91.1766Z" fill="#07038D"/>
<path d="M708.669 93.3184C708.485 93.7648 708.697 94.2767 709.143 94.4616C709.589 94.6466 710.101 94.4345 710.286 93.9881C710.471 93.5416 710.259 93.0298 709.813 92.8448C709.366 92.6599 708.854 92.8719 708.669 93.3184Z" fill="#07038D"/>
<path d="M671.682 80.8234L683.502 83.2139L689.063 85.4806L683.113 84.6628L671.682 80.8234Z" fill="#07038D"/>
<path d="M673.331 78.6816C673.515 78.2352 673.303 77.7233 672.857 77.5384C672.411 77.3534 671.899 77.5655 671.714 78.0119C671.529 78.4584 671.741 78.9702 672.187 79.1552C672.634 79.3401 673.146 79.1281 673.331 78.6816Z" fill="#07038D"/>
<path d="M708.316 96.0001L697.519 90.632L692.733 87.003L698.269 89.333L708.316 96.0001Z" fill="#07038D"/>
<path d="M706.169 97.6425C705.875 98.0259 705.947 98.5752 706.33 98.8694C706.714 99.1636 707.263 99.0912 707.557 98.7079C707.851 98.3245 707.779 97.7752 707.396 97.481C707.012 97.1868 706.463 97.2591 706.169 97.6425Z" fill="#07038D"/>
<path d="M673.68 75.9999L684.477 81.368L689.263 84.997L683.727 82.667L673.68 75.9999Z" fill="#07038D"/>
<path d="M675.827 74.3575C676.121 73.9741 676.049 73.4248 675.666 73.1306C675.282 72.8364 674.733 72.9088 674.439 73.2921C674.145 73.6755 674.217 74.2248 674.6 74.519C674.984 74.8132 675.533 74.7409 675.827 74.3575Z" fill="#07038D"/>
<path d="M705.138 100.142L696.097 92.1618L692.414 87.4179L697.158 91.1011L705.138 100.142Z" fill="#07038D"/>
<path d="M702.639 101.172C702.256 101.466 702.183 102.015 702.477 102.398C702.772 102.782 703.321 102.854 703.704 102.56C704.088 102.266 704.16 101.717 703.866 101.333C703.572 100.95 703.022 100.877 702.639 101.172Z" fill="#07038D"/>
<path d="M676.858 71.8574L685.899 79.8372L689.582 84.5811L684.838 80.8979L676.858 71.8574Z" fill="#07038D"/>
<path d="M679.357 70.8274C679.741 70.5332 679.813 69.9839 679.519 69.6005C679.225 69.2171 678.675 69.1448 678.292 69.439C677.908 69.7332 677.836 70.2825 678.13 70.6659C678.425 71.0493 678.974 71.1216 679.357 70.8274Z" fill="#07038D"/>
<path d="M701.003 103.32L694.336 93.2725L692.006 87.7369L695.635 92.5225L701.003 103.32Z" fill="#07038D"/>
<path d="M698.323 103.669C697.876 103.854 697.664 104.366 697.849 104.812C698.034 105.259 698.546 105.471 698.992 105.286C699.439 105.101 699.651 104.589 699.466 104.143C699.281 103.696 698.769 103.484 698.323 103.669Z" fill="#07038D"/>
<path d="M681.001 68.6797L687.668 78.7275L689.998 84.2631L686.369 79.4775L681.001 68.6797Z" fill="#07038D"/>
<path d="M683.681 68.3308C684.128 68.1458 684.34 67.634 684.155 67.1875C683.97 66.7411 683.458 66.529 683.012 66.714C682.565 66.8989 682.353 67.4108 682.538 67.8572C682.723 68.3037 683.235 68.5157 683.681 68.3308Z" fill="#07038D"/>
<path d="M696.174 105.318L692.335 93.8871L691.517 87.9371L693.783 93.4989L696.174 105.318Z" fill="#07038D"/>
<path d="M693.494 104.961C693.015 105.024 692.678 105.464 692.741 105.943C692.804 106.422 693.243 106.759 693.722 106.696C694.201 106.633 694.539 106.194 694.476 105.715C694.413 105.235 693.973 104.898 693.494 104.961Z" fill="#07038D"/>
<path d="M685.822 66.6819L689.661 78.1129L690.479 84.0629L688.213 78.5011L685.822 66.6819Z" fill="#07038D"/>
<path d="M688.502 67.0388C688.981 66.9757 689.319 66.5362 689.255 66.0571C689.192 65.5779 688.753 65.2407 688.274 65.3038C687.795 65.3668 687.457 65.8064 687.52 66.2855C687.584 66.7646 688.023 67.1019 688.502 67.0388Z" fill="#07038D"/>
</g>
</g>
<path d="M640.576 209.248V226H637.216V215.104L632.728 226H630.184L625.672 215.104V226H622.312V209.248H626.128L631.456 221.704L636.784 209.248H640.576ZM643.034 219.304C643.034 217.96 643.298 216.768 643.826 215.728C644.37 214.688 645.098 213.888 646.01 213.328C646.938 212.768 647.97 212.488 649.106 212.488C650.098 212.488 650.962 212.688 651.698 213.088C652.45 213.488 653.05 213.992 653.498 214.6V212.704H656.882V226H653.498V224.056C653.066 224.68 652.466 225.2 651.698 225.616C650.946 226.016 650.074 226.216 649.082 226.216C647.962 226.216 646.938 225.928 646.01 225.352C645.098 224.776 644.37 223.968 643.826 222.928C643.298 221.872 643.034 220.664 643.034 219.304ZM653.498 219.352C653.498 218.536 653.338 217.84 653.018 217.264C652.698 216.672 652.266 216.224 651.722 215.92C651.178 215.6 650.594 215.44 649.97 215.44C649.346 215.44 648.77 215.592 648.242 215.896C647.714 216.2 647.282 216.648 646.946 217.24C646.626 217.816 646.466 218.504 646.466 219.304C646.466 220.104 646.626 220.808 646.946 221.416C647.282 222.008 647.714 222.464 648.242 222.784C648.786 223.104 649.362 223.264 649.97 223.264C650.594 223.264 651.178 223.112 651.722 222.808C652.266 222.488 652.698 222.04 653.018 221.464C653.338 220.872 653.498 220.168 653.498 219.352ZM663.524 208.24V226H660.164V208.24H663.524ZM665.979 219.304C665.979 217.96 666.243 216.768 666.771 215.728C667.316 214.688 668.044 213.888 668.956 213.328C669.884 212.768 670.916 212.488 672.052 212.488C673.044 212.488 673.908 212.688 674.644 213.088C675.396 213.488 675.996 213.992 676.444 214.6V212.704H679.828V226H676.444V224.056C676.012 224.68 675.412 225.2 674.644 225.616C673.892 226.016 673.02 226.216 672.028 226.216C670.908 226.216 669.884 225.928 668.956 225.352C668.044 224.776 667.316 223.968 666.771 222.928C666.243 221.872 665.979 220.664 665.979 219.304ZM676.444 219.352C676.444 218.536 676.284 217.84 675.964 217.264C675.644 216.672 675.212 216.224 674.668 215.92C674.124 215.6 673.54 215.44 672.916 215.44C672.292 215.44 671.716 215.592 671.188 215.896C670.66 216.2 670.228 216.648 669.892 217.24C669.572 217.816 669.412 218.504 669.412 219.304C669.412 220.104 669.572 220.808 669.892 221.416C670.228 222.008 670.66 222.464 671.188 222.784C671.732 223.104 672.308 223.264 672.916 223.264C673.54 223.264 674.124 223.112 674.668 222.808C675.212 222.488 675.644 222.04 675.964 221.464C676.284 220.872 676.444 220.168 676.444 219.352ZM695.829 212.704L687.597 232.288H684.021L686.901 225.664L681.573 212.704H685.341L688.773 221.992L692.253 212.704H695.829ZM696.776 219.304C696.776 217.96 697.04 216.768 697.568 215.728C698.112 214.688 698.84 213.888 699.752 213.328C700.68 212.768 701.712 212.488 702.848 212.488C703.84 212.488 704.704 212.688 705.44 213.088C706.192 213.488 706.792 213.992 707.24 214.6V212.704H710.624V226H707.24V224.056C706.808 224.68 706.208 225.2 705.44 225.616C704.688 226.016 703.816 226.216 702.824 226.216C701.704 226.216 700.68 225.928 699.752 225.352C698.84 224.776 698.112 223.968 697.568 222.928C697.04 221.872 696.776 220.664 696.776 219.304ZM707.24 219.352C707.24 218.536 707.08 217.84 706.76 217.264C706.44 216.672 706.008 216.224 705.464 215.92C704.92 215.6 704.336 215.44 703.712 215.44C703.088 215.44 702.512 215.592 701.984 215.896C701.456 216.2 701.024 216.648 700.688 217.24C700.368 217.816 700.208 218.504 700.208 219.304C700.208 220.104 700.368 220.808 700.688 221.416C701.024 222.008 701.456 222.464 701.984 222.784C702.528 223.104 703.104 223.264 703.712 223.264C704.336 223.264 704.92 223.112 705.464 222.808C706.008 222.488 706.44 222.04 706.76 221.464C707.08 220.872 707.24 220.168 707.24 219.352ZM717.266 208.24V226H713.906V208.24H717.266ZM719.722 219.304C719.722 217.96 719.986 216.768 720.514 215.728C721.058 214.688 721.786 213.888 722.698 213.328C723.626 212.768 724.658 212.488 725.794 212.488C726.786 212.488 727.65 212.688 728.386 213.088C729.138 213.488 729.738 213.992 730.186 214.6V212.704H733.57V226H730.186V224.056C729.754 224.68 729.154 225.2 728.386 225.616C727.634 226.016 726.762 226.216 725.77 226.216C724.65 226.216 723.626 225.928 722.698 225.352C721.786 224.776 721.058 223.968 720.514 222.928C719.986 221.872 719.722 220.664 719.722 219.304ZM730.186 219.352C730.186 218.536 730.026 217.84 729.706 217.264C729.386 216.672 728.954 216.224 728.41 215.92C727.866 215.6 727.282 215.44 726.658 215.44C726.034 215.44 725.458 215.592 724.93 215.896C724.402 216.2 723.97 216.648 723.634 217.24C723.314 217.816 723.154 218.504 723.154 219.304C723.154 220.104 723.314 220.808 723.634 221.416C723.97 222.008 724.402 222.464 724.93 222.784C725.474 223.104 726.05 223.264 726.658 223.264C727.282 223.264 727.866 223.112 728.41 222.808C728.954 222.488 729.386 222.04 729.706 221.464C730.026 220.872 730.186 220.168 730.186 219.352ZM753.363 212.512C754.995 212.512 756.307 213.016 757.299 214.024C758.307 215.016 758.811 216.408 758.811 218.2V226H755.451V218.656C755.451 217.616 755.187 216.824 754.659 216.28C754.131 215.72 753.411 215.44 752.499 215.44C751.587 215.44 750.859 215.72 750.315 216.28C749.787 216.824 749.523 217.616 749.523 218.656V226H746.163V218.656C746.163 217.616 745.899 216.824 745.371 216.28C744.843 215.72 744.123 215.44 743.211 215.44C742.283 215.44 741.547 215.72 741.003 216.28C740.475 216.824 740.211 217.616 740.211 218.656V226H736.851V212.704H740.211V214.312C740.643 213.752 741.195 213.312 741.867 212.992C742.555 212.672 743.307 212.512 744.123 212.512C745.163 212.512 746.091 212.736 746.907 213.184C747.723 213.616 748.355 214.24 748.803 215.056C749.235 214.288 749.859 213.672 750.675 213.208C751.507 212.744 752.403 212.512 753.363 212.512Z" fill="black"/>
<g clip-path="url(#clip6_307_676)">
<circle cx="971.5" cy="86" r="75" fill="#D9D9D9"/>
<g clip-path="url(#clip7_307_676)">
<path d="M894.5 11H1119.5V161H894.5" fill="#EE1C25"/>
<path d="M932.001 26L945.226 66.7025L910.602 41.5475H953.4L918.775 66.7025L932.001 26Z" fill="#FFFF00"/>
<path d="M972.435 19.0979L971.183 33.3086L963.843 21.0759L976.972 26.6583L963.069 29.8584L972.435 19.0979Z" fill="#FFFF00"/>
<path d="M989.885 35.778L983.216 48.3891L981.198 34.2667L991.131 44.5063L977.077 42.0606L989.885 35.778Z" fill="#FFFF00"/>
<path d="M991.544 60.928L980.311 69.7218L984.229 56.0047L989.122 69.4057L977.287 61.4394L991.544 60.928Z" fill="#FFFF00"/>
<path d="M972.147 71.4835L971.485 85.7339L963.644 73.816L976.993 78.8494L963.235 82.623L972.147 71.4835Z" fill="#FFFF00"/>
</g>
</g>
<path d="M932.17 209.248V226H928.81V215.104L924.322 226H921.778L917.266 215.104V226H913.906V209.248H917.722L923.05 221.704L928.378 209.248H932.17ZM934.628 219.304C934.628 217.96 934.892 216.768 935.42 215.728C935.964 214.688 936.692 213.888 937.604 213.328C938.532 212.768 939.564 212.488 940.7 212.488C941.692 212.488 942.556 212.688 943.292 213.088C944.044 213.488 944.644 213.992 945.092 214.6V212.704H948.476V226H945.092V224.056C944.66 224.68 944.06 225.2 943.292 225.616C942.54 226.016 941.668 226.216 940.676 226.216C939.556 226.216 938.532 225.928 937.604 225.352C936.692 224.776 935.964 223.968 935.42 222.928C934.892 221.872 934.628 220.664 934.628 219.304ZM945.092 219.352C945.092 218.536 944.932 217.84 944.612 217.264C944.292 216.672 943.86 216.224 943.316 215.92C942.772 215.6 942.188 215.44 941.564 215.44C940.94 215.44 940.364 215.592 939.836 215.896C939.308 216.2 938.876 216.648 938.54 217.24C938.22 217.816 938.06 218.504 938.06 219.304C938.06 220.104 938.22 220.808 938.54 221.416C938.876 222.008 939.308 222.464 939.836 222.784C940.38 223.104 940.956 223.264 941.564 223.264C942.188 223.264 942.772 223.112 943.316 222.808C943.86 222.488 944.292 222.04 944.612 221.464C944.932 220.872 945.092 220.168 945.092 219.352ZM959.126 212.512C960.71 212.512 961.99 213.016 962.966 214.024C963.942 215.016 964.43 216.408 964.43 218.2V226H961.07V218.656C961.07 217.6 960.806 216.792 960.278 216.232C959.75 215.656 959.03 215.368 958.118 215.368C957.19 215.368 956.454 215.656 955.91 216.232C955.382 216.792 955.118 217.6 955.118 218.656V226H951.758V212.704H955.118V214.36C955.566 213.784 956.134 213.336 956.822 213.016C957.526 212.68 958.294 212.512 959.126 212.512ZM966.761 219.304C966.761 217.96 967.025 216.768 967.553 215.728C968.097 214.688 968.833 213.888 969.761 213.328C970.689 212.768 971.721 212.488 972.857 212.488C973.721 212.488 974.545 212.68 975.329 213.064C976.113 213.432 976.737 213.928 977.201 214.552V208.24H980.609V226H977.201V224.032C976.785 224.688 976.201 225.216 975.449 225.616C974.697 226.016 973.825 226.216 972.833 226.216C971.713 226.216 970.689 225.928 969.761 225.352C968.833 224.776 968.097 223.968 967.553 222.928C967.025 221.872 966.761 220.664 966.761 219.304ZM977.225 219.352C977.225 218.536 977.065 217.84 976.745 217.264C976.425 216.672 975.993 216.224 975.449 215.92C974.905 215.6 974.321 215.44 973.697 215.44C973.073 215.44 972.497 215.592 971.969 215.896C971.441 216.2 971.009 216.648 970.673 217.24C970.353 217.816 970.193 218.504 970.193 219.304C970.193 220.104 970.353 220.808 970.673 221.416C971.009 222.008 971.441 222.464 971.969 222.784C972.513 223.104 973.089 223.264 973.697 223.264C974.321 223.264 974.905 223.112 975.449 222.808C975.993 222.488 976.425 222.04 976.745 221.464C977.065 220.872 977.225 220.168 977.225 219.352ZM983.026 219.304C983.026 217.96 983.29 216.768 983.818 215.728C984.362 214.688 985.09 213.888 986.002 213.328C986.93 212.768 987.962 212.488 989.098 212.488C990.09 212.488 990.954 212.688 991.69 213.088C992.442 213.488 993.042 213.992 993.49 214.6V212.704H996.874V226H993.49V224.056C993.058 224.68 992.458 225.2 991.69 225.616C990.938 226.016 990.066 226.216 989.074 226.216C987.954 226.216 986.93 225.928 986.002 225.352C985.09 224.776 984.362 223.968 983.818 222.928C983.29 221.872 983.026 220.664 983.026 219.304ZM993.49 219.352C993.49 218.536 993.33 217.84 993.01 217.264C992.69 216.672 992.258 216.224 991.714 215.92C991.17 215.6 990.586 215.44 989.962 215.44C989.338 215.44 988.762 215.592 988.234 215.896C987.706 216.2 987.274 216.648 986.938 217.24C986.618 217.816 986.458 218.504 986.458 219.304C986.458 220.104 986.618 220.808 986.938 221.416C987.274 222.008 987.706 222.464 988.234 222.784C988.778 223.104 989.354 223.264 989.962 223.264C990.586 223.264 991.17 223.112 991.714 222.808C992.258 222.488 992.69 222.04 993.01 221.464C993.33 220.872 993.49 220.168 993.49 219.352ZM1003.52 214.768C1003.95 214.064 1004.51 213.512 1005.2 213.112C1005.9 212.712 1006.7 212.512 1007.6 212.512V216.04H1006.71C1005.65 216.04 1004.85 216.288 1004.31 216.784C1003.78 217.28 1003.52 218.144 1003.52 219.376V226H1000.16V212.704H1003.52V214.768ZM1011.56 211.12C1010.97 211.12 1010.48 210.936 1010.08 210.568C1009.69 210.184 1009.5 209.712 1009.5 209.152C1009.5 208.592 1009.69 208.128 1010.08 207.76C1010.48 207.376 1010.97 207.184 1011.56 207.184C1012.16 207.184 1012.64 207.376 1013.03 207.76C1013.43 208.128 1013.63 208.592 1013.63 209.152C1013.63 209.712 1013.43 210.184 1013.03 210.568C1012.64 210.936 1012.16 211.12 1011.56 211.12ZM1013.22 212.704V226H1009.86V212.704H1013.22ZM1023.91 212.512C1025.49 212.512 1026.77 213.016 1027.75 214.024C1028.72 215.016 1029.21 216.408 1029.21 218.2V226H1025.85V218.656C1025.85 217.6 1025.59 216.792 1025.06 216.232C1024.53 215.656 1023.81 215.368 1022.9 215.368C1021.97 215.368 1021.23 215.656 1020.69 216.232C1020.16 216.792 1019.9 217.6 1019.9 218.656V226H1016.54V212.704H1019.9V214.36C1020.35 213.784 1020.91 213.336 1021.6 213.016C1022.31 212.68 1023.07 212.512 1023.91 212.512Z" fill="black"/>
<defs>
<clipPath id="clip0_307_676">
<rect x="53.5" y="11" width="150" height="150" rx="75" fill="white"/>
</clipPath>
<clipPath id="clip1_307_676">
<rect width="300" height="150" fill="white" transform="translate(-21.5 11)"/>
</clipPath>
<clipPath id="clip2_307_676">
<rect x="334.5" y="11" width="150" height="150" rx="75" fill="white"/>
</clipPath>
<clipPath id="clip3_307_676">
<rect width="250" height="150" fill="white" transform="translate(284.5 11)"/>
</clipPath>
<clipPath id="clip4_307_676">
<rect x="615.5" y="11" width="150" height="150" rx="75" fill="white"/>
</clipPath>
<clipPath id="clip5_307_676">
<rect width="225" height="150" fill="white" transform="translate(578.5 11)"/>
</clipPath>
<clipPath id="clip6_307_676">
<rect x="896.5" y="11" width="150" height="150" rx="75" fill="white"/>
</clipPath>
<clipPath id="clip7_307_676">
<rect width="225" height="150" fill="white" transform="translate(894.5 11)"/>
</clipPath>
</defs>
</svg>
