<svg width="1100" height="240" viewBox="0 0 1100 240" fill="none" xmlns="http://www.w3.org/2000/svg">
<g clip-path="url(#clip0_307_560)">
<circle cx="128.5" cy="86" r="75" fill="#D9D9D9"/>
<g clip-path="url(#clip1_307_560)">
<path d="M257.5 3H-1.5V189H257.5V3Z" fill="#FF0000"/>
<path d="M109.535 39.16C107.736 39.1295 104.75 39.7366 104.817 41.1246C99.8069 40.2612 99.2851 42.342 99.5796 44.1936C100.056 43.4588 100.637 43.0599 101.083 42.9846C101.751 42.8731 102.45 43.0901 103.164 43.531C103.878 43.9719 104.664 44.6834 105.014 45.1236C103.246 45.5487 101.879 45.2743 100.493 45.0305C99.8096 44.9103 98.8531 44.5238 98.2846 44.1238C97.716 43.7237 97.537 43.3472 96.6427 42.4265C95.5883 41.3411 94.4661 41.6467 94.8158 43.3333C95.6245 44.8997 96.9754 45.5982 98.6777 45.8792C99.4969 46.0144 100.717 46.308 102.1 46.3093C103.483 46.3108 105.036 46.1084 105.881 46.286C105.374 46.6064 104.799 47.1588 103.661 47.3788C102.504 47.6024 100.744 46.6869 99.6721 46.4372C99.8083 47.3443 100.946 48.1923 103.187 48.6343C106.869 49.4404 109.929 50.053 111.951 51.1569C113.974 52.2608 115.249 53.6429 116.16 54.7258C117.973 56.8808 118.068 58.5351 118.184 58.8991C118.557 62.3423 117.362 64.2791 115.143 64.8744C114.033 65.172 112.061 64.6116 111.339 63.7584C110.616 62.9054 109.913 61.4393 110.113 59.1433C110.308 58.2426 111.332 55.8964 110.46 55.4117C106.441 53.1785 101.561 50.92 98.0302 49.576C97.0652 49.2087 96.2702 50.5273 95.9605 51.0408C89.9624 50.3064 84.5546 46.2255 82.1202 41.8803C80.4623 38.9208 77.7296 41.8864 78.189 44.6819C78.9306 47.8021 81.2952 50.058 84.1321 51.6569C87.0438 53.2688 90.6833 54.8549 94.3649 54.7724C96.3484 55.1496 96.3288 57.7296 93.9487 58.2134C89.2937 58.243 85.5802 58.1263 82.074 54.7259C79.4145 52.2845 77.9173 55.1935 78.6862 56.8416C79.989 61.9225 87.1985 63.3453 94.4921 61.7009C97.3164 61.2306 95.6252 64.2734 94.8274 64.3049C91.7798 66.5018 86.3238 68.6514 81.5189 64.2816C79.3202 62.5889 77.8337 64.0118 78.6514 66.4555C80.7834 72.8269 88.9388 71.4888 94.5383 68.3504C95.9795 67.5426 97.2876 69.4219 95.5327 70.8498C88.5692 75.7417 85.0876 75.7973 81.9467 73.9188C78.0146 72.3596 77.6687 76.7446 80.0042 78.1852C82.6001 79.7862 89.2062 78.5858 94.0527 75.523C96.1304 73.97 96.2244 76.3984 94.9083 77.3598C89.157 82.357 86.89 83.673 80.8946 82.8584C77.9216 82.6254 77.9662 86.3105 80.3049 87.7525C83.4979 89.7213 89.7335 86.4533 94.573 82.4166C96.6099 81.3223 96.9445 83.117 95.9374 85.2415C92.9803 88.9924 90.2049 91.2039 87.5315 92.2281C84.858 93.2523 82.2865 93.0891 80.4668 92.4604C78.2467 91.6936 77.9683 94.0133 79.1949 96.1223C79.9343 97.3936 82.9984 97.8013 86.3058 96.6222C89.6133 95.4433 93.1641 92.678 95.6021 89.4379C97.7232 87.5709 97.4594 90.0791 96.4924 91.8443C91.6104 99.6037 87.1454 102.482 81.2646 101.993C78.657 101.548 78.0648 103.586 79.7268 105.469C82.6451 107.902 86.294 107.826 89.4855 105.422C92.3228 102.672 97.7506 96.7497 100.597 93.5764C102.603 91.9686 103.244 93.5536 102.655 96.8197C102.12 98.6902 100.78 100.66 97.1283 102.097C94.6337 103.529 96.5071 105.502 98.3771 105.538C99.4062 105.559 101.496 104.349 103.095 102.539C105.198 100.158 105.323 98.5597 106.482 94.8551C107.578 93.0493 109.535 93.8922 109.535 95.7851C108.596 99.4959 107.79 100.161 105.893 101.679C104.078 103.392 107.156 103.963 108.194 103.26C111.195 101.226 112.29 98.5958 113.293 96.2036C114.016 94.4769 116.116 95.314 115.143 98.1334C112.817 104.871 108.995 107.524 102.308 108.886C101.631 109.008 101.217 109.41 101.453 110.2C102.35 111.137 103.249 111.987 104.147 112.92C100.012 114.131 96.6528 114.811 92.5148 116.024C90.4847 114.686 88.8447 113.551 86.8146 112.211C86.2792 110.953 86.0296 109.033 83.0336 110.386C81.0035 109.444 80.067 109.789 78.9405 110.735C80.5668 110.796 81.2744 111.234 81.912 111.979C82.7446 114.183 84.6644 114.396 86.6295 113.769C87.908 114.852 88.5888 115.683 89.867 116.768C87.4808 116.686 85.8184 116.644 83.4383 116.571C81.1662 114.118 79.3527 114.252 77.7264 116.176C76.4869 116.367 75.9614 116.394 75.1133 117.908C76.4472 117.357 77.2864 117.192 77.8652 117.792C80.2808 119.2 81.8589 118.885 83.0567 117.792C85.3873 117.935 87.4873 118.056 89.8208 118.21C88.9636 118.943 87.7873 119.331 86.9301 120.07C83.4298 119.063 81.6029 120.419 80.987 123.29C80.5179 124.449 80.2983 125.643 80.5014 126.882C80.8402 125.748 81.3849 124.773 82.3861 124.162C85.5059 124.959 86.679 123.678 86.8492 121.802C88.3531 120.569 90.6208 120.297 92.1217 119.047C93.8766 119.612 94.7249 119.962 96.4923 120.523C97.1207 122.443 98.5426 123.203 100.851 122.709C103.6 122.796 103.115 123.93 103.337 124.836C104.068 123.534 104.047 122.267 102.355 121.116C101.739 119.434 100.374 118.669 98.5851 119.64C96.9013 119.159 96.4586 118.469 94.7811 117.989C99.0243 116.629 102.034 116.324 106.274 114.967C107.336 115.973 108.177 116.696 109.246 117.594C109.809 117.932 110.349 118.017 110.68 117.594C113.336 113.728 114.523 110.32 116.993 107.771C117.936 106.716 119.128 105.293 120.45 104.946C121.111 104.773 121.921 104.878 122.439 105.446C122.956 106.013 123.363 107.059 123.19 108.62C122.943 110.859 122.405 111.566 121.78 112.909C121.155 114.252 120.391 115.078 119.606 116.106C118.036 118.162 115.964 119.359 114.738 120.163C112.286 121.771 111.249 121.067 109.35 120.965C106.896 121.242 106.243 122.444 108.251 124.104C110.129 125.086 111.817 125.208 113.189 124.953C114.366 124.734 115.745 123.205 116.727 122.383C117.832 121.1 119.665 122.622 118.415 124.116C116.143 126.829 113.874 128.618 111.073 128.58C108.129 128.978 108.68 130.64 110.633 131.451C114.149 132.91 117.323 130.177 118.935 128.382C120.179 127.014 121.063 126.96 120.843 129.079C119.608 132.916 117.92 134.398 115.166 134.59C112.932 134.381 112.907 136.115 114.541 137.287C118.264 139.877 120.959 135.466 122.219 132.799C123.116 130.394 124.493 131.538 124.636 133.52C124.654 136.169 123.464 138.331 120.276 141.042C122.715 144.948 125.558 148.922 128 152.841L135.402 69.9571L128.002 56.862C127.231 56.1466 124.625 53.059 123.944 52.6305C123.695 52.3637 123.544 52.1751 123.909 52.0376C124.262 51.9047 125.088 51.7557 125.643 51.654C124.074 50.0734 122.729 49.5665 119.758 48.7014C120.482 48.3913 121.186 48.5718 123.319 48.469C122.472 47.2605 120.581 45.4094 118.139 44.5164C119.752 43.3637 120.066 43.2865 121.666 41.9356C118.896 41.7381 116.53 41.2076 114.15 40.4825C112.645 39.7751 110.555 39.1745 109.537 39.1572L109.535 39.16ZM109.801 42.4034C111.265 42.4034 112.171 42.9079 112.171 43.5194C112.171 44.1415 111.265 44.647 109.801 44.647C108.343 44.647 107.419 44.0954 107.419 43.4729C107.419 42.8614 108.343 42.4034 109.801 42.4034Z" fill="black"/>
<path d="M146.465 39.16C148.264 39.1295 151.25 39.7366 151.183 41.1246C156.193 40.2612 156.715 42.342 156.42 44.1936C155.944 43.4588 155.363 43.0599 154.917 42.9846C154.249 42.8731 153.55 43.0901 152.836 43.531C152.122 43.9719 151.336 44.6834 150.986 45.1236C152.754 45.5487 154.121 45.2743 155.507 45.0305C156.19 44.9103 157.147 44.5238 157.715 44.1238C158.284 43.7237 158.463 43.3472 159.357 42.4265C160.412 41.3411 161.534 41.6467 161.184 43.3333C160.376 44.8997 159.025 45.5982 157.322 45.8792C156.503 46.0144 155.283 46.308 153.9 46.3093C152.517 46.3108 150.964 46.1084 150.119 46.286C150.626 46.6064 151.201 47.1588 152.339 47.3788C153.496 47.6024 155.256 46.6869 156.328 46.4372C156.192 47.3443 155.054 48.1923 152.813 48.6343C149.131 49.4404 146.071 50.053 144.049 51.1569C142.026 52.2608 140.751 53.6429 139.84 54.7258C138.027 56.8808 137.932 58.5351 137.816 58.8991C137.443 62.3423 138.638 64.2791 140.857 64.8744C141.967 65.172 143.939 64.6116 144.661 63.7584C145.384 62.9054 146.087 61.4393 145.887 59.1433C145.692 58.2426 144.668 55.8964 145.54 55.4117C149.559 53.1785 154.439 50.92 157.97 49.576C158.935 49.2087 159.73 50.5273 160.039 51.0408C166.038 50.3064 171.445 46.2255 173.88 41.8803C175.538 38.9208 178.27 41.8864 177.811 44.6819C177.069 47.8021 174.705 50.058 171.868 51.6569C168.956 53.2688 165.317 54.8549 161.635 54.7724C159.652 55.1496 159.671 57.7296 162.051 58.2134C166.706 58.243 170.42 58.1263 173.926 54.7259C176.586 52.2845 178.083 55.1935 177.314 56.8416C176.011 61.9225 168.802 63.3453 161.508 61.7009C158.684 61.2306 160.375 64.2734 161.173 64.3049C164.22 66.5018 169.676 68.6514 174.481 64.2816C176.68 62.5889 178.166 64.0118 177.349 66.4555C175.217 72.8269 167.061 71.4888 161.462 68.3504C160.02 67.5426 158.712 69.4219 160.467 70.8498C167.431 75.7417 170.912 75.7973 174.053 73.9188C177.985 72.3596 178.331 76.7446 175.996 78.1852C173.4 79.7862 166.794 78.5858 161.947 75.523C159.87 73.97 159.776 76.3984 161.092 77.3598C166.843 82.357 169.11 83.673 175.105 82.8584C178.078 82.6254 178.034 86.3105 175.695 87.7525C172.502 89.7213 166.267 86.4533 161.427 82.4166C159.39 81.3223 159.056 83.117 160.063 85.2415C163.02 88.9924 165.795 91.2039 168.469 92.2281C171.142 93.2523 173.713 93.0891 175.533 92.4604C177.753 91.6936 178.032 94.0133 176.805 96.1223C176.066 97.3936 173.002 97.8013 169.694 96.6222C166.387 95.4433 162.836 92.678 160.398 89.4379C158.277 87.5709 158.541 90.0791 159.508 91.8443C164.39 99.6037 168.855 102.482 174.735 101.993C177.343 101.548 177.935 103.586 176.273 105.469C173.355 107.902 169.706 107.826 166.514 105.422C163.677 102.672 158.249 96.7497 155.403 93.5764C153.397 91.9686 152.756 93.5536 153.345 96.8197C153.88 98.6902 155.22 100.66 158.872 102.097C161.366 103.529 159.493 105.502 157.623 105.538C156.594 105.559 154.504 104.349 152.905 102.539C150.802 100.158 150.677 98.5597 149.518 94.8551C148.422 93.0493 146.465 93.8922 146.465 95.7851C147.404 99.4959 148.21 100.161 150.107 101.679C151.922 103.392 148.844 103.963 147.806 103.26C144.805 101.226 143.71 98.5958 142.707 96.2036C141.984 94.4769 139.884 95.314 140.857 98.1334C143.183 104.871 147.005 107.524 153.692 108.886C154.369 109.008 154.783 109.41 154.547 110.2C153.65 111.137 152.751 111.987 151.853 112.92C155.988 114.131 159.347 114.811 163.485 116.024C165.515 114.686 167.155 113.551 169.185 112.211C169.721 110.953 169.97 109.033 172.966 110.386C174.997 109.444 175.933 109.789 177.06 110.735C175.433 110.796 174.726 111.234 174.088 111.979C173.255 114.183 171.336 114.396 169.37 113.769C168.092 114.852 167.411 115.683 166.133 116.768C168.519 116.686 170.182 116.644 172.562 116.571C174.834 114.118 176.647 114.252 178.274 116.176C179.513 116.367 180.039 116.394 180.887 117.908C179.553 117.357 178.714 117.192 178.135 117.792C175.719 119.2 174.141 118.885 172.943 117.792C170.613 117.935 168.513 118.056 166.179 118.21C167.036 118.943 168.213 119.331 169.07 120.07C172.57 119.063 174.397 120.419 175.013 123.29C175.482 124.449 175.702 125.643 175.499 126.882C175.16 125.748 174.615 124.773 173.614 124.162C170.494 124.959 169.321 123.678 169.151 121.802C167.647 120.569 165.379 120.297 163.878 119.047C162.123 119.612 161.275 119.962 159.508 120.523C158.879 122.443 157.457 123.203 155.149 122.709C152.4 122.796 152.885 123.93 152.663 124.836C151.932 123.534 151.953 122.267 153.645 121.116C154.261 119.434 155.626 118.669 157.415 119.64C159.099 119.159 159.541 118.469 161.219 117.989C156.976 116.629 153.966 116.324 149.726 114.967C148.664 115.973 147.823 116.696 146.754 117.594C146.191 117.932 145.651 118.017 145.32 117.594C142.664 113.728 141.477 110.32 139.007 107.771C138.064 106.716 136.872 105.293 135.55 104.946C134.889 104.773 134.079 104.878 133.561 105.446C133.044 106.013 132.637 107.059 132.81 108.62C133.057 110.859 133.595 111.566 134.22 112.909C134.845 114.252 135.609 115.078 136.394 116.106C137.964 118.162 140.036 119.359 141.262 120.163C143.714 121.771 144.751 121.067 146.65 120.965C149.104 121.242 149.757 122.444 147.749 124.104C145.871 125.086 144.183 125.208 142.811 124.953C141.634 124.734 140.255 123.205 139.273 122.383C138.168 121.1 136.335 122.622 137.585 124.116C139.857 126.829 142.126 128.618 144.927 128.58C147.871 128.978 147.32 130.64 145.367 131.451C141.851 132.91 138.677 130.177 137.065 128.382C135.821 127.014 134.937 126.96 135.157 129.079C136.392 132.916 138.08 134.398 140.834 134.59C143.068 134.381 143.093 136.115 141.459 137.287C137.736 139.877 135.041 135.466 133.781 132.799C132.884 130.394 131.507 131.538 131.364 133.52C131.346 136.169 132.536 138.331 135.724 141.042C133.285 144.948 130.442 148.922 128 152.841L120.598 69.9571L127.998 56.862C128.769 56.1466 131.375 53.059 132.056 52.6305C132.305 52.3637 132.456 52.1751 132.091 52.0376C131.738 51.9047 130.912 51.7557 130.357 51.654C131.926 50.0734 133.271 49.5665 136.242 48.7014C135.518 48.3913 134.814 48.5718 132.681 48.469C133.528 47.2605 135.419 45.4094 137.861 44.5164C136.248 43.3637 135.934 43.2865 134.334 41.9356C137.104 41.7381 139.47 41.2076 141.85 40.4825C143.355 39.7751 145.445 39.1745 146.463 39.1572L146.465 39.16ZM146.199 42.4034C144.735 42.4034 143.829 42.9079 143.829 43.5194C143.829 44.1415 144.735 44.647 146.199 44.647C147.657 44.647 148.581 44.0954 148.581 43.4729C148.581 42.8614 147.657 42.4034 146.199 42.4034Z" fill="black"/>
</g>
</g>
<path d="M92.8264 222.808H86.1544L85.0504 226H81.5224L87.5464 209.224H91.4584L97.4824 226H93.9304L92.8264 222.808ZM91.9144 220.12L89.4904 213.112L87.0664 220.12H91.9144ZM103.094 208.24V226H99.7341V208.24H103.094ZM109.774 214.648C110.206 214.008 110.798 213.488 111.55 213.088C112.318 212.688 113.19 212.488 114.166 212.488C115.302 212.488 116.326 212.768 117.238 213.328C118.166 213.888 118.894 214.688 119.422 215.728C119.966 216.752 120.238 217.944 120.238 219.304C120.238 220.664 119.966 221.872 119.422 222.928C118.894 223.968 118.166 224.776 117.238 225.352C116.326 225.928 115.302 226.216 114.166 226.216C113.174 226.216 112.302 226.024 111.55 225.64C110.814 225.24 110.222 224.728 109.774 224.104V226H106.414V208.24H109.774V214.648ZM116.806 219.304C116.806 218.504 116.638 217.816 116.302 217.24C115.982 216.648 115.55 216.2 115.006 215.896C114.478 215.592 113.902 215.44 113.278 215.44C112.67 215.44 112.094 215.6 111.55 215.92C111.022 216.224 110.59 216.672 110.254 217.264C109.934 217.856 109.774 218.552 109.774 219.352C109.774 220.152 109.934 220.848 110.254 221.44C110.59 222.032 111.022 222.488 111.55 222.808C112.094 223.112 112.67 223.264 113.278 223.264C113.902 223.264 114.478 223.104 115.006 222.784C115.55 222.464 115.982 222.008 116.302 221.416C116.638 220.824 116.806 220.12 116.806 219.304ZM121.815 219.304C121.815 217.96 122.079 216.768 122.607 215.728C123.151 214.688 123.879 213.888 124.791 213.328C125.719 212.768 126.751 212.488 127.887 212.488C128.879 212.488 129.743 212.688 130.479 213.088C131.231 213.488 131.831 213.992 132.279 214.6V212.704H135.663V226H132.279V224.056C131.847 224.68 131.247 225.2 130.479 225.616C129.727 226.016 128.855 226.216 127.863 226.216C126.743 226.216 125.719 225.928 124.791 225.352C123.879 224.776 123.151 223.968 122.607 222.928C122.079 221.872 121.815 220.664 121.815 219.304ZM132.279 219.352C132.279 218.536 132.119 217.84 131.799 217.264C131.479 216.672 131.047 216.224 130.503 215.92C129.959 215.6 129.375 215.44 128.751 215.44C128.127 215.44 127.551 215.592 127.023 215.896C126.495 216.2 126.063 216.648 125.727 217.24C125.407 217.816 125.247 218.504 125.247 219.304C125.247 220.104 125.407 220.808 125.727 221.416C126.063 222.008 126.495 222.464 127.023 222.784C127.567 223.104 128.143 223.264 128.751 223.264C129.375 223.264 129.959 223.112 130.503 222.808C131.047 222.488 131.479 222.04 131.799 221.464C132.119 220.872 132.279 220.168 132.279 219.352ZM146.313 212.512C147.897 212.512 149.177 213.016 150.153 214.024C151.129 215.016 151.617 216.408 151.617 218.2V226H148.257V218.656C148.257 217.6 147.993 216.792 147.465 216.232C146.937 215.656 146.217 215.368 145.305 215.368C144.377 215.368 143.641 215.656 143.097 216.232C142.569 216.792 142.305 217.6 142.305 218.656V226H138.945V212.704H142.305V214.36C142.753 213.784 143.321 213.336 144.009 213.016C144.713 212.68 145.481 212.512 146.313 212.512ZM156.516 211.12C155.924 211.12 155.428 210.936 155.028 210.568C154.644 210.184 154.452 209.712 154.452 209.152C154.452 208.592 154.644 208.128 155.028 207.76C155.428 207.376 155.924 207.184 156.516 207.184C157.108 207.184 157.596 207.376 157.98 207.76C158.38 208.128 158.58 208.592 158.58 209.152C158.58 209.712 158.38 210.184 157.98 210.568C157.596 210.936 157.108 211.12 156.516 211.12ZM158.172 212.704V226H154.812V212.704H158.172ZM160.628 219.304C160.628 217.96 160.892 216.768 161.42 215.728C161.964 214.688 162.692 213.888 163.604 213.328C164.532 212.768 165.564 212.488 166.7 212.488C167.692 212.488 168.556 212.688 169.292 213.088C170.044 213.488 170.644 213.992 171.092 214.6V212.704H174.476V226H171.092V224.056C170.66 224.68 170.06 225.2 169.292 225.616C168.54 226.016 167.668 226.216 166.676 226.216C165.556 226.216 164.532 225.928 163.604 225.352C162.692 224.776 161.964 223.968 161.42 222.928C160.892 221.872 160.628 220.664 160.628 219.304ZM171.092 219.352C171.092 218.536 170.932 217.84 170.612 217.264C170.292 216.672 169.86 216.224 169.316 215.92C168.772 215.6 168.188 215.44 167.564 215.44C166.94 215.44 166.364 215.592 165.836 215.896C165.308 216.2 164.876 216.648 164.54 217.24C164.22 217.816 164.06 218.504 164.06 219.304C164.06 220.104 164.22 220.808 164.54 221.416C164.876 222.008 165.308 222.464 165.836 222.784C166.38 223.104 166.956 223.264 167.564 223.264C168.188 223.264 168.772 223.112 169.316 222.808C169.86 222.488 170.292 222.04 170.612 221.464C170.932 220.872 171.092 220.168 171.092 219.352Z" fill="black"/>
<g clip-path="url(#clip2_307_560)">
<circle cx="409.5" cy="86" r="75" fill="#D9D9D9"/>
<g clip-path="url(#clip3_307_560)">
<path d="M296.5 161H521.5V11H296.5V161Z" fill="#005430"/>
<path d="M465.249 70.581C465.233 67.9461 464.21 60.8484 463.951 58.4673C463.692 56.0861 463.431 53.926 463.494 53.4202C463.556 52.932 464.307 54.0988 464.704 54.1932C464.91 54.152 464.818 53.4151 464.445 52.7858C464.192 52.3584 463.331 50.7605 462.808 49.8241C462.562 49.381 462.507 49.1239 462.389 49.0695C462.271 49.015 461.32 50.934 461.424 51.1467C461.684 51.5367 461.862 51.7228 461.902 52.4116C461.943 53.1004 462.299 58.0184 462.753 61.7461C463.095 64.5583 463.845 70.6171 463.872 74.3841C463.879 75.6129 463.743 76.7842 463.579 77.2736C463.159 78.0422 462.503 78.7354 460.06 80.165C457.313 81.7724 453.649 83.1102 452.074 84.0054C451.095 84.5638 451.42 84.6385 452.272 84.3941C453.123 84.1497 457.52 83.3666 459.657 82.4638C461.662 81.6141 462.964 80.1928 463.952 78.1194C465.173 75.556 465.266 73.3806 465.249 70.581Z" fill="white"/>
<path d="M456.746 50.5654C456.959 50.4831 458.716 50.3925 459.19 50.49C458.879 50.9345 456.771 51.9183 456.762 52.0988C456.82 52.2203 458.218 51.874 458.659 51.6815C458.947 51.5081 459.14 51.2396 459.353 51.0168C459.857 50.4369 460.455 49.3612 460.304 49.2264C460.06 49.0086 457.664 49.1441 457.348 49.189C457.137 49.2194 456.6 50.1817 456.501 50.4286C456.405 50.6755 456.534 50.6477 456.746 50.5654Z" fill="white"/>
<path d="M460.337 66.1832C460.704 64.9423 460.794 63.4368 460.295 61.8521C459.783 60.2206 458.511 59.226 457.593 58.7164L457.43 60.2871C457.43 60.2871 458.716 60.9265 459.596 62.5365C460.154 63.5577 460.386 65.0018 459.946 66.6118C459.872 67.0113 460.158 66.791 460.337 66.1832Z" fill="white"/>
<path d="M446.724 74.0599C447.054 72.9425 447.135 71.587 446.687 70.16C446.226 68.6905 445.08 67.7947 444.253 67.3376L444.105 68.7513C444.105 68.7513 445.264 69.3274 446.056 70.776C446.559 71.6946 446.767 72.9969 446.372 74.4461C446.306 74.8044 446.563 74.6069 446.724 74.0599Z" fill="white"/>
<path d="M399.464 52.6729C399.994 53.6422 400.214 55.0147 399.797 56.5437C399.727 56.9229 399.997 56.7146 400.169 56.1372C400.515 54.9596 400.601 53.5288 400.128 52.0227C399.641 50.4722 398.432 49.5283 397.56 49.0452L397.406 50.5368C397.406 50.5368 398.629 51.1439 399.464 52.6729Z" fill="white"/>
<path d="M367.563 53.1747C368.008 54.218 368.038 55.6267 367.319 57.1107C367.179 57.4836 367.52 57.3069 367.805 56.7492C368.389 55.609 368.716 54.182 368.42 52.6055C368.117 50.9848 366.899 49.88 365.988 49.2817L365.574 50.7626C365.574 50.7626 366.861 51.5299 367.563 53.1747Z" fill="white"/>
<path d="M376.382 76.4958C376.947 75.4461 377.183 74.7395 377.434 73.4961C377.654 72.4021 377.669 71.1384 377.589 69.852C379.282 69.1619 381.299 68.0166 381.977 67.9324C381.514 69.524 382.62 71.2416 384.855 71.0175C385.026 72.8174 385.173 74.3983 385.262 75.3359C385.444 77.258 385.417 79.6803 385.411 80.1013C385.404 80.5242 385.71 80.4444 386.024 79.5024C386.443 78.2412 386.573 74.9478 386.421 72.7699C386.384 72.2255 386.323 71.4904 386.248 70.6529C387.697 69.9824 387.938 68.6883 388.48 68.1369C388.969 69.8494 391.66 70.0818 392.49 69.7152C393.52 69.26 393.858 68.4414 394.123 66.5415C394.389 64.6422 393.615 63.8774 393.338 63.6704C393.311 63.9002 392.637 66.1325 392.637 66.1325C392.637 66.1325 393.276 66.8074 393.308 67.1391C392.788 67.6102 391.69 67.6393 390.768 67.3392C389.846 67.0391 389.563 66.487 389.618 66.1167C389.671 65.745 390.018 65.407 390.03 64.9543C390.04 64.5016 389.823 64.6327 389.454 65.0334C389.085 65.4348 388.847 65.7957 388.336 66.6573C387.918 67.362 387.24 68.2217 386.045 68.4674C385.847 66.3984 385.622 64.1971 385.471 62.8144C385.393 62.0844 384.606 55.7762 384.55 55.0703C384.501 54.4555 384.41 53.7306 384.425 53.39C384.44 53.1191 384.61 53.2267 384.873 53.5103C385.137 53.7933 385.597 54.2871 385.677 54.2485C385.945 54.1168 385.671 53.297 385.319 52.5626C384.969 51.8263 383.772 48.9216 383.521 48.8019C383.391 48.7412 382.583 50.529 382.535 50.881C382.661 51.1014 382.988 51.4477 382.999 52.4328C383.004 52.7075 383.18 55.2982 383.425 57.7477C383.64 59.911 383.924 61.9635 383.951 62.2022C384.146 63.8533 384.383 66.1806 384.609 68.4686C383.311 68.2217 382.966 67.3658 382.995 66.8777C383.028 66.3269 383.276 65.7052 383.157 65.5646C382.907 65.4146 381.42 66.2458 379.346 67.1391C378.762 67.3898 378.105 67.6589 377.411 67.914C377.23 66.3547 376.992 64.872 376.896 63.7381L376.884 63.6121C378.249 63.5241 379.365 62.8353 379.873 62.1794C380.508 61.3595 380.952 59.6723 380.995 58.3795C381.038 57.0855 379.994 54.7195 379.745 53.9674C379.495 53.2147 379.365 52.693 379.343 52.4328C379.321 52.1726 379.908 52.7341 380.277 52.8443C380.527 52.8943 380.44 52.353 380.135 51.9814C379.832 51.611 378.191 49.121 378.076 49.2957C378.005 49.3983 377.348 51.2299 377.305 51.5103C377.564 51.6813 377.866 52.1523 377.888 52.6037C377.91 53.0551 378.271 55.0399 378.672 56.1428C379.074 57.2456 379.93 59.3615 379.984 59.9433C379.372 60.3744 377.98 61.1044 376.603 61.0607C376.367 59.131 376.069 56.8898 375.909 55.3026C375.848 54.6892 375.844 54.0345 375.853 53.6927C375.861 53.4217 376.056 53.459 376.324 53.7376C376.594 54.0162 377.008 54.4214 377.093 54.3922C377.278 54.3308 377.117 53.7161 376.751 52.9861C376.385 52.2561 374.929 49.1685 374.673 49.0533C374.544 48.9944 373.892 50.7285 373.851 51.0824C373.981 51.3014 374.315 51.6401 374.347 52.6252C374.373 53.4097 374.756 57.2539 375.083 60.6397C373.72 59.935 373.255 58.9278 373.087 57.2368C372.969 56.0579 372.957 53.8864 372.537 52.07C372.3 51.0431 371.801 49.9998 371.209 49.4458C371.068 49.787 370.438 51.882 370.438 51.882C370.643 52.4834 371.282 54.5087 371.26 56.2637C371.239 58.0186 371.101 59.7344 369.134 60.9164C367.169 62.099 364.221 61.6286 363.493 59.7837C362.765 57.9376 364.383 53.309 364.362 52.2163C364.34 51.1235 364.145 50.9728 363.688 51.1533C363.232 51.3337 362.299 52.3872 361.495 54.101C360.691 55.8161 360.334 57.9401 359.877 59.3843C359.422 60.8284 358.692 62.2915 357.564 62.2104C356.435 62.1307 355.828 61.0981 355.481 59.6046C355.133 58.1098 355.346 56.1415 355.44 55.6369C355.676 54.3732 355.13 54.6322 354.796 56.6163C354.589 57.8401 354.384 59.7945 355.112 61.8401C355.838 63.8856 357.077 64.6485 358.162 64.387C359.248 64.1268 360.203 61.5799 360.54 60.4358C360.876 59.2937 362.38 54.2207 363.232 53.9712C363.351 54.5429 362.57 56.3859 362.32 58.5416C362.071 60.6973 362.652 63.5931 365.389 64.0939C368.125 64.5953 369.981 62.8207 370.654 61.5887C371.328 60.3548 371.643 59.0614 371.719 58.4099C371.806 60.0636 372.935 62.646 375.127 63.3823L375.353 63.4475C375.488 64.8011 375.707 66.5681 375.909 68.4237C375.483 68.5554 375.052 68.6744 374.623 68.777C374.569 68.5991 374.508 68.425 374.435 68.2648C373.766 66.8257 372.659 65.4994 371.124 65.5912C369.557 65.6843 367.848 67.776 367.922 69.3037C367.972 70.3312 368.537 71.1745 370.594 71.3904C371.534 71.4898 372.531 71.3854 373.562 71.1606C373.707 71.5854 373.799 72.0077 373.809 72.3926C373.157 73.1549 367.763 77.2232 363.725 77.6145C359.686 78.0051 358.454 75.888 358.414 73.7627C358.383 72.1457 359.356 70.5319 360.039 69.4151C361.017 68.6997 361.82 67.8052 362.326 67.1151C362.464 67.1999 362.595 67.2784 362.719 67.3512C363.202 67.6317 363.395 68.0508 363.395 68.0508C363.484 67.914 363.899 67.167 363.736 66.8017C363.662 66.7118 363.297 66.487 362.858 66.2205C363.319 65.0721 363.312 63.9255 362.715 63.6704C362.048 63.3861 361.176 64.1762 360.8 64.658C360.605 64.9087 360.53 65.193 360.529 65.4317C360.526 65.7387 360.671 66.016 361.028 66.2629C361.384 66.506 361.715 66.7263 362.026 66.9251C361.143 67.852 359.057 69.21 357.781 70.0077C357.734 69.8906 357.547 70.0141 357.295 70.3103L356.949 70.5237C355.931 71.1467 353.489 72.5148 353.009 72.8497C352.529 73.1853 352.83 73.1245 353.009 73.0498C353.348 72.8668 353.793 72.6452 354.293 72.4009C355.001 72.0545 355.825 71.6627 356.63 71.2695C356.392 71.6734 356.146 72.1457 355.927 72.6611C354.966 74.9295 353.413 79.6309 356.773 82.4596C359.987 85.1674 365.512 84.1373 370.094 81.3232C374.676 78.5084 375.666 77.5189 376.382 76.4958ZM361.443 65.3126C361.284 65.1955 361.262 65.0391 361.392 64.9302C361.557 64.7897 361.768 64.6567 362.007 64.6118C362.515 64.5175 362.718 65.1012 362.514 66.0103C362.128 65.7742 361.731 65.526 361.443 65.3126ZM371.953 69.1473C369.62 69.1581 369.512 68.7346 369.556 68.4636C369.599 68.1939 370.326 67.4538 371.247 67.9419C371.637 68.1489 372.076 68.582 372.482 69.1258C372.303 69.1391 372.126 69.1461 371.953 69.1473ZM364.807 81.4162C360.399 82.6191 356.1 80.7553 355.839 77.0649C355.64 74.247 356.668 72.1236 357.331 70.927C357.963 70.6142 358.56 70.3103 359.054 70.0381C357.9 71.8963 357.225 74.385 357.676 76.4932C358.187 78.8813 360.264 80.3292 363.782 79.862C367.265 79.4004 371.974 76.088 373.309 74.8389C373.716 74.3882 373.984 73.9817 374.35 73.1536C374.501 72.8136 374.712 72.3648 374.791 71.8576C374.843 71.5272 374.87 71.1739 374.876 70.8143C375.285 70.6921 375.696 70.5554 376.109 70.4085C376.25 71.9203 376.353 73.4107 376.359 74.6996C374.189 77.2447 369.215 80.2127 364.807 81.4162Z" fill="white"/>
<path d="M441.905 71.7388C441.756 69.2697 441.396 64.8007 441.195 62.5335C441.016 60.5158 440.667 57.7504 440.41 55.3161C440.346 54.7033 440.339 54.1164 440.346 53.7752C440.354 53.5055 440.623 53.6093 440.893 53.8866C441.163 54.1639 441.585 54.5121 441.664 54.4697C441.928 54.3329 441.612 53.6568 441.242 52.9293C440.871 52.2006 439.402 49.1864 439.147 49.0718C439.017 49.0136 438.329 50.8192 438.289 51.1731C438.421 51.3909 438.757 51.7283 438.793 52.7134C438.83 53.6992 439.328 58.2309 439.687 61.896C439.937 64.4436 440.258 68.6005 440.493 71.735C440.481 71.7401 440.714 74.7151 440.739 75.0493C440.883 76.974 440.808 79.3956 440.794 79.816C440.778 80.2382 441.087 80.1648 441.418 79.2278C441.756 78.2712 441.948 76.1351 441.974 74.2067L441.905 71.7388Z" fill="white"/>
<path d="M429.391 63.0949C428.939 63.233 428.229 62.755 428.284 61.7528C428.333 60.8474 428.72 59.9997 428.87 59.4647C429.075 58.7265 429.077 58.0149 428.903 58.4182C428.511 59.3198 427.782 61.0627 427.631 62.2453C427.48 63.428 427.863 64.1902 428.384 64.4504C429.033 64.7765 429.501 64.2592 429.817 63.497C430.122 62.767 430.064 61.9148 429.853 62.1155C429.676 62.3251 429.611 63.0272 429.391 63.0949Z" fill="white"/>
<path d="M422.892 66.7385C423.132 66.1016 423.188 65.4774 423.004 65.8199C422.588 66.5872 421.81 68.0699 421.581 69.1C421.354 70.13 421.63 70.8271 422.068 71.0911C422.615 71.4216 423.065 70.998 423.405 70.3491C423.73 69.728 423.747 68.974 423.547 69.1373C423.374 69.3095 423.26 69.9218 423.063 69.9667C422.652 70.0572 422.068 69.5887 422.194 68.71C422.309 67.9186 422.718 67.1988 422.892 66.7385Z" fill="white"/>
<path d="M403.977 80.1746C404.378 79.5244 404.577 78.8501 404.299 79.1907C403.678 79.9517 402.504 81.4288 402.03 82.512C401.558 83.5952 401.708 84.4088 402.129 84.7791C402.655 85.2413 403.24 84.8614 403.752 84.2163C404.243 83.5978 404.426 82.7773 404.169 82.9172C403.944 83.0748 403.687 83.7225 403.46 83.7345C402.994 83.7573 402.455 83.1362 402.785 82.2005C403.084 81.3559 403.687 80.6456 403.977 80.1746Z" fill="white"/>
<path d="M437.143 61.1998C436.683 61.3151 436.004 60.8003 436.118 59.8019C436.221 58.901 436.66 58.0748 436.84 57.5494C437.091 56.8219 437.134 56.1122 436.936 56.5047C436.492 57.386 435.66 59.0878 435.437 60.2616C435.215 61.4347 435.551 62.2153 436.056 62.5021C436.686 62.8592 437.182 62.3679 437.545 61.6221C437.892 60.9092 437.887 60.0558 437.663 60.2457C437.474 60.4471 437.367 61.1441 437.143 61.1998Z" fill="white"/>
<path d="M437.005 73.4484C437.634 73.8055 438.132 73.3142 438.494 72.5684C438.841 71.8555 438.836 71.0021 438.613 71.192C438.424 71.3921 438.316 72.0904 438.092 72.1461C437.633 72.2607 436.952 71.7466 437.067 70.7482C437.17 69.8473 437.609 69.0205 437.789 68.4956C438.039 67.7682 438.083 67.0572 437.885 67.451C437.44 68.3323 436.609 70.0341 436.386 71.2066C436.164 72.381 436.5 73.1616 437.005 73.4484Z" fill="white"/>
<path d="M445.038 57.8024C445.34 56.9224 445.392 56.0633 445.153 56.5387C444.614 57.6049 443.608 59.6637 443.338 61.085C443.07 62.5051 443.477 63.449 444.089 63.7966C444.849 64.2284 445.451 63.6339 445.89 62.7324C446.309 61.8695 446.302 60.8356 446.033 61.0667C445.805 61.3092 445.674 62.1524 445.403 62.2202C444.848 62.3595 444.024 61.7371 444.163 60.5292C444.288 59.439 444.819 58.4393 445.038 57.8024Z" fill="white"/>
<path d="M380.832 73.023C381.327 71.9505 381.506 70.8767 381.142 71.4484C380.326 72.7279 378.79 75.2053 378.266 76.9602C377.741 78.7158 378.13 79.9491 378.852 80.455C379.753 81.083 380.588 80.4018 381.257 79.3185C381.897 78.2796 382.025 76.9786 381.655 77.2388C381.337 77.5174 381.062 78.5645 380.713 78.6196C379.995 78.7323 379.042 77.8573 379.374 76.3537C379.676 74.997 380.474 73.7992 380.832 73.023Z" fill="white"/>
<path d="M450.157 83.6562C450.536 83.3454 453.835 81.5683 454.443 81.2074C454.443 81.2074 455.064 80.1944 454.878 80.0868C454.691 79.9792 453.486 81.0745 452.737 81.1048C451.987 81.1352 450.961 80.5844 450.928 80.133C451.025 79.7924 451.927 79.2809 452.253 79.26C452.579 79.241 452.526 79.983 452.635 80.0735C452.744 80.1628 453.177 79.5613 453.232 79.3106C453.286 79.0606 453.241 78.0134 452.645 78.1634C451.7 78.4021 450.276 80.1533 450.114 80.7041C449.95 81.2562 450.83 81.7367 451.472 81.9982C451.417 82.0184 450.938 82.2489 450.635 82.549C450.635 82.549 450.309 82.9143 450.157 83.6562Z" fill="white"/>
<path d="M438.907 85.8574C439.286 85.5466 442.585 83.7707 443.193 83.4086C443.193 83.4086 443.815 82.3956 443.628 82.288C443.441 82.1804 442.236 83.2756 441.487 83.306C440.737 83.3364 439.711 82.7856 439.678 82.3342C439.775 81.9936 440.677 81.482 441.003 81.4624C441.329 81.4422 441.276 82.1835 441.385 82.2734C441.494 82.364 441.927 81.7625 441.982 81.5118C442.036 81.2617 441.99 80.2146 441.395 80.3646C440.45 80.6046 439.026 82.3545 438.864 82.9065C438.7 83.4573 439.58 83.9379 440.221 84.1993C440.167 84.2196 439.688 84.4494 439.385 84.7501C439.385 84.7501 439.059 85.1154 438.907 85.8574Z" fill="white"/>
<path d="M413.564 54.0056C413.86 54.3493 415.798 56.8115 417.316 58.3594C418.834 59.9086 421.435 62.4157 423.346 64.134C423.716 64.467 424.108 64.8278 424.508 65.2033C424.99 68.9044 425.547 73.614 425.781 75.5615C426.012 77.4791 426.046 79.9008 426.051 80.3224C426.055 80.7447 426.359 80.6586 426.648 79.7108C427.036 78.4389 427.08 75.1455 426.875 72.9702C426.747 71.6267 426.447 69.1101 426.156 66.7898C427.284 67.9047 428.351 69.0107 429.069 69.8388C430.39 71.3589 431.501 72.5055 432.178 74.1395C432.658 75.2956 432.609 76.2155 432.806 76.3972C432.975 76.5542 433.163 75.1708 432.954 73.8293C432.614 71.6508 432.148 70.7271 429.352 67.6167C428.285 66.4277 427.029 65.1849 425.801 64.0232C425.754 63.6648 425.711 63.3331 425.672 63.0387C425.574 62.3113 424.627 56.022 424.552 55.3174C424.488 54.7039 424.377 53.9815 424.386 53.6403C424.393 53.3687 424.565 53.4744 424.836 53.7517C425.106 54.0284 425.579 54.5127 425.659 54.4703C425.923 54.3335 425.629 53.5212 425.258 52.7925C424.889 52.0651 423.617 49.187 423.362 49.0731C423.233 49.0148 422.47 50.8198 422.431 51.1731C422.564 51.3909 422.899 51.7302 422.935 52.714C422.946 52.9888 423.189 55.5757 423.496 58.0182C423.767 60.1764 424.102 62.2233 424.137 62.46L424.139 62.4784C422.872 61.3236 421.757 60.3429 421.08 59.7269C419.499 58.2891 416.005 54.8774 415.864 54.3664C415.833 54.205 416.104 54.3044 416.603 54.3842C417.103 54.4646 417.548 54.6349 417.468 54.3892C417.432 54.2734 417.24 53.9872 416.763 53.6922C416.285 53.3965 415.061 52.6305 414.15 52.0885C413.237 51.5472 412.785 51.0933 412.597 51.2231C412.504 51.287 412.586 53.1414 412.641 53.3725C412.869 53.3921 413.27 53.6605 413.564 54.0056Z" fill="white"/>
<path d="M416.06 50.6701C416.435 50.5878 418.21 50.6328 418.854 50.7683C418.584 50.9557 416.768 51.873 416.409 52.0915C416.053 52.3105 415.962 52.4371 416.142 52.4156C416.662 52.2713 417.835 52.0915 418.397 51.7983C418.927 51.5501 419.831 50.3397 420.182 49.8883C420.531 49.4369 420.531 49.2115 420.442 49.0905C420.083 48.8955 417.77 48.6999 416.655 48.9766C416.346 49.1861 415.742 50.3023 415.653 50.5347C415.564 50.7683 415.686 50.7524 416.06 50.6701Z" fill="white"/>
<path d="M425.932 50.5249C426.235 50.4584 427.666 50.4945 428.184 50.6034C427.967 50.7547 426.504 51.4941 426.215 51.6714C425.926 51.8468 425.854 51.9493 425.998 51.9316C426.418 51.8164 427.364 51.6714 427.816 51.434C428.243 51.2339 428.971 50.2583 429.254 49.8956C429.535 49.5309 429.535 49.3498 429.463 49.253C429.175 49.094 427.311 48.937 426.412 49.1605C426.162 49.3289 425.677 50.2286 425.605 50.416C425.532 50.6034 425.631 50.5913 425.932 50.5249Z" fill="white"/>
<path d="M433.957 50.4223C434.258 50.3558 435.688 50.3919 436.207 50.5008C435.991 50.6521 434.528 51.3916 434.238 51.5676C433.95 51.7442 433.878 51.8468 434.022 51.8291C434.442 51.7139 435.461 51.5676 435.914 51.3315C436.341 51.1314 436.847 50.1558 437.13 49.7918C437.413 49.4283 437.413 49.246 437.339 49.1504C437.052 48.9915 435.334 48.8345 434.436 49.0567C434.187 49.2264 433.7 50.126 433.628 50.3134C433.556 50.5008 433.654 50.4888 433.957 50.4223Z" fill="white"/>
<path d="M428.95 54.3308C428.475 55.0792 429.071 55.6831 429.288 56.2877C428.995 56.5555 428.544 56.3112 428.393 56.0763C428.073 55.5945 428.18 54.6126 427.803 54.4612C427.707 54.7265 427.644 55.0209 427.644 55.0209C427.644 55.0209 427.93 55.6926 427.859 56.1371C427.813 56.4055 427.576 56.7189 427.263 56.7252C426.429 56.7455 426.84 55.5109 426.518 54.8113C426.452 54.9823 426.405 55.1659 426.328 55.3261C426.387 55.5084 426.419 55.7642 426.429 55.9117C426.448 56.2048 426.425 56.5207 426.475 56.7708C426.544 57.1247 426.74 57.3596 427.04 57.3824C427.663 57.4318 427.948 56.9272 428.041 56.5131C428.149 56.9354 428.973 57.4007 429.378 56.8822C429.915 56.1985 429.486 55.6129 429.21 54.9696C429.012 54.4942 429.069 54.182 428.95 54.3308Z" fill="white"/>
<path d="M405.539 52.3456C405.582 52.6533 405.741 52.8635 405.999 52.8951C406.532 52.9629 406.801 52.5393 406.902 52.1873C406.973 52.5552 407.661 52.9882 408.036 52.559C408.531 51.9911 408.188 51.4694 407.981 50.904C407.833 50.4849 407.897 50.219 407.787 50.3425C407.342 50.9667 407.828 51.5131 407.986 52.043C407.72 52.2608 407.344 52.0322 407.225 51.8252C406.972 51.3966 407.11 50.5552 406.794 50.4089C406.698 50.6343 406.63 50.8844 406.63 50.8844C406.63 50.8844 406.845 51.4751 406.761 51.8543C406.71 52.0841 406.491 52.3443 406.22 52.3374C405.502 52.3216 405.914 51.2744 405.669 50.6597C405.605 50.8034 405.555 50.961 405.48 51.094C405.524 51.2548 405.539 51.4751 405.539 51.6036C405.545 51.8569 405.509 52.1266 405.539 52.3456Z" fill="white"/>
<path d="M422.538 81.3412C422.618 81.214 422.794 80.8645 422.75 80.6258C422.705 80.3871 422.413 79.3913 421.845 79.1418C421.281 78.8924 420.854 79.4153 420.583 80.1428L420.396 80.1383C420.351 80.246 420.295 80.4068 420.251 80.6974C420.188 81.1171 420.068 81.3874 419.349 82.0408C418.743 82.5878 416.782 83.9015 415.511 84.5188C414.239 85.1373 413.323 85.671 412.986 85.8331C412.65 85.9926 412.748 86.0521 413.084 85.9515C413.419 85.8514 415.108 85.3076 415.781 85.0303C416.453 84.7511 417.275 84.2921 418.265 83.6495C419.366 82.9354 420.024 82.2212 420.245 81.5881C420.403 81.1367 420.443 80.9563 420.443 80.9563C420.443 80.9563 420.857 81.2007 421.558 81.3608C422.258 81.5217 422.456 81.4697 422.538 81.3412ZM421.589 79.9262C421.9 80.0446 422.09 80.384 422.146 80.5897C421.789 80.598 421.13 80.4163 420.85 80.2896C421.019 79.9636 421.312 79.8224 421.589 79.9262Z" fill="white"/>
<path d="M415.085 82.0415C414.109 81.906 411.648 81.5318 411.046 80.1035C411.552 79.3666 413.879 78.4334 416.795 77.5604C419.711 76.6892 422.757 75.5585 423.576 75.0127C423.756 74.952 424.103 74.9703 424.103 74.9703C424.249 74.548 424.981 73.0653 425.027 72.7551C424.212 72.8013 419.19 73.1704 416.959 73.2901C414.726 73.4104 410.427 73.3812 408.995 73.3654C409.873 72.7336 411.958 71.5003 414.939 70.4481C415.325 70.3113 415.682 70.1879 416.016 70.0764C416.264 70.5183 416.448 70.9552 416.486 71.3357C416.676 71.1407 416.818 70.4943 416.77 69.8308C418.508 69.2762 419.403 69.0926 419.789 68.9881C420.033 68.6722 420.465 67.3946 420.529 66.4659C420.27 65.9929 419.457 65.4041 418.734 64.8983C417.737 64.2025 416.663 63.596 415.591 63.8613C414.124 64.2209 413.831 66.9141 414.172 67.4852C414.281 67.6656 414.539 67.9853 414.844 68.3797C413.773 68.8007 412.653 69.2958 411.665 69.8162C409.466 70.9748 407.01 72.2423 406.294 73.461L406.089 73.561C406.031 73.6763 405.578 75.5623 405.512 75.7655C405.97 75.7497 409.385 75.756 411.764 75.6819C414.142 75.606 416.22 75.5306 417.035 75.5306C415.829 75.8162 412.669 76.9906 411.76 77.6813C410.851 78.3739 410.28 79.4267 410.265 81.2317C409.418 80.9 407.844 80.1421 406.502 78.3277C405.007 76.3055 405.316 74.2258 404.718 71.4965C403.848 67.5358 401.991 64.1918 400.834 63.1687C400.445 64.5665 400.395 65.62 400.395 65.62C400.395 65.62 401.844 68.8235 402.577 70.8685C403.311 72.914 403.937 74.9292 403.906 75.3806C403.302 76.705 399.727 79.4793 396.748 81.1032C393.922 82.6429 391.433 82.8088 390.551 81.7122C390.378 81.4983 390.26 81.245 390.194 80.9582C390.577 80.7791 390.962 80.5986 391.357 80.4182C393.897 79.2609 398.409 76.8247 399.466 75.5465C400.607 73.9973 400.591 71.8162 399.922 70.5677C399.256 69.3199 398.211 67.8751 398.13 67.3642C398.066 67.123 398.808 67.4624 399.246 67.4852C399.459 67.4693 399.353 67.1838 398.897 66.7324C398.533 66.3728 397.124 65.206 396.586 64.7508C396.451 64.6349 396.351 64.6818 396.323 64.804C396.218 65.2699 396.004 66.2677 395.921 66.7603L395.979 67.0084C396.133 67.1002 396.312 67.2034 396.398 67.4611C396.52 67.8264 396.946 68.8457 397.645 70.1322C398.346 71.418 399.358 72.8374 399.457 73.5541C398.634 74.6038 394.484 76.8393 390.441 78.6816C390.691 77.9067 391.085 77.0304 391.609 76.0574C391.757 75.8928 391.893 75.6895 392.019 75.4604C392.422 74.7234 392.461 73.8225 392.217 74.0131C392.007 74.215 391.856 74.9463 391.617 74.9957C391.126 75.0963 390.437 74.5234 390.61 73.4756C390.767 72.5304 391.272 71.6769 391.491 71.1306C391.793 70.3746 391.876 69.6276 391.647 70.034C391.131 70.9419 390.164 72.7007 389.866 73.9295C389.571 75.1565 389.885 75.9953 390.403 76.3201C390.597 76.4436 390.783 76.4822 390.959 76.4581C390.605 77.133 390.166 77.9611 389.847 78.9487C388.221 79.6762 386.639 80.3264 385.33 80.7949C380.623 82.4796 377.269 83.4723 374.923 84.2092L374.832 84.2504C375.004 83.6926 374.981 83.2165 374.796 83.3596C374.587 83.5628 374.437 84.294 374.197 84.3422C373.706 84.4428 373.017 83.8705 373.19 82.8221C373.347 81.8769 373.852 81.0247 374.071 80.4777C374.372 79.7224 374.456 78.9741 374.227 79.3812C373.711 80.289 372.744 82.0478 372.447 83.276C372.15 84.5036 372.464 85.3425 372.982 85.6679C373.627 86.0731 374.177 85.5761 374.599 84.8075L374.747 84.4916C374.893 84.4916 375.141 84.4574 375.51 84.3751C376.585 84.1332 379.272 83.7432 382.968 83.2614C385.704 82.9056 387.594 82.1542 389.42 81.3178C389.412 81.5198 389.41 81.7255 389.419 81.9376C389.518 84.4454 391.161 85.1532 393.409 84.684C395.577 84.2288 398.6 82.2409 400.412 80.9C402.301 79.5021 403.391 78.253 403.669 77.8174C404.173 76.7493 404.312 75.5692 404.346 75.0127C404.511 76.5461 404.644 78.6683 406.095 80.4885C407.43 82.1636 410.166 84.5011 415.313 84.565C415.33 83.9528 415.085 82.0415 415.085 82.0415ZM414.745 66.5026C415.482 65.6757 417.054 66.2164 418.234 67.2648C417.629 67.4066 416.808 67.6593 415.902 67.9828C415.364 67.3338 414.763 66.7083 414.745 66.5026Z" fill="white"/>
<path d="M385.811 55.1654C386.145 55.0128 387.167 54.5532 388.269 53.9112C389.369 53.2737 390.402 52.5013 390.908 51.9878C391.101 51.7909 391.274 51.6371 391.384 51.4541C391.714 51.5909 391.942 51.7327 392.083 51.7884C392.296 51.8707 392.581 51.9891 392.765 51.3826C392.95 50.7767 392.705 50.3854 392.345 49.9182C392.04 49.5263 391.557 48.9375 391.164 48.7913C390.832 48.6666 390.673 49.4098 390.724 49.3915H390.947L390.99 49.4124C390.532 49.6434 390.177 50.3626 390.141 50.6153C390.105 50.89 390.157 51.0926 390.815 51.2616L391.079 51.3395C390.53 51.9891 389.508 52.6608 388.812 53.1369C387.823 53.8143 386.421 54.6608 386.022 54.9052C385.623 55.1483 385.656 55.2249 385.811 55.1654ZM391.749 50.393L391.785 50.0682C392.247 50.595 392.59 51.2218 392.556 51.3104C392.344 51.3275 392.079 51.1312 391.617 50.9337C391.668 50.7767 391.712 50.6032 391.749 50.393ZM390.422 50.3937C390.419 50.2949 390.597 50.0201 390.974 49.8701C391.35 49.7188 391.516 50.1411 391.549 50.6551L391.438 50.8609L391.099 50.7438C390.74 50.6387 390.497 50.5792 390.422 50.3937Z" fill="white"/>
<path d="M410.452 65.0814C410.994 64.7231 412.485 63.6468 413.33 62.9415C413.918 62.4515 414.609 61.7298 415.078 61.1195C415.373 61.31 415.648 61.4791 415.897 61.626C416.38 61.9077 416.573 62.3255 416.573 62.3255C416.662 62.1888 417.077 61.4405 416.915 61.0764C416.818 60.9574 416.225 60.6111 415.619 60.2401C415.926 59.55 416.349 58.3566 415.743 57.9388C415.225 57.5842 414.351 58.1711 413.946 58.9327C413.612 59.5633 413.569 60.0983 414.206 60.5364C414.385 60.6598 414.557 60.7763 414.726 60.8871C414.083 61.5905 412.898 62.6313 412.055 63.3398C411.008 64.216 410.018 65.0751 409.845 65.2802L409.795 65.36C409.567 64.7231 409.629 64.3299 409.459 64.5414C408.726 65.6917 409.645 66.6237 409.979 67.5543C409.527 67.9646 408.835 67.5879 408.603 67.2289C408.108 66.4857 408.273 64.9763 407.695 64.7427C407.545 65.1504 407.448 65.6044 407.448 65.6044C407.448 65.6044 407.888 66.6382 407.777 67.3207C407.708 67.7335 407.342 68.2166 406.862 68.2248C405.577 68.2577 406.211 66.3571 405.715 65.2809C405.614 65.5449 405.542 65.8272 405.422 66.0716C405.513 66.3546 405.563 66.7471 405.576 66.9744C405.609 67.4258 405.572 67.9101 405.648 68.2976C405.754 68.8421 406.057 69.2042 406.519 69.2378C407.477 69.3156 407.914 68.5369 408.06 67.9019C408.225 68.5515 409.494 69.2656 410.117 68.4692C410.944 67.4163 410.282 66.5148 409.86 65.5246L409.81 65.3961C409.869 65.417 410.09 65.3201 410.452 65.0814ZM414.199 59.1531C414.516 58.5636 415.185 58.5136 415.386 58.8226C415.545 59.0682 415.559 59.5475 415.319 60.0533C414.729 59.683 414.202 59.3202 414.199 59.1531Z" fill="white"/>
<path d="M389.539 61.3337C388.411 61.2539 387.803 60.2201 387.456 58.7266C387.108 57.2331 387.321 55.2635 387.416 54.7589C387.51 54.255 386.978 54.5152 386.772 55.739C386.566 56.9615 386.359 58.9165 387.087 60.9634C387.814 63.0076 389.052 63.7705 390.138 63.5091C391.223 63.2489 392.178 60.7019 392.515 59.5591C392.852 58.4157 394.356 53.7529 395.208 53.5022C395.327 54.0739 394.546 55.5079 394.296 57.6636C394.047 59.8193 394.48 62.6468 397.216 63.1482C399.953 63.6502 401.809 61.875 402.482 60.6411C403.156 59.4091 403.47 58.1138 403.546 57.4629C403.634 59.1172 404.762 61.7003 406.954 62.4366C409.072 63.1482 410.69 62.4967 411.405 61.5743C412.04 60.7551 412.557 59.0678 412.602 57.7738C412.645 56.481 411.527 54.1151 411.277 53.3617C411.027 52.6102 410.897 52.0885 410.875 51.8283C410.854 51.5681 411.441 52.1297 411.81 52.2398C412.06 52.2898 411.972 51.7485 411.668 51.3769C411.365 51.0065 409.723 48.5165 409.608 48.69C409.537 48.7938 408.88 50.6254 408.837 50.9059C409.097 51.0768 409.398 51.5478 409.421 51.9992C409.441 52.4506 409.876 54.4354 410.278 55.5383C410.68 56.6412 411.462 58.757 411.516 59.3388C410.735 59.8896 408.975 60.5905 407.304 59.8801C405.632 59.1672 405.099 58.1346 404.914 56.2898C404.797 55.1109 404.785 52.9394 404.365 51.1237C404.128 50.0974 403.628 49.054 403.035 48.5001C402.896 48.8401 402.266 50.9363 402.266 50.9363C402.471 51.5377 403.11 53.563 403.09 55.318C403.067 57.0717 402.929 58.788 400.962 59.9706C398.997 61.1533 396.197 60.6823 395.469 58.8368C394.741 56.9919 396.359 52.8413 396.338 51.7485C396.316 50.6558 396.119 50.5045 395.664 50.6856C395.208 50.866 394.273 51.9195 393.471 53.6333C392.667 55.3484 392.31 57.0622 391.852 58.5063C391.397 59.9504 390.668 61.4135 389.539 61.3337Z" fill="white"/>
<path d="M356.776 54.9368C358.164 54.8361 359.338 53.7833 359.641 53.5034C359.945 53.2217 360.109 52.802 359.891 52.9615C358.285 54.3955 356.135 54.436 356.015 54.1948C356.07 53.9542 356.635 53.563 357.46 53.0122C357.962 52.6772 358.408 52.3632 358.742 51.9182L358.833 51.934C359.445 52.0682 360.151 52.3354 360.367 52.1214C360.718 51.7751 360.764 51.2078 360.384 50.5962C360.062 50.0771 359.311 49.594 358.659 49.2452C358.009 48.8982 357.883 49.4522 357.799 49.6497C357.719 49.834 357.752 49.991 357.89 49.9948C357.68 50.2803 357.531 50.6481 357.476 50.952C357.441 51.1483 357.469 51.3091 357.549 51.4414C357.573 51.4788 357.693 51.6263 357.921 51.7137L358.204 51.8017C357.717 52.2512 357.156 52.6032 356.862 52.7811C356.331 53.1021 355.701 53.6636 355.505 54.2442C355.31 54.8266 355.386 55.0375 356.776 54.9368ZM359.231 50.8406L359.284 50.5443V50.3544C359.724 50.6747 360.428 51.2812 360.385 51.6447C360.106 51.5813 359.575 51.4693 359.07 51.3395C359.135 51.1882 359.187 51.0223 359.231 50.8406ZM357.925 50.933C357.602 50.6747 357.917 50.4171 358.204 50.2512C358.575 50.0372 358.792 50.2138 358.981 50.7754C358.915 50.9362 358.822 51.0926 358.712 51.2426C358.424 51.1534 358.018 51.0103 357.925 50.933Z" fill="white"/>
<path d="M360.939 70.6206C360.54 70.967 360.385 72.0939 360.466 72.1616C360.547 72.2294 361.795 72.6504 361.99 72.7415L362.079 72.4022C362.673 72.9359 363.332 75.5987 363.479 75.6063C363.625 75.6133 363.837 75.305 363.976 74.5978C364.105 73.9419 364.233 72.9606 364.366 72.1616C364.491 71.4304 364.685 71.0119 365.124 70.9283C365.564 70.846 365.89 71.4101 366.004 71.7938C366.004 71.7938 366.313 71.0562 366.379 70.5979C366.305 70.3566 365.621 69.4475 365.059 69.7482C364.497 70.0496 364.145 71.3253 364.031 72.123C363.917 72.9194 363.829 73.9071 363.691 74.0654C363.546 73.3854 363.081 72.1686 362.519 71.4848C361.888 70.7188 361.15 70.4377 360.939 70.6206Z" fill="white"/>
<path d="M355.618 69.2591C356.139 69.116 357.312 68.9362 357.874 68.6431C358.403 68.3949 359.306 67.1844 359.657 66.733C360.007 66.2816 360.008 66.055 359.918 65.9353C359.56 65.7391 357.247 65.5447 356.13 65.8214C355.822 66.0296 355.219 67.1458 355.13 67.3794C355.04 67.6118 355.163 67.5972 355.537 67.5149C355.911 67.4313 357.687 67.4763 358.329 67.6118C358.061 67.8004 356.245 68.7178 355.887 68.9362C355.529 69.154 355.439 69.2819 355.618 69.2591Z" fill="white"/>
<path d="M463.198 75.7213C463.145 74.3684 462.482 72.2912 459.962 69.1041C459.093 68.0038 457.869 66.5717 456.578 65.1048C456.542 64.6047 456.507 64.1476 456.475 63.755C456.306 61.7361 455.732 57.6171 455.486 55.1822C455.426 54.5681 455.421 53.9147 455.43 53.5735C455.439 53.3025 455.634 53.3386 455.902 53.6172C456.171 53.8951 456.584 54.3009 456.671 54.2731C456.854 54.2097 456.694 53.595 456.328 52.8663C455.962 52.1363 454.58 49.1842 454.326 49.0696C454.195 49.0113 453.543 50.7448 453.503 51.0993C453.632 51.3171 453.966 51.6558 453.999 52.6415C454.033 53.6267 454.627 59.4449 454.969 63.1112L454.987 63.3157C453.058 61.1612 451.24 59.1967 450.493 58.4003C450.363 58.2622 450.221 58.1052 450.067 57.9368C449.945 56.9562 449.833 56.0217 449.756 55.2499C449.693 54.6371 449.689 53.9825 449.7 53.6412C449.706 53.3709 449.902 53.4076 450.171 53.6862C450.441 53.9641 450.853 54.3699 450.939 54.3408C451.123 54.2788 450.963 53.664 450.596 52.934C450.231 52.2041 448.79 49.1842 448.534 49.0696C448.405 49.0113 447.723 50.8828 447.682 51.2348C447.813 51.4538 448.147 51.7926 448.179 52.7783C448.192 53.1968 448.301 54.4655 448.446 56.0666C447.167 54.5466 445.915 52.9549 445.826 52.6314C445.794 52.4719 446.065 52.57 446.565 52.651C447.064 52.7308 447.532 52.8809 447.451 52.634C447.414 52.5194 447.223 52.2332 446.746 51.9369C446.268 51.6412 445.044 50.8752 444.133 50.3345C443.22 49.7932 442.768 49.338 442.58 49.4678C442.487 49.5317 442.57 51.3874 442.623 51.6172C442.853 51.6381 443.276 51.8084 443.546 52.1693C443.819 52.5301 445.564 54.9764 446.943 56.6307C447.341 57.1068 447.962 57.845 448.69 58.6972C448.833 60.2211 448.982 61.7956 449.105 63.1112C449.385 66.1121 450.392 74.0265 450.401 76.5988C449.659 77.2959 448.139 78.2683 446.576 78.2886C445.012 78.3082 444.155 77.8967 443.525 76.7343C443.331 76.3741 443.15 76.0119 442.97 75.684C442.544 74.9046 441.594 74.4672 440.678 74.6818L440.538 74.7191L440.289 74.8388C439.668 75.1636 439.027 75.708 438.4 76.5526C437.315 78.0176 436.622 79.6067 435.819 80.983C434.983 82.4164 434.342 83.3781 432.875 83.1483C431.842 82.9862 431.058 82.1005 430.575 81.0109C431.933 80.0714 432.919 78.8457 433.64 77.1471C434.579 74.9394 434.913 72.4507 434.83 69.6524C434.75 67.0187 433.549 60.8225 433.232 58.4477C432.916 56.0717 432.461 54.1217 432.514 53.6146C432.563 53.1252 433.343 54.2775 433.742 54.3636C433.946 54.318 433.836 53.583 433.449 52.9619C433.186 52.5396 432.353 50.6188 431.808 49.6926C431.552 49.2544 431.49 49.0006 431.371 48.9487C431.253 48.8948 430.346 50.8328 430.456 51.0436C430.724 51.4273 430.907 51.6102 430.964 52.2978C431.021 52.9853 431.643 58.0324 432.187 61.7494C432.596 64.554 433.501 69.6486 433.617 73.4143C433.655 74.6432 433.48 75.5251 433.328 76.0176C432.938 76.7723 432.302 77.6105 430.067 79.2015C429.721 76.9533 430.097 75.1268 429.769 74.9578C429.4 74.9977 429.341 76.0455 429.3 77.3383C429.279 77.9353 429.305 78.7621 429.417 79.6504C426.672 81.4851 423.046 83.1559 421.343 84.0479C420.344 84.5721 420.704 84.6943 421.549 84.4328C422.395 84.1701 427.043 82.9514 429.524 81.6465L429.791 81.4984C429.917 81.9359 430.069 82.3594 430.257 82.75C431.092 84.4847 432.285 85.5148 433.577 85.4141C434.663 85.3306 435.452 84.1676 436.139 82.7804C436.834 81.3762 438.009 78.7096 439.16 77.7175C439.603 77.3351 440.06 77.0325 440.505 76.8508C440.505 76.8508 441.292 76.588 442.016 77.061C442.275 77.2319 442.469 77.475 442.592 77.7473C442.877 78.3721 443.215 79.1673 443.905 79.8333C445.121 81.0046 447.077 80.7627 448.544 80.0815C450.008 79.3997 450.756 78.336 451.082 77.0724C451.638 74.9103 451.549 72.6951 451.443 70.7274C451.32 68.4818 450.962 66.1868 450.758 63.755C450.692 62.9732 450.564 61.8855 450.417 60.706C451.845 62.3546 453.328 64.0279 454.228 64.9427C454.538 65.2587 454.865 65.6094 455.202 65.9798C455.47 69.6606 455.728 74.2665 455.865 76.1993C455.999 78.1252 455.912 80.5462 455.897 80.9672C455.88 81.3882 456.115 81.3161 456.451 80.3816C456.901 79.1274 457.184 75.8385 457.086 73.6574C457.027 72.3615 456.897 69.9987 456.757 67.7639C457.866 69.0813 458.919 70.4115 459.603 71.3092C460.821 72.9034 461.939 74.7989 462.33 75.9815C462.72 77.1654 462.764 77.5162 462.84 77.727C462.916 77.9378 463.252 77.0743 463.198 75.7213Z" fill="white"/>
<path d="M442.637 120.753C442.527 120.439 442.19 120.208 441.788 120.208C441.385 120.208 441.049 120.439 440.938 120.753H437.125C437.086 120.33 437.124 119.905 437.243 119.491L445.117 119.486L445.336 119.856C445.534 120.189 445.784 120.49 446.074 120.753L442.637 120.753ZM447.849 117.095H438.388C439.115 116.57 439.496 115.804 439.394 115.029C439.329 114.541 438.845 114.176 438.255 114.127H437.959C437.242 114.197 436.721 114.714 436.797 115.282L436.826 115.501L436.861 115.836C436.899 116.258 436.862 116.682 436.743 117.095H366.809C367.847 118.606 369.74 119.532 371.785 119.531L435.602 119.492C434.872 120.017 434.489 120.784 434.592 121.56C434.668 122.128 435.309 122.533 436.027 122.463C436.744 122.393 437.264 121.875 437.189 121.307L437.16 121.089H440.911C440.977 121.455 441.342 121.736 441.788 121.736C442.233 121.736 442.599 121.455 442.665 121.089H446.48V121.08C447.277 121.645 448.289 121.97 449.36 121.97C450.367 121.97 451.184 121.27 451.184 120.406V119.954C451.184 118.376 449.691 117.095 447.849 117.095" fill="white"/>
</g>
</g>
<path d="M391.721 222.808H385.049L383.945 226H380.417L386.441 209.224H390.353L396.377 226H392.825L391.721 222.808ZM390.809 220.12L388.385 213.112L385.961 220.12H390.809ZM401.989 214.768C402.421 214.064 402.981 213.512 403.669 213.112C404.373 212.712 405.173 212.512 406.069 212.512V216.04H405.181C404.125 216.04 403.325 216.288 402.781 216.784C402.253 217.28 401.989 218.144 401.989 219.376V226H398.629V212.704H401.989V214.768ZM407.468 219.304C407.468 217.96 407.732 216.768 408.26 215.728C408.804 214.688 409.532 213.888 410.444 213.328C411.372 212.768 412.404 212.488 413.54 212.488C414.532 212.488 415.396 212.688 416.132 213.088C416.884 213.488 417.484 213.992 417.932 214.6V212.704H421.316V226H417.932V224.056C417.5 224.68 416.9 225.2 416.132 225.616C415.38 226.016 414.508 226.216 413.516 226.216C412.396 226.216 411.372 225.928 410.444 225.352C409.532 224.776 408.804 223.968 408.26 222.928C407.732 221.872 407.468 220.664 407.468 219.304ZM417.932 219.352C417.932 218.536 417.772 217.84 417.452 217.264C417.132 216.672 416.7 216.224 416.156 215.92C415.612 215.6 415.028 215.44 414.404 215.44C413.78 215.44 413.204 215.592 412.676 215.896C412.148 216.2 411.716 216.648 411.38 217.24C411.06 217.816 410.9 218.504 410.9 219.304C410.9 220.104 411.06 220.808 411.38 221.416C411.716 222.008 412.148 222.464 412.676 222.784C413.22 223.104 413.796 223.264 414.404 223.264C415.028 223.264 415.612 223.112 416.156 222.808C416.7 222.488 417.132 222.04 417.452 221.464C417.772 220.872 417.932 220.168 417.932 219.352ZM427.957 214.648C428.389 214.008 428.981 213.488 429.733 213.088C430.501 212.688 431.373 212.488 432.349 212.488C433.485 212.488 434.509 212.768 435.421 213.328C436.349 213.888 437.077 214.688 437.605 215.728C438.149 216.752 438.421 217.944 438.421 219.304C438.421 220.664 438.149 221.872 437.605 222.928C437.077 223.968 436.349 224.776 435.421 225.352C434.509 225.928 433.485 226.216 432.349 226.216C431.357 226.216 430.485 226.024 429.733 225.64C428.997 225.24 428.405 224.728 427.957 224.104V226H424.597V208.24H427.957V214.648ZM434.989 219.304C434.989 218.504 434.821 217.816 434.485 217.24C434.165 216.648 433.733 216.2 433.189 215.896C432.661 215.592 432.085 215.44 431.461 215.44C430.853 215.44 430.277 215.6 429.733 215.92C429.205 216.224 428.773 216.672 428.437 217.264C428.117 217.856 427.957 218.552 427.957 219.352C427.957 220.152 428.117 220.848 428.437 221.44C428.773 222.032 429.205 222.488 429.733 222.808C430.277 223.112 430.853 223.264 431.461 223.264C432.085 223.264 432.661 223.104 433.189 222.784C433.733 222.464 434.165 222.008 434.485 221.416C434.821 220.824 434.989 220.12 434.989 219.304Z" fill="black"/>
<g clip-path="url(#clip4_307_560)">
<circle cx="690.5" cy="86" r="75" fill="#D9D9D9"/>
<g clip-path="url(#clip5_307_560)">
<path d="M803.5 11H578.5V161H803.5V11Z" fill="#21468B"/>
<path d="M803.5 11H578.5V111H803.5V11Z" fill="white"/>
<path d="M803.5 11H578.5V61H803.5V11Z" fill="#AE1C28"/>
</g>
</g>
<path d="M650.871 217.408C651.815 217.584 652.591 218.056 653.199 218.824C653.807 219.592 654.111 220.472 654.111 221.464C654.111 222.36 653.887 223.152 653.439 223.84C653.007 224.512 652.375 225.04 651.543 225.424C650.711 225.808 649.727 226 648.591 226H641.367V209.248H648.279C649.415 209.248 650.391 209.432 651.207 209.8C652.039 210.168 652.663 210.68 653.079 211.336C653.511 211.992 653.727 212.736 653.727 213.568C653.727 214.544 653.463 215.36 652.935 216.016C652.423 216.672 651.735 217.136 650.871 217.408ZM644.727 216.16H647.799C648.599 216.16 649.215 215.984 649.647 215.632C650.079 215.264 650.295 214.744 650.295 214.072C650.295 213.4 650.079 212.88 649.647 212.512C649.215 212.144 648.599 211.96 647.799 211.96H644.727V216.16ZM648.111 223.264C648.927 223.264 649.559 223.072 650.007 222.688C650.471 222.304 650.703 221.76 650.703 221.056C650.703 220.336 650.463 219.776 649.983 219.376C649.503 218.96 648.855 218.752 648.039 218.752H644.727V223.264H648.111ZM669.149 219.064C669.149 219.544 669.117 219.976 669.053 220.36H659.333C659.413 221.32 659.749 222.072 660.341 222.616C660.933 223.16 661.661 223.432 662.525 223.432C663.773 223.432 664.661 222.896 665.189 221.824H668.813C668.429 223.104 667.693 224.16 666.605 224.992C665.517 225.808 664.181 226.216 662.597 226.216C661.317 226.216 660.165 225.936 659.141 225.376C658.133 224.8 657.341 223.992 656.765 222.952C656.205 221.912 655.925 220.712 655.925 219.352C655.925 217.976 656.205 216.768 656.765 215.728C657.325 214.688 658.109 213.888 659.117 213.328C660.125 212.768 661.285 212.488 662.597 212.488C663.861 212.488 664.989 212.76 665.981 213.304C666.989 213.848 667.765 214.624 668.309 215.632C668.869 216.624 669.149 217.768 669.149 219.064ZM665.669 218.104C665.653 217.24 665.341 216.552 664.733 216.04C664.125 215.512 663.381 215.248 662.501 215.248C661.669 215.248 660.965 215.504 660.389 216.016C659.829 216.512 659.485 217.208 659.357 218.104H665.669ZM674.961 208.24V226H671.601V208.24H674.961ZM677.417 219.304C677.417 217.96 677.681 216.768 678.209 215.728C678.753 214.688 679.481 213.888 680.393 213.328C681.321 212.768 682.353 212.488 683.489 212.488C684.481 212.488 685.345 212.688 686.081 213.088C686.833 213.488 687.433 213.992 687.881 214.6V212.704H691.265V226H687.881V224.056C687.449 224.68 686.849 225.2 686.081 225.616C685.329 226.016 684.457 226.216 683.465 226.216C682.345 226.216 681.321 225.928 680.393 225.352C679.481 224.776 678.753 223.968 678.209 222.928C677.681 221.872 677.417 220.664 677.417 219.304ZM687.881 219.352C687.881 218.536 687.721 217.84 687.401 217.264C687.081 216.672 686.649 216.224 686.105 215.92C685.561 215.6 684.977 215.44 684.353 215.44C683.729 215.44 683.153 215.592 682.625 215.896C682.097 216.2 681.665 216.648 681.329 217.24C681.009 217.816 680.849 218.504 680.849 219.304C680.849 220.104 681.009 220.808 681.329 221.416C681.665 222.008 682.097 222.464 682.625 222.784C683.169 223.104 683.745 223.264 684.353 223.264C684.977 223.264 685.561 223.112 686.105 222.808C686.649 222.488 687.081 222.04 687.401 221.464C687.721 220.872 687.881 220.168 687.881 219.352ZM701.915 212.512C703.499 212.512 704.779 213.016 705.755 214.024C706.731 215.016 707.219 216.408 707.219 218.2V226H703.859V218.656C703.859 217.6 703.595 216.792 703.067 216.232C702.539 215.656 701.819 215.368 700.907 215.368C699.979 215.368 699.243 215.656 698.699 216.232C698.171 216.792 697.907 217.6 697.907 218.656V226H694.547V212.704H697.907V214.36C698.355 213.784 698.923 213.336 699.611 213.016C700.315 212.68 701.083 212.512 701.915 212.512ZM709.55 219.304C709.55 217.96 709.814 216.768 710.342 215.728C710.886 214.688 711.622 213.888 712.55 213.328C713.478 212.768 714.51 212.488 715.646 212.488C716.51 212.488 717.334 212.68 718.118 213.064C718.902 213.432 719.526 213.928 719.99 214.552V208.24H723.398V226H719.99V224.032C719.574 224.688 718.99 225.216 718.238 225.616C717.486 226.016 716.614 226.216 715.622 226.216C714.502 226.216 713.478 225.928 712.55 225.352C711.622 224.776 710.886 223.968 710.342 222.928C709.814 221.872 709.55 220.664 709.55 219.304ZM720.014 219.352C720.014 218.536 719.854 217.84 719.534 217.264C719.214 216.672 718.782 216.224 718.238 215.92C717.694 215.6 717.11 215.44 716.486 215.44C715.862 215.44 715.286 215.592 714.758 215.896C714.23 216.2 713.798 216.648 713.462 217.24C713.142 217.816 712.982 218.504 712.982 219.304C712.982 220.104 713.142 220.808 713.462 221.416C713.798 222.008 714.23 222.464 714.758 222.784C715.302 223.104 715.878 223.264 716.486 223.264C717.11 223.264 717.694 223.112 718.238 222.808C718.782 222.488 719.214 222.04 719.534 221.464C719.854 220.872 720.014 220.168 720.014 219.352ZM725.815 219.304C725.815 217.96 726.079 216.768 726.607 215.728C727.151 214.688 727.879 213.888 728.791 213.328C729.719 212.768 730.751 212.488 731.887 212.488C732.879 212.488 733.743 212.688 734.479 213.088C735.231 213.488 735.831 213.992 736.279 214.6V212.704H739.663V226H736.279V224.056C735.847 224.68 735.247 225.2 734.479 225.616C733.727 226.016 732.855 226.216 731.863 226.216C730.743 226.216 729.719 225.928 728.791 225.352C727.879 224.776 727.151 223.968 726.607 222.928C726.079 221.872 725.815 220.664 725.815 219.304ZM736.279 219.352C736.279 218.536 736.119 217.84 735.799 217.264C735.479 216.672 735.047 216.224 734.503 215.92C733.959 215.6 733.375 215.44 732.751 215.44C732.127 215.44 731.551 215.592 731.023 215.896C730.495 216.2 730.063 216.648 729.727 217.24C729.407 217.816 729.247 218.504 729.247 219.304C729.247 220.104 729.407 220.808 729.727 221.416C730.063 222.008 730.495 222.464 731.023 222.784C731.567 223.104 732.143 223.264 732.751 223.264C733.375 223.264 733.959 223.112 734.503 222.808C735.047 222.488 735.479 222.04 735.799 221.464C736.119 220.872 736.279 220.168 736.279 219.352Z" fill="black"/>
<g clip-path="url(#clip6_307_560)">
<circle cx="971.5" cy="86" r="75" fill="#D9D9D9"/>
<g clip-path="url(#clip7_307_560)">
<path d="M1100.5 11H850.5V161H1100.5V11Z" fill="#006747"/>
<path d="M963 136C990.614 136 1013 113.614 1013 86C1013 58.3858 990.614 36 963 36C935.386 36 913 58.3858 913 86C913 113.614 935.386 136 963 136Z" fill="#DA291C"/>
</g>
</g>
<path d="M936.664 217.408C937.608 217.584 938.384 218.056 938.992 218.824C939.6 219.592 939.904 220.472 939.904 221.464C939.904 222.36 939.68 223.152 939.232 223.84C938.8 224.512 938.168 225.04 937.336 225.424C936.504 225.808 935.52 226 934.384 226H927.16V209.248H934.072C935.208 209.248 936.184 209.432 937 209.8C937.832 210.168 938.456 210.68 938.872 211.336C939.304 211.992 939.52 212.736 939.52 213.568C939.52 214.544 939.256 215.36 938.728 216.016C938.216 216.672 937.528 217.136 936.664 217.408ZM930.52 216.16H933.592C934.392 216.16 935.008 215.984 935.44 215.632C935.872 215.264 936.088 214.744 936.088 214.072C936.088 213.4 935.872 212.88 935.44 212.512C935.008 212.144 934.392 211.96 933.592 211.96H930.52V216.16ZM933.904 223.264C934.72 223.264 935.352 223.072 935.8 222.688C936.264 222.304 936.496 221.76 936.496 221.056C936.496 220.336 936.256 219.776 935.776 219.376C935.296 218.96 934.648 218.752 933.832 218.752H930.52V223.264H933.904ZM954.942 219.064C954.942 219.544 954.91 219.976 954.846 220.36H945.126C945.206 221.32 945.542 222.072 946.134 222.616C946.726 223.16 947.454 223.432 948.318 223.432C949.566 223.432 950.454 222.896 950.982 221.824H954.606C954.222 223.104 953.486 224.16 952.398 224.992C951.31 225.808 949.974 226.216 948.39 226.216C947.11 226.216 945.958 225.936 944.934 225.376C943.926 224.8 943.134 223.992 942.558 222.952C941.998 221.912 941.718 220.712 941.718 219.352C941.718 217.976 941.998 216.768 942.558 215.728C943.118 214.688 943.902 213.888 944.91 213.328C945.918 212.768 947.078 212.488 948.39 212.488C949.654 212.488 950.782 212.76 951.774 213.304C952.782 213.848 953.558 214.624 954.102 215.632C954.662 216.624 954.942 217.768 954.942 219.064ZM951.462 218.104C951.446 217.24 951.134 216.552 950.526 216.04C949.918 215.512 949.174 215.248 948.294 215.248C947.462 215.248 946.758 215.504 946.182 216.016C945.622 216.512 945.278 217.208 945.15 218.104H951.462ZM964.762 212.512C966.346 212.512 967.626 213.016 968.602 214.024C969.578 215.016 970.066 216.408 970.066 218.2V226H966.706V218.656C966.706 217.6 966.442 216.792 965.914 216.232C965.386 215.656 964.666 215.368 963.754 215.368C962.826 215.368 962.09 215.656 961.546 216.232C961.018 216.792 960.754 217.6 960.754 218.656V226H957.394V212.704H960.754V214.36C961.202 213.784 961.77 213.336 962.458 213.016C963.162 212.68 963.93 212.512 964.762 212.512ZM978.469 212.488C979.461 212.488 980.333 212.688 981.085 213.088C981.837 213.472 982.429 213.976 982.861 214.6V212.704H986.245V226.096C986.245 227.328 985.997 228.424 985.501 229.384C985.005 230.36 984.261 231.128 983.269 231.688C982.277 232.264 981.077 232.552 979.669 232.552C977.781 232.552 976.229 232.112 975.013 231.232C973.813 230.352 973.133 229.152 972.973 227.632H976.309C976.485 228.24 976.861 228.72 977.437 229.072C978.029 229.44 978.741 229.624 979.573 229.624C980.549 229.624 981.341 229.328 981.949 228.736C982.557 228.16 982.861 227.28 982.861 226.096V224.032C982.429 224.656 981.829 225.176 981.061 225.592C980.309 226.008 979.445 226.216 978.469 226.216C977.349 226.216 976.325 225.928 975.397 225.352C974.469 224.776 973.733 223.968 973.189 222.928C972.661 221.872 972.397 220.664 972.397 219.304C972.397 217.96 972.661 216.768 973.189 215.728C973.733 214.688 974.461 213.888 975.373 213.328C976.301 212.768 977.333 212.488 978.469 212.488ZM982.861 219.352C982.861 218.536 982.701 217.84 982.381 217.264C982.061 216.672 981.629 216.224 981.085 215.92C980.541 215.6 979.957 215.44 979.333 215.44C978.709 215.44 978.133 215.592 977.605 215.896C977.077 216.2 976.645 216.648 976.309 217.24C975.989 217.816 975.829 218.504 975.829 219.304C975.829 220.104 975.989 220.808 976.309 221.416C976.645 222.008 977.077 222.464 977.605 222.784C978.149 223.104 978.725 223.264 979.333 223.264C979.957 223.264 980.541 223.112 981.085 222.808C981.629 222.488 982.061 222.04 982.381 221.464C982.701 220.872 982.861 220.168 982.861 219.352ZM988.663 219.304C988.663 217.96 988.927 216.768 989.455 215.728C989.999 214.688 990.727 213.888 991.639 213.328C992.567 212.768 993.599 212.488 994.735 212.488C995.727 212.488 996.591 212.688 997.327 213.088C998.079 213.488 998.679 213.992 999.127 214.6V212.704H1002.51V226H999.127V224.056C998.695 224.68 998.095 225.2 997.327 225.616C996.575 226.016 995.703 226.216 994.711 226.216C993.591 226.216 992.567 225.928 991.639 225.352C990.727 224.776 989.999 223.968 989.455 222.928C988.927 221.872 988.663 220.664 988.663 219.304ZM999.127 219.352C999.127 218.536 998.967 217.84 998.647 217.264C998.327 216.672 997.895 216.224 997.351 215.92C996.807 215.6 996.223 215.44 995.599 215.44C994.975 215.44 994.399 215.592 993.871 215.896C993.343 216.2 992.911 216.648 992.575 217.24C992.255 217.816 992.095 218.504 992.095 219.304C992.095 220.104 992.255 220.808 992.575 221.416C992.911 222.008 993.343 222.464 993.871 222.784C994.415 223.104 994.991 223.264 995.599 223.264C996.223 223.264 996.807 223.112 997.351 222.808C997.895 222.488 998.327 222.04 998.647 221.464C998.967 220.872 999.127 220.168 999.127 219.352ZM1009.15 208.24V226H1005.79V208.24H1009.15ZM1014.18 211.12C1013.58 211.12 1013.09 210.936 1012.69 210.568C1012.3 210.184 1012.11 209.712 1012.11 209.152C1012.11 208.592 1012.3 208.128 1012.69 207.76C1013.09 207.376 1013.58 207.184 1014.18 207.184C1014.77 207.184 1015.26 207.376 1015.64 207.76C1016.04 208.128 1016.24 208.592 1016.24 209.152C1016.24 209.712 1016.04 210.184 1015.64 210.568C1015.26 210.936 1014.77 211.12 1014.18 211.12ZM1015.83 212.704V226H1012.47V212.704H1015.83Z" fill="black"/>
<defs>
<clipPath id="clip0_307_560">
<rect x="53.5" y="11" width="150" height="150" rx="75" fill="white"/>
</clipPath>
<clipPath id="clip1_307_560">
<rect width="259" height="186" fill="white" transform="translate(-1.5 3)"/>
</clipPath>
<clipPath id="clip2_307_560">
<rect x="334.5" y="11" width="150" height="150" rx="75" fill="white"/>
</clipPath>
<clipPath id="clip3_307_560">
<rect width="225" height="150" fill="white" transform="translate(296.5 11)"/>
</clipPath>
<clipPath id="clip4_307_560">
<rect x="615.5" y="11" width="150" height="150" rx="75" fill="white"/>
</clipPath>
<clipPath id="clip5_307_560">
<rect width="225" height="150" fill="white" transform="translate(578.5 11)"/>
</clipPath>
<clipPath id="clip6_307_560">
<rect x="896.5" y="11" width="150" height="150" rx="75" fill="white"/>
</clipPath>
<clipPath id="clip7_307_560">
<rect width="250" height="150" fill="white" transform="translate(850.5 11)"/>
</clipPath>
</defs>
</svg>
