<svg width="1100" height="240" viewBox="0 0 1100 240" fill="none" xmlns="http://www.w3.org/2000/svg">
<g clip-path="url(#clip0_307_714)">
<circle cx="128.5" cy="86" r="75" fill="#D9D9D9"/>
<g clip-path="url(#clip1_307_714)">
<path d="M248.5 11H8.5V161H248.5V11Z" fill="#DC143C"/>
<path d="M248.5 11H8.5V86H248.5V11Z" fill="white"/>
</g>
</g>
<path d="M88.4072 214.432C88.4072 215.328 88.1912 216.168 87.7592 216.952C87.3432 217.736 86.6792 218.368 85.7672 218.848C84.8712 219.328 83.7352 219.568 82.3592 219.568H79.5512V226H76.1912V209.248H82.3592C83.6552 209.248 84.7592 209.472 85.6712 209.92C86.5832 210.368 87.2632 210.984 87.7112 211.768C88.1752 212.552 88.4072 213.44 88.4072 214.432ZM82.2152 216.856C83.1432 216.856 83.8312 216.648 84.2792 216.232C84.7272 215.8 84.9512 215.2 84.9512 214.432C84.9512 212.8 84.0392 211.984 82.2152 211.984H79.5512V216.856H82.2152ZM96.6967 226.216C95.4167 226.216 94.2647 225.936 93.2407 225.376C92.2167 224.8 91.4087 223.992 90.8167 222.952C90.2407 221.912 89.9527 220.712 89.9527 219.352C89.9527 217.992 90.2487 216.792 90.8407 215.752C91.4487 214.712 92.2727 213.912 93.3127 213.352C94.3527 212.776 95.5127 212.488 96.7927 212.488C98.0727 212.488 99.2327 212.776 100.273 213.352C101.313 213.912 102.129 214.712 102.721 215.752C103.329 216.792 103.633 217.992 103.633 219.352C103.633 220.712 103.321 221.912 102.697 222.952C102.089 223.992 101.257 224.8 100.201 225.376C99.1607 225.936 97.9927 226.216 96.6967 226.216ZM96.6967 223.288C97.3047 223.288 97.8727 223.144 98.4007 222.856C98.9447 222.552 99.3767 222.104 99.6967 221.512C100.017 220.92 100.177 220.2 100.177 219.352C100.177 218.088 99.8407 217.12 99.1687 216.448C98.5127 215.76 97.7047 215.416 96.7447 215.416C95.7847 215.416 94.9767 215.76 94.3207 216.448C93.6807 217.12 93.3607 218.088 93.3607 219.352C93.3607 220.616 93.6727 221.592 94.2967 222.28C94.9367 222.952 95.7367 223.288 96.6967 223.288ZM109.457 208.24V226H106.097V208.24H109.457ZM111.913 219.304C111.913 217.96 112.177 216.768 112.705 215.728C113.249 214.688 113.977 213.888 114.889 213.328C115.817 212.768 116.849 212.488 117.985 212.488C118.977 212.488 119.841 212.688 120.577 213.088C121.329 213.488 121.929 213.992 122.377 214.6V212.704H125.761V226H122.377V224.056C121.945 224.68 121.345 225.2 120.577 225.616C119.825 226.016 118.953 226.216 117.961 226.216C116.841 226.216 115.817 225.928 114.889 225.352C113.977 224.776 113.249 223.968 112.705 222.928C112.177 221.872 111.913 220.664 111.913 219.304ZM122.377 219.352C122.377 218.536 122.217 217.84 121.897 217.264C121.577 216.672 121.145 216.224 120.601 215.92C120.057 215.6 119.473 215.44 118.849 215.44C118.225 215.44 117.649 215.592 117.121 215.896C116.593 216.2 116.161 216.648 115.825 217.24C115.505 217.816 115.345 218.504 115.345 219.304C115.345 220.104 115.505 220.808 115.825 221.416C116.161 222.008 116.593 222.464 117.121 222.784C117.665 223.104 118.241 223.264 118.849 223.264C119.473 223.264 120.057 223.112 120.601 222.808C121.145 222.488 121.577 222.04 121.897 221.464C122.217 220.872 122.377 220.168 122.377 219.352ZM136.411 212.512C137.995 212.512 139.275 213.016 140.251 214.024C141.227 215.016 141.715 216.408 141.715 218.2V226H138.355V218.656C138.355 217.6 138.091 216.792 137.563 216.232C137.035 215.656 136.315 215.368 135.403 215.368C134.475 215.368 133.739 215.656 133.195 216.232C132.667 216.792 132.403 217.6 132.403 218.656V226H129.043V212.704H132.403V214.36C132.851 213.784 133.419 213.336 134.107 213.016C134.811 212.68 135.579 212.512 136.411 212.512ZM144.046 219.304C144.046 217.96 144.31 216.768 144.838 215.728C145.382 214.688 146.118 213.888 147.046 213.328C147.974 212.768 149.006 212.488 150.142 212.488C151.006 212.488 151.83 212.68 152.614 213.064C153.398 213.432 154.022 213.928 154.486 214.552V208.24H157.894V226H154.486V224.032C154.07 224.688 153.486 225.216 152.734 225.616C151.982 226.016 151.11 226.216 150.118 226.216C148.998 226.216 147.974 225.928 147.046 225.352C146.118 224.776 145.382 223.968 144.838 222.928C144.31 221.872 144.046 220.664 144.046 219.304ZM154.51 219.352C154.51 218.536 154.35 217.84 154.03 217.264C153.71 216.672 153.278 216.224 152.734 215.92C152.19 215.6 151.606 215.44 150.982 215.44C150.358 215.44 149.782 215.592 149.254 215.896C148.726 216.2 148.294 216.648 147.958 217.24C147.638 217.816 147.478 218.504 147.478 219.304C147.478 220.104 147.638 220.808 147.958 221.416C148.294 222.008 148.726 222.464 149.254 222.784C149.798 223.104 150.374 223.264 150.982 223.264C151.606 223.264 152.19 223.112 152.734 222.808C153.278 222.488 153.71 222.04 154.03 221.464C154.35 220.872 154.51 220.168 154.51 219.352ZM162.88 211.12C162.288 211.12 161.792 210.936 161.392 210.568C161.008 210.184 160.816 209.712 160.816 209.152C160.816 208.592 161.008 208.128 161.392 207.76C161.792 207.376 162.288 207.184 162.88 207.184C163.472 207.184 163.96 207.376 164.344 207.76C164.744 208.128 164.944 208.592 164.944 209.152C164.944 209.712 164.744 210.184 164.344 210.568C163.96 210.936 163.472 211.12 162.88 211.12ZM164.536 212.704V226H161.176V212.704H164.536ZM166.991 219.304C166.991 217.96 167.255 216.768 167.783 215.728C168.327 214.688 169.055 213.888 169.967 213.328C170.895 212.768 171.927 212.488 173.063 212.488C174.055 212.488 174.919 212.688 175.655 213.088C176.407 213.488 177.007 213.992 177.455 214.6V212.704H180.839V226H177.455V224.056C177.023 224.68 176.423 225.2 175.655 225.616C174.903 226.016 174.031 226.216 173.039 226.216C171.919 226.216 170.895 225.928 169.967 225.352C169.055 224.776 168.327 223.968 167.783 222.928C167.255 221.872 166.991 220.664 166.991 219.304ZM177.455 219.352C177.455 218.536 177.295 217.84 176.975 217.264C176.655 216.672 176.223 216.224 175.679 215.92C175.135 215.6 174.551 215.44 173.927 215.44C173.303 215.44 172.727 215.592 172.199 215.896C171.671 216.2 171.239 216.648 170.903 217.24C170.583 217.816 170.423 218.504 170.423 219.304C170.423 220.104 170.583 220.808 170.903 221.416C171.239 222.008 171.671 222.464 172.199 222.784C172.743 223.104 173.319 223.264 173.927 223.264C174.551 223.264 175.135 223.112 175.679 222.808C176.223 222.488 176.655 222.04 176.975 221.464C177.295 220.872 177.455 220.168 177.455 219.352Z" fill="black"/>
<g clip-path="url(#clip2_307_714)">
<circle cx="409.5" cy="86" r="75" fill="#D9D9D9"/>
<g clip-path="url(#clip3_307_714)">
<path d="M302.5 11H516.5V161H302.5V11Z" fill="#009440"/>
<path d="M320.691 85.9996L409.501 142.785L498.311 85.9996L409.501 29.2139L320.691 85.9996Z" fill="#FFCB00"/>
<path d="M409.501 123.5C430.184 123.5 446.951 106.711 446.951 86C446.951 65.2893 430.184 48.5 409.501 48.5C388.818 48.5 372.051 65.2893 372.051 86C372.051 106.711 388.818 123.5 409.501 123.5Z" fill="#302681"/>
<mask id="mask0_307_714" style="mask-type:luminance" maskUnits="userSpaceOnUse" x="372" y="48" width="75" height="76">
<path d="M409.501 123.5C430.184 123.5 446.951 106.711 446.951 86C446.951 65.2893 430.184 48.5 409.501 48.5C388.818 48.5 372.051 65.2893 372.051 86C372.051 106.711 388.818 123.5 409.501 123.5Z" fill="white"/>
</mask>
<g mask="url(#mask0_307_714)">
<path d="M297.152 161C297.152 136.846 306.735 113.682 323.791 96.6029C340.847 79.5237 363.981 69.9287 388.102 69.9287C412.224 69.9287 435.357 79.5237 452.414 96.6029C469.47 113.682 479.052 136.846 479.052 161H473.702C473.702 138.267 464.684 116.466 448.631 100.391C432.578 84.3164 410.805 75.2859 388.102 75.2859C365.4 75.2859 343.627 84.3164 327.574 100.391C311.521 116.466 302.502 138.267 302.502 161H297.152Z" fill="white"/>
</g>
<path fill-rule="evenodd" clip-rule="evenodd" d="M377.559 75.0384C377.981 74.9865 378.364 74.7499 378.622 74.3808C378.88 74.0117 378.992 73.5402 378.935 73.0701C378.877 72.6001 378.654 72.1699 378.314 71.8742C377.975 71.5786 377.547 71.4416 377.124 71.4936C376.702 71.5455 376.319 71.7821 376.061 72.1512C375.804 72.5203 375.691 72.9918 375.749 73.4619C375.806 73.9319 376.029 74.3621 376.369 74.6578C376.708 74.9534 377.136 75.0903 377.559 75.0384ZM377.478 74.3801C377.726 74.3496 377.95 74.2029 378.1 73.9724C378.25 73.7419 378.313 73.4464 378.277 73.151C378.241 72.8555 378.108 72.5842 377.907 72.3969C377.706 72.2095 377.453 72.1214 377.205 72.1519C376.957 72.1824 376.733 72.3291 376.583 72.5596C376.434 72.7901 376.37 73.0856 376.406 73.381C376.442 73.6765 376.576 73.9478 376.777 74.1351C376.978 74.3225 377.23 74.4106 377.478 74.3801Z" fill="#009440"/>
<path fill-rule="evenodd" clip-rule="evenodd" d="M380.463 74.7158L381.124 74.6694L381.032 73.3462L382.455 73.2465C382.752 73.2257 383.028 73.0878 383.223 72.8631C383.418 72.6384 383.516 72.3454 383.495 72.0485C383.475 71.7515 383.337 71.475 383.113 71.2797C382.888 71.0844 382.596 70.9864 382.299 71.0072L380.266 71.1498L380.463 74.7158ZM380.986 72.6847L382.358 72.5884C382.48 72.5799 382.593 72.5235 382.672 72.4316C382.752 72.3397 382.792 72.2198 382.784 72.0983C382.775 71.9769 382.719 71.8637 382.627 71.7839C382.535 71.704 382.416 71.6639 382.294 71.6724L380.922 71.7686L380.986 72.6847Z" fill="#009440"/>
<path d="M383.49 74.5035C383.455 73.9946 383.377 72.8749 382.614 72.9284L381.648 72.9961C382.767 72.9177 382.845 74.0373 382.88 74.5462" fill="#009440"/>
<path fill-rule="evenodd" clip-rule="evenodd" d="M384.984 74.4342L386.665 74.4048C386.866 74.4013 387.064 74.3582 387.248 74.2781C387.432 74.1979 387.599 74.0822 387.738 73.9377C387.878 73.7931 387.987 73.6224 388.061 73.4354C388.134 73.2484 388.17 73.0487 388.167 72.8477L388.158 72.3376C388.155 72.1366 388.112 71.9383 388.032 71.7539C387.951 71.5696 387.836 71.4029 387.692 71.2632C387.547 71.1236 387.377 71.0138 387.19 70.9402C387.003 70.8665 386.804 70.8304 386.603 70.8339L384.922 70.8633L384.984 74.4342ZM385.635 73.7594L386.603 73.7425C386.86 73.738 387.104 73.6316 387.282 73.4467C387.461 73.2617 387.558 73.0134 387.554 72.7563L387.549 72.4503C387.544 72.1932 387.438 71.9485 387.253 71.7699C387.068 71.5913 386.82 71.4935 386.564 71.498L385.596 71.5149L385.635 73.7594Z" fill="#009440"/>
<path d="M389.512 74.3896L392.72 74.5017L392.743 73.8389L390.146 73.7481L390.178 72.8303L392.215 72.9015L392.237 72.2896L390.2 72.2184L390.225 71.5045L392.669 71.59L392.692 70.9271L389.637 70.8203L389.512 74.3896Z" fill="#009440"/>
<path d="M394.041 74.5823L394.65 74.6356L394.863 72.196L395.36 74.6979L395.919 74.7468L396.843 72.3694L396.629 74.809L397.238 74.8624L397.549 71.3046L396.661 71.2267L395.737 73.6041L395.24 71.1022L394.352 71.0244L394.041 74.5823Z" fill="#009440"/>
<path d="M401.429 75.4169L404.065 75.8705L404.169 75.2671L402.135 74.9172L402.273 74.1126L403.93 74.3978L404.034 73.7944L402.377 73.5092L402.472 72.9561L404.443 73.2952L404.546 72.6918L401.973 72.249L401.429 75.4169Z" fill="#009440"/>
<path fill-rule="evenodd" clip-rule="evenodd" d="M408.201 76.7487L408.842 76.9148L409.174 75.6305L410.555 75.9882C410.843 76.0627 411.148 76.0197 411.405 75.8686C411.661 75.7175 411.846 75.4707 411.921 75.1825C411.995 74.8943 411.952 74.5883 411.801 74.3318C411.651 74.0753 411.404 73.8893 411.116 73.8148L409.143 73.3038L408.201 76.7487ZM409.34 74.9883L410.671 75.3332C410.789 75.3637 410.914 75.3461 411.019 75.2843C411.124 75.2225 411.2 75.1216 411.23 75.0037C411.261 74.8858 411.243 74.7606 411.181 74.6556C411.12 74.5507 411.019 74.4746 410.901 74.4441L409.569 74.0992L409.34 74.9883Z" fill="#009440"/>
<path fill-rule="evenodd" clip-rule="evenodd" d="M412.577 77.917L413.209 78.1166L413.607 76.8518L414.968 77.2818C415.251 77.3714 415.559 77.3445 415.823 77.2072C416.086 77.0698 416.285 76.8332 416.374 76.5493C416.463 76.2655 416.436 75.9577 416.299 75.6936C416.161 75.4296 415.925 75.2309 415.641 75.1413L413.697 74.5271L412.577 77.917ZM413.806 76.2194L415.118 76.634C415.234 76.6706 415.36 76.6597 415.468 76.6035C415.576 76.5473 415.657 76.4505 415.693 76.3344C415.73 76.2182 415.719 76.0923 415.663 75.9843C415.607 75.8763 415.51 75.795 415.394 75.7583L414.081 75.3438L413.806 76.2194Z" fill="#009440"/>
<path d="M415.467 78.8307C415.621 78.3442 415.957 77.274 415.228 77.0437L414.305 76.752C415.374 77.0898 415.037 78.16 414.884 78.6464" fill="#009440"/>
<path fill-rule="evenodd" clip-rule="evenodd" d="M418.391 79.8778C418.79 80.0271 419.238 79.994 419.637 79.7859C420.036 79.5778 420.353 79.2116 420.519 78.768C420.685 78.3244 420.685 77.8397 420.52 77.4204C420.355 77.0012 420.039 76.6818 419.64 76.5326C419.241 76.3833 418.793 76.4164 418.394 76.6245C417.995 76.8326 417.678 77.1987 417.512 77.6424C417.347 78.086 417.346 78.5707 417.511 78.9899C417.676 79.4092 417.992 79.7285 418.391 79.8778ZM418.623 79.2566C418.857 79.3442 419.123 79.3175 419.362 79.1824C419.601 79.0472 419.794 78.8146 419.898 78.5357C420.003 78.2569 420.009 77.9547 419.917 77.6955C419.825 77.4363 419.642 77.2415 419.408 77.1538C419.174 77.0662 418.908 77.0928 418.669 77.228C418.43 77.3632 418.237 77.5958 418.133 77.8746C418.029 78.1535 418.022 78.4557 418.114 78.7149C418.206 78.974 418.389 79.1689 418.623 79.2566Z" fill="#009440"/>
<mask id="mask1_307_714" style="mask-type:luminance" maskUnits="userSpaceOnUse" x="421" y="77" width="5" height="6">
<path d="M421.118 80.9343L422.539 77.6602L425.484 78.9428L424.063 82.2169L421.118 80.9343ZM423.545 79.3773L423.301 79.9385L424.773 80.5799L425.017 80.0186L423.545 79.3773Z" fill="white"/>
</mask>
<g mask="url(#mask1_307_714)">
<path fill-rule="evenodd" clip-rule="evenodd" d="M422.59 81.5756C422.981 81.7457 423.43 81.7363 423.84 81.5496C424.249 81.3629 424.585 81.014 424.773 80.5799C424.962 80.1457 424.987 79.6617 424.845 79.2345C424.702 78.8072 424.402 78.4716 424.012 78.3015C423.621 78.1314 423.172 78.1407 422.762 78.3275C422.353 78.5142 422.017 78.863 421.828 79.2972C421.64 79.7314 421.614 80.2153 421.757 80.6426C421.9 81.0699 422.2 81.4055 422.59 81.5756ZM422.854 80.9675C423.084 81.0674 423.351 81.0548 423.597 80.9325C423.843 80.8101 424.047 80.5881 424.166 80.3152C424.284 80.0423 424.307 79.7409 424.228 79.4773C424.15 79.2136 423.977 79.0094 423.748 78.9095C423.518 78.8096 423.251 78.8222 423.005 78.9446C422.759 79.0669 422.555 79.289 422.436 79.5619C422.318 79.8348 422.295 80.1362 422.374 80.3998C422.452 80.6634 422.625 80.8676 422.854 80.9675Z" fill="#009440"/>
</g>
<path d="M423.535 80.04L424.774 80.5794L424.571 81.0471L423.332 80.5077L423.535 80.04Z" fill="#009440"/>
<path d="M424.305 80.376L424.772 80.5796L424.061 82.217L423.594 82.0134L424.305 80.376Z" fill="#009440"/>
<path fill-rule="evenodd" clip-rule="evenodd" d="M425.257 82.7745L425.85 83.0706L426.441 81.8837L427.718 82.5215C427.984 82.6544 428.292 82.6761 428.574 82.5817C428.856 82.4874 429.089 82.2847 429.221 82.0184C429.354 81.752 429.375 81.4438 429.281 81.1615C429.186 80.8792 428.984 80.6459 428.718 80.513L426.893 79.6019L425.257 82.7745ZM426.736 81.2903L427.968 81.9053C428.077 81.9597 428.203 81.9685 428.318 81.9299C428.433 81.8913 428.529 81.8084 428.583 81.6995C428.637 81.5905 428.646 81.4644 428.607 81.3489C428.568 81.2334 428.486 81.138 428.377 81.0836L427.145 80.4686L426.736 81.2903Z" fill="#009440"/>
<path d="M427.968 84.1297C428.195 83.6732 428.695 82.669 428.011 82.3273L427.145 81.8945C428.148 82.3956 427.648 83.3999 427.421 83.8563" fill="#009440"/>
<path d="M429.294 84.8291L432.088 86.4119L432.414 85.8346L430.153 84.5533L430.604 83.754L432.378 84.759L432.679 84.2261L430.906 83.2211L431.257 82.5995L433.385 83.8054L433.712 83.2281L431.051 81.7207L429.294 84.8291Z" fill="#009440"/>
<path d="M434.495 86.5776C434.304 86.8788 434.498 87.2145 434.928 87.4886C435.357 87.7627 435.65 87.7528 435.774 87.5594C436.164 86.9463 433.908 86.052 434.604 84.9831C435.203 84.0648 436.228 84.7794 436.615 85.0261C437.002 85.2729 437.623 85.911 437.14 86.6464L436.485 86.2284C436.69 85.9057 436.464 85.5954 436.121 85.3761C435.788 85.1637 435.517 85.0667 435.319 85.3787C434.986 85.8774 437.197 86.8186 436.519 87.8836C436.019 88.6689 435.15 88.3261 434.57 87.956C434.076 87.6408 433.337 86.8975 433.819 86.1458L434.495 86.5776Z" fill="#009440"/>
<path d="M438.323 89.1111C438.116 89.4018 438.292 89.7472 438.707 90.0435C439.122 90.3398 439.414 90.3452 439.548 90.1586C439.97 89.5667 437.764 88.5554 438.514 87.5244C439.161 86.6388 440.147 87.4062 440.521 87.6728C440.894 87.9395 441.481 88.6093 440.96 89.3184L440.328 88.8666C440.549 88.5551 440.34 88.2334 440.009 87.9964C439.687 87.7668 439.422 87.6558 439.207 87.9569C438.849 88.4376 441.008 89.4933 440.275 90.5214C439.735 91.2794 438.885 90.8915 438.325 90.4915C437.848 90.1508 437.15 89.3699 437.669 88.6444L438.323 89.1111Z" fill="#009440"/>
<path fill-rule="evenodd" clip-rule="evenodd" d="M441.942 93.2203C442.275 93.4856 442.712 93.5929 443.155 93.5184C443.599 93.444 444.014 93.1939 444.308 92.8233C444.603 92.4526 444.753 91.9917 444.725 91.542C444.698 91.0923 444.495 90.6906 444.162 90.4253C443.829 90.1599 443.393 90.0527 442.949 90.1272C442.505 90.2016 442.091 90.4517 441.796 90.8223C441.502 91.193 441.352 91.6538 441.379 92.1035C441.406 92.5533 441.609 92.955 441.942 93.2203ZM442.354 92.7012C442.55 92.8571 442.811 92.914 443.08 92.8594C443.35 92.8049 443.605 92.6433 443.79 92.4104C443.975 92.1774 444.075 91.8921 444.067 91.6171C444.06 91.3422 443.946 91.1002 443.75 90.9444C443.554 90.7885 443.293 90.7316 443.024 90.7862C442.755 90.8407 442.5 91.0022 442.314 91.2352C442.129 91.4682 442.03 91.7535 442.037 92.0285C442.045 92.3034 442.159 92.5454 442.354 92.7012Z" fill="#009440"/>
<path d="M378.934 77.6582L378.438 79.1867L379.201 79.435" fill="white"/>
<path d="M378.934 77.6582L379.43 79.1867L378.666 79.435" fill="white"/>
<path d="M380.453 78.7686L378.848 78.7691L378.848 79.5721" fill="white"/>
<path d="M380.453 78.7686L379.154 79.7135L378.683 79.0636" fill="white"/>
<path d="M377.402 78.7686L378.701 79.7135L379.173 79.0636" fill="white"/>
<path d="M377.402 78.7695L379.007 78.77L379.007 79.5731" fill="white"/>
<path d="M379.875 80.5654L379.379 79.0371L378.616 79.2855" fill="white"/>
<path d="M379.875 80.5654L378.577 79.6209L379.049 78.9707" fill="white"/>
<path d="M377.988 80.5654L379.287 79.6209L378.815 78.9707" fill="white"/>
<path d="M377.988 80.5654L378.484 79.0371L379.247 79.2855" fill="white"/>
<path d="M382.242 93.4238L381.746 94.9523L382.509 95.2006" fill="white"/>
<path d="M382.242 93.4238L382.738 94.9523L381.975 95.2006" fill="white"/>
<path d="M383.762 94.5342L382.157 94.5347L382.157 95.3378" fill="white"/>
<path d="M383.762 94.5342L382.463 95.4791L381.992 94.8292" fill="white"/>
<path d="M380.711 94.5342L382.01 95.4791L382.481 94.8292" fill="white"/>
<path d="M380.711 94.5352L382.316 94.5357L382.316 95.3387" fill="white"/>
<path d="M383.184 96.3311L382.688 94.8027L381.924 95.0512" fill="white"/>
<path d="M383.184 96.3311L381.885 95.3866L382.357 94.7363" fill="white"/>
<path d="M381.297 96.3311L382.595 95.3866L382.123 94.7363" fill="white"/>
<path d="M381.297 96.3311L381.793 94.8027L382.556 95.0512" fill="white"/>
<path d="M377.656 97.0586L377.243 98.3323L377.879 98.5393" fill="white"/>
<path d="M377.656 97.0586L378.07 98.3323L377.434 98.5393" fill="white"/>
<path d="M378.926 97.9834L377.588 97.9838L377.588 98.653" fill="white"/>
<path d="M378.926 97.9834L377.844 98.7708L377.451 98.2293" fill="white"/>
<path d="M376.383 97.9834L377.465 98.7708L377.858 98.2293" fill="white"/>
<path d="M376.383 97.9834L377.72 97.9838L377.72 98.653" fill="white"/>
<path d="M378.441 99.4805L378.028 98.2069L377.392 98.4139" fill="white"/>
<path d="M378.441 99.4814L377.359 98.6944L377.753 98.1525" fill="white"/>
<path d="M376.871 99.4814L377.953 98.6944L377.56 98.1525" fill="white"/>
<path d="M376.871 99.4814L377.284 98.2078L377.92 98.4149" fill="white"/>
<path d="M385.91 91.9697L385.674 92.6976L386.037 92.8158" fill="white"/>
<path d="M385.91 91.9697L386.146 92.6976L385.783 92.8158" fill="white"/>
<path d="M386.637 92.498L385.873 92.4983L385.872 92.8807" fill="white"/>
<path d="M386.637 92.498L386.018 92.948L385.794 92.6386" fill="white"/>
<path d="M385.184 92.498L385.802 92.948L386.027 92.6386" fill="white"/>
<path d="M385.184 92.498L385.948 92.4983L385.948 92.8807" fill="white"/>
<path d="M386.359 93.3535L386.123 92.6257L385.76 92.744" fill="white"/>
<path d="M386.359 93.3535L385.741 92.9038L385.966 92.5941" fill="white"/>
<path d="M385.461 93.3545L386.079 92.9047L385.855 92.5951" fill="white"/>
<path d="M385.461 93.3535L385.697 92.6257L386.061 92.744" fill="white"/>
<path d="M390.035 97.416L389.622 98.6898L390.258 98.8967" fill="white"/>
<path d="M390.035 97.416L390.448 98.6898L389.812 98.8967" fill="white"/>
<path d="M391.305 98.3408L389.967 98.3412L389.967 99.0105" fill="white"/>
<path d="M391.305 98.3408L390.222 99.1282L389.83 98.5867" fill="white"/>
<path d="M388.762 98.3408L389.844 99.1282L390.237 98.5867" fill="white"/>
<path d="M388.762 98.3408L390.099 98.3412L390.099 99.0105" fill="white"/>
<path d="M390.82 99.8379L390.407 98.5643L389.771 98.7713" fill="white"/>
<path d="M390.82 99.8389L389.738 99.0518L390.132 98.5099" fill="white"/>
<path d="M389.25 99.8389L390.332 99.0518L389.939 98.5099" fill="white"/>
<path d="M389.25 99.8389L389.663 98.5652L390.299 98.7723" fill="white"/>
<path d="M388.918 101.408L388.587 102.427L389.096 102.593" fill="white"/>
<path d="M388.918 101.408L389.249 102.427L388.74 102.593" fill="white"/>
<path d="M389.934 102.148L388.864 102.149L388.864 102.684" fill="white"/>
<path d="M389.934 102.148L389.068 102.778L388.753 102.345" fill="white"/>
<path d="M387.898 102.148L388.764 102.778L389.079 102.345" fill="white"/>
<path d="M387.898 102.148L388.968 102.149L388.968 102.684" fill="white"/>
<path d="M389.543 103.347L389.212 102.328L388.704 102.493" fill="white"/>
<path d="M389.543 103.347L388.677 102.717L388.992 102.284" fill="white"/>
<path d="M388.285 103.346L389.151 102.716L388.836 102.283" fill="white"/>
<path d="M388.285 103.346L388.616 102.327L389.125 102.492" fill="white"/>
<path d="M421.121 72.7598L420.625 74.2882L421.388 74.5366" fill="white"/>
<path d="M421.121 72.7598L421.617 74.2882L420.854 74.5366" fill="white"/>
<path d="M422.641 73.8701L421.036 73.8706L421.036 74.6737" fill="white"/>
<path d="M422.641 73.8701L421.342 74.815L420.87 74.1652" fill="white"/>
<path d="M419.59 73.8701L420.889 74.815L421.36 74.1652" fill="white"/>
<path d="M419.59 73.8711L421.195 73.8716L421.195 74.6747" fill="white"/>
<path d="M422.062 75.667L421.567 74.1387L420.803 74.3871" fill="white"/>
<path d="M422.062 75.667L420.764 74.7225L421.236 74.0722" fill="white"/>
<path d="M420.176 75.667L421.474 74.7225L421.002 74.0722" fill="white"/>
<path d="M420.176 75.667L420.672 74.1387L421.435 74.3871" fill="white"/>
<path d="M435.742 97.5557L435.246 99.0841L436.009 99.3325" fill="white"/>
<path d="M435.742 97.5557L436.238 99.0841L435.475 99.3325" fill="white"/>
<path d="M437.262 98.666L435.657 98.6665L435.657 99.4696" fill="white"/>
<path d="M437.262 98.666L435.963 99.6109L435.492 98.9611" fill="white"/>
<path d="M434.211 98.666L435.51 99.6109L435.981 98.9611" fill="white"/>
<path d="M434.211 98.667L435.816 98.6675L435.816 99.4706" fill="white"/>
<path d="M436.684 100.463L436.188 98.9345L435.424 99.183" fill="white"/>
<path d="M436.684 100.463L435.385 99.5184L435.857 98.8681" fill="white"/>
<path d="M434.797 100.463L436.095 99.5184L435.623 98.8681" fill="white"/>
<path d="M434.797 100.463L435.293 98.9345L436.056 99.183" fill="white"/>
<path d="M440.938 98.4492L440.607 99.4682L441.116 99.6338" fill="white"/>
<path d="M440.938 98.4492L441.268 99.4682L440.759 99.6338" fill="white"/>
<path d="M441.953 99.1895L440.883 99.1898L440.883 99.7252" fill="white"/>
<path d="M441.953 99.1895L441.087 99.8194L440.773 99.3862" fill="white"/>
<path d="M439.918 99.1895L440.784 99.8194L441.098 99.3862" fill="white"/>
<path d="M439.918 99.1895L440.988 99.1898L440.988 99.7252" fill="white"/>
<path d="M441.562 100.388L441.232 99.3688L440.723 99.5344" fill="white"/>
<path d="M441.562 100.388L440.697 99.758L441.012 99.3245" fill="white"/>
<path d="M440.305 100.387L441.17 99.7571L440.856 99.3235" fill="white"/>
<path d="M440.305 100.387L440.635 99.3678L441.144 99.5335" fill="white"/>
<path d="M437.27 101.141L436.856 102.414L437.492 102.621" fill="white"/>
<path d="M437.27 101.141L437.683 102.414L437.047 102.621" fill="white"/>
<path d="M438.539 102.065L437.202 102.066L437.202 102.735" fill="white"/>
<path d="M438.539 102.065L437.457 102.853L437.064 102.311" fill="white"/>
<path d="M435.996 102.065L437.078 102.853L437.471 102.311" fill="white"/>
<path d="M435.996 102.065L437.333 102.066L437.334 102.735" fill="white"/>
<path d="M438.055 103.562L437.642 102.289L437.005 102.496" fill="white"/>
<path d="M438.055 103.563L436.973 102.776L437.366 102.235" fill="white"/>
<path d="M436.484 103.563L437.566 102.776L437.173 102.235" fill="white"/>
<path d="M436.484 103.563L436.898 102.29L437.534 102.497" fill="white"/>
<path d="M428.25 108.997L427.837 110.271L428.473 110.478" fill="white"/>
<path d="M428.25 108.997L428.663 110.271L428.027 110.478" fill="white"/>
<path d="M429.52 109.922L428.182 109.922L428.182 110.592" fill="white"/>
<path d="M429.52 109.922L428.437 110.709L428.044 110.168" fill="white"/>
<path d="M426.977 109.922L428.059 110.709L428.452 110.168" fill="white"/>
<path d="M426.977 109.922L428.314 109.922L428.314 110.592" fill="white"/>
<path d="M429.035 111.419L428.622 110.145L427.986 110.352" fill="white"/>
<path d="M429.035 111.42L427.953 110.633L428.346 110.091" fill="white"/>
<path d="M427.465 111.42L428.547 110.633L428.154 110.091" fill="white"/>
<path d="M427.465 111.42L427.878 110.146L428.514 110.353" fill="white"/>
<path d="M428.199 113.041L427.869 114.06L428.377 114.226" fill="white"/>
<path d="M428.199 113.041L428.53 114.06L428.021 114.226" fill="white"/>
<path d="M429.215 113.781L428.145 113.782L428.145 114.317" fill="white"/>
<path d="M429.215 113.781L428.349 114.411L428.035 113.978" fill="white"/>
<path d="M427.18 113.781L428.045 114.411L428.36 113.978" fill="white"/>
<path d="M427.18 113.781L428.25 113.782L428.25 114.317" fill="white"/>
<path d="M428.824 114.979L428.494 113.961L427.985 114.126" fill="white"/>
<path d="M428.824 114.979L427.959 114.35L428.273 113.916" fill="white"/>
<path d="M427.566 114.979L428.432 114.349L428.117 113.915" fill="white"/>
<path d="M427.566 114.979L427.897 113.96L428.406 114.125" fill="white"/>
<path d="M431.973 106.306L431.642 107.325L432.151 107.49" fill="white"/>
<path d="M431.973 106.306L432.303 107.325L431.794 107.49" fill="white"/>
<path d="M432.988 107.046L431.918 107.046L431.918 107.582" fill="white"/>
<path d="M432.988 107.046L432.122 107.676L431.808 107.243" fill="white"/>
<path d="M430.953 107.046L431.819 107.676L432.133 107.243" fill="white"/>
<path d="M430.953 107.046L432.023 107.046L432.023 107.582" fill="white"/>
<path d="M432.598 108.244L432.267 107.225L431.758 107.391" fill="white"/>
<path d="M432.598 108.244L431.732 107.614L432.047 107.181" fill="white"/>
<path d="M431.34 108.243L432.205 107.613L431.891 107.18" fill="white"/>
<path d="M431.34 108.243L431.67 107.224L432.179 107.39" fill="white"/>
<path d="M434.977 104.15L434.563 105.424L435.199 105.631" fill="white"/>
<path d="M434.977 104.15L435.39 105.424L434.754 105.631" fill="white"/>
<path d="M436.246 105.075L434.909 105.076L434.909 105.745" fill="white"/>
<path d="M436.246 105.075L435.164 105.863L434.771 105.321" fill="white"/>
<path d="M433.703 105.075L434.785 105.863L435.178 105.321" fill="white"/>
<path d="M433.703 105.075L435.04 105.076L435.041 105.745" fill="white"/>
<path d="M435.762 106.572L435.349 105.299L434.712 105.506" fill="white"/>
<path d="M435.762 106.573L434.68 105.786L435.073 105.244" fill="white"/>
<path d="M434.191 106.573L435.273 105.786L434.88 105.244" fill="white"/>
<path d="M434.191 106.573L434.605 105.3L435.241 105.507" fill="white"/>
<path d="M428.098 105.592L427.767 106.611L428.276 106.776" fill="white"/>
<path d="M428.098 105.592L428.428 106.611L427.919 106.776" fill="white"/>
<path d="M429.113 106.332L428.043 106.332L428.043 106.868" fill="white"/>
<path d="M429.113 106.332L428.247 106.962L427.933 106.529" fill="white"/>
<path d="M427.078 106.332L427.944 106.962L428.258 106.529" fill="white"/>
<path d="M427.078 106.332L428.148 106.332L428.148 106.868" fill="white"/>
<path d="M428.723 107.53L428.392 106.511L427.883 106.677" fill="white"/>
<path d="M428.723 107.53L427.857 106.901L428.172 106.467" fill="white"/>
<path d="M427.465 107.529L428.33 106.9L428.016 106.466" fill="white"/>
<path d="M427.465 107.529L427.795 106.51L428.304 106.676" fill="white"/>
<path d="M395.234 86.1914L394.821 87.4651L395.457 87.6721" fill="white"/>
<path d="M395.234 86.1914L395.648 87.4651L395.012 87.6721" fill="white"/>
<path d="M396.504 87.1162L395.167 87.1166L395.166 87.7859" fill="white"/>
<path d="M396.504 87.1162L395.422 87.9036L395.029 87.3621" fill="white"/>
<path d="M393.961 87.1162L395.043 87.9036L395.436 87.3621" fill="white"/>
<path d="M393.961 87.1162L395.298 87.1166L395.298 87.7859" fill="white"/>
<path d="M396.02 88.6133L395.606 87.3397L394.97 87.5467" fill="white"/>
<path d="M396.02 88.6143L394.938 87.8272L395.331 87.2853" fill="white"/>
<path d="M394.449 88.6143L395.531 87.8272L395.138 87.2853" fill="white"/>
<path d="M394.449 88.6143L394.862 87.3406L395.499 87.5477" fill="white"/>
<path d="M419.691 83.041L419.361 84.06L419.87 84.2255" fill="white"/>
<path d="M419.691 83.041L420.022 84.06L419.513 84.2255" fill="white"/>
<path d="M420.707 83.7812L419.637 83.7816L419.637 84.317" fill="white"/>
<path d="M420.707 83.7812L419.841 84.4112L419.527 83.978" fill="white"/>
<path d="M418.672 83.7812L419.538 84.4112L419.852 83.978" fill="white"/>
<path d="M418.672 83.7812L419.742 83.7816L419.742 84.317" fill="white"/>
<path d="M420.316 84.9795L419.986 83.9606L419.477 84.1262" fill="white"/>
<path d="M420.316 84.9795L419.451 84.3498L419.765 83.9163" fill="white"/>
<path d="M419.059 84.9785L419.924 84.3489L419.61 83.9153" fill="white"/>
<path d="M419.059 84.9785L419.389 83.9596L419.898 84.1253" fill="white"/>
<path d="M409.504 101.229L409.008 102.758L409.771 103.006" fill="white"/>
<path d="M409.504 101.229L410 102.758L409.237 103.006" fill="white"/>
<path d="M411.023 102.34L409.419 102.34L409.418 103.143" fill="white"/>
<path d="M411.023 102.34L409.725 103.285L409.253 102.635" fill="white"/>
<path d="M407.973 102.34L409.271 103.285L409.743 102.635" fill="white"/>
<path d="M407.973 102.341L409.577 102.341L409.578 103.144" fill="white"/>
<path d="M410.445 104.137L409.95 102.608L409.186 102.857" fill="white"/>
<path d="M410.445 104.137L409.147 103.192L409.619 102.542" fill="white"/>
<path d="M408.559 104.137L409.857 103.192L409.385 102.542" fill="white"/>
<path d="M408.559 104.137L409.054 102.608L409.818 102.857" fill="white"/>
<path d="M413.832 94.0488L413.419 95.3226L414.055 95.5295" fill="white"/>
<path d="M413.832 94.0488L414.245 95.3226L413.609 95.5295" fill="white"/>
<path d="M415.102 94.9736L413.764 94.9741L413.764 95.6433" fill="white"/>
<path d="M415.102 94.9736L414.019 95.7611L413.626 95.2195" fill="white"/>
<path d="M412.559 94.9736L413.641 95.7611L414.034 95.2195" fill="white"/>
<path d="M412.559 94.9736L413.896 94.9741L413.896 95.6433" fill="white"/>
<path d="M414.617 96.4707L414.204 95.1971L413.568 95.4041" fill="white"/>
<path d="M414.617 96.4717L413.535 95.6846L413.928 95.1427" fill="white"/>
<path d="M413.047 96.4717L414.129 95.6846L413.736 95.1427" fill="white"/>
<path d="M413.047 96.4717L413.46 95.1981L414.096 95.4051" fill="white"/>
<path d="M409.5 90.6807L409.087 91.9544L409.723 92.1613" fill="white"/>
<path d="M409.5 90.6807L409.913 91.9544L409.277 92.1613" fill="white"/>
<path d="M410.77 91.6055L409.432 91.6059L409.432 92.2751" fill="white"/>
<path d="M410.77 91.6055L409.687 92.3929L409.294 91.8514" fill="white"/>
<path d="M408.227 91.6055L409.309 92.3929L409.702 91.8514" fill="white"/>
<path d="M408.227 91.6055L409.564 91.6059L409.564 92.2751" fill="white"/>
<path d="M410.285 93.1025L409.872 91.8289L409.236 92.036" fill="white"/>
<path d="M410.285 93.1035L409.203 92.3164L409.596 91.7746" fill="white"/>
<path d="M408.715 93.1035L409.797 92.3164L409.404 91.7746" fill="white"/>
<path d="M408.715 93.1035L409.128 91.8299L409.764 92.0369" fill="white"/>
<path d="M405.73 94.3164L405.4 95.3354L405.909 95.5009" fill="white"/>
<path d="M405.73 94.3164L406.061 95.3354L405.552 95.5009" fill="white"/>
<path d="M406.746 95.0566L405.676 95.057L405.676 95.5924" fill="white"/>
<path d="M406.746 95.0566L405.88 95.6866L405.566 95.2534" fill="white"/>
<path d="M404.711 95.0566L405.577 95.6866L405.891 95.2534" fill="white"/>
<path d="M404.711 95.0566L405.781 95.057L405.781 95.5924" fill="white"/>
<path d="M406.355 96.2549L406.025 95.236L405.516 95.4016" fill="white"/>
<path d="M406.355 96.2549L405.49 95.6252L405.804 95.1917" fill="white"/>
<path d="M405.098 96.2539L405.963 95.6242L405.649 95.1907" fill="white"/>
<path d="M405.098 96.2539L405.428 95.235L405.937 95.4007" fill="white"/>
<path d="M407.617 97.2246L407.381 97.9525L407.744 98.0707" fill="white"/>
<path d="M407.617 97.2246L407.853 97.9525L407.49 98.0707" fill="white"/>
<path d="M408.344 97.7529L407.58 97.7532L407.579 98.1356" fill="white"/>
<path d="M408.344 97.7529L407.725 98.2029L407.501 97.8934" fill="white"/>
<path d="M406.891 97.7529L407.509 98.2029L407.734 97.8934" fill="white"/>
<path d="M406.891 97.7529L407.655 97.7532L407.655 98.1356" fill="white"/>
<path d="M408.066 98.6084L407.83 97.8806L407.467 97.9989" fill="white"/>
<path d="M408.066 98.6084L407.448 98.1586L407.673 97.849" fill="white"/>
<path d="M407.168 98.6094L407.786 98.1596L407.562 97.85" fill="white"/>
<path d="M407.168 98.6084L407.404 97.8806L407.768 97.9989" fill="white"/>
<path d="M420.711 109.916L420.298 111.19L420.934 111.397" fill="white"/>
<path d="M420.711 109.916L421.124 111.19L420.488 111.397" fill="white"/>
<path d="M421.98 110.841L420.643 110.841L420.643 111.51" fill="white"/>
<path d="M421.98 110.841L420.898 111.628L420.505 111.087" fill="white"/>
<path d="M419.438 110.841L420.52 111.628L420.913 111.087" fill="white"/>
<path d="M419.438 110.841L420.775 110.841L420.775 111.51" fill="white"/>
<path d="M421.496 112.338L421.083 111.064L420.447 111.271" fill="white"/>
<path d="M421.496 112.339L420.414 111.552L420.807 111.01" fill="white"/>
<path d="M419.926 112.339L421.008 111.552L420.615 111.01" fill="white"/>
<path d="M419.926 112.339L420.339 111.065L420.975 111.272" fill="white"/>
<path d="M423.922 106.867L423.591 107.886L424.1 108.052" fill="white"/>
<path d="M423.922 106.867L424.253 107.886L423.744 108.052" fill="white"/>
<path d="M424.938 107.607L423.868 107.608L423.868 108.143" fill="white"/>
<path d="M424.938 107.607L424.072 108.237L423.757 107.804" fill="white"/>
<path d="M422.902 107.607L423.768 108.237L424.082 107.804" fill="white"/>
<path d="M422.902 107.607L423.972 107.608L423.972 108.143" fill="white"/>
<path d="M424.547 108.806L424.216 107.787L423.707 107.952" fill="white"/>
<path d="M424.547 108.806L423.681 108.176L423.996 107.742" fill="white"/>
<path d="M423.289 108.805L424.155 108.175L423.84 107.742" fill="white"/>
<path d="M423.289 108.805L423.62 107.786L424.129 107.951" fill="white"/>
<path d="M417.754 105.949L417.423 106.968L417.932 107.134" fill="white"/>
<path d="M417.754 105.949L418.085 106.968L417.576 107.134" fill="white"/>
<path d="M418.77 106.689L417.7 106.69L417.7 107.225" fill="white"/>
<path d="M418.77 106.689L417.904 107.319L417.589 106.886" fill="white"/>
<path d="M416.734 106.689L417.6 107.319L417.914 106.886" fill="white"/>
<path d="M416.734 106.689L417.804 106.69L417.804 107.225" fill="white"/>
<path d="M418.379 107.888L418.048 106.869L417.539 107.034" fill="white"/>
<path d="M418.379 107.888L417.513 107.258L417.828 106.825" fill="white"/>
<path d="M417.121 107.887L417.987 107.257L417.672 106.824" fill="white"/>
<path d="M417.121 107.887L417.452 106.868L417.961 107.033" fill="white"/>
<path d="M394.473 104.291L393.977 105.819L394.74 106.068" fill="white"/>
<path d="M394.473 104.291L394.969 105.819L394.205 106.068" fill="white"/>
<path d="M395.992 105.401L394.387 105.402L394.387 106.205" fill="white"/>
<path d="M395.992 105.401L394.693 106.346L394.222 105.696" fill="white"/>
<path d="M392.941 105.401L394.24 106.346L394.712 105.696" fill="white"/>
<path d="M392.941 105.402L394.546 105.403L394.546 106.206" fill="white"/>
<path d="M395.414 107.198L394.918 105.67L394.155 105.918" fill="white"/>
<path d="M395.414 107.198L394.116 106.254L394.588 105.603" fill="white"/>
<path d="M393.527 107.198L394.826 106.254L394.354 105.603" fill="white"/>
<path d="M393.527 107.198L394.023 105.67L394.787 105.918" fill="white"/>
<path d="M409.504 114.801L409.339 115.31L409.593 115.393" fill="white"/>
<path d="M409.504 114.801L409.669 115.31L409.415 115.393" fill="white"/>
<path d="M410.008 115.171L409.473 115.171L409.473 115.439" fill="white"/>
<path d="M410.008 115.171L409.575 115.486L409.418 115.269" fill="white"/>
<path d="M408.992 115.171L409.425 115.486L409.582 115.269" fill="white"/>
<path d="M408.992 115.171L409.527 115.171L409.527 115.439" fill="white"/>
<path d="M409.816 115.77L409.651 115.26L409.397 115.343" fill="white"/>
<path d="M409.816 115.77L409.384 115.455L409.541 115.238" fill="white"/>
<path d="M409.188 115.771L409.62 115.456L409.463 115.239" fill="white"/>
<path d="M409.188 115.771L409.353 115.261L409.607 115.344" fill="white"/>
</g>
</g>
<path d="M324.548 214.432C324.548 215.328 324.332 216.168 323.9 216.952C323.484 217.736 322.82 218.368 321.908 218.848C321.012 219.328 319.876 219.568 318.5 219.568H315.692V226H312.332V209.248H318.5C319.796 209.248 320.9 209.472 321.812 209.92C322.724 210.368 323.404 210.984 323.852 211.768C324.316 212.552 324.548 213.44 324.548 214.432ZM318.356 216.856C319.284 216.856 319.972 216.648 320.42 216.232C320.868 215.8 321.092 215.2 321.092 214.432C321.092 212.8 320.18 211.984 318.356 211.984H315.692V216.856H318.356ZM332.837 226.216C331.557 226.216 330.405 225.936 329.381 225.376C328.357 224.8 327.549 223.992 326.957 222.952C326.381 221.912 326.093 220.712 326.093 219.352C326.093 217.992 326.389 216.792 326.981 215.752C327.589 214.712 328.413 213.912 329.453 213.352C330.493 212.776 331.653 212.488 332.933 212.488C334.213 212.488 335.373 212.776 336.413 213.352C337.453 213.912 338.269 214.712 338.861 215.752C339.469 216.792 339.773 217.992 339.773 219.352C339.773 220.712 339.461 221.912 338.837 222.952C338.229 223.992 337.397 224.8 336.341 225.376C335.301 225.936 334.133 226.216 332.837 226.216ZM332.837 223.288C333.445 223.288 334.013 223.144 334.541 222.856C335.085 222.552 335.517 222.104 335.837 221.512C336.157 220.92 336.317 220.2 336.317 219.352C336.317 218.088 335.981 217.12 335.309 216.448C334.653 215.76 333.845 215.416 332.885 215.416C331.925 215.416 331.117 215.76 330.461 216.448C329.821 217.12 329.501 218.088 329.501 219.352C329.501 220.616 329.813 221.592 330.437 222.28C331.077 222.952 331.877 223.288 332.837 223.288ZM345.598 214.768C346.03 214.064 346.59 213.512 347.278 213.112C347.982 212.712 348.782 212.512 349.678 212.512V216.04H348.79C347.734 216.04 346.934 216.288 346.39 216.784C345.862 217.28 345.598 218.144 345.598 219.376V226H342.238V212.704H345.598V214.768ZM355.853 215.464V221.896C355.853 222.344 355.957 222.672 356.165 222.88C356.389 223.072 356.757 223.168 357.269 223.168H358.829V226H356.717C353.885 226 352.469 224.624 352.469 221.872V215.464H350.885V212.704H352.469V209.416H355.853V212.704H358.829V215.464H355.853ZM373.798 212.704V226H370.414V224.32C369.982 224.896 369.414 225.352 368.71 225.688C368.022 226.008 367.27 226.168 366.454 226.168C365.414 226.168 364.494 225.952 363.694 225.52C362.894 225.072 362.262 224.424 361.798 223.576C361.35 222.712 361.126 221.688 361.126 220.504V212.704H364.486V220.024C364.486 221.08 364.75 221.896 365.278 222.472C365.806 223.032 366.526 223.312 367.438 223.312C368.366 223.312 369.094 223.032 369.622 222.472C370.15 221.896 370.414 221.08 370.414 220.024V212.704H373.798ZM382.321 212.488C383.313 212.488 384.185 212.688 384.937 213.088C385.689 213.472 386.281 213.976 386.713 214.6V212.704H390.097V226.096C390.097 227.328 389.849 228.424 389.353 229.384C388.857 230.36 388.113 231.128 387.121 231.688C386.129 232.264 384.929 232.552 383.521 232.552C381.633 232.552 380.081 232.112 378.865 231.232C377.665 230.352 376.985 229.152 376.825 227.632H380.161C380.337 228.24 380.713 228.72 381.289 229.072C381.881 229.44 382.593 229.624 383.425 229.624C384.401 229.624 385.193 229.328 385.801 228.736C386.409 228.16 386.713 227.28 386.713 226.096V224.032C386.281 224.656 385.681 225.176 384.913 225.592C384.161 226.008 383.297 226.216 382.321 226.216C381.201 226.216 380.177 225.928 379.249 225.352C378.321 224.776 377.585 223.968 377.041 222.928C376.513 221.872 376.249 220.664 376.249 219.304C376.249 217.96 376.513 216.768 377.041 215.728C377.585 214.688 378.313 213.888 379.225 213.328C380.153 212.768 381.185 212.488 382.321 212.488ZM386.713 219.352C386.713 218.536 386.553 217.84 386.233 217.264C385.913 216.672 385.481 216.224 384.937 215.92C384.393 215.6 383.809 215.44 383.185 215.44C382.561 215.44 381.985 215.592 381.457 215.896C380.929 216.2 380.497 216.648 380.161 217.24C379.841 217.816 379.681 218.504 379.681 219.304C379.681 220.104 379.841 220.808 380.161 221.416C380.497 222.008 380.929 222.464 381.457 222.784C382.001 223.104 382.577 223.264 383.185 223.264C383.809 223.264 384.393 223.112 384.937 222.808C385.481 222.488 385.913 222.04 386.233 221.464C386.553 220.872 386.713 220.168 386.713 219.352ZM395.083 211.12C394.491 211.12 393.995 210.936 393.595 210.568C393.211 210.184 393.019 209.712 393.019 209.152C393.019 208.592 393.211 208.128 393.595 207.76C393.995 207.376 394.491 207.184 395.083 207.184C395.675 207.184 396.163 207.376 396.547 207.76C396.947 208.128 397.147 208.592 397.147 209.152C397.147 209.712 396.947 210.184 396.547 210.568C396.163 210.936 395.675 211.12 395.083 211.12ZM396.739 212.704V226H393.379V212.704H396.739ZM405.146 226.216C404.058 226.216 403.082 226.024 402.218 225.64C401.354 225.24 400.666 224.704 400.154 224.032C399.658 223.36 399.386 222.616 399.338 221.8H402.722C402.786 222.312 403.034 222.736 403.466 223.072C403.914 223.408 404.466 223.576 405.122 223.576C405.762 223.576 406.258 223.448 406.61 223.192C406.978 222.936 407.162 222.608 407.162 222.208C407.162 221.776 406.938 221.456 406.49 221.248C406.058 221.024 405.362 220.784 404.402 220.528C403.41 220.288 402.594 220.04 401.954 219.784C401.33 219.528 400.786 219.136 400.322 218.608C399.874 218.08 399.65 217.368 399.65 216.472C399.65 215.736 399.858 215.064 400.274 214.456C400.706 213.848 401.314 213.368 402.098 213.016C402.898 212.664 403.834 212.488 404.906 212.488C406.49 212.488 407.754 212.888 408.698 213.688C409.642 214.472 410.162 215.536 410.258 216.88H407.042C406.994 216.352 406.77 215.936 406.37 215.632C405.986 215.312 405.466 215.152 404.81 215.152C404.202 215.152 403.73 215.264 403.394 215.488C403.074 215.712 402.914 216.024 402.914 216.424C402.914 216.872 403.138 217.216 403.586 217.456C404.034 217.68 404.73 217.912 405.674 218.152C406.634 218.392 407.426 218.64 408.05 218.896C408.674 219.152 409.21 219.552 409.658 220.096C410.122 220.624 410.362 221.328 410.378 222.208C410.378 222.976 410.162 223.664 409.73 224.272C409.314 224.88 408.706 225.36 407.906 225.712C407.122 226.048 406.202 226.216 405.146 226.216ZM424.663 230.728C423.111 229.224 421.903 227.304 421.039 224.968C420.191 222.632 419.767 220.128 419.767 217.456C419.767 214.72 420.215 212.152 421.111 209.752C422.007 207.336 423.311 205.36 425.023 203.824H428.407V204.136C426.647 205.816 425.303 207.832 424.375 210.184C423.463 212.536 423.007 214.96 423.007 217.456C423.007 219.888 423.439 222.24 424.303 224.512C425.183 226.768 426.431 228.728 428.047 230.392V230.728H424.663ZM440.008 217.408C440.952 217.584 441.728 218.056 442.336 218.824C442.944 219.592 443.248 220.472 443.248 221.464C443.248 222.36 443.024 223.152 442.576 223.84C442.144 224.512 441.512 225.04 440.68 225.424C439.848 225.808 438.864 226 437.728 226H430.504V209.248H437.416C438.552 209.248 439.528 209.432 440.344 209.8C441.176 210.168 441.8 210.68 442.216 211.336C442.648 211.992 442.864 212.736 442.864 213.568C442.864 214.544 442.6 215.36 442.072 216.016C441.56 216.672 440.872 217.136 440.008 217.408ZM433.864 216.16H436.936C437.736 216.16 438.352 215.984 438.784 215.632C439.216 215.264 439.432 214.744 439.432 214.072C439.432 213.4 439.216 212.88 438.784 212.512C438.352 212.144 437.736 211.96 436.936 211.96H433.864V216.16ZM437.248 223.264C438.064 223.264 438.696 223.072 439.144 222.688C439.608 222.304 439.84 221.76 439.84 221.056C439.84 220.336 439.6 219.776 439.12 219.376C438.64 218.96 437.992 218.752 437.176 218.752H433.864V223.264H437.248ZM449.286 214.768C449.718 214.064 450.278 213.512 450.966 213.112C451.67 212.712 452.47 212.512 453.366 212.512V216.04H452.478C451.422 216.04 450.622 216.288 450.078 216.784C449.55 217.28 449.286 218.144 449.286 219.376V226H445.926V212.704H449.286V214.768ZM454.765 219.304C454.765 217.96 455.029 216.768 455.557 215.728C456.101 214.688 456.829 213.888 457.741 213.328C458.669 212.768 459.701 212.488 460.837 212.488C461.829 212.488 462.693 212.688 463.429 213.088C464.181 213.488 464.781 213.992 465.229 214.6V212.704H468.613V226H465.229V224.056C464.797 224.68 464.197 225.2 463.429 225.616C462.677 226.016 461.805 226.216 460.813 226.216C459.693 226.216 458.669 225.928 457.741 225.352C456.829 224.776 456.101 223.968 455.557 222.928C455.029 221.872 454.765 220.664 454.765 219.304ZM465.229 219.352C465.229 218.536 465.069 217.84 464.749 217.264C464.429 216.672 463.997 216.224 463.453 215.92C462.909 215.6 462.325 215.44 461.701 215.44C461.077 215.44 460.501 215.592 459.973 215.896C459.445 216.2 459.013 216.648 458.677 217.24C458.357 217.816 458.197 218.504 458.197 219.304C458.197 220.104 458.357 220.808 458.677 221.416C459.013 222.008 459.445 222.464 459.973 222.784C460.517 223.104 461.093 223.264 461.701 223.264C462.325 223.264 462.909 223.112 463.453 222.808C463.997 222.488 464.429 222.04 464.749 221.464C465.069 220.872 465.229 220.168 465.229 219.352ZM476.982 226.216C475.894 226.216 474.918 226.024 474.054 225.64C473.19 225.24 472.502 224.704 471.99 224.032C471.494 223.36 471.222 222.616 471.174 221.8H474.558C474.622 222.312 474.87 222.736 475.302 223.072C475.75 223.408 476.302 223.576 476.958 223.576C477.598 223.576 478.094 223.448 478.446 223.192C478.814 222.936 478.998 222.608 478.998 222.208C478.998 221.776 478.774 221.456 478.326 221.248C477.894 221.024 477.198 220.784 476.238 220.528C475.246 220.288 474.43 220.04 473.79 219.784C473.166 219.528 472.622 219.136 472.158 218.608C471.71 218.08 471.486 217.368 471.486 216.472C471.486 215.736 471.694 215.064 472.11 214.456C472.542 213.848 473.15 213.368 473.934 213.016C474.734 212.664 475.67 212.488 476.742 212.488C478.326 212.488 479.59 212.888 480.534 213.688C481.478 214.472 481.998 215.536 482.094 216.88H478.878C478.83 216.352 478.606 215.936 478.206 215.632C477.822 215.312 477.302 215.152 476.646 215.152C476.038 215.152 475.566 215.264 475.23 215.488C474.91 215.712 474.75 216.024 474.75 216.424C474.75 216.872 474.974 217.216 475.422 217.456C475.87 217.68 476.566 217.912 477.51 218.152C478.47 218.392 479.262 218.64 479.886 218.896C480.51 219.152 481.046 219.552 481.494 220.096C481.958 220.624 482.198 221.328 482.214 222.208C482.214 222.976 481.998 223.664 481.566 224.272C481.15 224.88 480.542 225.36 479.742 225.712C478.958 226.048 478.038 226.216 476.982 226.216ZM486.676 211.12C486.084 211.12 485.588 210.936 485.188 210.568C484.804 210.184 484.612 209.712 484.612 209.152C484.612 208.592 484.804 208.128 485.188 207.76C485.588 207.376 486.084 207.184 486.676 207.184C487.268 207.184 487.756 207.376 488.14 207.76C488.54 208.128 488.74 208.592 488.74 209.152C488.74 209.712 488.54 210.184 488.14 210.568C487.756 210.936 487.268 211.12 486.676 211.12ZM488.332 212.704V226H484.972V212.704H488.332ZM495.012 208.24V226H491.652V208.24H495.012ZM497.468 230.728V230.392C499.084 228.728 500.324 226.768 501.188 224.512C502.068 222.24 502.508 219.888 502.508 217.456C502.508 214.96 502.044 212.536 501.116 210.184C500.204 207.832 498.868 205.816 497.108 204.136V203.824H500.492C502.204 205.36 503.508 207.336 504.404 209.752C505.3 212.152 505.748 214.72 505.748 217.456C505.748 220.128 505.316 222.632 504.452 224.968C503.604 227.304 502.404 229.224 500.852 230.728H497.468Z" fill="black"/>
<g clip-path="url(#clip4_307_714)">
<circle cx="690.5" cy="86" r="75" fill="#D9D9D9"/>
<g clip-path="url(#clip5_307_714)">
<path d="M727.5 11H802.5V161H727.5V11Z" fill="#CE1126"/>
<path d="M652.5 11H727.5V161H652.5V11Z" fill="white"/>
<path d="M577.5 11H652.5V161H577.5V11Z" fill="#002868"/>
</g>
</g>
<path d="M659.056 214.432C659.056 215.328 658.84 216.168 658.408 216.952C657.992 217.736 657.328 218.368 656.416 218.848C655.52 219.328 654.384 219.568 653.008 219.568H650.2V226H646.84V209.248H653.008C654.304 209.248 655.408 209.472 656.32 209.92C657.232 210.368 657.912 210.984 658.36 211.768C658.824 212.552 659.056 213.44 659.056 214.432ZM652.864 216.856C653.792 216.856 654.48 216.648 654.928 216.232C655.376 215.8 655.6 215.2 655.6 214.432C655.6 212.8 654.688 211.984 652.864 211.984H650.2V216.856H652.864ZM664.801 214.768C665.233 214.064 665.793 213.512 666.481 213.112C667.185 212.712 667.985 212.512 668.881 212.512V216.04H667.993C666.937 216.04 666.137 216.288 665.593 216.784C665.065 217.28 664.801 218.144 664.801 219.376V226H661.441V212.704H664.801V214.768ZM670.28 219.304C670.28 217.96 670.544 216.768 671.072 215.728C671.616 214.688 672.344 213.888 673.256 213.328C674.184 212.768 675.216 212.488 676.352 212.488C677.344 212.488 678.208 212.688 678.944 213.088C679.696 213.488 680.296 213.992 680.744 214.6V212.704H684.128V226H680.744V224.056C680.312 224.68 679.712 225.2 678.944 225.616C678.192 226.016 677.32 226.216 676.328 226.216C675.208 226.216 674.184 225.928 673.256 225.352C672.344 224.776 671.616 223.968 671.072 222.928C670.544 221.872 670.28 220.664 670.28 219.304ZM680.744 219.352C680.744 218.536 680.584 217.84 680.264 217.264C679.944 216.672 679.512 216.224 678.968 215.92C678.424 215.6 677.84 215.44 677.216 215.44C676.592 215.44 676.016 215.592 675.488 215.896C674.96 216.2 674.528 216.648 674.192 217.24C673.872 217.816 673.712 218.504 673.712 219.304C673.712 220.104 673.872 220.808 674.192 221.416C674.528 222.008 674.96 222.464 675.488 222.784C676.032 223.104 676.608 223.264 677.216 223.264C677.84 223.264 678.424 223.112 678.968 222.808C679.512 222.488 679.944 222.04 680.264 221.464C680.584 220.872 680.744 220.168 680.744 219.352ZM694.778 212.512C696.362 212.512 697.642 213.016 698.618 214.024C699.594 215.016 700.082 216.408 700.082 218.2V226H696.722V218.656C696.722 217.6 696.458 216.792 695.93 216.232C695.402 215.656 694.682 215.368 693.77 215.368C692.842 215.368 692.106 215.656 691.562 216.232C691.034 216.792 690.77 217.6 690.77 218.656V226H687.41V212.704H690.77V214.36C691.218 213.784 691.786 213.336 692.474 213.016C693.178 212.68 693.946 212.512 694.778 212.512ZM702.413 219.352C702.413 217.976 702.693 216.776 703.253 215.752C703.813 214.712 704.589 213.912 705.581 213.352C706.573 212.776 707.709 212.488 708.989 212.488C710.637 212.488 711.997 212.904 713.069 213.736C714.157 214.552 714.885 215.704 715.253 217.192H711.629C711.437 216.616 711.109 216.168 710.645 215.848C710.197 215.512 709.637 215.344 708.965 215.344C708.005 215.344 707.245 215.696 706.685 216.4C706.125 217.088 705.845 218.072 705.845 219.352C705.845 220.616 706.125 221.6 706.685 222.304C707.245 222.992 708.005 223.336 708.965 223.336C710.325 223.336 711.213 222.728 711.629 221.512H715.253C714.885 222.952 714.157 224.096 713.069 224.944C711.981 225.792 710.621 226.216 708.989 226.216C707.709 226.216 706.573 225.936 705.581 225.376C704.589 224.8 703.813 224 703.253 222.976C702.693 221.936 702.413 220.728 702.413 219.352ZM719.419 211.12C718.827 211.12 718.331 210.936 717.931 210.568C717.547 210.184 717.355 209.712 717.355 209.152C717.355 208.592 717.547 208.128 717.931 207.76C718.331 207.376 718.827 207.184 719.419 207.184C720.011 207.184 720.499 207.376 720.883 207.76C721.283 208.128 721.483 208.592 721.483 209.152C721.483 209.712 721.283 210.184 720.883 210.568C720.499 210.936 720.011 211.12 719.419 211.12ZM721.075 212.704V226H717.715V212.704H721.075ZM729.482 226.216C728.394 226.216 727.418 226.024 726.554 225.64C725.69 225.24 725.002 224.704 724.49 224.032C723.994 223.36 723.722 222.616 723.674 221.8H727.058C727.122 222.312 727.37 222.736 727.802 223.072C728.25 223.408 728.802 223.576 729.458 223.576C730.098 223.576 730.594 223.448 730.946 223.192C731.314 222.936 731.498 222.608 731.498 222.208C731.498 221.776 731.274 221.456 730.826 221.248C730.394 221.024 729.698 220.784 728.738 220.528C727.746 220.288 726.93 220.04 726.29 219.784C725.666 219.528 725.122 219.136 724.658 218.608C724.21 218.08 723.986 217.368 723.986 216.472C723.986 215.736 724.194 215.064 724.61 214.456C725.042 213.848 725.65 213.368 726.434 213.016C727.234 212.664 728.17 212.488 729.242 212.488C730.826 212.488 732.09 212.888 733.034 213.688C733.978 214.472 734.498 215.536 734.594 216.88H731.378C731.33 216.352 731.106 215.936 730.706 215.632C730.322 215.312 729.802 215.152 729.146 215.152C728.538 215.152 728.066 215.264 727.73 215.488C727.41 215.712 727.25 216.024 727.25 216.424C727.25 216.872 727.474 217.216 727.922 217.456C728.37 217.68 729.066 217.912 730.01 218.152C730.97 218.392 731.762 218.64 732.386 218.896C733.01 219.152 733.546 219.552 733.994 220.096C734.458 220.624 734.698 221.328 734.714 222.208C734.714 222.976 734.498 223.664 734.066 224.272C733.65 224.88 733.042 225.36 732.242 225.712C731.458 226.048 730.538 226.216 729.482 226.216Z" fill="black"/>
<g clip-path="url(#clip6_307_714)">
<circle cx="971.5" cy="86" r="75" fill="white"/>
<g clip-path="url(#clip7_307_714)">
<path d="M853.5 30H912.25L914.673 32.4131H1027.33L1029.75 30H1088.5V147H1029.75L1027.33 144.587H914.673L912.25 147H853.5V30Z" fill="#D52B1E"/>
<path d="M912.25 30H1029.75V147H912.25V30ZM973.203 137.981L972.102 116.946C972.086 116.6 972.148 116.255 972.283 115.936C972.419 115.617 972.625 115.332 972.885 115.103C973.146 114.874 973.455 114.706 973.79 114.611C974.124 114.517 974.476 114.498 974.819 114.557L995.846 118.237L993.007 110.438C992.892 110.127 992.877 109.789 992.965 109.47C993.052 109.15 993.238 108.867 993.496 108.658L1016.53 90.0844L1011.34 87.6712C1010.99 87.5063 1010.71 87.2197 1010.56 86.8651C1010.41 86.5105 1010.39 86.1125 1010.51 85.7456L1015.06 71.8031L1001.79 74.6062C1001.44 74.6809 1001.06 74.6294 1000.74 74.4606C1000.41 74.2918 1000.15 74.016 1000.01 73.68L997.438 67.6594L987.083 78.7256C986.846 78.9743 986.535 79.1398 986.195 79.1974C985.856 79.255 985.507 79.2015 985.201 79.045C984.895 78.8884 984.648 78.6373 984.498 78.3292C984.347 78.0211 984.301 77.6727 984.366 77.3362L989.359 51.6937L981.355 56.3006C981.167 56.4103 980.958 56.4804 980.742 56.5065C980.526 56.5327 980.306 56.5143 980.098 56.4526C979.889 56.3909 979.695 56.2872 979.528 56.1478C979.361 56.0085 979.225 55.8365 979.127 55.6425L971 39.75L962.873 55.6425C962.775 55.8365 962.639 56.0085 962.472 56.1478C962.305 56.2872 962.111 56.3909 961.902 56.4526C961.694 56.5143 961.474 56.5327 961.258 56.5065C961.042 56.4804 960.833 56.4103 960.645 56.3006L952.641 51.6937L957.634 77.3362C957.699 77.6727 957.653 78.0211 957.502 78.3292C957.352 78.6373 957.105 78.8884 956.799 79.045C956.493 79.2015 956.144 79.255 955.805 79.1974C955.465 79.1398 955.154 78.9743 954.917 78.7256L944.562 67.6594L941.992 73.68C941.847 74.016 941.59 74.2918 941.265 74.4606C940.939 74.6294 940.565 74.6809 940.205 74.6062L926.938 71.8031L931.491 85.7456C931.611 86.1125 931.593 86.5105 931.44 86.8651C931.287 87.2197 931.009 87.5063 930.658 87.6712L925.469 90.0844L948.504 108.658C948.762 108.867 948.948 109.15 949.035 109.47C949.123 109.789 949.108 110.127 948.993 110.438L946.154 118.237L967.181 114.557C967.524 114.498 967.876 114.517 968.21 114.611C968.545 114.706 968.854 114.874 969.115 115.103C969.375 115.332 969.581 115.617 969.717 115.936C969.852 116.255 969.914 116.6 969.898 116.946L968.797 137.981H973.203Z" fill="white"/>
</g>
</g>
<path d="M888.774 214.432C888.774 215.328 888.558 216.168 888.126 216.952C887.71 217.736 887.046 218.368 886.134 218.848C885.238 219.328 884.102 219.568 882.726 219.568H879.918V226H876.558V209.248H882.726C884.022 209.248 885.126 209.472 886.038 209.92C886.95 210.368 887.63 210.984 888.078 211.768C888.542 212.552 888.774 213.44 888.774 214.432ZM882.582 216.856C883.51 216.856 884.198 216.648 884.646 216.232C885.094 215.8 885.318 215.2 885.318 214.432C885.318 212.8 884.406 211.984 882.582 211.984H879.918V216.856H882.582ZM894.52 214.768C894.952 214.064 895.512 213.512 896.2 213.112C896.904 212.712 897.704 212.512 898.6 212.512V216.04H897.712C896.656 216.04 895.856 216.288 895.312 216.784C894.784 217.28 894.52 218.144 894.52 219.376V226H891.16V212.704H894.52V214.768ZM899.999 219.304C899.999 217.96 900.263 216.768 900.791 215.728C901.335 214.688 902.063 213.888 902.975 213.328C903.903 212.768 904.935 212.488 906.071 212.488C907.063 212.488 907.927 212.688 908.663 213.088C909.415 213.488 910.015 213.992 910.463 214.6V212.704H913.847V226H910.463V224.056C910.031 224.68 909.431 225.2 908.663 225.616C907.911 226.016 907.039 226.216 906.047 226.216C904.927 226.216 903.903 225.928 902.975 225.352C902.063 224.776 901.335 223.968 900.791 222.928C900.263 221.872 899.999 220.664 899.999 219.304ZM910.463 219.352C910.463 218.536 910.303 217.84 909.983 217.264C909.663 216.672 909.231 216.224 908.687 215.92C908.143 215.6 907.559 215.44 906.935 215.44C906.311 215.44 905.735 215.592 905.207 215.896C904.679 216.2 904.247 216.648 903.911 217.24C903.591 217.816 903.431 218.504 903.431 219.304C903.431 220.104 903.591 220.808 903.911 221.416C904.247 222.008 904.679 222.464 905.207 222.784C905.751 223.104 906.327 223.264 906.935 223.264C907.559 223.264 908.143 223.112 908.687 222.808C909.231 222.488 909.663 222.04 909.983 221.464C910.303 220.872 910.463 220.168 910.463 219.352ZM924.497 212.512C926.081 212.512 927.361 213.016 928.337 214.024C929.313 215.016 929.801 216.408 929.801 218.2V226H926.441V218.656C926.441 217.6 926.177 216.792 925.649 216.232C925.121 215.656 924.401 215.368 923.489 215.368C922.561 215.368 921.825 215.656 921.281 216.232C920.753 216.792 920.489 217.6 920.489 218.656V226H917.129V212.704H920.489V214.36C920.937 213.784 921.505 213.336 922.193 213.016C922.897 212.68 923.665 212.512 924.497 212.512ZM932.132 219.352C932.132 217.976 932.412 216.776 932.972 215.752C933.532 214.712 934.308 213.912 935.3 213.352C936.292 212.776 937.428 212.488 938.708 212.488C940.356 212.488 941.716 212.904 942.788 213.736C943.876 214.552 944.604 215.704 944.972 217.192H941.348C941.156 216.616 940.828 216.168 940.364 215.848C939.916 215.512 939.356 215.344 938.684 215.344C937.724 215.344 936.964 215.696 936.404 216.4C935.844 217.088 935.564 218.072 935.564 219.352C935.564 220.616 935.844 221.6 936.404 222.304C936.964 222.992 937.724 223.336 938.684 223.336C940.044 223.336 940.932 222.728 941.348 221.512H944.972C944.604 222.952 943.876 224.096 942.788 224.944C941.7 225.792 940.34 226.216 938.708 226.216C937.428 226.216 936.292 225.936 935.3 225.376C934.308 224.8 933.532 224 932.972 222.976C932.412 221.936 932.132 220.728 932.132 219.352ZM949.137 211.12C948.545 211.12 948.049 210.936 947.649 210.568C947.265 210.184 947.073 209.712 947.073 209.152C947.073 208.592 947.265 208.128 947.649 207.76C948.049 207.376 948.545 207.184 949.137 207.184C949.729 207.184 950.217 207.376 950.601 207.76C951.001 208.128 951.201 208.592 951.201 209.152C951.201 209.712 951.001 210.184 950.601 210.568C950.217 210.936 949.729 211.12 949.137 211.12ZM950.793 212.704V226H947.433V212.704H950.793ZM959.201 226.216C958.113 226.216 957.137 226.024 956.273 225.64C955.409 225.24 954.721 224.704 954.209 224.032C953.713 223.36 953.441 222.616 953.393 221.8H956.777C956.841 222.312 957.089 222.736 957.521 223.072C957.969 223.408 958.521 223.576 959.177 223.576C959.817 223.576 960.313 223.448 960.665 223.192C961.033 222.936 961.217 222.608 961.217 222.208C961.217 221.776 960.993 221.456 960.545 221.248C960.113 221.024 959.417 220.784 958.457 220.528C957.465 220.288 956.649 220.04 956.009 219.784C955.385 219.528 954.841 219.136 954.377 218.608C953.929 218.08 953.705 217.368 953.705 216.472C953.705 215.736 953.913 215.064 954.329 214.456C954.761 213.848 955.369 213.368 956.153 213.016C956.953 212.664 957.889 212.488 958.961 212.488C960.545 212.488 961.809 212.888 962.753 213.688C963.697 214.472 964.217 215.536 964.313 216.88H961.097C961.049 216.352 960.825 215.936 960.425 215.632C960.041 215.312 959.521 215.152 958.865 215.152C958.257 215.152 957.785 215.264 957.449 215.488C957.129 215.712 956.969 216.024 956.969 216.424C956.969 216.872 957.193 217.216 957.641 217.456C958.089 217.68 958.785 217.912 959.729 218.152C960.689 218.392 961.481 218.64 962.105 218.896C962.729 219.152 963.265 219.552 963.713 220.096C964.177 220.624 964.417 221.328 964.433 222.208C964.433 222.976 964.217 223.664 963.785 224.272C963.369 224.88 962.761 225.36 961.961 225.712C961.177 226.048 960.257 226.216 959.201 226.216ZM982.366 226L976.27 218.536V226H972.91V209.248H976.27V216.76L982.366 209.248H986.422L979.51 217.552L986.614 226H982.366ZM987.96 219.304C987.96 217.96 988.224 216.768 988.752 215.728C989.296 214.688 990.024 213.888 990.936 213.328C991.864 212.768 992.896 212.488 994.032 212.488C995.024 212.488 995.888 212.688 996.624 213.088C997.376 213.488 997.976 213.992 998.424 214.6V212.704H1001.81V226H998.424V224.056C997.992 224.68 997.392 225.2 996.624 225.616C995.872 226.016 995 226.216 994.008 226.216C992.888 226.216 991.864 225.928 990.936 225.352C990.024 224.776 989.296 223.968 988.752 222.928C988.224 221.872 987.96 220.664 987.96 219.304ZM998.424 219.352C998.424 218.536 998.264 217.84 997.944 217.264C997.624 216.672 997.192 216.224 996.648 215.92C996.104 215.6 995.52 215.44 994.896 215.44C994.272 215.44 993.696 215.592 993.168 215.896C992.64 216.2 992.208 216.648 991.872 217.24C991.552 217.816 991.392 218.504 991.392 219.304C991.392 220.104 991.552 220.808 991.872 221.416C992.208 222.008 992.64 222.464 993.168 222.784C993.712 223.104 994.288 223.264 994.896 223.264C995.52 223.264 996.104 223.112 996.648 222.808C997.192 222.488 997.624 222.04 997.944 221.464C998.264 220.872 998.424 220.168 998.424 219.352ZM1012.46 212.512C1014.04 212.512 1015.32 213.016 1016.3 214.024C1017.27 215.016 1017.76 216.408 1017.76 218.2V226H1014.4V218.656C1014.4 217.6 1014.14 216.792 1013.61 216.232C1013.08 215.656 1012.36 215.368 1011.45 215.368C1010.52 215.368 1009.79 215.656 1009.24 216.232C1008.71 216.792 1008.45 217.6 1008.45 218.656V226H1005.09V212.704H1008.45V214.36C1008.9 213.784 1009.47 213.336 1010.15 213.016C1010.86 212.68 1011.63 212.512 1012.46 212.512ZM1020.09 219.304C1020.09 217.96 1020.36 216.768 1020.88 215.728C1021.43 214.688 1022.16 213.888 1023.07 213.328C1024 212.768 1025.03 212.488 1026.16 212.488C1027.16 212.488 1028.02 212.688 1028.76 213.088C1029.51 213.488 1030.11 213.992 1030.56 214.6V212.704H1033.94V226H1030.56V224.056C1030.12 224.68 1029.52 225.2 1028.76 225.616C1028 226.016 1027.13 226.216 1026.14 226.216C1025.02 226.216 1024 225.928 1023.07 225.352C1022.16 224.776 1021.43 223.968 1020.88 222.928C1020.36 221.872 1020.09 220.664 1020.09 219.304ZM1030.56 219.352C1030.56 218.536 1030.4 217.84 1030.08 217.264C1029.76 216.672 1029.32 216.224 1028.78 215.92C1028.24 215.6 1027.65 215.44 1027.03 215.44C1026.4 215.44 1025.83 215.592 1025.3 215.896C1024.77 216.2 1024.34 216.648 1024 217.24C1023.68 217.816 1023.52 218.504 1023.52 219.304C1023.52 220.104 1023.68 220.808 1024 221.416C1024.34 222.008 1024.77 222.464 1025.3 222.784C1025.84 223.104 1026.42 223.264 1027.03 223.264C1027.65 223.264 1028.24 223.112 1028.78 222.808C1029.32 222.488 1029.76 222.04 1030.08 221.464C1030.4 220.872 1030.56 220.168 1030.56 219.352ZM1036.36 219.304C1036.36 217.96 1036.62 216.768 1037.15 215.728C1037.69 214.688 1038.43 213.888 1039.36 213.328C1040.29 212.768 1041.32 212.488 1042.45 212.488C1043.32 212.488 1044.14 212.68 1044.93 213.064C1045.71 213.432 1046.33 213.928 1046.8 214.552V208.24H1050.21V226H1046.8V224.032C1046.38 224.688 1045.8 225.216 1045.05 225.616C1044.29 226.016 1043.42 226.216 1042.43 226.216C1041.31 226.216 1040.29 225.928 1039.36 225.352C1038.43 224.776 1037.69 223.968 1037.15 222.928C1036.62 221.872 1036.36 220.664 1036.36 219.304ZM1046.82 219.352C1046.82 218.536 1046.66 217.84 1046.34 217.264C1046.02 216.672 1045.59 216.224 1045.05 215.92C1044.5 215.6 1043.92 215.44 1043.29 215.44C1042.67 215.44 1042.09 215.592 1041.57 215.896C1041.04 216.2 1040.61 216.648 1040.27 217.24C1039.95 217.816 1039.79 218.504 1039.79 219.304C1039.79 220.104 1039.95 220.808 1040.27 221.416C1040.61 222.008 1041.04 222.464 1041.57 222.784C1042.11 223.104 1042.69 223.264 1043.29 223.264C1043.92 223.264 1044.5 223.112 1045.05 222.808C1045.59 222.488 1046.02 222.04 1046.34 221.464C1046.66 220.872 1046.82 220.168 1046.82 219.352ZM1052.62 219.304C1052.62 217.96 1052.89 216.768 1053.42 215.728C1053.96 214.688 1054.69 213.888 1055.6 213.328C1056.53 212.768 1057.56 212.488 1058.7 212.488C1059.69 212.488 1060.55 212.688 1061.29 213.088C1062.04 213.488 1062.64 213.992 1063.09 214.6V212.704H1066.47V226H1063.09V224.056C1062.66 224.68 1062.06 225.2 1061.29 225.616C1060.54 226.016 1059.66 226.216 1058.67 226.216C1057.55 226.216 1056.53 225.928 1055.6 225.352C1054.69 224.776 1053.96 223.968 1053.42 222.928C1052.89 221.872 1052.62 220.664 1052.62 219.304ZM1063.09 219.352C1063.09 218.536 1062.93 217.84 1062.61 217.264C1062.29 216.672 1061.86 216.224 1061.31 215.92C1060.77 215.6 1060.18 215.44 1059.56 215.44C1058.94 215.44 1058.36 215.592 1057.83 215.896C1057.3 216.2 1056.87 216.648 1056.54 217.24C1056.22 217.816 1056.06 218.504 1056.06 219.304C1056.06 220.104 1056.22 220.808 1056.54 221.416C1056.87 222.008 1057.3 222.464 1057.83 222.784C1058.38 223.104 1058.95 223.264 1059.56 223.264C1060.18 223.264 1060.77 223.112 1061.31 222.808C1061.86 222.488 1062.29 222.04 1062.61 221.464C1062.93 220.872 1063.09 220.168 1063.09 219.352Z" fill="black"/>
<defs>
<clipPath id="clip0_307_714">
<rect x="53.5" y="11" width="150" height="150" rx="75" fill="white"/>
</clipPath>
<clipPath id="clip1_307_714">
<rect width="240" height="150" fill="white" transform="translate(8.5 11)"/>
</clipPath>
<clipPath id="clip2_307_714">
<rect x="334.5" y="11" width="150" height="150" rx="75" fill="white"/>
</clipPath>
<clipPath id="clip3_307_714">
<rect width="214" height="150" fill="white" transform="translate(302.5 11)"/>
</clipPath>
<clipPath id="clip4_307_714">
<rect x="615.5" y="11" width="150" height="150" rx="75" fill="white"/>
</clipPath>
<clipPath id="clip5_307_714">
<rect width="225" height="150" fill="white" transform="translate(577.5 11)"/>
</clipPath>
<clipPath id="clip6_307_714">
<rect x="896.5" y="11" width="150" height="150" rx="75" fill="white"/>
</clipPath>
<clipPath id="clip7_307_714">
<rect width="235" height="117" fill="white" transform="translate(853.5 30)"/>
</clipPath>
</defs>
</svg>
