<svg width="1100" height="240" viewBox="0 0 1100 240" fill="none" xmlns="http://www.w3.org/2000/svg">
<g clip-path="url(#clip0_307_733)">
<circle cx="128.5" cy="86" r="75" fill="#D9D9D9"/>
<g clip-path="url(#clip1_307_733)">
<path d="M16.5 11H241.5V161H16.5V11Z" fill="white"/>
<path d="M16.5 11H241.5V61H16.5V11Z" fill="#FF6820"/>
<path d="M16.5 111H241.5V161H16.5V111Z" fill="#046A38"/>
<path d="M129 109.125C141.772 109.125 152.125 98.7716 152.125 86C152.125 73.2284 141.772 62.875 129 62.875C116.228 62.875 105.875 73.2284 105.875 86C105.875 98.7716 116.228 109.125 129 109.125Z" fill="#07038D"/>
<path d="M129 106C140.046 106 149 97.0457 149 86C149 74.9543 140.046 66 129 66C117.954 66 109 74.9543 109 86C109 97.0457 117.954 106 129 106Z" fill="white"/>
<path d="M129 90C131.209 90 133 88.2091 133 86C133 83.7909 131.209 82 129 82C126.791 82 125 83.7909 125 86C125 88.2091 126.791 90 129 90Z" fill="#07038D"/>
<path d="M129 66L129.75 78.0352L129 83.9941L128.25 78.0352L129 66Z" fill="#07038D"/>
<path d="M131.495 67.0387C131.974 67.1018 132.413 66.7645 132.476 66.2854C132.539 65.8063 132.202 65.3667 131.723 65.3037C131.244 65.2406 130.804 65.5779 130.741 66.057C130.678 66.5361 131.015 66.9756 131.495 67.0387Z" fill="#07038D"/>
<path d="M129 106L128.25 93.9648L129 88.0059L129.75 93.9648L129 106Z" fill="#07038D"/>
<path d="M126.505 104.961C126.026 104.898 125.587 105.235 125.524 105.715C125.461 106.194 125.798 106.633 126.277 106.696C126.756 106.759 127.196 106.422 127.259 105.943C127.322 105.464 126.985 105.024 126.505 104.961Z" fill="#07038D"/>
<path d="M134.178 66.6824L131.787 78.5016L129.52 84.0634L130.338 78.1134L134.178 66.6824Z" fill="#07038D"/>
<path d="M136.322 68.3315C136.769 68.5165 137.281 68.3044 137.466 67.858C137.65 67.4115 137.438 66.8997 136.992 66.7147C136.546 66.5298 136.034 66.7418 135.849 67.1883C135.664 67.6347 135.876 68.1466 136.322 68.3315Z" fill="#07038D"/>
<path d="M123.826 105.319L126.217 93.4993L128.484 87.9376L127.666 93.8876L123.826 105.319Z" fill="#07038D"/>
<path d="M121.682 103.669C121.235 103.485 120.723 103.697 120.538 104.143C120.353 104.589 120.565 105.101 121.012 105.286C121.458 105.471 121.97 105.259 122.155 104.813C122.34 104.366 122.128 103.854 121.682 103.669Z" fill="#07038D"/>
<path d="M139.001 68.6797L133.633 79.4775L130.004 84.2631L132.334 78.7275L139.001 68.6797Z" fill="#07038D"/>
<path d="M140.644 70.8273C141.028 71.1215 141.577 71.0492 141.871 70.6658C142.166 70.2824 142.093 69.7331 141.71 69.4389C141.326 69.1447 140.777 69.217 140.483 69.6004C140.189 69.9838 140.261 70.5331 140.644 70.8273Z" fill="#07038D"/>
<path d="M119.003 103.32L124.371 92.5225L128 87.7369L125.67 93.2725L119.003 103.32Z" fill="#07038D"/>
<path d="M117.359 101.173C116.976 100.879 116.427 100.951 116.133 101.334C115.838 101.718 115.911 102.267 116.294 102.561C116.677 102.855 117.227 102.783 117.521 102.4C117.815 102.016 117.743 101.467 117.359 101.173Z" fill="#07038D"/>
<path d="M143.14 71.8585L135.16 80.899L130.416 84.5822L134.099 79.8383L143.14 71.8585Z" fill="#07038D"/>
<path d="M144.172 74.3572C144.466 74.7406 145.015 74.8129 145.398 74.5187C145.782 74.2245 145.854 73.6752 145.56 73.2918C145.266 72.9085 144.717 72.8361 144.333 73.1303C143.95 73.4245 143.877 73.9738 144.172 74.3572Z" fill="#07038D"/>
<path d="M114.86 100.143L122.84 91.102L127.584 87.4188L123.901 92.1627L114.86 100.143Z" fill="#07038D"/>
<path d="M113.828 97.6438C113.534 97.2604 112.985 97.1881 112.602 97.4823C112.218 97.7765 112.146 98.3257 112.44 98.7091C112.734 99.0925 113.283 99.1648 113.667 98.8707C114.05 98.5765 114.123 98.0272 113.828 97.6438Z" fill="#07038D"/>
<path d="M146.324 76.0011L136.276 82.6682L130.741 84.9981L135.526 81.3692L146.324 76.0011Z" fill="#07038D"/>
<path d="M146.671 78.6822C146.856 79.1287 147.368 79.3407 147.814 79.1557C148.261 78.9708 148.473 78.459 148.288 78.0125C148.103 77.566 147.591 77.354 147.145 77.5389C146.698 77.7239 146.486 78.2357 146.671 78.6822Z" fill="#07038D"/>
<path d="M111.68 96.0009L121.727 89.3337L127.263 87.0038L122.477 90.6328L111.68 96.0009Z" fill="#07038D"/>
<path d="M111.333 93.3198C111.148 92.8733 110.636 92.6613 110.189 92.8462C109.743 93.0311 109.531 93.543 109.716 93.9895C109.901 94.4359 110.413 94.6479 110.859 94.463C111.306 94.2781 111.518 93.7662 111.333 93.3198Z" fill="#07038D"/>
<path d="M148.319 80.8241L136.888 84.6634L130.938 85.4813L136.5 83.2146L148.319 80.8241Z" fill="#07038D"/>
<path d="M147.961 83.5041C148.024 83.9833 148.464 84.3205 148.943 84.2574C149.422 84.1944 149.759 83.7548 149.696 83.2757C149.633 82.7966 149.194 82.4593 148.715 82.5224C148.235 82.5855 147.898 83.025 147.961 83.5041Z" fill="#07038D"/>
<path d="M109.681 91.1769L121.112 87.3375L127.062 86.5197L121.5 88.7864L109.681 91.1769Z" fill="#07038D"/>
<path d="M110.039 88.4968C109.976 88.0177 109.536 87.6805 109.057 87.7435C108.578 87.8066 108.241 88.2461 108.304 88.7253C108.367 89.2044 108.806 89.5416 109.285 89.4786C109.765 89.4155 110.102 88.976 110.039 88.4968Z" fill="#07038D"/>
<path d="M149 86L136.965 86.75L131.006 86L136.965 85.25L149 86Z" fill="#07038D"/>
<path d="M147.963 88.4965C147.9 88.9756 148.237 89.4152 148.717 89.4782C149.196 89.5413 149.635 89.2041 149.698 88.7249C149.761 88.2458 149.424 87.8063 148.945 87.7432C148.466 87.6801 148.026 88.0174 147.963 88.4965Z" fill="#07038D"/>
<path d="M109.004 86L121.039 85.25L126.998 86L121.039 86.75L109.004 86Z" fill="#07038D"/>
<path d="M110.041 83.5035C110.104 83.0244 109.766 82.5848 109.287 82.5218C108.808 82.4587 108.369 82.7959 108.306 83.2751C108.243 83.7542 108.58 84.1937 109.059 84.2568C109.538 84.3199 109.978 83.9826 110.041 83.5035Z" fill="#07038D"/>
<path d="M148.318 91.1766L136.498 88.7861L130.937 86.5194L136.887 87.3372L148.318 91.1766Z" fill="#07038D"/>
<path d="M146.669 93.3184C146.485 93.7648 146.697 94.2767 147.143 94.4616C147.589 94.6466 148.101 94.4345 148.286 93.9881C148.471 93.5416 148.259 93.0298 147.813 92.8448C147.366 92.6599 146.854 92.8719 146.669 93.3184Z" fill="#07038D"/>
<path d="M109.682 80.8234L121.502 83.2139L127.063 85.4806L121.113 84.6628L109.682 80.8234Z" fill="#07038D"/>
<path d="M111.331 78.6816C111.515 78.2352 111.303 77.7233 110.857 77.5384C110.411 77.3534 109.899 77.5655 109.714 78.0119C109.529 78.4584 109.741 78.9702 110.187 79.1552C110.634 79.3401 111.146 79.1281 111.331 78.6816Z" fill="#07038D"/>
<path d="M146.316 96.0001L135.519 90.632L130.733 87.003L136.269 89.333L146.316 96.0001Z" fill="#07038D"/>
<path d="M144.169 97.6425C143.875 98.0259 143.947 98.5752 144.33 98.8694C144.714 99.1636 145.263 99.0912 145.557 98.7079C145.851 98.3245 145.779 97.7752 145.396 97.481C145.012 97.1868 144.463 97.2591 144.169 97.6425Z" fill="#07038D"/>
<path d="M111.68 75.9999L122.477 81.368L127.263 84.997L121.727 82.667L111.68 75.9999Z" fill="#07038D"/>
<path d="M113.827 74.3575C114.121 73.9741 114.049 73.4248 113.666 73.1306C113.282 72.8364 112.733 72.9088 112.439 73.2921C112.145 73.6755 112.217 74.2248 112.6 74.519C112.984 74.8132 113.533 74.7409 113.827 74.3575Z" fill="#07038D"/>
<path d="M143.138 100.142L134.097 92.1618L130.414 87.4179L135.158 91.1011L143.138 100.142Z" fill="#07038D"/>
<path d="M140.639 101.172C140.256 101.466 140.183 102.015 140.477 102.398C140.772 102.782 141.321 102.854 141.704 102.56C142.088 102.266 142.16 101.717 141.866 101.333C141.572 100.95 141.022 100.877 140.639 101.172Z" fill="#07038D"/>
<path d="M114.858 71.8574L123.899 79.8372L127.582 84.5811L122.838 80.8979L114.858 71.8574Z" fill="#07038D"/>
<path d="M117.357 70.8274C117.741 70.5332 117.813 69.9839 117.519 69.6005C117.225 69.2171 116.675 69.1448 116.292 69.439C115.908 69.7332 115.836 70.2825 116.13 70.6659C116.425 71.0493 116.974 71.1216 117.357 70.8274Z" fill="#07038D"/>
<path d="M139.003 103.32L132.336 93.2725L130.006 87.7369L133.635 92.5225L139.003 103.32Z" fill="#07038D"/>
<path d="M136.323 103.669C135.876 103.854 135.664 104.366 135.849 104.812C136.034 105.259 136.546 105.471 136.992 105.286C137.439 105.101 137.651 104.589 137.466 104.143C137.281 103.696 136.769 103.484 136.323 103.669Z" fill="#07038D"/>
<path d="M119.001 68.6797L125.668 78.7275L127.998 84.2631L124.369 79.4775L119.001 68.6797Z" fill="#07038D"/>
<path d="M121.681 68.3308C122.128 68.1458 122.34 67.634 122.155 67.1875C121.97 66.7411 121.458 66.529 121.012 66.714C120.565 66.8989 120.353 67.4108 120.538 67.8572C120.723 68.3037 121.235 68.5157 121.681 68.3308Z" fill="#07038D"/>
<path d="M134.174 105.318L130.335 93.8871L129.517 87.9371L131.783 93.4989L134.174 105.318Z" fill="#07038D"/>
<path d="M131.494 104.961C131.015 105.024 130.678 105.464 130.741 105.943C130.804 106.422 131.243 106.759 131.722 106.696C132.201 106.633 132.539 106.194 132.476 105.715C132.413 105.235 131.973 104.898 131.494 104.961Z" fill="#07038D"/>
<path d="M123.822 66.6819L127.661 78.1129L128.479 84.0629L126.213 78.5011L123.822 66.6819Z" fill="#07038D"/>
<path d="M126.502 67.0388C126.981 66.9757 127.319 66.5362 127.255 66.0571C127.192 65.5779 126.753 65.2407 126.274 65.3038C125.795 65.3668 125.457 65.8064 125.52 66.2855C125.584 66.7646 126.023 67.1019 126.502 67.0388Z" fill="#07038D"/>
</g>
</g>
<path d="M96.2587 214.432C96.2587 215.328 96.0427 216.168 95.6107 216.952C95.1947 217.736 94.5307 218.368 93.6187 218.848C92.7227 219.328 91.5867 219.568 90.2107 219.568H87.4027V226H84.0427V209.248H90.2107C91.5067 209.248 92.6107 209.472 93.5227 209.92C94.4347 210.368 95.1147 210.984 95.5627 211.768C96.0267 212.552 96.2587 213.44 96.2587 214.432ZM90.0667 216.856C90.9947 216.856 91.6827 216.648 92.1307 216.232C92.5787 215.8 92.8027 215.2 92.8027 214.432C92.8027 212.8 91.8907 211.984 90.0667 211.984H87.4027V216.856H90.0667ZM111.196 212.704V226H107.812V224.32C107.38 224.896 106.812 225.352 106.108 225.688C105.42 226.008 104.668 226.168 103.852 226.168C102.812 226.168 101.892 225.952 101.092 225.52C100.292 225.072 99.6603 224.424 99.1963 223.576C98.7483 222.712 98.5243 221.688 98.5243 220.504V212.704H101.884V220.024C101.884 221.08 102.148 221.896 102.676 222.472C103.204 223.032 103.924 223.312 104.836 223.312C105.764 223.312 106.492 223.032 107.02 222.472C107.548 221.896 107.812 221.08 107.812 220.024V212.704H111.196ZM121.879 212.512C123.463 212.512 124.743 213.016 125.719 214.024C126.695 215.016 127.183 216.408 127.183 218.2V226H123.823V218.656C123.823 217.6 123.559 216.792 123.031 216.232C122.503 215.656 121.783 215.368 120.871 215.368C119.943 215.368 119.207 215.656 118.663 216.232C118.135 216.792 117.871 217.6 117.871 218.656V226H114.511V212.704H117.871V214.36C118.319 213.784 118.887 213.336 119.575 213.016C120.279 212.68 121.047 212.512 121.879 212.512ZM132.083 211.12C131.475 211.12 130.971 210.936 130.571 210.568C130.187 210.184 129.995 209.712 129.995 209.152C129.995 208.592 130.187 208.128 130.571 207.76C130.971 207.376 131.475 207.184 132.083 207.184C132.675 207.184 133.163 207.376 133.547 207.76C133.931 208.128 134.123 208.592 134.123 209.152C134.123 209.712 133.931 210.184 133.547 210.568C133.163 210.936 132.675 211.12 132.083 211.12ZM133.739 228.184C133.739 229.656 133.371 230.712 132.635 231.352C131.915 232.008 130.875 232.336 129.515 232.336H128.027V229.48H128.987C129.499 229.48 129.859 229.376 130.067 229.168C130.275 228.976 130.379 228.656 130.379 228.208V212.704H133.739V228.184ZM136.194 219.304C136.194 217.96 136.458 216.768 136.986 215.728C137.53 214.688 138.258 213.888 139.17 213.328C140.098 212.768 141.13 212.488 142.266 212.488C143.258 212.488 144.122 212.688 144.858 213.088C145.61 213.488 146.21 213.992 146.658 214.6V212.704H150.042V226H146.658V224.056C146.226 224.68 145.626 225.2 144.858 225.616C144.106 226.016 143.234 226.216 142.242 226.216C141.122 226.216 140.098 225.928 139.17 225.352C138.258 224.776 137.53 223.968 136.986 222.928C136.458 221.872 136.194 220.664 136.194 219.304ZM146.658 219.352C146.658 218.536 146.498 217.84 146.178 217.264C145.858 216.672 145.426 216.224 144.882 215.92C144.338 215.6 143.754 215.44 143.13 215.44C142.506 215.44 141.93 215.592 141.402 215.896C140.874 216.2 140.442 216.648 140.106 217.24C139.786 217.816 139.626 218.504 139.626 219.304C139.626 220.104 139.786 220.808 140.106 221.416C140.442 222.008 140.874 222.464 141.402 222.784C141.946 223.104 142.522 223.264 143.13 223.264C143.754 223.264 144.338 223.112 144.882 222.808C145.426 222.488 145.858 222.04 146.178 221.464C146.498 220.872 146.658 220.168 146.658 219.352ZM156.684 214.648C157.116 214.008 157.708 213.488 158.46 213.088C159.228 212.688 160.1 212.488 161.076 212.488C162.212 212.488 163.236 212.768 164.148 213.328C165.076 213.888 165.804 214.688 166.332 215.728C166.876 216.752 167.148 217.944 167.148 219.304C167.148 220.664 166.876 221.872 166.332 222.928C165.804 223.968 165.076 224.776 164.148 225.352C163.236 225.928 162.212 226.216 161.076 226.216C160.084 226.216 159.212 226.024 158.46 225.64C157.724 225.24 157.132 224.728 156.684 224.104V226H153.324V208.24H156.684V214.648ZM163.716 219.304C163.716 218.504 163.548 217.816 163.212 217.24C162.892 216.648 162.46 216.2 161.916 215.896C161.388 215.592 160.812 215.44 160.188 215.44C159.58 215.44 159.004 215.6 158.46 215.92C157.932 216.224 157.5 216.672 157.164 217.264C156.844 217.856 156.684 218.552 156.684 219.352C156.684 220.152 156.844 220.848 157.164 221.44C157.5 222.032 157.932 222.488 158.46 222.808C159.004 223.112 159.58 223.264 160.188 223.264C160.812 223.264 161.388 223.104 161.916 222.784C162.46 222.464 162.892 222.008 163.212 221.416C163.548 220.824 163.716 220.12 163.716 219.304ZM171.294 211.12C170.702 211.12 170.206 210.936 169.806 210.568C169.422 210.184 169.23 209.712 169.23 209.152C169.23 208.592 169.422 208.128 169.806 207.76C170.206 207.376 170.702 207.184 171.294 207.184C171.886 207.184 172.374 207.376 172.758 207.76C173.158 208.128 173.358 208.592 173.358 209.152C173.358 209.712 173.158 210.184 172.758 210.568C172.374 210.936 171.886 211.12 171.294 211.12ZM172.95 212.704V226H169.59V212.704H172.95Z" fill="black"/>
<g clip-path="url(#clip2_307_733)">
<circle cx="409.5" cy="86" r="75" fill="#D9D9D9"/>
<g clip-path="url(#clip3_307_733)">
<path d="M521.5 11H296.5V161H521.5V11Z" fill="#002B7F"/>
<path d="M521.5 11H371.5V161H521.5V11Z" fill="#FCD116"/>
<path d="M521.5 11H446.5V161H521.5V11Z" fill="#CE1126"/>
</g>
</g>
<path d="M364.062 226L360.366 219.472H358.782V226H355.422V209.248H361.71C363.006 209.248 364.11 209.48 365.022 209.944C365.934 210.392 366.614 211.008 367.062 211.792C367.526 212.56 367.758 213.424 367.758 214.384C367.758 215.488 367.438 216.488 366.798 217.384C366.158 218.264 365.206 218.872 363.942 219.208L367.95 226H364.062ZM358.782 216.952H361.59C362.502 216.952 363.182 216.736 363.63 216.304C364.078 215.856 364.302 215.24 364.302 214.456C364.302 213.688 364.078 213.096 363.63 212.68C363.182 212.248 362.502 212.032 361.59 212.032H358.782V216.952ZM383.349 212.704V226H379.965V224.32C379.533 224.896 378.965 225.352 378.261 225.688C377.573 226.008 376.821 226.168 376.005 226.168C374.965 226.168 374.045 225.952 373.245 225.52C372.445 225.072 371.813 224.424 371.349 223.576C370.901 222.712 370.677 221.688 370.677 220.504V212.704H374.037V220.024C374.037 221.08 374.301 221.896 374.829 222.472C375.357 223.032 376.077 223.312 376.989 223.312C377.917 223.312 378.645 223.032 379.173 222.472C379.701 221.896 379.965 221.08 379.965 220.024V212.704H383.349ZM403.176 212.512C404.808 212.512 406.12 213.016 407.112 214.024C408.12 215.016 408.624 216.408 408.624 218.2V226H405.264V218.656C405.264 217.616 405 216.824 404.472 216.28C403.944 215.72 403.224 215.44 402.312 215.44C401.4 215.44 400.672 215.72 400.128 216.28C399.6 216.824 399.336 217.616 399.336 218.656V226H395.976V218.656C395.976 217.616 395.712 216.824 395.184 216.28C394.656 215.72 393.936 215.44 393.024 215.44C392.096 215.44 391.36 215.72 390.816 216.28C390.288 216.824 390.024 217.616 390.024 218.656V226H386.664V212.704H390.024V214.312C390.456 213.752 391.008 213.312 391.68 212.992C392.368 212.672 393.12 212.512 393.936 212.512C394.976 212.512 395.904 212.736 396.72 213.184C397.536 213.616 398.168 214.24 398.616 215.056C399.048 214.288 399.672 213.672 400.488 213.208C401.32 212.744 402.216 212.512 403.176 212.512ZM410.948 219.304C410.948 217.96 411.212 216.768 411.74 215.728C412.284 214.688 413.012 213.888 413.924 213.328C414.852 212.768 415.884 212.488 417.02 212.488C418.012 212.488 418.876 212.688 419.612 213.088C420.364 213.488 420.964 213.992 421.412 214.6V212.704H424.796V226H421.412V224.056C420.98 224.68 420.38 225.2 419.612 225.616C418.86 226.016 417.988 226.216 416.996 226.216C415.876 226.216 414.852 225.928 413.924 225.352C413.012 224.776 412.284 223.968 411.74 222.928C411.212 221.872 410.948 220.664 410.948 219.304ZM421.412 219.352C421.412 218.536 421.252 217.84 420.932 217.264C420.612 216.672 420.18 216.224 419.636 215.92C419.092 215.6 418.508 215.44 417.884 215.44C417.26 215.44 416.684 215.592 416.156 215.896C415.628 216.2 415.196 216.648 414.86 217.24C414.54 217.816 414.38 218.504 414.38 219.304C414.38 220.104 414.54 220.808 414.86 221.416C415.196 222.008 415.628 222.464 416.156 222.784C416.7 223.104 417.276 223.264 417.884 223.264C418.508 223.264 419.092 223.112 419.636 222.808C420.18 222.488 420.612 222.04 420.932 221.464C421.252 220.872 421.412 220.168 421.412 219.352ZM435.446 212.512C437.03 212.512 438.31 213.016 439.286 214.024C440.262 215.016 440.75 216.408 440.75 218.2V226H437.39V218.656C437.39 217.6 437.126 216.792 436.598 216.232C436.07 215.656 435.35 215.368 434.438 215.368C433.51 215.368 432.774 215.656 432.23 216.232C431.702 216.792 431.438 217.6 431.438 218.656V226H428.078V212.704H431.438V214.36C431.886 213.784 432.454 213.336 433.142 213.016C433.846 212.68 434.614 212.512 435.446 212.512ZM445.649 211.12C445.057 211.12 444.561 210.936 444.161 210.568C443.777 210.184 443.585 209.712 443.585 209.152C443.585 208.592 443.777 208.128 444.161 207.76C444.561 207.376 445.057 207.184 445.649 207.184C446.241 207.184 446.729 207.376 447.113 207.76C447.513 208.128 447.713 208.592 447.713 209.152C447.713 209.712 447.513 210.184 447.113 210.568C446.729 210.936 446.241 211.12 445.649 211.12ZM447.305 212.704V226H443.945V212.704H447.305ZM449.761 219.304C449.761 217.96 450.025 216.768 450.553 215.728C451.097 214.688 451.825 213.888 452.737 213.328C453.665 212.768 454.697 212.488 455.833 212.488C456.825 212.488 457.689 212.688 458.425 213.088C459.177 213.488 459.777 213.992 460.225 214.6V212.704H463.609V226H460.225V224.056C459.793 224.68 459.193 225.2 458.425 225.616C457.673 226.016 456.801 226.216 455.809 226.216C454.689 226.216 453.665 225.928 452.737 225.352C451.825 224.776 451.097 223.968 450.553 222.928C450.025 221.872 449.761 220.664 449.761 219.304ZM460.225 219.352C460.225 218.536 460.065 217.84 459.745 217.264C459.425 216.672 458.993 216.224 458.449 215.92C457.905 215.6 457.321 215.44 456.697 215.44C456.073 215.44 455.497 215.592 454.969 215.896C454.441 216.2 454.009 216.648 453.673 217.24C453.353 217.816 453.193 218.504 453.193 219.304C453.193 220.104 453.353 220.808 453.673 221.416C454.009 222.008 454.441 222.464 454.969 222.784C455.513 223.104 456.089 223.264 456.697 223.264C457.321 223.264 457.905 223.112 458.449 222.808C458.993 222.488 459.425 222.04 459.745 221.464C460.065 220.872 460.225 220.168 460.225 219.352Z" fill="black"/>
<g clip-path="url(#clip4_307_733)">
<circle cx="690.5" cy="86" r="75" fill="#D9D9D9"/>
<g clip-path="url(#clip5_307_733)">
<path d="M814.5 10H580.5V166H814.5V10Z" fill="#D52B1E"/>
<path d="M814.5 10H580.5V114H814.5V10Z" fill="#0039A6"/>
<path d="M814.5 10H580.5V62H814.5V10Z" fill="white"/>
<path d="M580.5 10H814.5V166H580.5V10Z" stroke="black" stroke-width="2"/>
</g>
</g>
<path d="M667.163 226L663.467 219.472H661.883V226H658.523V209.248H664.811C666.107 209.248 667.211 209.48 668.123 209.944C669.035 210.392 669.715 211.008 670.163 211.792C670.627 212.56 670.859 213.424 670.859 214.384C670.859 215.488 670.539 216.488 669.899 217.384C669.259 218.264 668.307 218.872 667.043 219.208L671.051 226H667.163ZM661.883 216.952H664.691C665.603 216.952 666.283 216.736 666.731 216.304C667.179 215.856 667.403 215.24 667.403 214.456C667.403 213.688 667.179 213.096 666.731 212.68C666.283 212.248 665.603 212.032 664.691 212.032H661.883V216.952ZM686.45 212.704V226H683.066V224.32C682.634 224.896 682.066 225.352 681.362 225.688C680.674 226.008 679.922 226.168 679.106 226.168C678.066 226.168 677.146 225.952 676.346 225.52C675.546 225.072 674.914 224.424 674.45 223.576C674.002 222.712 673.778 221.688 673.778 220.504V212.704H677.138V220.024C677.138 221.08 677.402 221.896 677.93 222.472C678.458 223.032 679.178 223.312 680.09 223.312C681.018 223.312 681.746 223.032 682.274 222.472C682.802 221.896 683.066 221.08 683.066 220.024V212.704H686.45ZM694.853 226.216C693.765 226.216 692.789 226.024 691.925 225.64C691.061 225.24 690.373 224.704 689.861 224.032C689.365 223.36 689.093 222.616 689.045 221.8H692.429C692.493 222.312 692.741 222.736 693.173 223.072C693.621 223.408 694.173 223.576 694.829 223.576C695.469 223.576 695.965 223.448 696.317 223.192C696.685 222.936 696.869 222.608 696.869 222.208C696.869 221.776 696.645 221.456 696.197 221.248C695.765 221.024 695.069 220.784 694.109 220.528C693.117 220.288 692.301 220.04 691.661 219.784C691.037 219.528 690.493 219.136 690.029 218.608C689.581 218.08 689.357 217.368 689.357 216.472C689.357 215.736 689.565 215.064 689.981 214.456C690.413 213.848 691.021 213.368 691.805 213.016C692.605 212.664 693.541 212.488 694.613 212.488C696.197 212.488 697.461 212.888 698.405 213.688C699.349 214.472 699.869 215.536 699.965 216.88H696.749C696.701 216.352 696.477 215.936 696.077 215.632C695.693 215.312 695.173 215.152 694.517 215.152C693.909 215.152 693.437 215.264 693.101 215.488C692.781 215.712 692.621 216.024 692.621 216.424C692.621 216.872 692.845 217.216 693.293 217.456C693.741 217.68 694.437 217.912 695.381 218.152C696.341 218.392 697.133 218.64 697.757 218.896C698.381 219.152 698.917 219.552 699.365 220.096C699.829 220.624 700.069 221.328 700.085 222.208C700.085 222.976 699.869 223.664 699.437 224.272C699.021 224.88 698.413 225.36 697.613 225.712C696.829 226.048 695.909 226.216 694.853 226.216ZM704.548 211.12C703.956 211.12 703.46 210.936 703.06 210.568C702.676 210.184 702.484 209.712 702.484 209.152C702.484 208.592 702.676 208.128 703.06 207.76C703.46 207.376 703.956 207.184 704.548 207.184C705.14 207.184 705.628 207.376 706.012 207.76C706.412 208.128 706.612 208.592 706.612 209.152C706.612 209.712 706.412 210.184 706.012 210.568C705.628 210.936 705.14 211.12 704.548 211.12ZM706.204 212.704V226H702.844V212.704H706.204ZM708.659 219.304C708.659 217.96 708.923 216.768 709.451 215.728C709.995 214.688 710.723 213.888 711.635 213.328C712.563 212.768 713.595 212.488 714.731 212.488C715.723 212.488 716.587 212.688 717.323 213.088C718.075 213.488 718.675 213.992 719.123 214.6V212.704H722.507V226H719.123V224.056C718.691 224.68 718.091 225.2 717.323 225.616C716.571 226.016 715.699 226.216 714.707 226.216C713.587 226.216 712.563 225.928 711.635 225.352C710.723 224.776 709.995 223.968 709.451 222.928C708.923 221.872 708.659 220.664 708.659 219.304ZM719.123 219.352C719.123 218.536 718.963 217.84 718.643 217.264C718.323 216.672 717.891 216.224 717.347 215.92C716.803 215.6 716.219 215.44 715.595 215.44C714.971 215.44 714.395 215.592 713.867 215.896C713.339 216.2 712.907 216.648 712.571 217.24C712.251 217.816 712.091 218.504 712.091 219.304C712.091 220.104 712.251 220.808 712.571 221.416C712.907 222.008 713.339 222.464 713.867 222.784C714.411 223.104 714.987 223.264 715.595 223.264C716.219 223.264 716.803 223.112 717.347 222.808C717.891 222.488 718.323 222.04 718.643 221.464C718.963 220.872 719.123 220.168 719.123 219.352Z" fill="black"/>
<g clip-path="url(#clip6_307_733)">
<circle cx="971.5" cy="86" r="75" fill="#FFBE29"/>
<g clip-path="url(#clip7_307_733)">
<path d="M870.5 23H1133.5V154H870.5V23Z" fill="#FFBE29"/>
<path d="M882.773 35.2266H951.153V141.773H882.773V35.2266Z" fill="#EB7400"/>
<path d="M882.773 35.2266H916.963V141.773H882.773V35.2266Z" fill="#00534E"/>
<path d="M963.426 35.2266H1121.23V141.773H963.426V35.2266Z" fill="#8D153A"/>
<path d="M980.579 121.078C980.579 121.078 979.128 124.095 977.525 125.324C975.15 127.145 970.281 127.014 968.214 129.138C965.737 131.643 968.406 134.953 968.384 135.241L968.248 136.989C968.248 136.989 969.918 137.009 970.621 137.121C971.678 137.29 972.091 138.168 974.059 138.038C979.008 137.71 978.809 133.156 979.088 129.265C979.337 127.784 979.912 125.852 980.239 124.37C980.519 123.1 980.579 121.078 980.579 121.078Z" fill="#FFBE29" stroke="black" stroke-width="2.096"/>
<path d="M1017.57 128.337L1018.56 127.778L1018.99 128.338C1019.56 129.085 1021.13 129.077 1022.17 128.321L1022.97 127.743L1023.64 128.321C1024.52 129.081 1026.16 129.082 1027.2 128.324C1027.94 127.793 1028.04 127.782 1028.53 128.186C1028.81 128.427 1029.66 128.701 1030.41 128.795C1031.75 128.965 1031.77 128.956 1032.56 127.808C1033.22 126.847 1033.32 126.457 1033.17 125.525C1033.05 124.792 1032.97 124.054 1032.92 123.314C1032.86 122.232 1032.86 122.225 1034.49 121.676C1035.38 121.373 1036.42 120.966 1036.79 120.772C1037.44 120.434 1039.23 118.394 1039.23 117.992C1039.23 117.885 1038.53 117.722 1037.67 117.629C1034.28 117.259 1033.71 115.488 1035.91 112.2C1039.51 106.836 1041.68 101.612 1041.69 98.2851C1041.7 96.7976 1041.79 96.2984 1041.98 96.6218C1042.79 97.9436 1041.35 103.486 1039.17 107.466L1038.29 109.068L1039.13 108.881C1039.59 108.778 1042.3 107.667 1045.15 106.412C1052.95 102.977 1055.63 102.304 1060.68 102.511C1064.91 102.684 1066.71 103.487 1069.7 106.532C1071.28 108.145 1072.81 109.299 1075.59 110.996C1081.53 114.61 1081.78 114.923 1082.06 119.174C1082.35 123.481 1082.21 123.714 1078.86 124.434C1075.99 125.049 1074.2 126.347 1073.72 128.15C1073.46 129.113 1074 129.141 1075.44 128.238L1076.5 127.577L1076.97 128.238C1077.59 129.108 1078.91 129.111 1080 128.246L1080.82 127.593L1081.67 128.246C1082.98 129.261 1084.72 129.015 1085.21 127.746C1085.31 127.502 1085.56 127.58 1086.07 128.012C1087.03 128.82 1089.48 129.167 1089.74 128.531C1089.85 128.289 1089.65 127.69 1089.32 127.2C1087.89 125.119 1087.44 124.127 1087.43 122.994C1087.4 121.419 1087.88 120.659 1089.73 119.378C1091.97 117.822 1092.66 115.814 1090.95 115.814C1089.9 115.814 1088.84 114.911 1088.17 113.438C1086.79 110.446 1087.06 107.091 1089.12 101.51C1091.22 95.8415 1091.45 94.7963 1091.46 91.0051C1091.47 87.9398 1091.39 87.4096 1090.67 85.729C1090.23 84.7015 1089.34 83.1714 1088.69 82.3291L1087.51 80.7975L1089.03 79.577C1093.65 75.8506 1092.71 69.7517 1087.14 67.4018C1085.43 66.6828 1085.01 66.6195 1082.02 66.6388C1080.23 66.6506 1077.5 66.8798 1075.95 67.1481C1074.37 67.4218 1071.7 67.6416 1069.87 67.649C1066.96 67.6603 1066.46 67.5907 1065.34 67.0103C1064.17 66.4052 1063.97 66.118 1063.74 64.7195C1063.7 64.432 1063.49 64.1453 1063.28 64.0821C1062.89 63.9603 1061.05 65.5098 1060.78 66.1962C1060.64 66.535 1060.54 66.5114 1060.14 66.06C1059.88 65.7601 1059.52 65.0709 1059.33 64.5287C1058.87 63.1649 1059.44 62.1423 1061.09 61.3763L1062.37 60.7818L1061.61 60.3268C1060.06 59.3876 1057.41 60.03 1056.45 61.5795C1056.18 62.0176 1055.88 62.3771 1055.79 62.378C1055.7 62.3789 1055.19 61.9609 1054.65 61.449C1052.64 59.5396 1053.33 56.7146 1056.02 55.8521C1057.45 55.3921 1058.72 55.7429 1058.99 56.6724C1059.39 58.0913 1060.64 56.2262 1060.42 54.5418C1060.27 53.4221 1060.29 53.3832 1061.09 53.3832C1062.2 53.3832 1064.56 54.7975 1065.29 55.8994C1066.13 57.1792 1066.07 59.1946 1065.14 60.6967L1064.41 61.876L1065.37 61.6895C1066.77 61.4161 1068.14 60.568 1068.83 59.5394C1069.56 58.4521 1069.63 56.3347 1068.99 55.1923C1068.36 54.085 1068.43 53.9092 1069.36 54.2833C1070.94 54.9197 1071.78 55.6215 1072.41 56.8244C1072.98 57.9077 1073.01 58.1769 1072.71 59.3044C1072.52 60 1072.09 60.9152 1071.77 61.3383C1071.26 61.9969 1071.24 62.1072 1071.64 62.1072C1072.4 62.1072 1073.98 61.4118 1074.54 60.8319C1074.82 60.5389 1075.24 59.8173 1075.46 59.2284L1075.86 58.1578L1076.32 58.9739C1076.98 60.1278 1078.25 61.1664 1079.8 61.8127C1081.47 62.5076 1082.16 62.5469 1081.29 61.8967C1080.7 61.4583 1079.62 58.367 1079.95 58.0646C1080.14 57.8868 1082.4 59.5805 1084.99 61.8367C1087.44 63.971 1088.97 64.6701 1091.22 64.6701C1094.09 64.6701 1095.76 62.2419 1094.47 59.946C1093.72 58.6073 1092.04 58.4214 1091.06 59.5678C1090.61 60.0949 1090.49 60.5144 1090.62 61.0673C1090.78 61.7446 1090.72 61.8349 1090.08 61.8349C1089.25 61.8349 1087.61 60.7976 1084.69 58.429C1080.23 54.817 1074.82 51.7555 1070.91 50.6373C1068.41 49.9197 1063.05 49.6396 1060.5 50.0929C1057.74 50.5835 1054.48 52.1181 1052.7 53.7607C1049.55 56.6715 1049.5 60.5449 1052.57 64.0721L1053.45 65.0825L1052.85 65.9804C1051.99 67.2866 1052.06 69.0448 1053.04 70.3397C1053.47 70.9101 1053.9 71.3765 1054 71.3761C1054.1 71.3756 1054.21 71.0091 1054.24 70.5613C1054.33 69.4283 1054.83 68.6693 1055.69 68.3688C1056.46 68.098 1056.96 68.2258 1060.5 69.5999C1064.23 71.0451 1070.35 71.1444 1076.87 69.8653C1080.06 69.2382 1083.83 69.2751 1085.49 69.9498C1088.52 71.1865 1089.23 74.4038 1086.99 76.846C1086.03 77.9033 1085.1 78.3339 1081.97 79.1687C1079.59 79.804 1079.02 79.846 1073.61 79.7935C1068.98 79.7486 1067.32 79.8349 1065.44 80.2181C1063.39 80.6341 1062.13 80.6759 1056.11 80.5285L1049.15 80.358L1049.92 80.9791C1050.34 81.3208 1050.94 81.7411 1051.25 81.9132C1051.78 82.206 1051.76 82.2453 1050.98 82.5265C1050.52 82.6917 1049.5 82.8271 1048.72 82.8271H1047.29L1047.1 84.0066C1046.99 84.6553 1047 85.4127 1047.11 85.6897C1047.28 86.0983 1047.22 86.1569 1046.78 86.0004C1046.48 85.8944 1045.64 85.6857 1044.92 85.5367C1044.2 85.3878 1043.23 85.0846 1042.76 84.8627C1041.98 84.4899 1041.89 84.4999 1041.6 84.9961C1041.34 85.4391 1038.92 87.1889 1038.57 87.1889C1038.51 87.1889 1038.44 86.8514 1038.41 86.439C1038.37 86.0267 1038.02 84.9532 1037.63 84.0535C1037.24 83.1539 1036.83 82.1724 1036.72 81.8725C1036.55 81.4201 1036.48 81.397 1036.28 81.7362C1036.15 81.9612 1035.96 82.5745 1035.86 83.0994C1035.75 83.6243 1035.39 84.4768 1035.05 84.9939L1034.42 85.9342L1034.03 85.1301C1033.6 84.2669 1032.89 83.3719 1032.64 83.3719C1032.55 83.3719 1032.4 83.648 1032.31 83.9853C1032.11 84.6898 1030.43 86.6433 1030.02 86.6433C1029.87 86.6433 1029.75 86.0914 1029.75 85.4165C1029.75 84.7415 1029.62 84.1896 1029.45 84.1896C1029.29 84.1896 1029.16 84.3641 1029.16 84.5775C1029.16 85.0963 1027.72 86.6431 1027.24 86.6431C1027.03 86.6431 1026.69 86.8272 1026.49 87.0519C1025.96 87.6384 1025.53 87.5561 1025.75 86.9114C1025.86 86.6091 1025.79 85.9037 1025.6 85.3438L1025.16 84.0195C1025.09 83.8074 1024.57 83.8637 1023.49 84.2027C1021.73 84.7504 1021.14 84.6535 1022.04 83.9653C1022.37 83.7136 1022.88 82.8424 1023.16 82.0288C1023.44 81.2152 1023.86 80.4936 1024.09 80.4249C1024.41 80.3286 1024.39 80.4476 1024.02 80.9422C1023.75 81.2954 1023.53 81.7718 1023.53 82.0008C1023.53 82.2298 1023.32 82.7728 1023.08 83.2074C1022.83 83.642 1022.68 84.0406 1022.73 84.0933C1022.79 84.146 1023.46 83.8988 1024.22 83.5447L1025.6 82.9004L1025.61 83.4767C1025.61 83.7937 1025.78 84.6299 1025.98 85.3349L1026.34 86.6169L1027.28 86.1965C1028.24 85.7668 1029.16 84.2354 1029.16 83.0478C1029.16 82.4607 1029.5 82.551 1029.64 83.1748C1029.68 83.3579 1029.9 84.0451 1030.13 84.7018L1030.53 85.896L1031.18 85.1419C1031.53 84.7273 1031.98 83.9139 1032.16 83.3344C1032.49 82.3285 1033.01 81.8959 1033.01 82.6263C1033.01 83.1528 1034.48 85.0408 1034.77 84.8785C1034.91 84.8 1035.18 84.0915 1035.38 83.3039C1035.79 81.6658 1036.45 80.5518 1036.87 80.7915C1037.03 80.8815 1037.09 81.0564 1037.01 81.18C1036.93 81.3036 1037.27 82.3687 1037.77 83.5467L1038.88 86.1823C1039.06 86.6187 1039.23 86.5553 1040.3 85.637C1040.96 85.0654 1041.57 84.4257 1041.64 84.2154C1041.75 83.8972 1041.9 83.9088 1042.52 84.2845C1043.39 84.8096 1046.32 85.6557 1046.54 85.4476C1046.63 85.3695 1046.72 84.6224 1046.74 83.7872L1046.78 82.2684L1047.62 82.4381C1048.08 82.5314 1049.05 82.5256 1049.78 82.4252L1051.1 82.2427L1049.93 81.4573C1049.28 81.0253 1048.62 80.4665 1048.47 80.2153C1048.31 79.9476 1047.73 79.7204 1047.08 79.6664C1045.31 79.5206 1042.19 77.8159 1042.19 76.9997C1042.19 76.8465 1042.62 77.107 1043.15 77.5785C1044.32 78.6249 1045.95 79.2816 1047.38 79.2816H1048.45L1047.79 78.4288C1047.41 77.9391 1047.07 77.0099 1046.99 76.2454C1046.86 75.0269 1046.73 74.8333 1045.42 73.9488C1044.63 73.4175 1043.66 72.6212 1043.25 72.1793L1042.52 71.3756L1042.15 72.3298C1041.94 72.8546 1041.69 73.2839 1041.59 73.2839C1041.48 73.2839 1041.09 72.9771 1040.71 72.6023C1040.32 72.2275 1039.93 71.9221 1039.84 71.9238C1039.75 71.9256 1039.41 72.4305 1039.09 73.0458L1038.5 74.1646L1038.05 73.5197C1037.81 73.1649 1037.22 72.5374 1036.75 72.125C1036.29 71.7126 1036.04 71.3752 1036.21 71.3752C1036.37 71.3752 1036.95 71.8047 1037.49 72.3298L1038.47 73.2843L1038.86 72.585C1039.1 72.1699 1039.19 71.5324 1039.08 71.0171C1038.93 70.2657 1038.95 70.2221 1039.24 70.6936C1039.43 70.9935 1040.01 71.5684 1040.52 71.9712L1041.45 72.7037L1042.09 71.5624C1042.72 70.4266 1042.73 70.4244 1043.02 71.1027C1043.41 72.0099 1046.22 74.248 1048.61 75.5558C1048.98 75.7574 1048.82 75.0643 1048.14 73.4704C1047.96 73.0482 1047.81 72.2873 1047.81 71.7793C1047.81 71.0257 1047.59 70.6903 1046.6 69.9569C1045.17 68.8981 1044.7 68.1451 1044.43 66.4368C1044.32 65.7447 1044.07 64.9751 1043.88 64.7266C1043.58 64.3576 1043.54 64.5641 1043.61 65.8485C1043.67 66.7142 1043.55 67.7906 1043.36 68.2403L1043 69.0581L1042.73 68.3766C1042.58 68.0018 1041.92 67.3498 1041.25 66.9278C1040.59 66.5059 1040.13 66.09 1040.22 66.0033C1040.32 65.9166 1041 66.3012 1041.74 66.8578C1042.86 67.7057 1043.11 67.7975 1043.26 67.424C1043.45 66.9852 1043.26 65.076 1042.91 63.742C1042.73 63.0758 1042.75 63.0793 1043.59 63.9012C1044.22 64.5072 1044.56 65.2301 1044.83 66.491C1045.17 68.0931 1045.34 68.3599 1046.86 69.6606C1047.78 70.4417 1048.58 71.0368 1048.63 70.9833C1048.69 70.9297 1048.81 68.909 1048.89 66.493C1049.05 61.86 1048.87 60.7576 1047.72 59.3262L1047.13 58.5906L1048.06 57.6185C1049.27 56.3505 1049.82 55.3339 1050.06 53.9472L1050.26 52.819L1049.21 53.7822C1048.36 54.5709 1047.95 54.7455 1046.96 54.7455C1045.97 54.7455 1045.59 54.5854 1044.93 53.8996C1044.13 53.0766 1042.72 52.285 1041.37 51.8995C1040.87 51.7573 1040.7 51.8193 1040.7 52.1481C1040.7 52.389 1040.43 53.0846 1040.09 53.694L1039.48 54.8017L1038.19 53.5659C1037.4 52.8079 1036.47 52.2179 1035.77 52.04C1033.99 51.5852 1033.89 51.6303 1033.89 52.919C1033.89 54.8737 1033.03 55.2378 1031.49 53.9387C1030.31 52.9484 1029.33 52.733 1027.1 52.9715L1025.37 53.1558L1025.69 53.9127C1025.94 54.5452 1025.89 54.8113 1025.33 55.5295C1024.43 56.6944 1023.26 57.199 1021.45 57.199C1020.62 57.199 1019.58 57.3662 1019.14 57.5702C1018.7 57.7743 1017.61 58.0097 1016.72 58.0931C1015.82 58.1765 1014.87 58.3252 1014.59 58.4237C1014.17 58.5777 1014.12 58.4508 1014.26 57.5127C1014.47 56.077 1013.44 55.018 1011.83 55.018C1009.74 55.018 1008.78 56.8318 1009.6 59.2244C1009.77 59.7553 1009.93 60.2938 1010.05 60.8381C1010.15 61.2811 1011.09 62.4569 1012.24 63.5764C1013.35 64.6554 1014.4 65.7781 1014.57 66.0713C1014.75 66.3645 1015.31 66.8351 1015.84 67.117L1016.79 67.6296L1016.66 66.6399C1016.53 65.5522 1016.77 65.3817 1017.37 66.1491C1017.58 66.4234 1018.12 66.8669 1018.57 67.1346C1019.27 67.5563 1019.38 67.5647 1019.38 67.1986C1019.38 66.9663 1019.52 66.4308 1019.7 66.0086L1020.02 65.2412L1020.58 66.2854C1020.88 66.8596 1021.87 68.1649 1022.78 69.186C1024.54 71.1671 1025.61 73.381 1025.06 73.8905C1024.83 74.0973 1024.23 74.0813 1022.97 73.8354C1021.99 73.6449 1020.79 73.5442 1020.29 73.6116C1019.27 73.7494 1019.19 73.6213 1019.82 72.8584C1020.48 72.053 1020.37 71.9203 1019.07 71.9203C1017.57 71.9203 1013.83 71.2196 1012.4 70.6683C1011.01 70.1323 1010.69 70.2657 1010.28 71.5506L1009.52 73.879L1009.11 75.1559L1010.62 75.0147C1011.45 74.9371 1012.51 74.7606 1012.99 74.6226C1013.46 74.4845 1013.89 74.4112 1013.95 74.4594C1014 74.5077 1013.79 75.0067 1013.48 75.5683L1012.91 76.5891L1013.85 76.4028C1014.37 76.3003 1015.15 76.0495 1015.58 75.8457C1016.33 75.4909 1016.39 75.5167 1016.99 76.4452C1017.72 77.5874 1018.31 77.5405 1018.44 76.3292C1018.57 75.0772 1019 75.2624 1019.79 76.9216C1020.56 78.5171 1021.36 79.0804 1021.51 78.1347C1021.56 77.8206 1021.97 77.3095 1022.43 76.9988C1023.35 76.3701 1024.04 76.5588 1024.43 77.5456C1024.84 78.5671 1023.93 79.6202 1021.27 81.1894C1015.93 84.3327 1012.83 88.6318 1011.94 94.1114C1011.15 99.0538 1013.64 104.161 1018.64 107.829C1021.04 109.585 1024.84 111.437 1024.6 110.73C1023.57 107.728 1023.61 102 1024.66 101.033C1024.81 100.888 1024.76 101.486 1024.54 102.362C1023.7 105.623 1024.06 108.222 1026.2 114.313C1028.13 119.822 1027.87 122.177 1025.13 123.733C1024.25 124.233 1023.69 124.315 1021.32 124.288C1018.76 124.257 1018.48 124.307 1017.66 124.945C1016.86 125.563 1015.83 127.591 1015.83 128.538C1015.83 129.051 1016.41 128.983 1017.56 128.337L1017.57 128.337ZM1059.17 128.226L1060.25 127.554L1060.98 128.226C1061.93 129.106 1063.05 129.086 1063.97 128.173C1064.37 127.775 1064.73 127.499 1064.77 127.56C1064.9 127.778 1065.04 127.997 1065.17 128.216C1065.39 128.596 1065.86 128.787 1066.7 128.844C1067.72 128.914 1067.99 128.819 1068.4 128.252L1068.88 127.576L1069.94 128.237C1072.83 130.047 1074.38 128.148 1073.08 124.366C1072.42 122.444 1072.79 121.362 1074.91 118.915C1075.8 117.883 1076.54 116.782 1076.54 116.467C1076.54 115.966 1076.37 115.899 1075.18 115.922C1074.04 115.944 1073.71 115.825 1073.11 115.183C1072.13 114.139 1072.19 112.944 1073.28 111.617L1074.15 110.557L1072.61 109.537C1071.76 108.976 1070.22 107.649 1069.2 106.588C1066.9 104.205 1064.64 103.075 1061.66 102.819L1059.66 102.647L1059.66 104.118C1059.67 106.011 1060.58 107.833 1063.07 110.918C1065.91 114.426 1066.11 114.969 1066.22 119.553L1066.32 123.431L1065.5 124.188C1064.76 124.872 1064.42 124.959 1062.03 125.094C1059.75 125.221 1059.27 125.336 1058.6 125.911C1057.72 126.676 1057.45 127.092 1057.18 128.148C1057.02 128.764 1057.08 128.898 1057.54 128.898C1057.84 128.898 1058.58 128.596 1059.17 128.227L1059.17 128.226ZM998.651 117.009C998.651 116.519 998.876 116.388 999.984 116.235L1001.32 116.051L1000.43 115.362C999.372 114.543 999.274 113.904 1000.21 113.902C1001.13 113.902 1002.7 112.966 1002.94 112.273C1003.05 111.952 1002.98 111.521 1002.79 111.3C1002.27 110.724 1001.29 110.811 1001.11 111.45C1000.91 112.137 1000.58 112.139 999.843 111.457C998.728 110.431 998.703 108.307 999.791 107.07C1000.3 106.487 1000.3 106.449 999.646 105.848C998.943 105.2 998.44 103.919 998.771 103.615C998.876 103.518 999.431 103.595 1000.01 103.786C1000.82 104.058 1001.14 104.062 1001.48 103.805C1002.5 103.028 1001.39 102.028 999.762 102.249C999.105 102.337 998.833 102.249 998.739 101.917C998.668 101.666 998.093 101.338 997.446 101.179C996.289 100.895 996.281 100.899 996.281 101.673C996.281 102.522 995.783 102.682 994.835 102.138C994.066 101.695 993.319 102.039 993.319 102.835C993.319 103.578 994.088 103.945 995.466 103.859C996.524 103.792 996.563 104.556 995.559 105.655L994.837 106.445L995.409 107.243C996.256 108.426 996.185 110.391 995.259 111.366L994.534 112.131L994.058 111.518C993.396 110.666 992.492 110.723 992.244 111.633C992.081 112.228 992.216 112.501 992.983 113.132C993.499 113.556 994.252 113.903 994.657 113.903C995.658 113.903 995.619 114.669 994.578 115.442L993.764 116.047L995.022 116.237C995.715 116.342 996.281 116.538 996.281 116.673C996.281 117.193 996.607 118.771 997.434 118.811C998.172 118.846 998.633 117.755 998.65 117.01L998.651 117.009ZM1014.58 111.3C1015.72 110.862 1018.2 108.825 1018.2 108.322C1018.2 108.163 1017.51 107.433 1016.68 106.699C1014.92 105.154 1013.01 102.551 1012.52 101.03C1012.26 100.236 1011.01 98.8784 1007.5 95.5654L1002.82 91.1567L1001.47 91.4886C1000.73 91.6711 999.825 91.825 999.461 91.8303C998.834 91.8396 998.845 91.8745 999.679 92.5023L1000.56 93.1646L1001.79 92.4988C1002.99 91.8534 1003.03 91.8494 1003.18 92.3687C1003.27 92.6728 1003.08 93.1997 1002.75 93.5867C1002.43 93.962 1002.25 94.3874 1002.34 94.5326C1002.44 94.6778 1002.13 94.9808 1001.66 95.2064C1000.78 95.6243 1000.17 97.0006 1000.86 97.0006C1001.49 97.0006 1002.86 95.3518 1002.7 94.794C1002.62 94.5084 1002.66 94.2147 1002.79 94.1414C1003.33 93.8368 1003.29 95.1313 1002.75 95.7679C1002.43 96.1432 1002.25 96.5687 1002.34 96.7138C1002.44 96.859 1002.13 97.162 1001.66 97.3876C1000.79 97.8029 1000.17 99.1818 1000.86 99.1818C1001.53 99.1818 1002.88 97.6064 1002.72 97.0168C1002.63 96.7085 1002.66 96.3959 1002.79 96.3226C1003.15 96.1174 1003.35 97.1393 1003.04 97.6399C1002.88 97.9083 1002.88 98.2744 1003.05 98.5647C1003.35 99.0907 1003.04 100.101 1002.49 100.415C1002.25 100.549 1002.41 100.814 1002.99 101.235C1003.82 101.844 1003.83 101.908 1003.83 104.598C1003.83 106.846 1003.93 107.426 1004.35 107.818C1004.83 108.257 1004.87 108.258 1004.87 107.837C1004.87 107.377 1005.7 106.815 1006.38 106.815C1006.58 106.815 1007.83 107.847 1009.16 109.107C1010.5 110.376 1011.9 111.455 1012.3 111.524L1013.25 111.685C1013.37 111.706 1013.97 111.532 1014.58 111.3L1014.58 111.3ZM1000.28 100.425C1000.28 99.7002 998.742 98.9269 996.903 98.7261C995.418 98.5643 995.393 98.5734 995.393 99.2945C995.393 99.8914 995.627 100.126 996.652 100.56C998.299 101.257 1000.28 101.183 1000.28 100.425H1000.28ZM1001.97 100.358C1002.72 99.6967 1003.07 98.9097 1002.62 98.9097C1002.1 98.9097 1000.72 100.111 1000.72 100.564C1000.72 101.271 1000.98 101.228 1001.97 100.358ZM1000.37 98.2153C1000.43 97.8065 1000.17 97.5335 999.39 97.1911C997.708 96.4526 995.697 96.1105 995.212 96.4806C994.32 97.1622 994.915 98.0774 996.357 98.2419C996.937 98.3082 997.724 98.4803 998.106 98.6243C999.214 99.0427 1000.27 98.8519 1000.37 98.215V98.2153ZM1000.37 96.0256C1000.46 95.4423 1000.07 95.2335 996.941 94.162C994.603 93.362 993.567 93.7392 994.315 95.1193C994.575 95.5999 995.012 95.8195 995.992 95.9622C996.721 96.0683 997.717 96.2757 998.206 96.4233C999.511 96.8172 1000.27 96.6785 1000.37 96.0258V96.0256ZM1001.94 93.9737C1002.41 93.508 1002.8 92.9585 1002.8 92.7524C1002.8 92.0842 1000.93 93.2664 1000.69 94.0853C1000.41 95.0677 1000.87 95.0261 1001.94 93.9737ZM1000.37 93.8359C1000.47 93.1715 999.333 92.5715 997.098 92.1104C995.458 91.7721 994.734 91.9639 994.857 92.7048C994.924 93.1092 995.47 93.4047 997.02 93.8748C999.5 94.6271 1000.25 94.6184 1000.37 93.8361V93.8359ZM1002.55 90.7437C1005.42 89.5044 1005.67 86.3788 1002.96 85.5583C1001.84 85.2175 1001.13 85.4011 1000.7 86.1396C1000.37 86.7049 1000.59 87.7331 1001.04 87.7331C1001.19 87.7331 1001.31 87.9234 1001.31 88.1559C1001.31 89.2412 996.941 89.7329 995.148 88.8492C994.518 88.5389 994.243 87.7331 994.768 87.7331C995.16 87.7331 995.431 86.9121 995.23 86.3312C994.958 85.5401 994.137 85.266 992.947 85.5683C990.262 86.2508 990.338 89.3174 993.071 90.6188C995.313 91.6858 1000.23 91.7507 1002.55 90.7439L1002.55 90.7437ZM1000.77 88.3406C1000.94 88.1879 1000.87 87.9531 1000.59 87.7408C999.978 87.2756 1000.01 86.5835 1000.68 85.7915C1001.18 85.1966 1001.24 84.3065 1001.42 75.3268C1001.71 59.8522 1002.9 48.2127 1004.46 45.4205C1005.08 44.3088 1004.99 44.3044 1003.39 45.3661C1001.32 46.7337 999.744 48.5145 998.349 51.0639C995.715 55.877 994.8 62.3524 994.8 76.1751C994.8 84.0235 994.855 85.0503 995.315 85.7881C995.751 86.4888 995.775 86.7478 995.468 87.4961C995.269 87.9812 995.179 88.4449 995.267 88.5265C995.855 89.0678 1000.14 88.9242 1000.77 88.3419L1000.77 88.3406ZM1024.84 73.5842C1024.93 73.4506 1024.73 72.7759 1024.4 72.0848C1023.88 71.0073 1023.67 70.8283 1022.93 70.8283C1020.62 70.8283 1016.91 69.8249 1013.08 68.166C1010.87 67.2081 1010.11 66.9881 1009.84 67.2322C1009.16 67.8548 1010.29 69.3331 1012.03 70.1101C1013.58 70.7994 1017.89 71.6464 1019.86 71.6464C1021.01 71.6464 1021.03 71.6964 1020.38 72.6101L1019.9 73.2821L1021.2 73.3143C1021.91 73.3321 1022.89 73.4402 1023.38 73.5546C1024.65 73.8519 1024.66 73.8521 1024.84 73.5842H1024.84Z" fill="#FFBE29" stroke="black" stroke-width="5.73113"/>
<path d="M1038.33 80.5578C1038.33 80.1578 1037.13 79.0739 1035.9 78.3754C1034.94 77.827 1034.78 77.8103 1034.78 78.2576C1034.78 78.9367 1034.15 80.6431 1033.91 80.6431C1033.77 80.6431 1033.57 80.3097 1033.46 79.9022C1033.35 79.4947 1032.88 78.6915 1032.42 78.1173L1031.59 77.0734L1030.94 78.0406C1030.33 78.9423 1029.29 79.8253 1028.82 79.8253C1028.71 79.8253 1028.69 79.3504 1028.77 78.77C1028.86 78.1396 1028.79 77.6394 1028.6 77.5271C1028.41 77.424 1028.27 77.46 1028.27 77.6071C1028.27 77.9468 1026.81 79.5525 1026.5 79.5525C1026.37 79.5525 1026.2 79.0923 1026.11 78.5301L1025.77 76.5536C1025.67 76.0288 1025.88 76.3847 1026.23 77.3446L1026.86 79.0897L1027.56 78.0262C1027.95 77.4413 1028.26 76.8022 1028.26 76.6059C1028.26 76.4096 1028.39 76.3227 1028.55 76.4127C1028.71 76.5027 1028.93 77.2059 1029.04 77.975L1029.24 79.3738L1030.01 78.5537C1030.44 78.1026 1030.93 77.4989 1031.12 77.2119C1031.44 76.6997 1031.46 76.7001 1032.11 77.2354C1032.47 77.5353 1033.03 78.2527 1033.35 78.8294C1033.67 79.406 1033.98 79.8355 1034.03 79.7835C1034.08 79.7315 1034.2 79.1368 1034.29 78.4621L1034.47 77.1797C1034.52 77.0125 1036.79 78.4483 1037.63 79.1755C1038.17 79.6428 1038.68 79.9598 1038.77 79.8797C1038.86 79.7997 1038.93 79.1103 1038.93 78.3476C1038.93 77.1656 1038.8 76.8489 1038.05 76.2026C1037.2 75.4597 1037.18 75.4555 1036.86 75.999C1036.45 76.7044 1035.97 76.7146 1035.97 76.0179C1035.97 75.5095 1034.35 73.5548 1033.93 73.5548C1033.82 73.5548 1033.48 73.9841 1033.17 74.5089C1032.87 75.0338 1032.54 75.4626 1032.44 75.4619C1032.02 75.4595 1029.75 72.9906 1029.75 72.5449C1029.75 72.1903 1029.9 72.281 1030.3 72.873C1030.6 73.3229 1031.21 73.9943 1031.65 74.3653C1032.53 75.1165 1032.86 74.9337 1033.2 73.4863C1033.29 73.074 1033.46 72.7365 1033.57 72.7365C1033.95 72.7365 1035.94 74.7839 1036.21 75.4628L1036.49 76.1444L1036.71 75.3946C1036.97 74.4778 1037.25 74.4438 1037.67 75.2803C1037.84 75.6298 1038.69 76.3562 1039.56 76.8949L1041.15 77.8741L1041.47 76.8893C1041.64 76.3476 1041.87 76.0364 1041.98 76.1975C1042.14 76.4381 1041.73 78.07 1041.42 78.421C1041.37 78.4737 1040.86 78.1829 1040.28 77.7752L1039.22 77.0338L1039.22 78.3612C1039.22 79.0912 1039.14 79.9647 1039.04 80.3019C1038.84 80.9615 1038.33 81.1471 1038.33 80.5573V80.5578ZM1030.44 69.9762C1028.56 68.4483 1028.27 68.0988 1028.31 67.3748L1028.36 66.6041L1028.48 67.3486C1028.55 67.7832 1029.05 68.4345 1029.68 68.914L1030.77 69.7352L1031.43 68.9876C1031.8 68.5763 1032.1 68.0866 1032.11 67.8992C1032.12 67.4106 1032.21 67.4515 1033.49 68.5265C1034.62 69.4816 1034.64 69.4862 1034.8 68.8673C1034.9 68.5223 1034.87 67.8728 1034.73 67.4239C1034.36 66.1902 1034.43 66.0041 1034.99 66.7481C1035.27 67.1189 1035.72 67.6429 1035.99 67.9128C1036.46 68.3825 1036.49 68.3767 1036.66 67.7765C1036.77 67.4317 1036.85 66.8006 1036.85 66.374L1036.86 65.5986L1037.88 66.7237C1038.83 67.7745 1038.92 67.8134 1039.21 67.3126C1039.38 67.0178 1039.52 66.3084 1039.53 65.7362C1039.53 64.9971 1039.61 64.8105 1039.8 65.092C1040.12 65.5619 1039.9 66.8415 1039.3 67.9319L1038.88 68.7144L1038.31 67.8639C1037.6 66.7761 1037.36 66.7937 1036.9 67.9675C1036.46 69.0767 1036.18 69.1612 1035.75 68.3082C1035.48 67.7563 1035.42 67.8238 1035.23 68.9834L1035.01 70.2721L1033.71 69.2924L1032.42 68.3127L1031.83 68.9578C1031.51 69.3126 1031.24 69.7563 1031.24 69.9437C1031.23 70.3499 1030.91 70.3625 1030.44 69.9762H1030.44ZM1047.18 64.2852C1046.5 63.6853 1046.03 63.1126 1046.13 63.013C1046.24 62.9134 1046.36 62.8847 1046.41 62.9497C1046.45 63.0146 1047.01 63.587 1047.65 64.2219C1049.13 65.684 1048.83 65.7253 1047.18 64.2852ZM1024.88 62.0444C1024.25 61.2253 1024.3 60.6824 1025.06 59.7945C1025.6 59.153 1025.85 59.0658 1026.81 59.1841C1027.43 59.2599 1028.75 59.7874 1029.75 60.3563C1030.91 61.0132 1032.1 61.4533 1033.03 61.5627C1033.83 61.6574 1034.49 61.6932 1034.49 61.6421C1034.49 61.5909 1034.15 61.0634 1033.75 60.4697C1032.78 59.0596 1032.81 58.9082 1033.9 59.753C1035.02 60.6202 1036.36 60.8738 1039.35 60.7853L1040.82 60.7422L1039.97 59.9272C1038.78 58.7875 1039.15 58.6852 1040.46 59.7903C1041.69 60.8269 1041.61 60.8998 1039.02 61.1508C1037.92 61.2575 1036.74 61.1801 1035.76 60.9374C1034.29 60.5741 1034.23 60.5797 1034.51 61.0585C1034.67 61.3344 1034.93 61.5603 1035.09 61.5603C1035.25 61.5603 1035.37 61.7001 1035.37 61.871C1035.37 62.3966 1032.2 61.9344 1030.68 61.1879C1027.22 59.4826 1026.78 59.335 1025.96 59.5876C1025.5 59.7281 1025.04 60.1395 1024.88 60.5519C1024.35 61.9273 1026.36 62.9966 1027.19 61.7806C1027.43 61.4282 1027.37 61.187 1026.95 60.7582C1026.37 60.1709 1026.43 60.0871 1027.21 60.3625C1027.76 60.5579 1027.83 61.8495 1027.32 62.3234C1026.73 62.8656 1025.39 62.712 1024.88 62.0444ZM1038.53 58.6477C1038.09 58.2489 1038.43 58.151 1040.38 58.1159C1042.78 58.0724 1044.24 57.6831 1045.96 56.6263C1047.34 55.7795 1047.72 55.9463 1046.41 56.8241C1045.21 57.6251 1043.35 58.2406 1041.55 58.4289C1040.68 58.5201 1039.68 58.6463 1039.34 58.7095C1039 58.7726 1038.63 58.7448 1038.53 58.6474V58.6477Z" fill="black" stroke="black" stroke-width="5.73113"/>
<path d="M1017.57 128.337L1018.56 127.778L1018.99 128.338C1019.56 129.085 1021.13 129.077 1022.17 128.321L1022.97 127.743L1023.64 128.321C1024.52 129.081 1026.16 129.082 1027.2 128.324C1027.94 127.793 1028.04 127.782 1028.53 128.186C1028.81 128.427 1029.66 128.701 1030.41 128.795C1031.75 128.965 1031.77 128.956 1032.56 127.808C1033.22 126.847 1033.32 126.457 1033.17 125.525C1033.05 124.792 1032.97 124.054 1032.92 123.314C1032.86 122.232 1032.86 122.225 1034.49 121.676C1035.38 121.373 1036.42 120.966 1036.79 120.772C1037.44 120.434 1039.23 118.394 1039.23 117.992C1039.23 117.885 1038.53 117.722 1037.67 117.629C1034.28 117.259 1033.71 115.488 1035.91 112.2C1039.51 106.836 1041.68 101.612 1041.69 98.2851C1041.7 96.7976 1041.79 96.2984 1041.98 96.6218C1042.79 97.9436 1041.35 103.486 1039.17 107.466L1038.29 109.068L1039.13 108.881C1039.59 108.778 1042.3 107.667 1045.15 106.412C1052.95 102.977 1055.63 102.304 1060.68 102.511C1064.91 102.684 1066.71 103.487 1069.7 106.532C1071.28 108.145 1072.81 109.299 1075.59 110.996C1081.53 114.61 1081.78 114.923 1082.06 119.174C1082.35 123.481 1082.21 123.714 1078.86 124.434C1075.99 125.049 1074.2 126.347 1073.72 128.15C1073.46 129.113 1074 129.141 1075.44 128.238L1076.5 127.577L1076.97 128.238C1077.59 129.108 1078.91 129.111 1080 128.246L1080.82 127.593L1081.67 128.246C1082.98 129.261 1084.72 129.015 1085.21 127.746C1085.31 127.502 1085.56 127.58 1086.07 128.012C1087.03 128.82 1089.48 129.167 1089.74 128.531C1089.85 128.289 1089.65 127.69 1089.32 127.2C1087.89 125.119 1087.44 124.127 1087.43 122.994C1087.4 121.419 1087.88 120.659 1089.73 119.378C1091.97 117.822 1092.66 115.814 1090.95 115.814C1089.9 115.814 1088.84 114.911 1088.17 113.438C1086.79 110.446 1087.06 107.091 1089.12 101.51C1091.22 95.8415 1091.45 94.7963 1091.46 91.0051C1091.47 87.9398 1091.39 87.4096 1090.67 85.729C1090.23 84.7015 1089.34 83.1714 1088.69 82.3291L1087.51 80.7975L1089.03 79.577C1093.65 75.8506 1092.71 69.7517 1087.14 67.4018C1085.43 66.6828 1085.01 66.6195 1082.02 66.6388C1080.23 66.6506 1077.5 66.8798 1075.95 67.1481C1074.37 67.4218 1071.7 67.6416 1069.87 67.649C1066.96 67.6603 1066.46 67.5907 1065.34 67.0103C1064.17 66.4052 1063.97 66.118 1063.74 64.7195C1063.7 64.432 1063.49 64.1453 1063.28 64.0821C1062.89 63.9603 1061.05 65.5098 1060.78 66.1962C1060.64 66.535 1060.54 66.5114 1060.14 66.06C1059.88 65.7601 1059.52 65.0709 1059.33 64.5287C1058.87 63.1649 1059.44 62.1423 1061.09 61.3763L1062.37 60.7818L1061.61 60.3268C1060.06 59.3876 1057.41 60.03 1056.45 61.5795C1056.18 62.0176 1055.88 62.3771 1055.79 62.378C1055.7 62.3789 1055.19 61.9609 1054.65 61.449C1052.64 59.5396 1053.33 56.7146 1056.02 55.8521C1057.45 55.3921 1058.72 55.7429 1058.99 56.6724C1059.39 58.0913 1060.64 56.2262 1060.42 54.5418C1060.27 53.4221 1060.29 53.3832 1061.09 53.3832C1062.2 53.3832 1064.56 54.7975 1065.29 55.8994C1066.13 57.1792 1066.07 59.1946 1065.14 60.6967L1064.41 61.876L1065.37 61.6895C1066.77 61.4161 1068.14 60.568 1068.83 59.5394C1069.56 58.4521 1069.63 56.3347 1068.99 55.1923C1068.36 54.085 1068.43 53.9092 1069.36 54.2833C1070.94 54.9197 1071.78 55.6215 1072.41 56.8244C1072.98 57.9077 1073.01 58.1769 1072.71 59.3044C1072.52 60 1072.09 60.9152 1071.77 61.3383C1071.26 61.9969 1071.24 62.1072 1071.64 62.1072C1072.4 62.1072 1073.98 61.4118 1074.54 60.8319C1074.82 60.5389 1075.24 59.8173 1075.46 59.2284L1075.86 58.1578L1076.32 58.9739C1076.98 60.1278 1078.25 61.1664 1079.8 61.8127C1081.47 62.5076 1082.16 62.5469 1081.29 61.8967C1080.7 61.4583 1079.62 58.367 1079.95 58.0646C1080.14 57.8868 1082.4 59.5805 1084.99 61.8367C1087.44 63.971 1088.97 64.6701 1091.22 64.6701C1094.09 64.6701 1095.76 62.2419 1094.47 59.946C1093.72 58.6073 1092.04 58.4214 1091.06 59.5678C1090.61 60.0949 1090.49 60.5144 1090.62 61.0673C1090.78 61.7446 1090.72 61.8349 1090.08 61.8349C1089.25 61.8349 1087.61 60.7976 1084.69 58.429C1080.23 54.817 1074.82 51.7555 1070.91 50.6373C1068.41 49.9197 1063.05 49.6396 1060.5 50.0929C1057.74 50.5835 1054.48 52.1181 1052.7 53.7607C1049.55 56.6715 1049.5 60.5449 1052.57 64.0721L1053.45 65.0825L1052.85 65.9804C1051.99 67.2866 1052.06 69.0448 1053.04 70.3397C1053.47 70.9101 1053.9 71.3765 1054 71.3761C1054.1 71.3756 1054.21 71.0091 1054.24 70.5613C1054.33 69.4283 1054.83 68.6693 1055.69 68.3688C1056.46 68.098 1056.96 68.2258 1060.5 69.5999C1064.23 71.0451 1070.35 71.1444 1076.87 69.8653C1080.06 69.2382 1083.83 69.2751 1085.49 69.9498C1088.52 71.1865 1089.23 74.4038 1086.99 76.846C1086.03 77.9033 1085.1 78.3339 1081.97 79.1687C1079.59 79.804 1079.02 79.846 1073.61 79.7935C1068.98 79.7486 1067.32 79.8349 1065.44 80.2181C1063.39 80.6341 1062.13 80.6759 1056.11 80.5285L1049.15 80.358L1049.92 80.9791C1050.34 81.3208 1050.94 81.7411 1051.25 81.9132C1051.78 82.206 1051.76 82.2453 1050.98 82.5265C1050.52 82.6917 1049.5 82.8271 1048.72 82.8271H1047.29L1047.1 84.0066C1046.99 84.6553 1047 85.4127 1047.11 85.6897C1047.28 86.0983 1047.22 86.1569 1046.78 86.0004C1046.48 85.8944 1045.64 85.6857 1044.92 85.5367C1044.2 85.3878 1043.23 85.0846 1042.76 84.8627C1041.98 84.4899 1041.89 84.4999 1041.6 84.9961C1041.34 85.4391 1038.92 87.1889 1038.57 87.1889C1038.51 87.1889 1038.44 86.8514 1038.41 86.439C1038.37 86.0267 1038.02 84.9532 1037.63 84.0535C1037.24 83.1539 1036.83 82.1724 1036.72 81.8725C1036.55 81.4201 1036.48 81.397 1036.28 81.7362C1036.15 81.9612 1035.96 82.5745 1035.86 83.0994C1035.75 83.6243 1035.39 84.4768 1035.05 84.9939L1034.42 85.9342L1034.03 85.1301C1033.6 84.2669 1032.89 83.3719 1032.64 83.3719C1032.55 83.3719 1032.4 83.648 1032.31 83.9853C1032.11 84.6898 1030.43 86.6433 1030.02 86.6433C1029.87 86.6433 1029.75 86.0914 1029.75 85.4165C1029.75 84.7415 1029.62 84.1896 1029.45 84.1896C1029.29 84.1896 1029.16 84.3641 1029.16 84.5775C1029.16 85.0963 1027.72 86.6431 1027.24 86.6431C1027.03 86.6431 1026.69 86.8272 1026.49 87.0519C1025.96 87.6384 1025.53 87.5561 1025.75 86.9114C1025.86 86.6091 1025.79 85.9037 1025.6 85.3438L1025.16 84.0195C1025.09 83.8074 1024.57 83.8637 1023.49 84.2027C1021.73 84.7504 1021.14 84.6535 1022.04 83.9653C1022.37 83.7136 1022.88 82.8424 1023.16 82.0288C1023.44 81.2152 1023.86 80.4936 1024.09 80.4249C1024.41 80.3286 1024.39 80.4476 1024.02 80.9422C1023.75 81.2954 1023.53 81.7718 1023.53 82.0008C1023.53 82.2298 1023.32 82.7728 1023.08 83.2074C1022.83 83.642 1022.68 84.0406 1022.73 84.0933C1022.79 84.146 1023.46 83.8988 1024.22 83.5447L1025.6 82.9004L1025.61 83.4767C1025.61 83.7937 1025.78 84.6299 1025.98 85.3349L1026.34 86.6169L1027.28 86.1965C1028.24 85.7668 1029.16 84.2354 1029.16 83.0478C1029.16 82.4607 1029.5 82.551 1029.64 83.1748C1029.68 83.3579 1029.9 84.0451 1030.13 84.7018L1030.53 85.896L1031.18 85.1419C1031.53 84.7273 1031.98 83.9139 1032.16 83.3344C1032.49 82.3285 1033.01 81.8959 1033.01 82.6263C1033.01 83.1528 1034.48 85.0408 1034.77 84.8785C1034.91 84.8 1035.18 84.0915 1035.38 83.3039C1035.79 81.6658 1036.45 80.5518 1036.87 80.7915C1037.03 80.8815 1037.09 81.0564 1037.01 81.18C1036.93 81.3036 1037.27 82.3687 1037.77 83.5467L1038.88 86.1823C1039.06 86.6187 1039.23 86.5553 1040.3 85.637C1040.96 85.0654 1041.57 84.4257 1041.64 84.2154C1041.75 83.8972 1041.9 83.9088 1042.52 84.2845C1043.39 84.8096 1046.32 85.6557 1046.54 85.4476C1046.63 85.3695 1046.72 84.6224 1046.74 83.7872L1046.78 82.2684L1047.62 82.4381C1048.08 82.5314 1049.05 82.5256 1049.78 82.4252L1051.1 82.2427L1049.93 81.4573C1049.28 81.0253 1048.62 80.4665 1048.47 80.2153C1048.31 79.9476 1047.73 79.7204 1047.08 79.6664C1045.31 79.5206 1042.19 77.8159 1042.19 76.9997C1042.19 76.8465 1042.62 77.107 1043.15 77.5785C1044.32 78.6249 1045.95 79.2816 1047.38 79.2816H1048.45L1047.79 78.4288C1047.41 77.9391 1047.07 77.0099 1046.99 76.2454C1046.86 75.0269 1046.73 74.8333 1045.42 73.9488C1044.63 73.4175 1043.66 72.6212 1043.25 72.1793L1042.52 71.3756L1042.15 72.3298C1041.94 72.8546 1041.69 73.2839 1041.59 73.2839C1041.48 73.2839 1041.09 72.9771 1040.71 72.6023C1040.32 72.2275 1039.93 71.9221 1039.84 71.9238C1039.75 71.9256 1039.41 72.4305 1039.09 73.0458L1038.5 74.1646L1038.05 73.5197C1037.81 73.1649 1037.22 72.5374 1036.75 72.125C1036.29 71.7126 1036.04 71.3752 1036.21 71.3752C1036.37 71.3752 1036.95 71.8047 1037.49 72.3298L1038.47 73.2843L1038.86 72.585C1039.1 72.1699 1039.19 71.5324 1039.08 71.0171C1038.93 70.2657 1038.95 70.2221 1039.24 70.6936C1039.43 70.9935 1040.01 71.5684 1040.52 71.9712L1041.45 72.7037L1042.09 71.5624C1042.72 70.4266 1042.73 70.4244 1043.02 71.1027C1043.41 72.0099 1046.22 74.248 1048.61 75.5558C1048.98 75.7574 1048.82 75.0643 1048.14 73.4704C1047.96 73.0482 1047.81 72.2873 1047.81 71.7793C1047.81 71.0257 1047.59 70.6903 1046.6 69.9569C1045.17 68.8981 1044.7 68.1451 1044.43 66.4368C1044.32 65.7447 1044.07 64.9751 1043.88 64.7266C1043.58 64.3576 1043.54 64.5641 1043.61 65.8485C1043.67 66.7142 1043.55 67.7906 1043.36 68.2403L1043 69.0581L1042.73 68.3766C1042.58 68.0018 1041.92 67.3498 1041.25 66.9278C1040.59 66.5059 1040.13 66.09 1040.22 66.0033C1040.32 65.9166 1041 66.3012 1041.74 66.8578C1042.86 67.7057 1043.11 67.7975 1043.26 67.424C1043.45 66.9852 1043.26 65.076 1042.91 63.742C1042.73 63.0758 1042.75 63.0793 1043.59 63.9012C1044.22 64.5072 1044.56 65.2301 1044.83 66.491C1045.17 68.0931 1045.34 68.3599 1046.86 69.6606C1047.78 70.4417 1048.58 71.0368 1048.63 70.9833C1048.69 70.9297 1048.81 68.909 1048.89 66.493C1049.05 61.86 1048.87 60.7576 1047.72 59.3262L1047.13 58.5906L1048.06 57.6185C1049.27 56.3505 1049.82 55.3339 1050.06 53.9472L1050.26 52.819L1049.21 53.7822C1048.36 54.5709 1047.95 54.7455 1046.96 54.7455C1045.97 54.7455 1045.59 54.5854 1044.93 53.8996C1044.13 53.0766 1042.72 52.285 1041.37 51.8995C1040.87 51.7573 1040.7 51.8193 1040.7 52.1481C1040.7 52.389 1040.43 53.0846 1040.09 53.694L1039.48 54.8017L1038.19 53.5659C1037.4 52.8079 1036.47 52.2179 1035.77 52.04C1033.99 51.5852 1033.89 51.6303 1033.89 52.919C1033.89 54.8737 1033.03 55.2378 1031.49 53.9387C1030.31 52.9484 1029.33 52.733 1027.1 52.9715L1025.37 53.1558L1025.69 53.9127C1025.94 54.5452 1025.89 54.8113 1025.33 55.5295C1024.43 56.6944 1023.26 57.199 1021.45 57.199C1020.62 57.199 1019.58 57.3662 1019.14 57.5702C1018.7 57.7743 1017.61 58.0097 1016.72 58.0931C1015.82 58.1765 1014.87 58.3252 1014.59 58.4237C1014.17 58.5777 1014.12 58.4508 1014.26 57.5127C1014.47 56.077 1013.44 55.018 1011.83 55.018C1009.74 55.018 1008.78 56.8318 1009.6 59.2244C1009.77 59.7553 1009.93 60.2938 1010.05 60.8381C1010.15 61.2811 1011.09 62.4569 1012.24 63.5764C1013.35 64.6554 1014.4 65.7781 1014.57 66.0713C1014.75 66.3645 1015.31 66.8351 1015.84 67.117L1016.79 67.6296L1016.66 66.6399C1016.53 65.5522 1016.77 65.3817 1017.37 66.1491C1017.58 66.4234 1018.12 66.8669 1018.57 67.1346C1019.27 67.5563 1019.38 67.5647 1019.38 67.1986C1019.38 66.9663 1019.52 66.4308 1019.7 66.0086L1020.02 65.2412L1020.58 66.2854C1020.88 66.8596 1021.87 68.1649 1022.78 69.186C1024.54 71.1671 1025.61 73.381 1025.06 73.8905C1024.83 74.0973 1024.23 74.0813 1022.97 73.8354C1021.99 73.6449 1020.79 73.5442 1020.29 73.6116C1019.27 73.7494 1019.19 73.6213 1019.82 72.8584C1020.48 72.053 1020.37 71.9203 1019.07 71.9203C1017.57 71.9203 1013.83 71.2196 1012.4 70.6683C1011.01 70.1323 1010.69 70.2657 1010.28 71.5506L1009.52 73.879L1009.11 75.1559L1010.62 75.0147C1011.45 74.9371 1012.51 74.7606 1012.99 74.6226C1013.46 74.4845 1013.89 74.4112 1013.95 74.4594C1014 74.5077 1013.79 75.0067 1013.48 75.5683L1012.91 76.5891L1013.85 76.4028C1014.37 76.3003 1015.15 76.0495 1015.58 75.8457C1016.33 75.4909 1016.39 75.5167 1016.99 76.4452C1017.72 77.5874 1018.31 77.5405 1018.44 76.3292C1018.57 75.0772 1019 75.2624 1019.79 76.9216C1020.56 78.5171 1021.36 79.0804 1021.51 78.1347C1021.56 77.8206 1021.97 77.3095 1022.43 76.9988C1023.35 76.3701 1024.04 76.5588 1024.43 77.5456C1024.84 78.5671 1023.93 79.6202 1021.27 81.1894C1015.93 84.3327 1012.83 88.6318 1011.94 94.1114C1011.15 99.0538 1013.64 104.161 1018.64 107.829C1021.04 109.585 1024.84 111.437 1024.6 110.73C1023.57 107.728 1023.61 102 1024.66 101.033C1024.81 100.888 1024.76 101.486 1024.54 102.362C1023.7 105.623 1024.06 108.222 1026.2 114.313C1028.13 119.822 1027.87 122.177 1025.13 123.733C1024.25 124.233 1023.69 124.315 1021.32 124.288C1018.76 124.257 1018.48 124.307 1017.66 124.945C1016.86 125.563 1015.83 127.591 1015.83 128.538C1015.83 129.051 1016.41 128.983 1017.56 128.337L1017.57 128.337ZM1059.17 128.226L1060.25 127.554L1060.98 128.226C1061.93 129.106 1063.05 129.086 1063.97 128.173C1064.37 127.775 1064.73 127.499 1064.77 127.56C1064.9 127.778 1065.04 127.997 1065.17 128.216C1065.39 128.596 1065.86 128.787 1066.7 128.844C1067.72 128.914 1067.99 128.819 1068.4 128.252L1068.88 127.576L1069.94 128.237C1072.83 130.047 1074.38 128.148 1073.08 124.366C1072.42 122.444 1072.79 121.362 1074.91 118.915C1075.8 117.883 1076.54 116.782 1076.54 116.467C1076.54 115.966 1076.37 115.899 1075.18 115.922C1074.04 115.944 1073.71 115.825 1073.11 115.183C1072.13 114.139 1072.19 112.944 1073.28 111.617L1074.15 110.557L1072.61 109.537C1071.76 108.976 1070.22 107.649 1069.2 106.588C1066.9 104.205 1064.64 103.075 1061.66 102.819L1059.66 102.647L1059.66 104.118C1059.67 106.011 1060.58 107.833 1063.07 110.918C1065.91 114.426 1066.11 114.969 1066.22 119.553L1066.32 123.431L1065.5 124.188C1064.76 124.872 1064.42 124.959 1062.03 125.094C1059.75 125.221 1059.27 125.336 1058.6 125.911C1057.72 126.676 1057.45 127.092 1057.18 128.148C1057.02 128.764 1057.08 128.898 1057.54 128.898C1057.84 128.898 1058.58 128.596 1059.17 128.227L1059.17 128.226ZM998.651 117.009C998.651 116.519 998.876 116.388 999.984 116.235L1001.32 116.051L1000.43 115.362C999.372 114.543 999.274 113.904 1000.21 113.902C1001.13 113.902 1002.7 112.966 1002.94 112.273C1003.05 111.952 1002.98 111.521 1002.79 111.3C1002.27 110.724 1001.29 110.811 1001.11 111.45C1000.91 112.137 1000.58 112.139 999.843 111.457C998.728 110.431 998.703 108.307 999.791 107.07C1000.3 106.487 1000.3 106.449 999.646 105.848C998.943 105.2 998.44 103.919 998.771 103.615C998.876 103.518 999.431 103.595 1000.01 103.786C1000.82 104.058 1001.14 104.062 1001.48 103.805C1002.5 103.028 1001.39 102.028 999.762 102.249C999.105 102.337 998.833 102.249 998.739 101.917C998.668 101.666 998.093 101.338 997.446 101.179C996.289 100.895 996.281 100.899 996.281 101.673C996.281 102.522 995.783 102.682 994.835 102.138C994.066 101.695 993.319 102.039 993.319 102.835C993.319 103.578 994.088 103.945 995.466 103.859C996.524 103.792 996.563 104.556 995.559 105.655L994.837 106.445L995.409 107.243C996.256 108.426 996.185 110.391 995.259 111.366L994.534 112.131L994.058 111.518C993.396 110.666 992.492 110.723 992.244 111.633C992.081 112.228 992.216 112.501 992.983 113.132C993.499 113.556 994.252 113.903 994.657 113.903C995.658 113.903 995.619 114.669 994.578 115.442L993.764 116.047L995.022 116.237C995.715 116.342 996.281 116.538 996.281 116.673C996.281 117.193 996.607 118.771 997.434 118.811C998.172 118.846 998.633 117.755 998.65 117.01L998.651 117.009ZM1014.58 111.3C1015.72 110.862 1018.2 108.825 1018.2 108.322C1018.2 108.163 1017.51 107.433 1016.68 106.699C1014.92 105.154 1013.01 102.551 1012.52 101.03C1012.26 100.236 1011.01 98.8784 1007.5 95.5654L1002.82 91.1567L1001.47 91.4886C1000.73 91.6711 999.825 91.825 999.461 91.8303C998.834 91.8396 998.845 91.8745 999.679 92.5023L1000.56 93.1646L1001.79 92.4988C1002.99 91.8534 1003.03 91.8494 1003.18 92.3687C1003.27 92.6728 1003.08 93.1997 1002.75 93.5867C1002.43 93.962 1002.25 94.3874 1002.34 94.5326C1002.44 94.6778 1002.13 94.9808 1001.66 95.2064C1000.78 95.6243 1000.17 97.0006 1000.86 97.0006C1001.49 97.0006 1002.86 95.3518 1002.7 94.794C1002.62 94.5084 1002.66 94.2147 1002.79 94.1414C1003.33 93.8368 1003.29 95.1313 1002.75 95.7679C1002.43 96.1432 1002.25 96.5687 1002.34 96.7138C1002.44 96.859 1002.13 97.162 1001.66 97.3876C1000.79 97.8029 1000.17 99.1818 1000.86 99.1818C1001.53 99.1818 1002.88 97.6064 1002.72 97.0168C1002.63 96.7085 1002.66 96.3959 1002.79 96.3226C1003.15 96.1174 1003.35 97.1393 1003.04 97.6399C1002.88 97.9083 1002.88 98.2744 1003.05 98.5647C1003.35 99.0907 1003.04 100.101 1002.49 100.415C1002.25 100.549 1002.41 100.814 1002.99 101.235C1003.82 101.844 1003.83 101.908 1003.83 104.598C1003.83 106.846 1003.93 107.426 1004.35 107.818C1004.83 108.257 1004.87 108.258 1004.87 107.837C1004.87 107.377 1005.7 106.815 1006.38 106.815C1006.58 106.815 1007.83 107.847 1009.16 109.107C1010.5 110.376 1011.9 111.455 1012.3 111.524L1013.25 111.685C1013.37 111.706 1013.97 111.532 1014.58 111.3L1014.58 111.3ZM1000.28 100.425C1000.28 99.7002 998.742 98.9269 996.903 98.7261C995.418 98.5643 995.393 98.5734 995.393 99.2945C995.393 99.8914 995.627 100.126 996.652 100.56C998.299 101.257 1000.28 101.183 1000.28 100.425H1000.28ZM1001.97 100.358C1002.72 99.6967 1003.07 98.9097 1002.62 98.9097C1002.1 98.9097 1000.72 100.111 1000.72 100.564C1000.72 101.271 1000.98 101.228 1001.97 100.358ZM1000.37 98.2153C1000.43 97.8065 1000.17 97.5335 999.39 97.1911C997.708 96.4526 995.697 96.1105 995.212 96.4806C994.32 97.1622 994.915 98.0774 996.357 98.2419C996.937 98.3082 997.724 98.4803 998.106 98.6243C999.214 99.0427 1000.27 98.8519 1000.37 98.215V98.2153ZM1000.37 96.0256C1000.46 95.4423 1000.07 95.2335 996.941 94.162C994.603 93.362 993.567 93.7392 994.315 95.1193C994.575 95.5999 995.012 95.8195 995.992 95.9622C996.721 96.0683 997.717 96.2757 998.206 96.4233C999.511 96.8172 1000.27 96.6785 1000.37 96.0258V96.0256ZM1001.94 93.9737C1002.41 93.508 1002.8 92.9585 1002.8 92.7524C1002.8 92.0842 1000.93 93.2664 1000.69 94.0853C1000.41 95.0677 1000.87 95.0261 1001.94 93.9737ZM1000.37 93.8359C1000.47 93.1715 999.333 92.5715 997.098 92.1104C995.458 91.7721 994.734 91.9639 994.857 92.7048C994.924 93.1092 995.47 93.4047 997.02 93.8748C999.5 94.6271 1000.25 94.6184 1000.37 93.8361V93.8359ZM1002.55 90.7437C1005.42 89.5044 1005.67 86.3788 1002.96 85.5583C1001.84 85.2175 1001.13 85.4011 1000.7 86.1396C1000.37 86.7049 1000.59 87.7331 1001.04 87.7331C1001.19 87.7331 1001.31 87.9234 1001.31 88.1559C1001.31 89.2412 996.941 89.7329 995.148 88.8492C994.518 88.5389 994.243 87.7331 994.768 87.7331C995.16 87.7331 995.431 86.9121 995.23 86.3312C994.958 85.5401 994.137 85.266 992.947 85.5683C990.262 86.2508 990.338 89.3174 993.071 90.6188C995.313 91.6858 1000.23 91.7507 1002.55 90.7439L1002.55 90.7437ZM1000.77 88.3406C1000.94 88.1879 1000.87 87.9531 1000.59 87.7408C999.978 87.2756 1000.01 86.5835 1000.68 85.7915C1001.18 85.1966 1001.24 84.3065 1001.42 75.3268C1001.71 59.8522 1002.9 48.2127 1004.46 45.4205C1005.08 44.3088 1004.99 44.3044 1003.39 45.3661C1001.32 46.7337 999.744 48.5145 998.349 51.0639C995.715 55.877 994.8 62.3524 994.8 76.1751C994.8 84.0235 994.855 85.0503 995.315 85.7881C995.751 86.4888 995.775 86.7478 995.468 87.4961C995.269 87.9812 995.179 88.4449 995.267 88.5265C995.855 89.0678 1000.14 88.9242 1000.77 88.3419L1000.77 88.3406ZM1024.84 73.5842C1024.93 73.4506 1024.73 72.7759 1024.4 72.0848C1023.88 71.0073 1023.67 70.8283 1022.93 70.8283C1020.62 70.8283 1016.91 69.8249 1013.08 68.166C1010.87 67.2081 1010.11 66.9881 1009.84 67.2322C1009.16 67.8548 1010.29 69.3331 1012.03 70.1101C1013.58 70.7994 1017.89 71.6464 1019.86 71.6464C1021.01 71.6464 1021.03 71.6964 1020.38 72.6101L1019.9 73.2821L1021.2 73.3143C1021.91 73.3321 1022.89 73.4402 1023.38 73.5546C1024.65 73.8519 1024.66 73.8521 1024.84 73.5842H1024.84Z" fill="#FFBE29"/>
<path d="M1038.33 80.5578C1038.33 80.1578 1037.13 79.0739 1035.9 78.3754C1034.94 77.827 1034.78 77.8103 1034.78 78.2576C1034.78 78.9367 1034.15 80.6431 1033.91 80.6431C1033.77 80.6431 1033.57 80.3097 1033.46 79.9022C1033.35 79.4947 1032.88 78.6915 1032.42 78.1173L1031.59 77.0734L1030.94 78.0406C1030.33 78.9423 1029.29 79.8253 1028.82 79.8253C1028.71 79.8253 1028.69 79.3504 1028.77 78.77C1028.86 78.1396 1028.79 77.6394 1028.6 77.5271C1028.41 77.424 1028.27 77.46 1028.27 77.6071C1028.27 77.9468 1026.81 79.5525 1026.5 79.5525C1026.37 79.5525 1026.2 79.0923 1026.11 78.5301L1025.77 76.5536C1025.67 76.0288 1025.88 76.3847 1026.23 77.3446L1026.86 79.0897L1027.56 78.0262C1027.95 77.4413 1028.26 76.8022 1028.26 76.6059C1028.26 76.4096 1028.39 76.3227 1028.55 76.4127C1028.71 76.5027 1028.93 77.2059 1029.04 77.975L1029.24 79.3738L1030.01 78.5537C1030.44 78.1026 1030.93 77.4989 1031.12 77.2119C1031.44 76.6997 1031.46 76.7001 1032.11 77.2354C1032.47 77.5353 1033.03 78.2527 1033.35 78.8294C1033.67 79.406 1033.98 79.8355 1034.03 79.7835C1034.08 79.7315 1034.2 79.1368 1034.29 78.4621L1034.47 77.1797C1034.52 77.0125 1036.79 78.4483 1037.63 79.1755C1038.17 79.6428 1038.68 79.9598 1038.77 79.8797C1038.86 79.7997 1038.93 79.1103 1038.93 78.3476C1038.93 77.1656 1038.8 76.8489 1038.05 76.2026C1037.2 75.4597 1037.18 75.4555 1036.86 75.999C1036.45 76.7044 1035.97 76.7146 1035.97 76.0179C1035.97 75.5095 1034.35 73.5548 1033.93 73.5548C1033.82 73.5548 1033.48 73.9841 1033.17 74.5089C1032.87 75.0338 1032.54 75.4626 1032.44 75.4619C1032.02 75.4595 1029.75 72.9906 1029.75 72.5449C1029.75 72.1903 1029.9 72.281 1030.3 72.873C1030.6 73.3229 1031.21 73.9943 1031.65 74.3653C1032.53 75.1165 1032.86 74.9337 1033.2 73.4863C1033.29 73.074 1033.46 72.7365 1033.57 72.7365C1033.95 72.7365 1035.94 74.7839 1036.21 75.4628L1036.49 76.1444L1036.71 75.3946C1036.97 74.4778 1037.25 74.4438 1037.67 75.2803C1037.84 75.6298 1038.69 76.3562 1039.56 76.8949L1041.15 77.8741L1041.47 76.8893C1041.64 76.3476 1041.87 76.0364 1041.98 76.1975C1042.14 76.4381 1041.73 78.07 1041.42 78.421C1041.37 78.4737 1040.86 78.1829 1040.28 77.7752L1039.22 77.0338L1039.22 78.3612C1039.22 79.0912 1039.14 79.9647 1039.04 80.3019C1038.84 80.9615 1038.33 81.1471 1038.33 80.5573V80.5578ZM1030.44 69.9762C1028.56 68.4483 1028.27 68.0988 1028.31 67.3748L1028.36 66.6041L1028.48 67.3486C1028.55 67.7832 1029.05 68.4345 1029.68 68.914L1030.77 69.7352L1031.43 68.9876C1031.8 68.5763 1032.1 68.0866 1032.11 67.8992C1032.12 67.4106 1032.21 67.4515 1033.49 68.5265C1034.62 69.4816 1034.64 69.4862 1034.8 68.8673C1034.9 68.5223 1034.87 67.8728 1034.73 67.4239C1034.36 66.1902 1034.43 66.0041 1034.99 66.7481C1035.27 67.1189 1035.72 67.6429 1035.99 67.9128C1036.46 68.3825 1036.49 68.3767 1036.66 67.7765C1036.77 67.4317 1036.85 66.8006 1036.85 66.374L1036.86 65.5986L1037.88 66.7237C1038.83 67.7745 1038.92 67.8134 1039.21 67.3126C1039.38 67.0178 1039.52 66.3084 1039.53 65.7362C1039.53 64.9971 1039.61 64.8105 1039.8 65.092C1040.12 65.5619 1039.9 66.8415 1039.3 67.9319L1038.88 68.7144L1038.31 67.8639C1037.6 66.7761 1037.36 66.7937 1036.9 67.9675C1036.46 69.0767 1036.18 69.1612 1035.75 68.3082C1035.48 67.7563 1035.42 67.8238 1035.23 68.9834L1035.01 70.2721L1033.71 69.2924L1032.42 68.3127L1031.83 68.9578C1031.51 69.3126 1031.24 69.7563 1031.24 69.9437C1031.23 70.3499 1030.91 70.3625 1030.44 69.9762H1030.44ZM1047.18 64.2852C1046.5 63.6853 1046.03 63.1126 1046.13 63.013C1046.24 62.9134 1046.36 62.8847 1046.41 62.9497C1046.45 63.0146 1047.01 63.587 1047.65 64.2219C1049.13 65.684 1048.83 65.7253 1047.18 64.2852ZM1024.88 62.0444C1024.25 61.2253 1024.3 60.6824 1025.06 59.7945C1025.6 59.153 1025.85 59.0658 1026.81 59.1841C1027.43 59.2599 1028.75 59.7874 1029.75 60.3563C1030.91 61.0132 1032.1 61.4533 1033.03 61.5627C1033.83 61.6574 1034.49 61.6932 1034.49 61.6421C1034.49 61.5909 1034.15 61.0634 1033.75 60.4697C1032.78 59.0596 1032.81 58.9082 1033.9 59.753C1035.02 60.6202 1036.36 60.8738 1039.35 60.7853L1040.82 60.7422L1039.97 59.9272C1038.78 58.7875 1039.15 58.6852 1040.46 59.7903C1041.69 60.8269 1041.61 60.8998 1039.02 61.1508C1037.92 61.2575 1036.74 61.1801 1035.76 60.9374C1034.29 60.5741 1034.23 60.5797 1034.51 61.0585C1034.67 61.3344 1034.93 61.5603 1035.09 61.5603C1035.25 61.5603 1035.37 61.7001 1035.37 61.871C1035.37 62.3966 1032.2 61.9344 1030.68 61.1879C1027.22 59.4826 1026.78 59.335 1025.96 59.5876C1025.5 59.7281 1025.04 60.1395 1024.88 60.5519C1024.35 61.9273 1026.36 62.9966 1027.19 61.7806C1027.43 61.4282 1027.37 61.187 1026.95 60.7582C1026.37 60.1709 1026.43 60.0871 1027.21 60.3625C1027.76 60.5579 1027.83 61.8495 1027.32 62.3234C1026.73 62.8656 1025.39 62.712 1024.88 62.0444ZM1038.53 58.6477C1038.09 58.2489 1038.43 58.151 1040.38 58.1159C1042.78 58.0724 1044.24 57.6831 1045.96 56.6263C1047.34 55.7795 1047.72 55.9463 1046.41 56.8241C1045.21 57.6251 1043.35 58.2406 1041.55 58.4289C1040.68 58.5201 1039.68 58.6463 1039.34 58.7095C1039 58.7726 1038.63 58.7448 1038.53 58.6474V58.6477Z" fill="black"/>
<path d="M1104.08 55.9185C1104.08 55.9185 1105.53 52.9022 1107.13 51.6734C1109.51 49.8525 1114.38 49.9842 1116.44 47.8598C1118.92 45.3548 1116.25 42.0453 1116.27 41.758L1116.41 40.0103C1116.41 40.0103 1114.74 39.9897 1114.04 39.8777C1112.98 39.7094 1112.57 38.831 1110.6 38.9614C1105.65 39.2893 1105.85 43.842 1105.57 47.7327C1105.32 49.2141 1104.75 51.1457 1104.42 52.6266C1104.14 53.8967 1104.08 55.9182 1104.08 55.9182L1104.08 55.9185ZM980.579 55.9211C980.579 55.9211 979.128 52.9044 977.525 51.6754C975.15 49.8543 970.281 49.9859 968.214 47.8613C965.737 45.3559 968.406 42.046 968.384 41.7587L968.248 40.0105C968.248 40.0105 969.918 39.9899 970.621 39.8779C971.678 39.7096 972.091 38.831 974.059 38.9616C979.008 39.2898 978.809 43.8431 979.088 47.7342C979.337 49.2158 979.912 51.1479 980.239 52.629C980.519 53.8993 980.579 55.9213 980.579 55.9213V55.9211Z" fill="#FFBE29" stroke="black" stroke-width="2.096"/>
</g>
</g>
<path d="M932.815 226.168C931.647 226.168 930.591 225.968 929.647 225.568C928.719 225.168 927.983 224.592 927.439 223.84C926.895 223.088 926.615 222.2 926.599 221.176H930.199C930.247 221.864 930.487 222.408 930.919 222.808C931.367 223.208 931.975 223.408 932.743 223.408C933.527 223.408 934.143 223.224 934.591 222.856C935.039 222.472 935.263 221.976 935.263 221.368C935.263 220.872 935.111 220.464 934.807 220.144C934.503 219.824 934.119 219.576 933.655 219.4C933.207 219.208 932.583 219 931.783 218.776C930.695 218.456 929.807 218.144 929.119 217.84C928.447 217.52 927.863 217.048 927.367 216.424C926.887 215.784 926.647 214.936 926.647 213.88C926.647 212.888 926.895 212.024 927.391 211.288C927.887 210.552 928.583 209.992 929.479 209.608C930.375 209.208 931.399 209.008 932.551 209.008C934.279 209.008 935.679 209.432 936.751 210.28C937.839 211.112 938.439 212.28 938.551 213.784H934.855C934.823 213.208 934.575 212.736 934.111 212.368C933.663 211.984 933.063 211.792 932.311 211.792C931.655 211.792 931.127 211.96 930.727 212.296C930.343 212.632 930.151 213.12 930.151 213.76C930.151 214.208 930.295 214.584 930.583 214.888C930.887 215.176 931.255 215.416 931.687 215.608C932.135 215.784 932.759 215.992 933.559 216.232C934.647 216.552 935.535 216.872 936.223 217.192C936.911 217.512 937.503 217.992 937.999 218.632C938.495 219.272 938.743 220.112 938.743 221.152C938.743 222.048 938.511 222.88 938.047 223.648C937.583 224.416 936.903 225.032 936.007 225.496C935.111 225.944 934.047 226.168 932.815 226.168ZM943.36 211.12C942.768 211.12 942.272 210.936 941.872 210.568C941.488 210.184 941.296 209.712 941.296 209.152C941.296 208.592 941.488 208.128 941.872 207.76C942.272 207.376 942.768 207.184 943.36 207.184C943.952 207.184 944.44 207.376 944.824 207.76C945.224 208.128 945.424 208.592 945.424 209.152C945.424 209.712 945.224 210.184 944.824 210.568C944.44 210.936 943.952 211.12 943.36 211.12ZM945.016 212.704V226H941.656V212.704H945.016ZM955.704 212.512C957.288 212.512 958.568 213.016 959.544 214.024C960.52 215.016 961.008 216.408 961.008 218.2V226H957.648V218.656C957.648 217.6 957.384 216.792 956.856 216.232C956.328 215.656 955.608 215.368 954.696 215.368C953.768 215.368 953.032 215.656 952.488 216.232C951.96 216.792 951.696 217.6 951.696 218.656V226H948.336V212.704H951.696V214.36C952.144 213.784 952.712 213.336 953.4 213.016C954.104 212.68 954.872 212.512 955.704 212.512ZM971.691 212.512C972.699 212.512 973.595 212.736 974.379 213.184C975.163 213.616 975.771 214.264 976.203 215.128C976.651 215.976 976.875 217 976.875 218.2V226H973.515V218.656C973.515 217.6 973.251 216.792 972.723 216.232C972.195 215.656 971.475 215.368 970.563 215.368C969.635 215.368 968.899 215.656 968.355 216.232C967.827 216.792 967.563 217.6 967.563 218.656V226H964.203V208.24H967.563V214.36C967.995 213.784 968.571 213.336 969.291 213.016C970.011 212.68 970.811 212.512 971.691 212.512ZM979.206 219.304C979.206 217.96 979.47 216.768 979.998 215.728C980.542 214.688 981.27 213.888 982.182 213.328C983.11 212.768 984.142 212.488 985.278 212.488C986.27 212.488 987.134 212.688 987.87 213.088C988.622 213.488 989.222 213.992 989.67 214.6V212.704H993.054V226H989.67V224.056C989.238 224.68 988.638 225.2 987.87 225.616C987.118 226.016 986.246 226.216 985.254 226.216C984.134 226.216 983.11 225.928 982.182 225.352C981.27 224.776 980.542 223.968 979.998 222.928C979.47 221.872 979.206 220.664 979.206 219.304ZM989.67 219.352C989.67 218.536 989.51 217.84 989.19 217.264C988.87 216.672 988.438 216.224 987.894 215.92C987.35 215.6 986.766 215.44 986.142 215.44C985.518 215.44 984.942 215.592 984.414 215.896C983.886 216.2 983.454 216.648 983.118 217.24C982.798 217.816 982.638 218.504 982.638 219.304C982.638 220.104 982.798 220.808 983.118 221.416C983.454 222.008 983.886 222.464 984.414 222.784C984.958 223.104 985.534 223.264 986.142 223.264C986.766 223.264 987.35 223.112 987.894 222.808C988.438 222.488 988.87 222.04 989.19 221.464C989.51 220.872 989.67 220.168 989.67 219.352ZM999.696 208.24V226H996.336V208.24H999.696ZM1002.15 219.304C1002.15 217.96 1002.42 216.768 1002.94 215.728C1003.49 214.688 1004.22 213.888 1005.13 213.328C1006.06 212.768 1007.09 212.488 1008.22 212.488C1009.22 212.488 1010.08 212.688 1010.82 213.088C1011.57 213.488 1012.17 213.992 1012.62 214.6V212.704H1016V226H1012.62V224.056C1012.18 224.68 1011.58 225.2 1010.82 225.616C1010.06 226.016 1009.19 226.216 1008.2 226.216C1007.08 226.216 1006.06 225.928 1005.13 225.352C1004.22 224.776 1003.49 223.968 1002.94 222.928C1002.42 221.872 1002.15 220.664 1002.15 219.304ZM1012.62 219.352C1012.62 218.536 1012.46 217.84 1012.14 217.264C1011.82 216.672 1011.38 216.224 1010.84 215.92C1010.3 215.6 1009.71 215.44 1009.09 215.44C1008.46 215.44 1007.89 215.592 1007.36 215.896C1006.83 216.2 1006.4 216.648 1006.06 217.24C1005.74 217.816 1005.58 218.504 1005.58 219.304C1005.58 220.104 1005.74 220.808 1006.06 221.416C1006.4 222.008 1006.83 222.464 1007.36 222.784C1007.9 223.104 1008.48 223.264 1009.09 223.264C1009.71 223.264 1010.3 223.112 1010.84 222.808C1011.38 222.488 1011.82 222.04 1012.14 221.464C1012.46 220.872 1012.62 220.168 1012.62 219.352Z" fill="black"/>
<defs>
<clipPath id="clip0_307_733">
<rect x="53.5" y="11" width="150" height="150" rx="75" fill="white"/>
</clipPath>
<clipPath id="clip1_307_733">
<rect width="225" height="150" fill="white" transform="translate(16.5 11)"/>
</clipPath>
<clipPath id="clip2_307_733">
<rect x="334.5" y="11" width="150" height="150" rx="75" fill="white"/>
</clipPath>
<clipPath id="clip3_307_733">
<rect width="225" height="150" fill="white" transform="translate(296.5 11)"/>
</clipPath>
<clipPath id="clip4_307_733">
<rect x="615.5" y="11" width="150" height="150" rx="75" fill="white"/>
</clipPath>
<clipPath id="clip5_307_733">
<rect width="234" height="156" fill="white" transform="translate(580.5 10)"/>
</clipPath>
<clipPath id="clip6_307_733">
<rect x="896.5" y="11" width="150" height="150" rx="75" fill="white"/>
</clipPath>
<clipPath id="clip7_307_733">
<rect width="263" height="131" fill="white" transform="translate(870.5 23)"/>
</clipPath>
</defs>
</svg>
