<svg width="1100" height="240" viewBox="0 0 1100 240" fill="none" xmlns="http://www.w3.org/2000/svg">
<g clip-path="url(#clip0_307_562)">
<circle cx="128.5" cy="86" r="75" fill="#D9D9D9"/>
<g clip-path="url(#clip1_307_562)">
<path d="M291.5 11H-8.5V161H291.5V11Z" fill="#002395"/>
<path d="M71 11H221V161L71 11Z" fill="#FECB00"/>
<path d="M35.6258 20.841L44.0018 -4.9375L52.3777 20.841L30.4492 4.90901H57.5543L35.6258 20.841Z" fill="white"/>
<path d="M54.3758 39.591L62.7518 13.8125L71.1277 39.591L49.1992 23.659H76.3043L54.3758 39.591Z" fill="white"/>
<path d="M73.1258 58.341L81.5018 32.5625L89.8777 58.341L67.9492 42.409H95.0543L73.1258 58.341Z" fill="white"/>
<path d="M91.8758 77.091L100.252 51.3125L108.628 77.091L86.6992 61.159H113.804L91.8758 77.091Z" fill="white"/>
<path d="M110.626 95.841L119.002 70.0625L127.378 95.841L105.449 79.909H132.554L110.626 95.841Z" fill="white"/>
<path d="M129.376 114.591L137.752 88.8125L146.128 114.591L124.199 98.659H151.304L129.376 114.591Z" fill="white"/>
<path d="M148.126 133.341L156.502 107.562L164.878 133.341L142.949 117.409H170.054L148.126 133.341Z" fill="white"/>
<path d="M166.876 152.091L175.252 126.312L183.628 152.091L161.699 136.159H188.804L166.876 152.091Z" fill="white"/>
<path d="M185.626 170.841L194.002 145.062L202.378 170.841L180.449 154.909H207.554L185.626 170.841Z" fill="white"/>
</g>
</g>
<path d="M98.3514 217.408C99.2954 217.584 100.071 218.056 100.679 218.824C101.287 219.592 101.591 220.472 101.591 221.464C101.591 222.36 101.367 223.152 100.919 223.84C100.487 224.512 99.8554 225.04 99.0234 225.424C98.1914 225.808 97.2074 226 96.0714 226H88.8474V209.248H95.7594C96.8954 209.248 97.8714 209.432 98.6874 209.8C99.5194 210.168 100.143 210.68 100.559 211.336C100.991 211.992 101.207 212.736 101.207 213.568C101.207 214.544 100.943 215.36 100.415 216.016C99.9034 216.672 99.2154 217.136 98.3514 217.408ZM92.2074 216.16H95.2794C96.0794 216.16 96.6954 215.984 97.1274 215.632C97.5594 215.264 97.7754 214.744 97.7754 214.072C97.7754 213.4 97.5594 212.88 97.1274 212.512C96.6954 212.144 96.0794 211.96 95.2794 211.96H92.2074V216.16ZM95.5914 223.264C96.4074 223.264 97.0394 223.072 97.4874 222.688C97.9514 222.304 98.1834 221.76 98.1834 221.056C98.1834 220.336 97.9434 219.776 97.4634 219.376C96.9834 218.96 96.3354 218.752 95.5194 218.752H92.2074V223.264H95.5914ZM110.173 226.216C108.893 226.216 107.741 225.936 106.717 225.376C105.693 224.8 104.885 223.992 104.293 222.952C103.717 221.912 103.429 220.712 103.429 219.352C103.429 217.992 103.725 216.792 104.317 215.752C104.925 214.712 105.749 213.912 106.789 213.352C107.829 212.776 108.989 212.488 110.269 212.488C111.549 212.488 112.709 212.776 113.749 213.352C114.789 213.912 115.605 214.712 116.197 215.752C116.805 216.792 117.109 217.992 117.109 219.352C117.109 220.712 116.797 221.912 116.173 222.952C115.565 223.992 114.733 224.8 113.677 225.376C112.637 225.936 111.469 226.216 110.173 226.216ZM110.173 223.288C110.781 223.288 111.349 223.144 111.877 222.856C112.421 222.552 112.853 222.104 113.173 221.512C113.493 220.92 113.653 220.2 113.653 219.352C113.653 218.088 113.317 217.12 112.645 216.448C111.989 215.76 111.181 215.416 110.221 215.416C109.261 215.416 108.453 215.76 107.797 216.448C107.157 217.12 106.837 218.088 106.837 219.352C106.837 220.616 107.149 221.592 107.773 222.28C108.413 222.952 109.213 223.288 110.173 223.288ZM124.662 226.216C123.574 226.216 122.598 226.024 121.734 225.64C120.87 225.24 120.182 224.704 119.67 224.032C119.174 223.36 118.902 222.616 118.854 221.8H122.238C122.302 222.312 122.55 222.736 122.982 223.072C123.43 223.408 123.982 223.576 124.638 223.576C125.278 223.576 125.774 223.448 126.126 223.192C126.494 222.936 126.678 222.608 126.678 222.208C126.678 221.776 126.454 221.456 126.006 221.248C125.574 221.024 124.878 220.784 123.918 220.528C122.926 220.288 122.11 220.04 121.47 219.784C120.846 219.528 120.302 219.136 119.838 218.608C119.39 218.08 119.166 217.368 119.166 216.472C119.166 215.736 119.374 215.064 119.79 214.456C120.222 213.848 120.83 213.368 121.614 213.016C122.414 212.664 123.35 212.488 124.422 212.488C126.006 212.488 127.27 212.888 128.214 213.688C129.158 214.472 129.678 215.536 129.774 216.88H126.558C126.51 216.352 126.286 215.936 125.886 215.632C125.502 215.312 124.982 215.152 124.326 215.152C123.718 215.152 123.246 215.264 122.91 215.488C122.59 215.712 122.43 216.024 122.43 216.424C122.43 216.872 122.654 217.216 123.102 217.456C123.55 217.68 124.246 217.912 125.19 218.152C126.15 218.392 126.942 218.64 127.566 218.896C128.19 219.152 128.726 219.552 129.174 220.096C129.638 220.624 129.878 221.328 129.894 222.208C129.894 222.976 129.678 223.664 129.246 224.272C128.83 224.88 128.222 225.36 127.422 225.712C126.638 226.048 125.718 226.216 124.662 226.216ZM140.02 212.512C141.604 212.512 142.884 213.016 143.86 214.024C144.836 215.016 145.324 216.408 145.324 218.2V226H141.964V218.656C141.964 217.6 141.7 216.792 141.172 216.232C140.644 215.656 139.924 215.368 139.012 215.368C138.084 215.368 137.348 215.656 136.804 216.232C136.276 216.792 136.012 217.6 136.012 218.656V226H132.652V212.704H136.012V214.36C136.46 213.784 137.028 213.336 137.716 213.016C138.42 212.68 139.188 212.512 140.02 212.512ZM150.223 211.12C149.631 211.12 149.135 210.936 148.735 210.568C148.351 210.184 148.159 209.712 148.159 209.152C148.159 208.592 148.351 208.128 148.735 207.76C149.135 207.376 149.631 207.184 150.223 207.184C150.815 207.184 151.303 207.376 151.687 207.76C152.087 208.128 152.287 208.592 152.287 209.152C152.287 209.712 152.087 210.184 151.687 210.568C151.303 210.936 150.815 211.12 150.223 211.12ZM151.879 212.704V226H148.519V212.704H151.879ZM154.335 219.304C154.335 217.96 154.599 216.768 155.127 215.728C155.671 214.688 156.399 213.888 157.311 213.328C158.239 212.768 159.271 212.488 160.407 212.488C161.399 212.488 162.263 212.688 162.999 213.088C163.751 213.488 164.351 213.992 164.799 214.6V212.704H168.183V226H164.799V224.056C164.367 224.68 163.767 225.2 162.999 225.616C162.247 226.016 161.375 226.216 160.383 226.216C159.263 226.216 158.239 225.928 157.311 225.352C156.399 224.776 155.671 223.968 155.127 222.928C154.599 221.872 154.335 220.664 154.335 219.304ZM164.799 219.352C164.799 218.536 164.639 217.84 164.319 217.264C163.999 216.672 163.567 216.224 163.023 215.92C162.479 215.6 161.895 215.44 161.271 215.44C160.647 215.44 160.071 215.592 159.543 215.896C159.015 216.2 158.583 216.648 158.247 217.24C157.927 217.816 157.767 218.504 157.767 219.304C157.767 220.104 157.927 220.808 158.247 221.416C158.583 222.008 159.015 222.464 159.543 222.784C160.087 223.104 160.663 223.264 161.271 223.264C161.895 223.264 162.479 223.112 163.023 222.808C163.567 222.488 163.999 222.04 164.319 221.464C164.639 220.872 164.799 220.168 164.799 219.352Z" fill="black"/>
<g clip-path="url(#clip2_307_562)">
<circle cx="409.5" cy="86" r="75" fill="#D9D9D9"/>
<g clip-path="url(#clip3_307_562)">
<path d="M534.5 11H284.5V161H534.5V11Z" fill="white"/>
<path d="M534.5 61H284.5V161H534.5V61Z" fill="#00966E"/>
<path d="M534.5 111H284.5V161H534.5V111Z" fill="#D62612"/>
</g>
</g>
<path d="M369.086 217.408C370.03 217.584 370.806 218.056 371.414 218.824C372.022 219.592 372.326 220.472 372.326 221.464C372.326 222.36 372.102 223.152 371.654 223.84C371.222 224.512 370.59 225.04 369.758 225.424C368.926 225.808 367.942 226 366.806 226H359.582V209.248H366.494C367.63 209.248 368.606 209.432 369.422 209.8C370.254 210.168 370.878 210.68 371.294 211.336C371.726 211.992 371.942 212.736 371.942 213.568C371.942 214.544 371.678 215.36 371.15 216.016C370.638 216.672 369.95 217.136 369.086 217.408ZM362.942 216.16H366.014C366.814 216.16 367.43 215.984 367.862 215.632C368.294 215.264 368.51 214.744 368.51 214.072C368.51 213.4 368.294 212.88 367.862 212.512C367.43 212.144 366.814 211.96 366.014 211.96H362.942V216.16ZM366.326 223.264C367.142 223.264 367.774 223.072 368.222 222.688C368.686 222.304 368.918 221.76 368.918 221.056C368.918 220.336 368.678 219.776 368.198 219.376C367.718 218.96 367.07 218.752 366.254 218.752H362.942V223.264H366.326ZM387.556 212.704V226H384.172V224.32C383.74 224.896 383.172 225.352 382.468 225.688C381.78 226.008 381.028 226.168 380.212 226.168C379.172 226.168 378.252 225.952 377.452 225.52C376.652 225.072 376.02 224.424 375.556 223.576C375.108 222.712 374.884 221.688 374.884 220.504V212.704H378.244V220.024C378.244 221.08 378.508 221.896 379.036 222.472C379.564 223.032 380.284 223.312 381.196 223.312C382.124 223.312 382.852 223.032 383.38 222.472C383.908 221.896 384.172 221.08 384.172 220.024V212.704H387.556ZM394.231 208.24V226H390.871V208.24H394.231ZM402.759 212.488C403.751 212.488 404.623 212.688 405.375 213.088C406.127 213.472 406.719 213.976 407.151 214.6V212.704H410.535V226.096C410.535 227.328 410.287 228.424 409.791 229.384C409.295 230.36 408.551 231.128 407.559 231.688C406.567 232.264 405.367 232.552 403.959 232.552C402.071 232.552 400.519 232.112 399.303 231.232C398.103 230.352 397.423 229.152 397.263 227.632H400.599C400.775 228.24 401.151 228.72 401.727 229.072C402.319 229.44 403.031 229.624 403.863 229.624C404.839 229.624 405.631 229.328 406.239 228.736C406.847 228.16 407.151 227.28 407.151 226.096V224.032C406.719 224.656 406.119 225.176 405.351 225.592C404.599 226.008 403.735 226.216 402.759 226.216C401.639 226.216 400.615 225.928 399.687 225.352C398.759 224.776 398.023 223.968 397.479 222.928C396.951 221.872 396.687 220.664 396.687 219.304C396.687 217.96 396.951 216.768 397.479 215.728C398.023 214.688 398.751 213.888 399.663 213.328C400.591 212.768 401.623 212.488 402.759 212.488ZM407.151 219.352C407.151 218.536 406.991 217.84 406.671 217.264C406.351 216.672 405.919 216.224 405.375 215.92C404.831 215.6 404.247 215.44 403.623 215.44C402.999 215.44 402.423 215.592 401.895 215.896C401.367 216.2 400.935 216.648 400.599 217.24C400.279 217.816 400.119 218.504 400.119 219.304C400.119 220.104 400.279 220.808 400.599 221.416C400.935 222.008 401.367 222.464 401.895 222.784C402.439 223.104 403.015 223.264 403.623 223.264C404.247 223.264 404.831 223.112 405.375 222.808C405.919 222.488 406.351 222.04 406.671 221.464C406.991 220.872 407.151 220.168 407.151 219.352ZM412.952 219.304C412.952 217.96 413.216 216.768 413.744 215.728C414.288 214.688 415.016 213.888 415.928 213.328C416.856 212.768 417.888 212.488 419.024 212.488C420.016 212.488 420.88 212.688 421.616 213.088C422.368 213.488 422.968 213.992 423.416 214.6V212.704H426.8V226H423.416V224.056C422.984 224.68 422.384 225.2 421.616 225.616C420.864 226.016 419.992 226.216 419 226.216C417.88 226.216 416.856 225.928 415.928 225.352C415.016 224.776 414.288 223.968 413.744 222.928C413.216 221.872 412.952 220.664 412.952 219.304ZM423.416 219.352C423.416 218.536 423.256 217.84 422.936 217.264C422.616 216.672 422.184 216.224 421.64 215.92C421.096 215.6 420.512 215.44 419.888 215.44C419.264 215.44 418.688 215.592 418.16 215.896C417.632 216.2 417.2 216.648 416.864 217.24C416.544 217.816 416.384 218.504 416.384 219.304C416.384 220.104 416.544 220.808 416.864 221.416C417.2 222.008 417.632 222.464 418.16 222.784C418.704 223.104 419.28 223.264 419.888 223.264C420.512 223.264 421.096 223.112 421.64 222.808C422.184 222.488 422.616 222.04 422.936 221.464C423.256 220.872 423.416 220.168 423.416 219.352ZM433.442 214.768C433.874 214.064 434.434 213.512 435.122 213.112C435.826 212.712 436.626 212.512 437.522 212.512V216.04H436.634C435.578 216.04 434.778 216.288 434.234 216.784C433.706 217.28 433.442 218.144 433.442 219.376V226H430.082V212.704H433.442V214.768ZM441.489 211.12C440.897 211.12 440.401 210.936 440.001 210.568C439.617 210.184 439.425 209.712 439.425 209.152C439.425 208.592 439.617 208.128 440.001 207.76C440.401 207.376 440.897 207.184 441.489 207.184C442.081 207.184 442.569 207.376 442.953 207.76C443.353 208.128 443.553 208.592 443.553 209.152C443.553 209.712 443.353 210.184 442.953 210.568C442.569 210.936 442.081 211.12 441.489 211.12ZM443.145 212.704V226H439.785V212.704H443.145ZM445.601 219.304C445.601 217.96 445.865 216.768 446.393 215.728C446.937 214.688 447.665 213.888 448.577 213.328C449.505 212.768 450.537 212.488 451.673 212.488C452.665 212.488 453.529 212.688 454.265 213.088C455.017 213.488 455.617 213.992 456.065 214.6V212.704H459.449V226H456.065V224.056C455.633 224.68 455.033 225.2 454.265 225.616C453.513 226.016 452.641 226.216 451.649 226.216C450.529 226.216 449.505 225.928 448.577 225.352C447.665 224.776 446.937 223.968 446.393 222.928C445.865 221.872 445.601 220.664 445.601 219.304ZM456.065 219.352C456.065 218.536 455.905 217.84 455.585 217.264C455.265 216.672 454.833 216.224 454.289 215.92C453.745 215.6 453.161 215.44 452.537 215.44C451.913 215.44 451.337 215.592 450.809 215.896C450.281 216.2 449.849 216.648 449.513 217.24C449.193 217.816 449.033 218.504 449.033 219.304C449.033 220.104 449.193 220.808 449.513 221.416C449.849 222.008 450.281 222.464 450.809 222.784C451.353 223.104 451.929 223.264 452.537 223.264C453.161 223.264 453.745 223.112 454.289 222.808C454.833 222.488 455.265 222.04 455.585 221.464C455.905 220.872 456.065 220.168 456.065 219.352Z" fill="black"/>
<g clip-path="url(#clip4_307_562)">
<circle cx="690.5" cy="86" r="75" fill="#D9D9D9"/>
<g clip-path="url(#clip5_307_562)">
<path d="M803.5 11H578.5V161H803.5V11Z" fill="#D7141A"/>
<path d="M803.5 11H578.5V86H803.5V11Z" fill="white"/>
<path d="M691 86L578.5 11V161L691 86Z" fill="#11457E"/>
</g>
</g>
<path d="M660.063 217.6C660.063 215.952 660.431 214.48 661.167 213.184C661.919 211.872 662.935 210.856 664.215 210.136C665.511 209.4 666.959 209.032 668.559 209.032C670.431 209.032 672.071 209.512 673.479 210.472C674.887 211.432 675.871 212.76 676.431 214.456H672.567C672.183 213.656 671.639 213.056 670.935 212.656C670.247 212.256 669.447 212.056 668.535 212.056C667.559 212.056 666.687 212.288 665.919 212.752C665.167 213.2 664.575 213.84 664.143 214.672C663.727 215.504 663.519 216.48 663.519 217.6C663.519 218.704 663.727 219.68 664.143 220.528C664.575 221.36 665.167 222.008 665.919 222.472C666.687 222.92 667.559 223.144 668.535 223.144C669.447 223.144 670.247 222.944 670.935 222.544C671.639 222.128 672.183 221.52 672.567 220.72H676.431C675.871 222.432 674.887 223.768 673.479 224.728C672.087 225.672 670.447 226.144 668.559 226.144C666.959 226.144 665.511 225.784 664.215 225.064C662.935 224.328 661.919 223.312 661.167 222.016C660.431 220.72 660.063 219.248 660.063 217.6ZM691.661 219.064C691.661 219.544 691.629 219.976 691.565 220.36H681.845C681.925 221.32 682.261 222.072 682.853 222.616C683.445 223.16 684.173 223.432 685.037 223.432C686.285 223.432 687.173 222.896 687.701 221.824H691.325C690.941 223.104 690.205 224.16 689.117 224.992C688.029 225.808 686.693 226.216 685.109 226.216C683.829 226.216 682.677 225.936 681.653 225.376C680.645 224.8 679.853 223.992 679.277 222.952C678.717 221.912 678.437 220.712 678.437 219.352C678.437 217.976 678.717 216.768 679.277 215.728C679.837 214.688 680.621 213.888 681.629 213.328C682.637 212.768 683.797 212.488 685.109 212.488C686.373 212.488 687.501 212.76 688.493 213.304C689.501 213.848 690.277 214.624 690.821 215.632C691.381 216.624 691.661 217.768 691.661 219.064ZM688.181 218.104C688.165 217.24 687.853 216.552 687.245 216.04C686.637 215.512 685.893 215.248 685.013 215.248C684.181 215.248 683.477 215.504 682.901 216.016C682.341 216.512 681.997 217.208 681.869 218.104H688.181ZM701.985 226L697.473 220.336V226H694.113V208.24H697.473V218.344L701.937 212.704H706.305L700.449 219.376L706.353 226H701.985ZM714.033 226.216C712.753 226.216 711.601 225.936 710.577 225.376C709.553 224.8 708.745 223.992 708.153 222.952C707.577 221.912 707.289 220.712 707.289 219.352C707.289 217.992 707.585 216.792 708.177 215.752C708.785 214.712 709.609 213.912 710.649 213.352C711.689 212.776 712.849 212.488 714.129 212.488C715.409 212.488 716.569 212.776 717.609 213.352C718.649 213.912 719.465 214.712 720.057 215.752C720.665 216.792 720.969 217.992 720.969 219.352C720.969 220.712 720.657 221.912 720.033 222.952C719.425 223.992 718.593 224.8 717.537 225.376C716.497 225.936 715.329 226.216 714.033 226.216ZM714.033 223.288C714.641 223.288 715.209 223.144 715.737 222.856C716.281 222.552 716.713 222.104 717.033 221.512C717.353 220.92 717.513 220.2 717.513 219.352C717.513 218.088 717.177 217.12 716.505 216.448C715.849 215.76 715.041 215.416 714.081 215.416C713.121 215.416 712.313 215.76 711.657 216.448C711.017 217.12 710.697 218.088 710.697 219.352C710.697 220.616 711.009 221.592 711.633 222.28C712.273 222.952 713.073 223.288 714.033 223.288Z" fill="black"/>
<g clip-path="url(#clip6_307_562)">
<circle cx="971.5" cy="86" r="75" fill="#D9D9D9"/>
<g clip-path="url(#clip7_307_562)">
<path d="M872.5 11H1070.5V161H872.5V11Z" fill="#C8102E"/>
<path d="M872.5 86H1070.5H872.5ZM947.419 11V161V11Z" fill="black"/>
<path d="M872.5 86H1070.5M947.419 11V161" stroke="white" stroke-width="20"/>
</g>
</g>
<path d="M922.504 209.248C924.264 209.248 925.808 209.592 927.136 210.28C928.48 210.968 929.512 211.952 930.232 213.232C930.968 214.496 931.336 215.968 931.336 217.648C931.336 219.328 930.968 220.8 930.232 222.064C929.512 223.312 928.48 224.28 927.136 224.968C925.808 225.656 924.264 226 922.504 226H916.648V209.248H922.504ZM922.384 223.144C924.144 223.144 925.504 222.664 926.464 221.704C927.424 220.744 927.904 219.392 927.904 217.648C927.904 215.904 927.424 214.544 926.464 213.568C925.504 212.576 924.144 212.08 922.384 212.08H920.008V223.144H922.384ZM946.211 219.064C946.211 219.544 946.179 219.976 946.115 220.36H936.395C936.475 221.32 936.811 222.072 937.403 222.616C937.995 223.16 938.723 223.432 939.587 223.432C940.835 223.432 941.723 222.896 942.251 221.824H945.875C945.491 223.104 944.755 224.16 943.667 224.992C942.579 225.808 941.243 226.216 939.659 226.216C938.379 226.216 937.227 225.936 936.203 225.376C935.195 224.8 934.403 223.992 933.827 222.952C933.267 221.912 932.987 220.712 932.987 219.352C932.987 217.976 933.267 216.768 933.827 215.728C934.387 214.688 935.171 213.888 936.179 213.328C937.187 212.768 938.347 212.488 939.659 212.488C940.923 212.488 942.051 212.76 943.043 213.304C944.051 213.848 944.827 214.624 945.371 215.632C945.931 216.624 946.211 217.768 946.211 219.064ZM942.731 218.104C942.715 217.24 942.403 216.552 941.795 216.04C941.187 215.512 940.443 215.248 939.563 215.248C938.731 215.248 938.027 215.504 937.451 216.016C936.891 216.512 936.547 217.208 936.419 218.104H942.731ZM956.032 212.512C957.616 212.512 958.896 213.016 959.872 214.024C960.848 215.016 961.336 216.408 961.336 218.2V226H957.976V218.656C957.976 217.6 957.712 216.792 957.184 216.232C956.656 215.656 955.936 215.368 955.024 215.368C954.096 215.368 953.36 215.656 952.816 216.232C952.288 216.792 952.024 217.6 952.024 218.656V226H948.664V212.704H952.024V214.36C952.472 213.784 953.04 213.336 953.728 213.016C954.432 212.68 955.2 212.512 956.032 212.512ZM981.043 212.512C982.675 212.512 983.987 213.016 984.979 214.024C985.987 215.016 986.491 216.408 986.491 218.2V226H983.131V218.656C983.131 217.616 982.867 216.824 982.339 216.28C981.811 215.72 981.091 215.44 980.179 215.44C979.267 215.44 978.539 215.72 977.995 216.28C977.467 216.824 977.203 217.616 977.203 218.656V226H973.843V218.656C973.843 217.616 973.579 216.824 973.051 216.28C972.523 215.72 971.803 215.44 970.891 215.44C969.963 215.44 969.227 215.72 968.683 216.28C968.155 216.824 967.891 217.616 967.891 218.656V226H964.531V212.704H967.891V214.312C968.323 213.752 968.875 213.312 969.547 212.992C970.235 212.672 970.987 212.512 971.803 212.512C972.843 212.512 973.771 212.736 974.587 213.184C975.403 213.616 976.035 214.24 976.483 215.056C976.915 214.288 977.539 213.672 978.355 213.208C979.187 212.744 980.083 212.512 981.043 212.512ZM988.815 219.304C988.815 217.96 989.079 216.768 989.607 215.728C990.151 214.688 990.879 213.888 991.791 213.328C992.719 212.768 993.751 212.488 994.887 212.488C995.879 212.488 996.743 212.688 997.479 213.088C998.231 213.488 998.831 213.992 999.279 214.6V212.704H1002.66V226H999.279V224.056C998.847 224.68 998.247 225.2 997.479 225.616C996.727 226.016 995.855 226.216 994.863 226.216C993.743 226.216 992.719 225.928 991.791 225.352C990.879 224.776 990.151 223.968 989.607 222.928C989.079 221.872 988.815 220.664 988.815 219.304ZM999.279 219.352C999.279 218.536 999.119 217.84 998.799 217.264C998.479 216.672 998.047 216.224 997.503 215.92C996.959 215.6 996.375 215.44 995.751 215.44C995.127 215.44 994.551 215.592 994.023 215.896C993.495 216.2 993.063 216.648 992.727 217.24C992.407 217.816 992.247 218.504 992.247 219.304C992.247 220.104 992.407 220.808 992.727 221.416C993.063 222.008 993.495 222.464 994.023 222.784C994.567 223.104 995.143 223.264 995.751 223.264C996.375 223.264 996.959 223.112 997.503 222.808C998.047 222.488 998.479 222.04 998.799 221.464C999.119 220.872 999.279 220.168 999.279 219.352ZM1009.31 214.768C1009.74 214.064 1010.3 213.512 1010.99 213.112C1011.69 212.712 1012.49 212.512 1013.39 212.512V216.04H1012.5C1011.44 216.04 1010.64 216.288 1010.1 216.784C1009.57 217.28 1009.31 218.144 1009.31 219.376V226H1005.95V212.704H1009.31V214.768ZM1023.52 226L1019.01 220.336V226H1015.65V208.24H1019.01V218.344L1023.47 212.704H1027.84L1021.98 219.376L1027.89 226H1023.52Z" fill="black"/>
<defs>
<clipPath id="clip0_307_562">
<rect x="53.5" y="11" width="150" height="150" rx="75" fill="white"/>
</clipPath>
<clipPath id="clip1_307_562">
<rect width="300" height="150" fill="white" transform="translate(-8.5 11)"/>
</clipPath>
<clipPath id="clip2_307_562">
<rect x="334.5" y="11" width="150" height="150" rx="75" fill="white"/>
</clipPath>
<clipPath id="clip3_307_562">
<rect width="250" height="150" fill="white" transform="translate(284.5 11)"/>
</clipPath>
<clipPath id="clip4_307_562">
<rect x="615.5" y="11" width="150" height="150" rx="75" fill="white"/>
</clipPath>
<clipPath id="clip5_307_562">
<rect width="225" height="150" fill="white" transform="translate(578.5 11)"/>
</clipPath>
<clipPath id="clip6_307_562">
<rect x="896.5" y="11" width="150" height="150" rx="75" fill="white"/>
</clipPath>
<clipPath id="clip7_307_562">
<rect width="198" height="150" fill="white" transform="translate(872.5 11)"/>
</clipPath>
</defs>
</svg>
