<svg width="1100" height="240" viewBox="0 0 1100 240" fill="none" xmlns="http://www.w3.org/2000/svg">
<g clip-path="url(#clip0_307_695)">
<circle cx="128.5" cy="86" r="75" fill="#D9D9D9"/>
<g clip-path="url(#clip1_307_695)">
<path d="M16.5 11H241.5V161H16.5V11Z" fill="white"/>
<path d="M16.5 11H241.5V61H16.5V11Z" fill="#FF6820"/>
<path d="M16.5 111H241.5V161H16.5V111Z" fill="#046A38"/>
<path d="M129 109.125C141.772 109.125 152.125 98.7716 152.125 86C152.125 73.2284 141.772 62.875 129 62.875C116.228 62.875 105.875 73.2284 105.875 86C105.875 98.7716 116.228 109.125 129 109.125Z" fill="#07038D"/>
<path d="M129 106C140.046 106 149 97.0457 149 86C149 74.9543 140.046 66 129 66C117.954 66 109 74.9543 109 86C109 97.0457 117.954 106 129 106Z" fill="white"/>
<path d="M129 90C131.209 90 133 88.2091 133 86C133 83.7909 131.209 82 129 82C126.791 82 125 83.7909 125 86C125 88.2091 126.791 90 129 90Z" fill="#07038D"/>
<path d="M129 66L129.75 78.0352L129 83.9941L128.25 78.0352L129 66Z" fill="#07038D"/>
<path d="M131.495 67.0387C131.974 67.1018 132.413 66.7645 132.476 66.2854C132.539 65.8063 132.202 65.3667 131.723 65.3037C131.244 65.2406 130.804 65.5779 130.741 66.057C130.678 66.5361 131.015 66.9756 131.495 67.0387Z" fill="#07038D"/>
<path d="M129 106L128.25 93.9648L129 88.0059L129.75 93.9648L129 106Z" fill="#07038D"/>
<path d="M126.505 104.961C126.026 104.898 125.587 105.235 125.524 105.715C125.461 106.194 125.798 106.633 126.277 106.696C126.756 106.759 127.196 106.422 127.259 105.943C127.322 105.464 126.985 105.024 126.505 104.961Z" fill="#07038D"/>
<path d="M134.178 66.6824L131.787 78.5016L129.52 84.0634L130.338 78.1134L134.178 66.6824Z" fill="#07038D"/>
<path d="M136.322 68.3315C136.769 68.5165 137.281 68.3044 137.466 67.858C137.65 67.4115 137.438 66.8997 136.992 66.7147C136.546 66.5298 136.034 66.7418 135.849 67.1883C135.664 67.6347 135.876 68.1466 136.322 68.3315Z" fill="#07038D"/>
<path d="M123.826 105.319L126.217 93.4993L128.484 87.9376L127.666 93.8876L123.826 105.319Z" fill="#07038D"/>
<path d="M121.682 103.669C121.235 103.485 120.723 103.697 120.538 104.143C120.353 104.589 120.565 105.101 121.012 105.286C121.458 105.471 121.97 105.259 122.155 104.813C122.34 104.366 122.128 103.854 121.682 103.669Z" fill="#07038D"/>
<path d="M139.001 68.6797L133.633 79.4775L130.004 84.2631L132.334 78.7275L139.001 68.6797Z" fill="#07038D"/>
<path d="M140.644 70.8273C141.028 71.1215 141.577 71.0492 141.871 70.6658C142.166 70.2824 142.093 69.7331 141.71 69.4389C141.326 69.1447 140.777 69.217 140.483 69.6004C140.189 69.9838 140.261 70.5331 140.644 70.8273Z" fill="#07038D"/>
<path d="M119.003 103.32L124.371 92.5225L128 87.7369L125.67 93.2725L119.003 103.32Z" fill="#07038D"/>
<path d="M117.359 101.173C116.976 100.879 116.427 100.951 116.133 101.334C115.838 101.718 115.911 102.267 116.294 102.561C116.677 102.855 117.227 102.783 117.521 102.4C117.815 102.016 117.743 101.467 117.359 101.173Z" fill="#07038D"/>
<path d="M143.14 71.8585L135.16 80.899L130.416 84.5822L134.099 79.8383L143.14 71.8585Z" fill="#07038D"/>
<path d="M144.172 74.3572C144.466 74.7406 145.015 74.8129 145.398 74.5187C145.782 74.2245 145.854 73.6752 145.56 73.2918C145.266 72.9085 144.717 72.8361 144.333 73.1303C143.95 73.4245 143.877 73.9738 144.172 74.3572Z" fill="#07038D"/>
<path d="M114.86 100.143L122.84 91.102L127.584 87.4188L123.901 92.1627L114.86 100.143Z" fill="#07038D"/>
<path d="M113.828 97.6438C113.534 97.2604 112.985 97.1881 112.602 97.4823C112.218 97.7765 112.146 98.3257 112.44 98.7091C112.734 99.0925 113.283 99.1648 113.667 98.8707C114.05 98.5765 114.123 98.0272 113.828 97.6438Z" fill="#07038D"/>
<path d="M146.324 76.0011L136.276 82.6682L130.741 84.9981L135.526 81.3692L146.324 76.0011Z" fill="#07038D"/>
<path d="M146.671 78.6822C146.856 79.1287 147.368 79.3407 147.814 79.1557C148.261 78.9708 148.473 78.459 148.288 78.0125C148.103 77.566 147.591 77.354 147.145 77.5389C146.698 77.7239 146.486 78.2357 146.671 78.6822Z" fill="#07038D"/>
<path d="M111.68 96.0009L121.727 89.3337L127.263 87.0038L122.477 90.6328L111.68 96.0009Z" fill="#07038D"/>
<path d="M111.333 93.3198C111.148 92.8733 110.636 92.6613 110.189 92.8462C109.743 93.0311 109.531 93.543 109.716 93.9895C109.901 94.4359 110.413 94.6479 110.859 94.463C111.306 94.2781 111.518 93.7662 111.333 93.3198Z" fill="#07038D"/>
<path d="M148.319 80.8241L136.888 84.6634L130.938 85.4813L136.5 83.2146L148.319 80.8241Z" fill="#07038D"/>
<path d="M147.961 83.5041C148.024 83.9833 148.464 84.3205 148.943 84.2574C149.422 84.1944 149.759 83.7548 149.696 83.2757C149.633 82.7966 149.194 82.4593 148.715 82.5224C148.235 82.5855 147.898 83.025 147.961 83.5041Z" fill="#07038D"/>
<path d="M109.681 91.1769L121.112 87.3375L127.062 86.5197L121.5 88.7864L109.681 91.1769Z" fill="#07038D"/>
<path d="M110.039 88.4968C109.976 88.0177 109.536 87.6805 109.057 87.7435C108.578 87.8066 108.241 88.2461 108.304 88.7253C108.367 89.2044 108.806 89.5416 109.285 89.4786C109.765 89.4155 110.102 88.976 110.039 88.4968Z" fill="#07038D"/>
<path d="M149 86L136.965 86.75L131.006 86L136.965 85.25L149 86Z" fill="#07038D"/>
<path d="M147.963 88.4965C147.9 88.9756 148.237 89.4152 148.717 89.4782C149.196 89.5413 149.635 89.2041 149.698 88.7249C149.761 88.2458 149.424 87.8063 148.945 87.7432C148.466 87.6801 148.026 88.0174 147.963 88.4965Z" fill="#07038D"/>
<path d="M109.004 86L121.039 85.25L126.998 86L121.039 86.75L109.004 86Z" fill="#07038D"/>
<path d="M110.041 83.5035C110.104 83.0244 109.766 82.5848 109.287 82.5218C108.808 82.4587 108.369 82.7959 108.306 83.2751C108.243 83.7542 108.58 84.1937 109.059 84.2568C109.538 84.3199 109.978 83.9826 110.041 83.5035Z" fill="#07038D"/>
<path d="M148.318 91.1766L136.498 88.7861L130.937 86.5194L136.887 87.3372L148.318 91.1766Z" fill="#07038D"/>
<path d="M146.669 93.3184C146.485 93.7648 146.697 94.2767 147.143 94.4616C147.589 94.6466 148.101 94.4345 148.286 93.9881C148.471 93.5416 148.259 93.0298 147.813 92.8448C147.366 92.6599 146.854 92.8719 146.669 93.3184Z" fill="#07038D"/>
<path d="M109.682 80.8234L121.502 83.2139L127.063 85.4806L121.113 84.6628L109.682 80.8234Z" fill="#07038D"/>
<path d="M111.331 78.6816C111.515 78.2352 111.303 77.7233 110.857 77.5384C110.411 77.3534 109.899 77.5655 109.714 78.0119C109.529 78.4584 109.741 78.9702 110.187 79.1552C110.634 79.3401 111.146 79.1281 111.331 78.6816Z" fill="#07038D"/>
<path d="M146.316 96.0001L135.519 90.632L130.733 87.003L136.269 89.333L146.316 96.0001Z" fill="#07038D"/>
<path d="M144.169 97.6425C143.875 98.0259 143.947 98.5752 144.33 98.8694C144.714 99.1636 145.263 99.0912 145.557 98.7079C145.851 98.3245 145.779 97.7752 145.396 97.481C145.012 97.1868 144.463 97.2591 144.169 97.6425Z" fill="#07038D"/>
<path d="M111.68 75.9999L122.477 81.368L127.263 84.997L121.727 82.667L111.68 75.9999Z" fill="#07038D"/>
<path d="M113.827 74.3575C114.121 73.9741 114.049 73.4248 113.666 73.1306C113.282 72.8364 112.733 72.9088 112.439 73.2921C112.145 73.6755 112.217 74.2248 112.6 74.519C112.984 74.8132 113.533 74.7409 113.827 74.3575Z" fill="#07038D"/>
<path d="M143.138 100.142L134.097 92.1618L130.414 87.4179L135.158 91.1011L143.138 100.142Z" fill="#07038D"/>
<path d="M140.639 101.172C140.256 101.466 140.183 102.015 140.477 102.398C140.772 102.782 141.321 102.854 141.704 102.56C142.088 102.266 142.16 101.717 141.866 101.333C141.572 100.95 141.022 100.877 140.639 101.172Z" fill="#07038D"/>
<path d="M114.858 71.8574L123.899 79.8372L127.582 84.5811L122.838 80.8979L114.858 71.8574Z" fill="#07038D"/>
<path d="M117.357 70.8274C117.741 70.5332 117.813 69.9839 117.519 69.6005C117.225 69.2171 116.675 69.1448 116.292 69.439C115.908 69.7332 115.836 70.2825 116.13 70.6659C116.425 71.0493 116.974 71.1216 117.357 70.8274Z" fill="#07038D"/>
<path d="M139.003 103.32L132.336 93.2725L130.006 87.7369L133.635 92.5225L139.003 103.32Z" fill="#07038D"/>
<path d="M136.323 103.669C135.876 103.854 135.664 104.366 135.849 104.812C136.034 105.259 136.546 105.471 136.992 105.286C137.439 105.101 137.651 104.589 137.466 104.143C137.281 103.696 136.769 103.484 136.323 103.669Z" fill="#07038D"/>
<path d="M119.001 68.6797L125.668 78.7275L127.998 84.2631L124.369 79.4775L119.001 68.6797Z" fill="#07038D"/>
<path d="M121.681 68.3308C122.128 68.1458 122.34 67.634 122.155 67.1875C121.97 66.7411 121.458 66.529 121.012 66.714C120.565 66.8989 120.353 67.4108 120.538 67.8572C120.723 68.3037 121.235 68.5157 121.681 68.3308Z" fill="#07038D"/>
<path d="M134.174 105.318L130.335 93.8871L129.517 87.9371L131.783 93.4989L134.174 105.318Z" fill="#07038D"/>
<path d="M131.494 104.961C131.015 105.024 130.678 105.464 130.741 105.943C130.804 106.422 131.243 106.759 131.722 106.696C132.201 106.633 132.539 106.194 132.476 105.715C132.413 105.235 131.973 104.898 131.494 104.961Z" fill="#07038D"/>
<path d="M123.822 66.6819L127.661 78.1129L128.479 84.0629L126.213 78.5011L123.822 66.6819Z" fill="#07038D"/>
<path d="M126.502 67.0388C126.981 66.9757 127.319 66.5362 127.255 66.0571C127.192 65.5779 126.753 65.2407 126.274 65.3038C125.795 65.3668 125.457 65.8064 125.52 66.2855C125.584 66.7646 126.023 67.1019 126.502 67.0388Z" fill="#07038D"/>
</g>
</g>
<path d="M100.584 209.248V226H97.2241V215.104L92.7361 226H90.1921L85.6801 215.104V226H82.3201V209.248H86.1361L91.4641 221.704L96.7921 209.248H100.584ZM103.042 219.304C103.042 217.96 103.306 216.768 103.834 215.728C104.378 214.688 105.106 213.888 106.018 213.328C106.946 212.768 107.978 212.488 109.114 212.488C110.106 212.488 110.97 212.688 111.706 213.088C112.458 213.488 113.058 213.992 113.506 214.6V212.704H116.89V226H113.506V224.056C113.074 224.68 112.474 225.2 111.706 225.616C110.954 226.016 110.082 226.216 109.09 226.216C107.97 226.216 106.946 225.928 106.018 225.352C105.106 224.776 104.378 223.968 103.834 222.928C103.306 221.872 103.042 220.664 103.042 219.304ZM113.506 219.352C113.506 218.536 113.346 217.84 113.026 217.264C112.706 216.672 112.274 216.224 111.73 215.92C111.186 215.6 110.602 215.44 109.978 215.44C109.354 215.44 108.778 215.592 108.25 215.896C107.722 216.2 107.29 216.648 106.954 217.24C106.634 217.816 106.474 218.504 106.474 219.304C106.474 220.104 106.634 220.808 106.954 221.416C107.29 222.008 107.722 222.464 108.25 222.784C108.794 223.104 109.37 223.264 109.978 223.264C110.602 223.264 111.186 223.112 111.73 222.808C112.274 222.488 112.706 222.04 113.026 221.464C113.346 220.872 113.506 220.168 113.506 219.352ZM123.532 214.768C123.964 214.064 124.524 213.512 125.212 213.112C125.916 212.712 126.716 212.512 127.612 212.512V216.04H126.724C125.668 216.04 124.868 216.288 124.324 216.784C123.796 217.28 123.532 218.144 123.532 219.376V226H120.172V212.704H123.532V214.768ZM129.011 219.304C129.011 217.96 129.275 216.768 129.803 215.728C130.347 214.688 131.075 213.888 131.987 213.328C132.915 212.768 133.947 212.488 135.083 212.488C136.075 212.488 136.939 212.688 137.675 213.088C138.427 213.488 139.027 213.992 139.475 214.6V212.704H142.859V226H139.475V224.056C139.043 224.68 138.443 225.2 137.675 225.616C136.923 226.016 136.051 226.216 135.059 226.216C133.939 226.216 132.915 225.928 131.987 225.352C131.075 224.776 130.347 223.968 129.803 222.928C129.275 221.872 129.011 220.664 129.011 219.304ZM139.475 219.352C139.475 218.536 139.315 217.84 138.995 217.264C138.675 216.672 138.243 216.224 137.699 215.92C137.155 215.6 136.571 215.44 135.947 215.44C135.323 215.44 134.747 215.592 134.219 215.896C133.691 216.2 133.259 216.648 132.923 217.24C132.603 217.816 132.443 218.504 132.443 219.304C132.443 220.104 132.603 220.808 132.923 221.416C133.259 222.008 133.691 222.464 134.219 222.784C134.763 223.104 135.339 223.264 135.947 223.264C136.571 223.264 137.155 223.112 137.699 222.808C138.243 222.488 138.675 222.04 138.995 221.464C139.315 220.872 139.475 220.168 139.475 219.352ZM150.052 215.464V221.896C150.052 222.344 150.156 222.672 150.364 222.88C150.588 223.072 150.956 223.168 151.468 223.168H153.028V226H150.916C148.084 226 146.668 224.624 146.668 221.872V215.464H145.084V212.704H146.668V209.416H150.052V212.704H153.028V215.464H150.052ZM162.933 212.512C163.941 212.512 164.837 212.736 165.621 213.184C166.405 213.616 167.013 214.264 167.445 215.128C167.893 215.976 168.117 217 168.117 218.2V226H164.757V218.656C164.757 217.6 164.493 216.792 163.965 216.232C163.437 215.656 162.717 215.368 161.805 215.368C160.877 215.368 160.141 215.656 159.597 216.232C159.069 216.792 158.805 217.6 158.805 218.656V226H155.445V208.24H158.805V214.36C159.237 213.784 159.813 213.336 160.533 213.016C161.253 212.68 162.053 212.512 162.933 212.512ZM173.016 211.12C172.424 211.12 171.928 210.936 171.528 210.568C171.144 210.184 170.952 209.712 170.952 209.152C170.952 208.592 171.144 208.128 171.528 207.76C171.928 207.376 172.424 207.184 173.016 207.184C173.608 207.184 174.096 207.376 174.48 207.76C174.88 208.128 175.08 208.592 175.08 209.152C175.08 209.712 174.88 210.184 174.48 210.568C174.096 210.936 173.608 211.12 173.016 211.12ZM174.672 212.704V226H171.312V212.704H174.672Z" fill="black"/>
<g clip-path="url(#clip2_307_695)">
<circle cx="409.5" cy="86" r="75" fill="#D9D9D9"/>
<g clip-path="url(#clip3_307_695)">
<path d="M306.5 11H606.5V161H306.5V11Z" fill="white"/>
<path d="M317.215 16.3574H606.501M606.501 37.786H317.215M317.215 59.2146H606.501M606.501 80.6431H317.215" stroke="#CC0000" stroke-width="12"/>
<path d="M306.5 11H456.5V102.071H306.5V11Z" fill="#000066"/>
<path d="M306.5 102.071H606.5M606.5 123.5H306.5M306.5 144.928H606.5" stroke="#CC0000" stroke-width="12"/>
<path d="M400.25 27.071L402.639 43.4103L411.88 29.7273L406.924 45.4862L421.188 37.1603L409.893 49.2139L426.366 47.8969L410.965 53.8567L426.366 59.8166L409.893 58.4996L421.188 70.5532L406.924 62.2273L411.88 77.9862L402.639 64.3032L400.25 80.6425L397.862 64.3032L388.621 77.9862L393.576 62.2273L379.313 70.5532L390.607 58.4996L374.134 59.8166L389.536 53.8567L374.134 47.8969L390.607 49.2139L379.313 37.1603L393.576 45.4862L388.621 29.7273L397.862 43.4103L400.25 27.071ZM386.857 27.7407C382.508 25.8106 377.745 24.9976 373.001 25.3755C368.257 25.7534 363.683 27.3103 359.693 29.9046C355.704 32.499 352.426 36.0488 350.156 40.2316C347.887 44.4145 346.698 49.0979 346.698 53.8567C346.698 58.6156 347.887 63.299 350.156 67.4819C352.426 71.6647 355.704 75.2145 359.693 77.8088C363.683 80.4032 368.257 81.96 373.001 82.3379C377.745 82.7158 382.508 81.9029 386.857 79.9728C382.054 83.4191 376.394 85.4739 370.498 85.9114C364.603 86.349 358.701 85.1522 353.442 82.4527C348.182 79.7532 343.769 75.6556 340.688 70.6105C337.607 65.5655 335.977 59.7684 335.977 53.8567C335.977 47.9451 337.607 42.148 340.688 37.1029C343.769 32.0579 348.182 27.9603 353.442 25.2608C358.701 22.5613 364.603 21.3645 370.498 21.802C376.394 22.2395 382.054 24.2944 386.857 27.7407Z" fill="#FFCC00"/>
</g>
</g>
<path d="M384.549 209.248V226H381.189V215.104L376.701 226H374.157L369.645 215.104V226H366.285V209.248H370.101L375.429 221.704L380.757 209.248H384.549ZM400.231 219.064C400.231 219.544 400.199 219.976 400.135 220.36H390.415C390.495 221.32 390.831 222.072 391.423 222.616C392.015 223.16 392.743 223.432 393.607 223.432C394.855 223.432 395.743 222.896 396.271 221.824H399.895C399.511 223.104 398.775 224.16 397.687 224.992C396.599 225.808 395.263 226.216 393.679 226.216C392.399 226.216 391.247 225.936 390.223 225.376C389.215 224.8 388.423 223.992 387.847 222.952C387.287 221.912 387.007 220.712 387.007 219.352C387.007 217.976 387.287 216.768 387.847 215.728C388.407 214.688 389.191 213.888 390.199 213.328C391.207 212.768 392.367 212.488 393.679 212.488C394.943 212.488 396.071 212.76 397.063 213.304C398.071 213.848 398.847 214.624 399.391 215.632C399.951 216.624 400.231 217.768 400.231 219.064ZM396.751 218.104C396.735 217.24 396.423 216.552 395.815 216.04C395.207 215.512 394.463 215.248 393.583 215.248C392.751 215.248 392.047 215.504 391.471 216.016C390.911 216.512 390.567 217.208 390.439 218.104H396.751ZM406.043 208.24V226H402.683V208.24H406.043ZM408.499 219.304C408.499 217.96 408.763 216.768 409.291 215.728C409.835 214.688 410.563 213.888 411.475 213.328C412.403 212.768 413.435 212.488 414.571 212.488C415.563 212.488 416.427 212.688 417.163 213.088C417.915 213.488 418.515 213.992 418.963 214.6V212.704H422.347V226H418.963V224.056C418.531 224.68 417.931 225.2 417.163 225.616C416.411 226.016 415.539 226.216 414.547 226.216C413.427 226.216 412.403 225.928 411.475 225.352C410.563 224.776 409.835 223.968 409.291 222.928C408.763 221.872 408.499 220.664 408.499 219.304ZM418.963 219.352C418.963 218.536 418.803 217.84 418.483 217.264C418.163 216.672 417.731 216.224 417.187 215.92C416.643 215.6 416.059 215.44 415.435 215.44C414.811 215.44 414.235 215.592 413.707 215.896C413.179 216.2 412.747 216.648 412.411 217.24C412.091 217.816 411.931 218.504 411.931 219.304C411.931 220.104 412.091 220.808 412.411 221.416C412.747 222.008 413.179 222.464 413.707 222.784C414.251 223.104 414.827 223.264 415.435 223.264C416.059 223.264 416.643 223.112 417.187 222.808C417.731 222.488 418.163 222.04 418.483 221.464C418.803 220.872 418.963 220.168 418.963 219.352ZM438.349 212.704L430.117 232.288H426.541L429.421 225.664L424.093 212.704H427.861L431.293 221.992L434.773 212.704H438.349ZM452.712 212.704V226H449.328V224.32C448.896 224.896 448.328 225.352 447.624 225.688C446.936 226.008 446.184 226.168 445.368 226.168C444.328 226.168 443.408 225.952 442.608 225.52C441.808 225.072 441.176 224.424 440.712 223.576C440.264 222.712 440.04 221.688 440.04 220.504V212.704H443.4V220.024C443.4 221.08 443.664 221.896 444.192 222.472C444.72 223.032 445.44 223.312 446.352 223.312C447.28 223.312 448.008 223.032 448.536 222.472C449.064 221.896 449.328 221.08 449.328 220.024V212.704H452.712Z" fill="black"/>
<g clip-path="url(#clip4_307_695)">
<circle cx="690.5" cy="86" r="75" fill="#D9D9D9"/>
<g clip-path="url(#clip5_307_695)">
<path d="M645.035 83.6102H727.191L645.035 32.3613V141.478H727.191L645.035 59.6405V83.6102Z" fill="#DC143C" stroke="#003893" stroke-width="10"/>
<path d="M645.035 83.6102H727.191L645.035 32.3613V141.478H727.191L645.035 59.6405V83.6102Z" fill="#DC143C"/>
<path d="M649.211 64.3916C650.503 67.666 652.755 70.4769 655.673 72.4581C658.592 74.4392 662.042 75.4989 665.574 75.4989C669.106 75.4989 672.556 74.4392 675.475 72.4581C678.393 70.4769 680.645 67.666 681.937 64.3916C681.937 68.7145 680.213 72.8604 677.144 75.9172C674.076 78.974 669.914 80.6913 665.574 80.6913C661.234 80.6913 657.072 78.974 654.004 75.9172C650.935 72.8604 649.211 68.7145 649.211 64.3916Z" fill="white"/>
<path d="M665.575 79.5627C669.781 79.5627 673.19 76.1668 673.19 71.9776C673.19 67.7885 669.781 64.3926 665.575 64.3926C661.37 64.3926 657.961 67.7885 657.961 71.9776C657.961 76.1668 661.37 79.5627 665.575 79.5627Z" fill="white"/>
<path d="M668.491 64.97L667.641 61.6461L665.578 64.3927" fill="white"/>
<path d="M670.963 66.6139L671.454 63.2186L668.493 64.9696" fill="white"/>
<path d="M672.614 69.0746L674.372 66.1249L670.964 66.6139" fill="white"/>
<path d="M673.194 71.9771L675.947 69.9233L672.612 69.0719" fill="white"/>
<path d="M672.612 74.8779L675.95 74.0341L673.189 71.9777" fill="white"/>
<path d="M670.962 77.3388L674.371 77.8309L672.61 74.8801" fill="white"/>
<path d="M662.665 64.97L663.516 61.6461L665.579 64.3927" fill="white"/>
<path d="M660.193 66.6139L659.702 63.2186L662.664 64.9696" fill="white"/>
<path d="M658.542 69.0746L656.784 66.1249L660.193 66.6139" fill="white"/>
<path d="M657.962 71.9771L655.209 69.9233L658.545 69.0719" fill="white"/>
<path d="M658.545 74.8779L655.207 74.0341L657.967 71.9777" fill="white"/>
<path d="M660.195 77.3388L656.785 77.8309L658.546 74.8801" fill="white"/>
<path d="M665.572 123.652C671.731 123.652 676.723 118.679 676.723 112.545C676.723 106.41 671.731 101.438 665.572 101.438C659.414 101.438 654.422 106.41 654.422 112.545C654.422 118.679 659.414 123.652 665.572 123.652Z" fill="white"/>
<path d="M668.459 123.273L665.573 130.058L662.688 123.273" fill="white"/>
<path d="M662.689 101.816L665.575 95.0318L668.461 101.816" fill="white"/>
<path d="M654.805 115.419L647.994 112.545L654.805 109.67" fill="white"/>
<path d="M676.348 109.67L683.159 112.545L676.348 115.42" fill="white"/>
<path d="M662.686 123.269L656.779 127.713L657.691 120.398" fill="white"/>
<path d="M668.459 101.82L674.366 97.3754L673.453 104.69" fill="white"/>
<path d="M654.798 109.67L650.348 103.79L657.688 104.687" fill="white"/>
<path d="M676.347 115.42L680.796 121.3L673.457 120.403" fill="white"/>
<path d="M657.687 120.402L650.347 121.299L654.797 115.419" fill="white"/>
<path d="M673.454 104.686L680.793 103.79L676.344 109.67" fill="white"/>
<path d="M657.693 104.69L656.781 97.3751L662.688 101.819" fill="white"/>
<path d="M673.455 120.399L674.368 127.714L668.461 123.27" fill="white"/>
</g>
</g>
<path d="M670.648 226H667.288L659.68 214.504V226H656.32V209.224H659.68L667.288 220.744V209.224H670.648V226ZM686.329 219.064C686.329 219.544 686.297 219.976 686.233 220.36H676.513C676.593 221.32 676.929 222.072 677.521 222.616C678.113 223.16 678.841 223.432 679.705 223.432C680.953 223.432 681.841 222.896 682.369 221.824H685.993C685.609 223.104 684.873 224.16 683.785 224.992C682.697 225.808 681.361 226.216 679.777 226.216C678.497 226.216 677.345 225.936 676.321 225.376C675.313 224.8 674.521 223.992 673.945 222.952C673.385 221.912 673.104 220.712 673.104 219.352C673.104 217.976 673.385 216.768 673.945 215.728C674.505 214.688 675.289 213.888 676.297 213.328C677.305 212.768 678.465 212.488 679.777 212.488C681.041 212.488 682.169 212.76 683.161 213.304C684.169 213.848 684.945 214.624 685.489 215.632C686.049 216.624 686.329 217.768 686.329 219.064ZM682.849 218.104C682.833 217.24 682.521 216.552 681.913 216.04C681.305 215.512 680.561 215.248 679.681 215.248C678.849 215.248 678.145 215.504 677.569 216.016C677.009 216.512 676.665 217.208 676.537 218.104H682.849ZM692.141 214.624C692.573 214.016 693.165 213.512 693.917 213.112C694.685 212.696 695.557 212.488 696.533 212.488C697.669 212.488 698.693 212.768 699.605 213.328C700.533 213.888 701.261 214.688 701.789 215.728C702.333 216.752 702.605 217.944 702.605 219.304C702.605 220.664 702.333 221.872 701.789 222.928C701.261 223.968 700.533 224.776 699.605 225.352C698.693 225.928 697.669 226.216 696.533 226.216C695.557 226.216 694.693 226.016 693.941 225.616C693.205 225.216 692.605 224.712 692.141 224.104V232.336H688.781V212.704H692.141V214.624ZM699.173 219.304C699.173 218.504 699.005 217.816 698.669 217.24C698.349 216.648 697.917 216.2 697.373 215.896C696.845 215.592 696.269 215.44 695.645 215.44C695.037 215.44 694.461 215.6 693.917 215.92C693.389 216.224 692.957 216.672 692.621 217.264C692.301 217.856 692.141 218.552 692.141 219.352C692.141 220.152 692.301 220.848 692.621 221.44C692.957 222.032 693.389 222.488 693.917 222.808C694.461 223.112 695.037 223.264 695.645 223.264C696.269 223.264 696.845 223.104 697.373 222.784C697.917 222.464 698.349 222.008 698.669 221.416C699.005 220.824 699.173 220.12 699.173 219.304ZM704.183 219.304C704.183 217.96 704.447 216.768 704.975 215.728C705.519 214.688 706.247 213.888 707.159 213.328C708.087 212.768 709.119 212.488 710.255 212.488C711.247 212.488 712.111 212.688 712.847 213.088C713.599 213.488 714.199 213.992 714.647 214.6V212.704H718.031V226H714.647V224.056C714.215 224.68 713.615 225.2 712.847 225.616C712.095 226.016 711.223 226.216 710.231 226.216C709.111 226.216 708.087 225.928 707.159 225.352C706.247 224.776 705.519 223.968 704.975 222.928C704.447 221.872 704.183 220.664 704.183 219.304ZM714.647 219.352C714.647 218.536 714.487 217.84 714.167 217.264C713.847 216.672 713.415 216.224 712.871 215.92C712.327 215.6 711.743 215.44 711.119 215.44C710.495 215.44 709.919 215.592 709.391 215.896C708.863 216.2 708.431 216.648 708.095 217.24C707.775 217.816 707.615 218.504 707.615 219.304C707.615 220.104 707.775 220.808 708.095 221.416C708.431 222.008 708.863 222.464 709.391 222.784C709.935 223.104 710.511 223.264 711.119 223.264C711.743 223.264 712.327 223.112 712.871 222.808C713.415 222.488 713.847 222.04 714.167 221.464C714.487 220.872 714.647 220.168 714.647 219.352ZM724.672 208.24V226H721.312V208.24H724.672Z" fill="black"/>
<g clip-path="url(#clip6_307_695)">
<circle cx="971.5" cy="86" r="75" fill="#D9D9D9"/>
<g clip-path="url(#clip7_307_695)">
<path d="M1074.5 11H868.5V161H1074.5V11Z" fill="#BA0C2F"/>
<path d="M868.5 86H1074.5H868.5ZM943.409 11V161V11Z" fill="black"/>
<path d="M868.5 86H1074.5M943.409 11V161" stroke="white" stroke-width="24"/>
<path d="M868.5 86H1074.5H868.5ZM943.409 11V161V11Z" fill="black"/>
<path d="M868.5 86H1074.5M943.409 11V161" stroke="#00205B" stroke-width="15"/>
</g>
</g>
<path d="M929.019 226H925.659L918.051 214.504V226H914.691V209.224H918.051L925.659 220.744V209.224H929.019V226ZM938.244 226.216C936.964 226.216 935.812 225.936 934.788 225.376C933.764 224.8 932.956 223.992 932.364 222.952C931.788 221.912 931.5 220.712 931.5 219.352C931.5 217.992 931.796 216.792 932.388 215.752C932.996 214.712 933.82 213.912 934.86 213.352C935.9 212.776 937.06 212.488 938.34 212.488C939.62 212.488 940.78 212.776 941.82 213.352C942.86 213.912 943.676 214.712 944.268 215.752C944.876 216.792 945.18 217.992 945.18 219.352C945.18 220.712 944.868 221.912 944.244 222.952C943.636 223.992 942.804 224.8 941.748 225.376C940.708 225.936 939.54 226.216 938.244 226.216ZM938.244 223.288C938.852 223.288 939.42 223.144 939.948 222.856C940.492 222.552 940.924 222.104 941.244 221.512C941.564 220.92 941.724 220.2 941.724 219.352C941.724 218.088 941.388 217.12 940.716 216.448C940.06 215.76 939.252 215.416 938.292 215.416C937.332 215.416 936.524 215.76 935.868 216.448C935.228 217.12 934.908 218.088 934.908 219.352C934.908 220.616 935.22 221.592 935.844 222.28C936.484 222.952 937.284 223.288 938.244 223.288ZM951.004 214.768C951.436 214.064 951.996 213.512 952.684 213.112C953.388 212.712 954.188 212.512 955.084 212.512V216.04H954.196C953.14 216.04 952.34 216.288 951.796 216.784C951.268 217.28 951.004 218.144 951.004 219.376V226H947.644V212.704H951.004V214.768ZM975.779 212.704L971.891 226H968.267L965.843 216.712L963.419 226H959.771L955.859 212.704H959.267L961.619 222.832L964.163 212.704H967.715L970.211 222.808L972.563 212.704H975.779ZM989.957 219.064C989.957 219.544 989.925 219.976 989.861 220.36H980.141C980.221 221.32 980.557 222.072 981.149 222.616C981.741 223.16 982.469 223.432 983.333 223.432C984.581 223.432 985.469 222.896 985.997 221.824H989.621C989.237 223.104 988.501 224.16 987.413 224.992C986.325 225.808 984.989 226.216 983.405 226.216C982.125 226.216 980.973 225.936 979.949 225.376C978.941 224.8 978.149 223.992 977.573 222.952C977.013 221.912 976.733 220.712 976.733 219.352C976.733 217.976 977.013 216.768 977.573 215.728C978.133 214.688 978.917 213.888 979.925 213.328C980.933 212.768 982.093 212.488 983.405 212.488C984.669 212.488 985.797 212.76 986.789 213.304C987.797 213.848 988.573 214.624 989.117 215.632C989.677 216.624 989.957 217.768 989.957 219.064ZM986.477 218.104C986.461 217.24 986.149 216.552 985.541 216.04C984.933 215.512 984.189 215.248 983.309 215.248C982.477 215.248 981.773 215.504 981.197 216.016C980.637 216.512 980.293 217.208 980.165 218.104H986.477ZM997.618 212.488C998.61 212.488 999.482 212.688 1000.23 213.088C1000.99 213.472 1001.58 213.976 1002.01 214.6V212.704H1005.39V226.096C1005.39 227.328 1005.15 228.424 1004.65 229.384C1004.15 230.36 1003.41 231.128 1002.42 231.688C1001.43 232.264 1000.23 232.552 998.818 232.552C996.93 232.552 995.378 232.112 994.162 231.232C992.962 230.352 992.282 229.152 992.122 227.632H995.458C995.634 228.24 996.01 228.72 996.586 229.072C997.178 229.44 997.89 229.624 998.722 229.624C999.698 229.624 1000.49 229.328 1001.1 228.736C1001.71 228.16 1002.01 227.28 1002.01 226.096V224.032C1001.58 224.656 1000.98 225.176 1000.21 225.592C999.458 226.008 998.594 226.216 997.618 226.216C996.498 226.216 995.474 225.928 994.546 225.352C993.618 224.776 992.882 223.968 992.338 222.928C991.81 221.872 991.546 220.664 991.546 219.304C991.546 217.96 991.81 216.768 992.338 215.728C992.882 214.688 993.61 213.888 994.522 213.328C995.45 212.768 996.482 212.488 997.618 212.488ZM1002.01 219.352C1002.01 218.536 1001.85 217.84 1001.53 217.264C1001.21 216.672 1000.78 216.224 1000.23 215.92C999.69 215.6 999.106 215.44 998.482 215.44C997.858 215.44 997.282 215.592 996.754 215.896C996.226 216.2 995.794 216.648 995.458 217.24C995.138 217.816 994.978 218.504 994.978 219.304C994.978 220.104 995.138 220.808 995.458 221.416C995.794 222.008 996.226 222.464 996.754 222.784C997.298 223.104 997.874 223.264 998.482 223.264C999.106 223.264 999.69 223.112 1000.23 222.808C1000.78 222.488 1001.21 222.04 1001.53 221.464C1001.85 220.872 1002.01 220.168 1002.01 219.352ZM1010.38 211.12C1009.79 211.12 1009.29 210.936 1008.89 210.568C1008.51 210.184 1008.32 209.712 1008.32 209.152C1008.32 208.592 1008.51 208.128 1008.89 207.76C1009.29 207.376 1009.79 207.184 1010.38 207.184C1010.97 207.184 1011.46 207.376 1011.84 207.76C1012.24 208.128 1012.44 208.592 1012.44 209.152C1012.44 209.712 1012.24 210.184 1011.84 210.568C1011.46 210.936 1010.97 211.12 1010.38 211.12ZM1012.04 212.704V226H1008.68V212.704H1012.04ZM1014.49 219.304C1014.49 217.96 1014.76 216.768 1015.28 215.728C1015.83 214.688 1016.56 213.888 1017.47 213.328C1018.4 212.768 1019.43 212.488 1020.56 212.488C1021.56 212.488 1022.42 212.688 1023.16 213.088C1023.91 213.488 1024.51 213.992 1024.96 214.6V212.704H1028.34V226H1024.96V224.056C1024.52 224.68 1023.92 225.2 1023.16 225.616C1022.4 226.016 1021.53 226.216 1020.54 226.216C1019.42 226.216 1018.4 225.928 1017.47 225.352C1016.56 224.776 1015.83 223.968 1015.28 222.928C1014.76 221.872 1014.49 220.664 1014.49 219.304ZM1024.96 219.352C1024.96 218.536 1024.8 217.84 1024.48 217.264C1024.16 216.672 1023.72 216.224 1023.18 215.92C1022.64 215.6 1022.05 215.44 1021.43 215.44C1020.8 215.44 1020.23 215.592 1019.7 215.896C1019.17 216.2 1018.74 216.648 1018.4 217.24C1018.08 217.816 1017.92 218.504 1017.92 219.304C1017.92 220.104 1018.08 220.808 1018.4 221.416C1018.74 222.008 1019.17 222.464 1019.7 222.784C1020.24 223.104 1020.82 223.264 1021.43 223.264C1022.05 223.264 1022.64 223.112 1023.18 222.808C1023.72 222.488 1024.16 222.04 1024.48 221.464C1024.8 220.872 1024.96 220.168 1024.96 219.352Z" fill="black"/>
<defs>
<clipPath id="clip0_307_695">
<rect x="53.5" y="11" width="150" height="150" rx="75" fill="white"/>
</clipPath>
<clipPath id="clip1_307_695">
<rect width="225" height="150" fill="white" transform="translate(16.5 11)"/>
</clipPath>
<clipPath id="clip2_307_695">
<rect x="334.5" y="11" width="150" height="150" rx="75" fill="white"/>
</clipPath>
<clipPath id="clip3_307_695">
<rect width="300" height="150" fill="white" transform="translate(306.5 11)"/>
</clipPath>
<clipPath id="clip4_307_695">
<rect x="615.5" y="11" width="150" height="150" rx="75" fill="white"/>
</clipPath>
<clipPath id="clip5_307_695">
<rect width="98" height="119" fill="white" transform="translate(641.5 26)"/>
</clipPath>
<clipPath id="clip6_307_695">
<rect x="896.5" y="11" width="150" height="150" rx="75" fill="white"/>
</clipPath>
<clipPath id="clip7_307_695">
<rect width="206" height="150" fill="white" transform="translate(868.5 11)"/>
</clipPath>
</defs>
</svg>
