<svg width="1100" height="240" viewBox="0 0 1100 240" fill="none" xmlns="http://www.w3.org/2000/svg">
<g clip-path="url(#clip0_307_790)">
<circle cx="128.5" cy="86" r="75" fill="#D9D9D9"/>
<g clip-path="url(#clip1_307_790)">
<path d="M240.5 11H15.5V161H240.5V11Z" fill="#0057B7"/>
<path d="M240.5 86H15.5V161H240.5V86Z" fill="#FFD700"/>
</g>
</g>
<path d="M85.7024 209.248V219.616C85.7024 220.752 85.9984 221.624 86.5904 222.232C87.1824 222.824 88.0144 223.12 89.0864 223.12C90.1744 223.12 91.0144 222.824 91.6064 222.232C92.1984 221.624 92.4944 220.752 92.4944 219.616V209.248H95.8784V219.592C95.8784 221.016 95.5664 222.224 94.9424 223.216C94.3344 224.192 93.5104 224.928 92.4704 225.424C91.4464 225.92 90.3024 226.168 89.0384 226.168C87.7904 226.168 86.6544 225.92 85.6304 225.424C84.6224 224.928 83.8224 224.192 83.2304 223.216C82.6384 222.224 82.3424 221.016 82.3424 219.592V209.248H85.7024ZM106.997 226L102.485 220.336V226H99.1248V208.24H102.485V218.344L106.949 212.704H111.317L105.461 219.376L111.365 226H106.997ZM116.5 214.768C116.932 214.064 117.492 213.512 118.18 213.112C118.884 212.712 119.684 212.512 120.58 212.512V216.04H119.692C118.636 216.04 117.836 216.288 117.292 216.784C116.764 217.28 116.5 218.144 116.5 219.376V226H113.14V212.704H116.5V214.768ZM121.979 219.304C121.979 217.96 122.243 216.768 122.771 215.728C123.316 214.688 124.044 213.888 124.956 213.328C125.884 212.768 126.916 212.488 128.052 212.488C129.044 212.488 129.908 212.688 130.644 213.088C131.396 213.488 131.996 213.992 132.444 214.6V212.704H135.828V226H132.444V224.056C132.012 224.68 131.412 225.2 130.644 225.616C129.892 226.016 129.02 226.216 128.028 226.216C126.908 226.216 125.884 225.928 124.956 225.352C124.044 224.776 123.316 223.968 122.771 222.928C122.243 221.872 121.979 220.664 121.979 219.304ZM132.444 219.352C132.444 218.536 132.284 217.84 131.964 217.264C131.644 216.672 131.212 216.224 130.668 215.92C130.124 215.6 129.54 215.44 128.916 215.44C128.292 215.44 127.716 215.592 127.188 215.896C126.66 216.2 126.228 216.648 125.892 217.24C125.572 217.816 125.412 218.504 125.412 219.304C125.412 220.104 125.572 220.808 125.892 221.416C126.228 222.008 126.66 222.464 127.188 222.784C127.732 223.104 128.308 223.264 128.916 223.264C129.54 223.264 130.124 223.112 130.668 222.808C131.212 222.488 131.644 222.04 131.964 221.464C132.284 220.872 132.444 220.168 132.444 219.352ZM140.813 211.12C140.221 211.12 139.725 210.936 139.325 210.568C138.941 210.184 138.749 209.712 138.749 209.152C138.749 208.592 138.941 208.128 139.325 207.76C139.725 207.376 140.221 207.184 140.813 207.184C141.405 207.184 141.893 207.376 142.277 207.76C142.677 208.128 142.877 208.592 142.877 209.152C142.877 209.712 142.677 210.184 142.277 210.568C141.893 210.936 141.405 211.12 140.813 211.12ZM142.469 212.704V226H139.109V212.704H142.469ZM153.157 212.512C154.741 212.512 156.021 213.016 156.997 214.024C157.973 215.016 158.461 216.408 158.461 218.2V226H155.101V218.656C155.101 217.6 154.837 216.792 154.309 216.232C153.781 215.656 153.061 215.368 152.149 215.368C151.221 215.368 150.485 215.656 149.941 216.232C149.413 216.792 149.149 217.6 149.149 218.656V226H145.789V212.704H149.149V214.36C149.597 213.784 150.165 213.336 150.853 213.016C151.557 212.68 152.325 212.512 153.157 212.512ZM160.792 219.304C160.792 217.96 161.056 216.768 161.584 215.728C162.128 214.688 162.856 213.888 163.768 213.328C164.696 212.768 165.728 212.488 166.864 212.488C167.856 212.488 168.72 212.688 169.456 213.088C170.208 213.488 170.808 213.992 171.256 214.6V212.704H174.64V226H171.256V224.056C170.824 224.68 170.224 225.2 169.456 225.616C168.704 226.016 167.832 226.216 166.84 226.216C165.72 226.216 164.696 225.928 163.768 225.352C162.856 224.776 162.128 223.968 161.584 222.928C161.056 221.872 160.792 220.664 160.792 219.304ZM171.256 219.352C171.256 218.536 171.096 217.84 170.776 217.264C170.456 216.672 170.024 216.224 169.48 215.92C168.936 215.6 168.352 215.44 167.728 215.44C167.104 215.44 166.528 215.592 166 215.896C165.472 216.2 165.04 216.648 164.704 217.24C164.384 217.816 164.224 218.504 164.224 219.304C164.224 220.104 164.384 220.808 164.704 221.416C165.04 222.008 165.472 222.464 166 222.784C166.544 223.104 167.12 223.264 167.728 223.264C168.352 223.264 168.936 223.112 169.48 222.808C170.024 222.488 170.456 222.04 170.776 221.464C171.096 220.872 171.256 220.168 171.256 219.352Z" fill="black"/>
<g clip-path="url(#clip2_307_790)">
<circle cx="409.5" cy="86" r="75" fill="#D9D9D9"/>
<g clip-path="url(#clip3_307_790)">
<path d="M525.5 11H300.5V161H525.5V11Z" fill="white"/>
<path d="M525.5 11H356.75V161H525.5V11Z" fill="#01411C"/>
<path d="M441.125 131C465.978 131 486.125 110.853 486.125 86C486.125 61.1472 465.978 41 441.125 41C416.272 41 396.125 61.1472 396.125 86C396.125 110.853 416.272 131 441.125 131Z" fill="white"/>
<path d="M480.031 106.606C497.059 91.4705 498.592 65.3975 483.457 48.3702C468.322 31.3429 442.249 29.8092 425.221 44.9446C408.194 60.08 406.66 86.153 421.796 103.18C436.931 120.208 463.004 121.741 480.031 106.606Z" fill="#01411C"/>
<path d="M457.534 52.3269L476.49 73.6518L448.62 67.5413L474.759 56.1034L460.335 80.7208L457.534 52.3269Z" fill="white"/>
</g>
</g>
<path d="M385.183 209.248V219.616C385.183 220.752 385.479 221.624 386.071 222.232C386.663 222.824 387.495 223.12 388.567 223.12C389.655 223.12 390.495 222.824 391.087 222.232C391.679 221.624 391.975 220.752 391.975 219.616V209.248H395.359V219.592C395.359 221.016 395.047 222.224 394.423 223.216C393.815 224.192 392.991 224.928 391.951 225.424C390.927 225.92 389.783 226.168 388.519 226.168C387.271 226.168 386.135 225.92 385.111 225.424C384.103 224.928 383.303 224.192 382.711 223.216C382.119 222.224 381.823 221.016 381.823 219.592V209.248H385.183ZM401.965 214.768C402.397 214.064 402.957 213.512 403.645 213.112C404.349 212.712 405.149 212.512 406.045 212.512V216.04H405.157C404.101 216.04 403.301 216.288 402.757 216.784C402.229 217.28 401.965 218.144 401.965 219.376V226H398.605V212.704H401.965V214.768ZM407.444 219.304C407.444 217.96 407.708 216.768 408.236 215.728C408.78 214.688 409.516 213.888 410.444 213.328C411.372 212.768 412.404 212.488 413.54 212.488C414.404 212.488 415.228 212.68 416.012 213.064C416.796 213.432 417.42 213.928 417.884 214.552V208.24H421.292V226H417.884V224.032C417.468 224.688 416.884 225.216 416.132 225.616C415.38 226.016 414.508 226.216 413.516 226.216C412.396 226.216 411.372 225.928 410.444 225.352C409.516 224.776 408.78 223.968 408.236 222.928C407.708 221.872 407.444 220.664 407.444 219.304ZM417.908 219.352C417.908 218.536 417.748 217.84 417.428 217.264C417.108 216.672 416.676 216.224 416.132 215.92C415.588 215.6 415.004 215.44 414.38 215.44C413.756 215.44 413.18 215.592 412.652 215.896C412.124 216.2 411.692 216.648 411.356 217.24C411.036 217.816 410.876 218.504 410.876 219.304C410.876 220.104 411.036 220.808 411.356 221.416C411.692 222.008 412.124 222.464 412.652 222.784C413.196 223.104 413.772 223.264 414.38 223.264C415.004 223.264 415.588 223.112 416.132 222.808C416.676 222.488 417.108 222.04 417.428 221.464C417.748 220.872 417.908 220.168 417.908 219.352ZM437.126 212.704V226H433.742V224.32C433.31 224.896 432.742 225.352 432.038 225.688C431.35 226.008 430.598 226.168 429.782 226.168C428.742 226.168 427.822 225.952 427.022 225.52C426.222 225.072 425.59 224.424 425.126 223.576C424.678 222.712 424.454 221.688 424.454 220.504V212.704H427.814V220.024C427.814 221.08 428.078 221.896 428.606 222.472C429.134 223.032 429.854 223.312 430.766 223.312C431.694 223.312 432.422 223.032 432.95 222.472C433.478 221.896 433.742 221.08 433.742 220.024V212.704H437.126Z" fill="black"/>
<g clip-path="url(#clip4_307_790)">
<circle cx="690.5" cy="86" r="75" fill="#D9D9D9"/>
<g clip-path="url(#clip5_307_790)">
<path d="M802.5 11H577.5V161H802.5V11Z" fill="#DA251D"/>
<path d="M690.001 41L663.526 122.375L732.826 72.125H647.176L716.476 122.375L690.001 41Z" fill="#FFFF00"/>
</g>
</g>
<path d="M654.634 209.248L648.49 226H644.41L638.266 209.248H641.866L646.474 222.568L651.058 209.248H654.634ZM658.352 211.12C657.76 211.12 657.264 210.936 656.864 210.568C656.48 210.184 656.288 209.712 656.288 209.152C656.288 208.592 656.48 208.128 656.864 207.76C657.264 207.376 657.76 207.184 658.352 207.184C658.944 207.184 659.432 207.376 659.816 207.76C660.216 208.128 660.416 208.592 660.416 209.152C660.416 209.712 660.216 210.184 659.816 210.568C659.432 210.936 658.944 211.12 658.352 211.12ZM660.008 212.704V226H656.648V212.704H660.008ZM675.688 219.064C675.688 219.544 675.656 219.976 675.592 220.36H665.872C665.952 221.32 666.288 222.072 666.88 222.616C667.472 223.16 668.2 223.432 669.064 223.432C670.312 223.432 671.2 222.896 671.728 221.824H675.352C674.968 223.104 674.232 224.16 673.144 224.992C672.056 225.808 670.72 226.216 669.136 226.216C667.856 226.216 666.704 225.936 665.68 225.376C664.672 224.8 663.88 223.992 663.304 222.952C662.744 221.912 662.464 220.712 662.464 219.352C662.464 217.976 662.744 216.768 663.304 215.728C663.864 214.688 664.648 213.888 665.656 213.328C666.664 212.768 667.824 212.488 669.136 212.488C670.4 212.488 671.528 212.76 672.52 213.304C673.528 213.848 674.304 214.624 674.848 215.632C675.408 216.624 675.688 217.768 675.688 219.064ZM672.208 218.104C672.192 217.24 671.88 216.552 671.272 216.04C670.664 215.512 669.92 215.248 669.04 215.248C668.208 215.248 667.504 215.504 666.928 216.016C666.368 216.512 666.024 217.208 665.896 218.104H672.208ZM682.052 215.464V221.896C682.052 222.344 682.156 222.672 682.364 222.88C682.588 223.072 682.956 223.168 683.468 223.168H685.028V226H682.916C680.084 226 678.668 224.624 678.668 221.872V215.464H677.084V212.704H678.668V209.416H682.052V212.704H685.028V215.464H682.052ZM694.813 212.512C696.397 212.512 697.677 213.016 698.653 214.024C699.629 215.016 700.117 216.408 700.117 218.2V226H696.757V218.656C696.757 217.6 696.493 216.792 695.965 216.232C695.437 215.656 694.717 215.368 693.805 215.368C692.877 215.368 692.141 215.656 691.597 216.232C691.069 216.792 690.805 217.6 690.805 218.656V226H687.445V212.704H690.805V214.36C691.253 213.784 691.821 213.336 692.509 213.016C693.213 212.68 693.981 212.512 694.813 212.512ZM702.448 219.304C702.448 217.96 702.712 216.768 703.24 215.728C703.784 214.688 704.512 213.888 705.424 213.328C706.352 212.768 707.384 212.488 708.52 212.488C709.512 212.488 710.376 212.688 711.112 213.088C711.864 213.488 712.464 213.992 712.912 214.6V212.704H716.296V226H712.912V224.056C712.48 224.68 711.88 225.2 711.112 225.616C710.36 226.016 709.488 226.216 708.496 226.216C707.376 226.216 706.352 225.928 705.424 225.352C704.512 224.776 703.784 223.968 703.24 222.928C702.712 221.872 702.448 220.664 702.448 219.304ZM712.912 219.352C712.912 218.536 712.752 217.84 712.432 217.264C712.112 216.672 711.68 216.224 711.136 215.92C710.592 215.6 710.008 215.44 709.384 215.44C708.76 215.44 708.184 215.592 707.656 215.896C707.128 216.2 706.696 216.648 706.36 217.24C706.04 217.816 705.88 218.504 705.88 219.304C705.88 220.104 706.04 220.808 706.36 221.416C706.696 222.008 707.128 222.464 707.656 222.784C708.2 223.104 708.776 223.264 709.384 223.264C710.008 223.264 710.592 223.112 711.136 222.808C711.68 222.488 712.112 222.04 712.432 221.464C712.752 220.872 712.912 220.168 712.912 219.352ZM736.09 212.512C737.722 212.512 739.034 213.016 740.026 214.024C741.034 215.016 741.538 216.408 741.538 218.2V226H738.178V218.656C738.178 217.616 737.914 216.824 737.386 216.28C736.858 215.72 736.138 215.44 735.226 215.44C734.314 215.44 733.586 215.72 733.042 216.28C732.514 216.824 732.25 217.616 732.25 218.656V226H728.89V218.656C728.89 217.616 728.626 216.824 728.098 216.28C727.57 215.72 726.85 215.44 725.938 215.44C725.01 215.44 724.274 215.72 723.73 216.28C723.202 216.824 722.938 217.616 722.938 218.656V226H719.578V212.704H722.938V214.312C723.37 213.752 723.922 213.312 724.594 212.992C725.282 212.672 726.034 212.512 726.85 212.512C727.89 212.512 728.818 212.736 729.634 213.184C730.45 213.616 731.082 214.24 731.53 215.056C731.962 214.288 732.586 213.672 733.402 213.208C734.234 212.744 735.13 212.512 736.09 212.512Z" fill="black"/>
<g clip-path="url(#clip6_307_790)">
<circle cx="971.5" cy="86" r="75" fill="#D9D9D9"/>
<g clip-path="url(#clip7_307_790)">
<path d="M1122.5 11H897.5V161H1122.5V11Z" fill="#0D5EAF"/>
<path d="M939.167 11V102.667M897.5 52.6667H980.833M980.833 36H1122.5M980.833 69.3333H1122.5M897.5 102.667H1122.5M897.5 136H1122.5" stroke="white" stroke-width="12"/>
</g>
</g>
<path d="M943.574 209.248L937.91 220.168V226H934.55V220.168L928.862 209.248H932.654L936.254 216.904L939.83 209.248H943.574ZM958.063 212.704V226H954.679V224.32C954.247 224.896 953.679 225.352 952.975 225.688C952.287 226.008 951.535 226.168 950.719 226.168C949.679 226.168 948.759 225.952 947.959 225.52C947.159 225.072 946.527 224.424 946.063 223.576C945.615 222.712 945.391 221.688 945.391 220.504V212.704H948.751V220.024C948.751 221.08 949.015 221.896 949.543 222.472C950.071 223.032 950.791 223.312 951.703 223.312C952.631 223.312 953.359 223.032 953.887 222.472C954.415 221.896 954.679 221.08 954.679 220.024V212.704H958.063ZM968.747 212.512C970.331 212.512 971.611 213.016 972.587 214.024C973.563 215.016 974.051 216.408 974.051 218.2V226H970.691V218.656C970.691 217.6 970.427 216.792 969.899 216.232C969.371 215.656 968.651 215.368 967.739 215.368C966.811 215.368 966.075 215.656 965.531 216.232C965.003 216.792 964.739 217.6 964.739 218.656V226H961.379V212.704H964.739V214.36C965.187 213.784 965.755 213.336 966.443 213.016C967.147 212.68 967.915 212.512 968.747 212.512ZM976.382 219.304C976.382 217.96 976.646 216.768 977.174 215.728C977.718 214.688 978.446 213.888 979.358 213.328C980.286 212.768 981.318 212.488 982.454 212.488C983.446 212.488 984.31 212.688 985.046 213.088C985.798 213.488 986.398 213.992 986.846 214.6V212.704H990.23V226H986.846V224.056C986.414 224.68 985.814 225.2 985.046 225.616C984.294 226.016 983.422 226.216 982.43 226.216C981.31 226.216 980.286 225.928 979.358 225.352C978.446 224.776 977.718 223.968 977.174 222.928C976.646 221.872 976.382 220.664 976.382 219.304ZM986.846 219.352C986.846 218.536 986.686 217.84 986.366 217.264C986.046 216.672 985.614 216.224 985.07 215.92C984.526 215.6 983.942 215.44 983.318 215.44C982.694 215.44 982.118 215.592 981.59 215.896C981.062 216.2 980.63 216.648 980.294 217.24C979.974 217.816 979.814 218.504 979.814 219.304C979.814 220.104 979.974 220.808 980.294 221.416C980.63 222.008 981.062 222.464 981.59 222.784C982.134 223.104 982.71 223.264 983.318 223.264C983.942 223.264 984.526 223.112 985.07 222.808C985.614 222.488 986.046 222.04 986.366 221.464C986.686 220.872 986.846 220.168 986.846 219.352ZM1000.88 212.512C1002.46 212.512 1003.74 213.016 1004.72 214.024C1005.7 215.016 1006.18 216.408 1006.18 218.2V226H1002.82V218.656C1002.82 217.6 1002.56 216.792 1002.03 216.232C1001.5 215.656 1000.78 215.368 999.871 215.368C998.943 215.368 998.207 215.656 997.663 216.232C997.135 216.792 996.871 217.6 996.871 218.656V226H993.511V212.704H996.871V214.36C997.319 213.784 997.887 213.336 998.575 213.016C999.279 212.68 1000.05 212.512 1000.88 212.512ZM1011.08 211.12C1010.49 211.12 1009.99 210.936 1009.59 210.568C1009.21 210.184 1009.02 209.712 1009.02 209.152C1009.02 208.592 1009.21 208.128 1009.59 207.76C1009.99 207.376 1010.49 207.184 1011.08 207.184C1011.67 207.184 1012.16 207.376 1012.55 207.76C1012.95 208.128 1013.15 208.592 1013.15 209.152C1013.15 209.712 1012.95 210.184 1012.55 210.568C1012.16 210.936 1011.67 211.12 1011.08 211.12ZM1012.74 212.704V226H1009.38V212.704H1012.74Z" fill="black"/>
<defs>
<clipPath id="clip0_307_790">
<rect x="53.5" y="11" width="150" height="150" rx="75" fill="white"/>
</clipPath>
<clipPath id="clip1_307_790">
<rect width="225" height="150" fill="white" transform="translate(15.5 11)"/>
</clipPath>
<clipPath id="clip2_307_790">
<rect x="334.5" y="11" width="150" height="150" rx="75" fill="white"/>
</clipPath>
<clipPath id="clip3_307_790">
<rect width="225" height="150" fill="white" transform="translate(300.5 11)"/>
</clipPath>
<clipPath id="clip4_307_790">
<rect x="615.5" y="11" width="150" height="150" rx="75" fill="white"/>
</clipPath>
<clipPath id="clip5_307_790">
<rect width="225" height="150" fill="white" transform="translate(577.5 11)"/>
</clipPath>
<clipPath id="clip6_307_790">
<rect x="896.5" y="11" width="150" height="150" rx="75" fill="white"/>
</clipPath>
<clipPath id="clip7_307_790">
<rect width="225" height="150" fill="white" transform="translate(897.5 11)"/>
</clipPath>
</defs>
</svg>
