<svg width="1100" height="240" viewBox="0 0 1100 240" fill="none" xmlns="http://www.w3.org/2000/svg">
<g clip-path="url(#clip0_307_771)">
<circle cx="128.5" cy="86" r="75" fill="#D9D9D9"/>
<g clip-path="url(#clip1_307_771)">
<path d="M20.5 11H260.5V161H20.5V11Z" fill="#005293"/>
<path d="M20.5 86H260.5H20.5ZM110.5 11V161V11Z" fill="black"/>
<path d="M20.5 86H260.5M110.5 11V161" stroke="#FECB00" stroke-width="30"/>
</g>
</g>
<path d="M91.4908 226.168C90.3228 226.168 89.2668 225.968 88.3228 225.568C87.3948 225.168 86.6588 224.592 86.1148 223.84C85.5708 223.088 85.2908 222.2 85.2748 221.176H88.8748C88.9228 221.864 89.1628 222.408 89.5948 222.808C90.0428 223.208 90.6508 223.408 91.4188 223.408C92.2028 223.408 92.8188 223.224 93.2668 222.856C93.7148 222.472 93.9388 221.976 93.9388 221.368C93.9388 220.872 93.7868 220.464 93.4828 220.144C93.1788 219.824 92.7948 219.576 92.3308 219.4C91.8828 219.208 91.2588 219 90.4588 218.776C89.3708 218.456 88.4828 218.144 87.7948 217.84C87.1228 217.52 86.5388 217.048 86.0428 216.424C85.5628 215.784 85.3228 214.936 85.3228 213.88C85.3228 212.888 85.5708 212.024 86.0668 211.288C86.5628 210.552 87.2588 209.992 88.1548 209.608C89.0508 209.208 90.0748 209.008 91.2268 209.008C92.9548 209.008 94.3548 209.432 95.4268 210.28C96.5148 211.112 97.1148 212.28 97.2268 213.784H93.5308C93.4988 213.208 93.2508 212.736 92.7868 212.368C92.3388 211.984 91.7388 211.792 90.9868 211.792C90.3308 211.792 89.8028 211.96 89.4028 212.296C89.0188 212.632 88.8268 213.12 88.8268 213.76C88.8268 214.208 88.9708 214.584 89.2588 214.888C89.5628 215.176 89.9308 215.416 90.3628 215.608C90.8108 215.784 91.4348 215.992 92.2348 216.232C93.3228 216.552 94.2108 216.872 94.8988 217.192C95.5868 217.512 96.1788 217.992 96.6748 218.632C97.1708 219.272 97.4188 220.112 97.4188 221.152C97.4188 222.048 97.1868 222.88 96.7228 223.648C96.2588 224.416 95.5788 225.032 94.6828 225.496C93.7868 225.944 92.7228 226.168 91.4908 226.168ZM118.764 212.704L114.876 226H111.252L108.828 216.712L106.404 226H102.756L98.8438 212.704H102.252L104.604 222.832L107.148 212.704H110.7L113.196 222.808L115.548 212.704H118.764ZM132.942 219.064C132.942 219.544 132.91 219.976 132.846 220.36H123.126C123.206 221.32 123.542 222.072 124.134 222.616C124.726 223.16 125.454 223.432 126.318 223.432C127.566 223.432 128.454 222.896 128.982 221.824H132.606C132.222 223.104 131.486 224.16 130.398 224.992C129.31 225.808 127.974 226.216 126.39 226.216C125.11 226.216 123.958 225.936 122.934 225.376C121.926 224.8 121.134 223.992 120.558 222.952C119.998 221.912 119.718 220.712 119.718 219.352C119.718 217.976 119.998 216.768 120.558 215.728C121.118 214.688 121.902 213.888 122.91 213.328C123.918 212.768 125.078 212.488 126.39 212.488C127.654 212.488 128.782 212.76 129.774 213.304C130.782 213.848 131.558 214.624 132.102 215.632C132.662 216.624 132.942 217.768 132.942 219.064ZM129.462 218.104C129.446 217.24 129.134 216.552 128.526 216.04C127.918 215.512 127.174 215.248 126.294 215.248C125.462 215.248 124.758 215.504 124.182 216.016C123.622 216.512 123.278 217.208 123.15 218.104H129.462ZM134.53 219.304C134.53 217.96 134.794 216.768 135.322 215.728C135.866 214.688 136.602 213.888 137.53 213.328C138.458 212.768 139.49 212.488 140.626 212.488C141.49 212.488 142.314 212.68 143.098 213.064C143.882 213.432 144.506 213.928 144.97 214.552V208.24H148.378V226H144.97V224.032C144.554 224.688 143.97 225.216 143.218 225.616C142.466 226.016 141.594 226.216 140.602 226.216C139.482 226.216 138.458 225.928 137.53 225.352C136.602 224.776 135.866 223.968 135.322 222.928C134.794 221.872 134.53 220.664 134.53 219.304ZM144.994 219.352C144.994 218.536 144.834 217.84 144.514 217.264C144.194 216.672 143.762 216.224 143.218 215.92C142.674 215.6 142.09 215.44 141.466 215.44C140.842 215.44 140.266 215.592 139.738 215.896C139.21 216.2 138.778 216.648 138.442 217.24C138.122 217.816 137.962 218.504 137.962 219.304C137.962 220.104 138.122 220.808 138.442 221.416C138.778 222.008 139.21 222.464 139.738 222.784C140.282 223.104 140.858 223.264 141.466 223.264C142.09 223.264 142.674 223.112 143.218 222.808C143.762 222.488 144.194 222.04 144.514 221.464C144.834 220.872 144.994 220.168 144.994 219.352ZM153.364 211.12C152.772 211.12 152.276 210.936 151.876 210.568C151.492 210.184 151.3 209.712 151.3 209.152C151.3 208.592 151.492 208.128 151.876 207.76C152.276 207.376 152.772 207.184 153.364 207.184C153.956 207.184 154.444 207.376 154.828 207.76C155.228 208.128 155.428 208.592 155.428 209.152C155.428 209.712 155.228 210.184 154.828 210.568C154.444 210.936 153.956 211.12 153.364 211.12ZM155.02 212.704V226H151.66V212.704H155.02ZM157.476 219.304C157.476 217.96 157.74 216.768 158.268 215.728C158.812 214.688 159.54 213.888 160.452 213.328C161.38 212.768 162.412 212.488 163.548 212.488C164.54 212.488 165.404 212.688 166.14 213.088C166.892 213.488 167.492 213.992 167.94 214.6V212.704H171.324V226H167.94V224.056C167.508 224.68 166.908 225.2 166.14 225.616C165.388 226.016 164.516 226.216 163.524 226.216C162.404 226.216 161.38 225.928 160.452 225.352C159.54 224.776 158.812 223.968 158.268 222.928C157.74 221.872 157.476 220.664 157.476 219.304ZM167.94 219.352C167.94 218.536 167.78 217.84 167.46 217.264C167.14 216.672 166.708 216.224 166.164 215.92C165.62 215.6 165.036 215.44 164.412 215.44C163.788 215.44 163.212 215.592 162.684 215.896C162.156 216.2 161.724 216.648 161.388 217.24C161.068 217.816 160.908 218.504 160.908 219.304C160.908 220.104 161.068 220.808 161.388 221.416C161.724 222.008 162.156 222.464 162.684 222.784C163.228 223.104 163.804 223.264 164.412 223.264C165.036 223.264 165.62 223.112 166.164 222.808C166.708 222.488 167.14 222.04 167.46 221.464C167.78 220.872 167.94 220.168 167.94 219.352Z" fill="black"/>
<g clip-path="url(#clip2_307_771)">
<circle cx="409.5" cy="86" r="75" fill="#D9D9D9"/>
<g clip-path="url(#clip3_307_771)">
<path d="M297.5 11H522.5V161H297.5V11Z" fill="white"/>
<path d="M297.5 11H522.5V61H297.5V11Z" fill="#FF6820"/>
<path d="M297.5 111H522.5V161H297.5V111Z" fill="#046A38"/>
<path d="M410 109.125C422.772 109.125 433.125 98.7716 433.125 86C433.125 73.2284 422.772 62.875 410 62.875C397.228 62.875 386.875 73.2284 386.875 86C386.875 98.7716 397.228 109.125 410 109.125Z" fill="#07038D"/>
<path d="M410 106C421.046 106 430 97.0457 430 86C430 74.9543 421.046 66 410 66C398.954 66 390 74.9543 390 86C390 97.0457 398.954 106 410 106Z" fill="white"/>
<path d="M410 90C412.209 90 414 88.2091 414 86C414 83.7909 412.209 82 410 82C407.791 82 406 83.7909 406 86C406 88.2091 407.791 90 410 90Z" fill="#07038D"/>
<path d="M410 66L410.75 78.0352L410 83.9941L409.25 78.0352L410 66Z" fill="#07038D"/>
<path d="M412.495 67.0387C412.974 67.1018 413.413 66.7645 413.476 66.2854C413.539 65.8063 413.202 65.3667 412.723 65.3037C412.244 65.2406 411.804 65.5779 411.741 66.057C411.678 66.5361 412.015 66.9756 412.495 67.0387Z" fill="#07038D"/>
<path d="M410 106L409.25 93.9648L410 88.0059L410.75 93.9648L410 106Z" fill="#07038D"/>
<path d="M407.505 104.961C407.026 104.898 406.587 105.235 406.524 105.715C406.461 106.194 406.798 106.633 407.277 106.696C407.756 106.759 408.196 106.422 408.259 105.943C408.322 105.464 407.985 105.024 407.505 104.961Z" fill="#07038D"/>
<path d="M415.178 66.6824L412.787 78.5016L410.52 84.0634L411.338 78.1134L415.178 66.6824Z" fill="#07038D"/>
<path d="M417.322 68.3315C417.769 68.5165 418.281 68.3044 418.466 67.858C418.65 67.4115 418.438 66.8997 417.992 66.7147C417.546 66.5298 417.034 66.7418 416.849 67.1883C416.664 67.6347 416.876 68.1466 417.322 68.3315Z" fill="#07038D"/>
<path d="M404.826 105.319L407.217 93.4993L409.484 87.9376L408.666 93.8876L404.826 105.319Z" fill="#07038D"/>
<path d="M402.682 103.669C402.235 103.485 401.723 103.697 401.538 104.143C401.353 104.589 401.565 105.101 402.012 105.286C402.458 105.471 402.97 105.259 403.155 104.813C403.34 104.366 403.128 103.854 402.682 103.669Z" fill="#07038D"/>
<path d="M420.001 68.6797L414.633 79.4775L411.004 84.2631L413.334 78.7275L420.001 68.6797Z" fill="#07038D"/>
<path d="M421.644 70.8273C422.028 71.1215 422.577 71.0492 422.871 70.6658C423.166 70.2824 423.093 69.7331 422.71 69.4389C422.326 69.1447 421.777 69.217 421.483 69.6004C421.189 69.9838 421.261 70.5331 421.644 70.8273Z" fill="#07038D"/>
<path d="M400.003 103.32L405.371 92.5225L409 87.7369L406.67 93.2725L400.003 103.32Z" fill="#07038D"/>
<path d="M398.359 101.173C397.976 100.879 397.427 100.951 397.133 101.334C396.838 101.718 396.911 102.267 397.294 102.561C397.677 102.855 398.227 102.783 398.521 102.4C398.815 102.016 398.743 101.467 398.359 101.173Z" fill="#07038D"/>
<path d="M424.14 71.8585L416.16 80.899L411.416 84.5822L415.099 79.8383L424.14 71.8585Z" fill="#07038D"/>
<path d="M425.172 74.3572C425.466 74.7406 426.015 74.8129 426.398 74.5187C426.782 74.2245 426.854 73.6752 426.56 73.2918C426.266 72.9085 425.717 72.8361 425.333 73.1303C424.95 73.4245 424.877 73.9738 425.172 74.3572Z" fill="#07038D"/>
<path d="M395.86 100.143L403.84 91.102L408.584 87.4188L404.901 92.1627L395.86 100.143Z" fill="#07038D"/>
<path d="M394.828 97.6438C394.534 97.2604 393.985 97.1881 393.602 97.4823C393.218 97.7765 393.146 98.3257 393.44 98.7091C393.734 99.0925 394.283 99.1648 394.667 98.8707C395.05 98.5765 395.123 98.0272 394.828 97.6438Z" fill="#07038D"/>
<path d="M427.324 76.0011L417.276 82.6682L411.741 84.9981L416.526 81.3692L427.324 76.0011Z" fill="#07038D"/>
<path d="M427.671 78.6822C427.856 79.1287 428.368 79.3407 428.814 79.1557C429.261 78.9708 429.473 78.459 429.288 78.0125C429.103 77.566 428.591 77.354 428.145 77.5389C427.698 77.7239 427.486 78.2357 427.671 78.6822Z" fill="#07038D"/>
<path d="M392.68 96.0009L402.727 89.3337L408.263 87.0038L403.477 90.6328L392.68 96.0009Z" fill="#07038D"/>
<path d="M392.333 93.3198C392.148 92.8733 391.636 92.6613 391.189 92.8462C390.743 93.0311 390.531 93.543 390.716 93.9895C390.901 94.4359 391.413 94.6479 391.859 94.463C392.306 94.2781 392.518 93.7662 392.333 93.3198Z" fill="#07038D"/>
<path d="M429.319 80.8241L417.888 84.6634L411.938 85.4813L417.5 83.2146L429.319 80.8241Z" fill="#07038D"/>
<path d="M428.961 83.5041C429.024 83.9833 429.464 84.3205 429.943 84.2574C430.422 84.1944 430.759 83.7548 430.696 83.2757C430.633 82.7966 430.194 82.4593 429.715 82.5224C429.235 82.5855 428.898 83.025 428.961 83.5041Z" fill="#07038D"/>
<path d="M390.681 91.1769L402.112 87.3375L408.062 86.5197L402.5 88.7864L390.681 91.1769Z" fill="#07038D"/>
<path d="M391.039 88.4968C390.976 88.0177 390.536 87.6805 390.057 87.7435C389.578 87.8066 389.241 88.2461 389.304 88.7253C389.367 89.2044 389.806 89.5416 390.285 89.4786C390.765 89.4155 391.102 88.976 391.039 88.4968Z" fill="#07038D"/>
<path d="M430 86L417.965 86.75L412.006 86L417.965 85.25L430 86Z" fill="#07038D"/>
<path d="M428.963 88.4965C428.9 88.9756 429.237 89.4152 429.717 89.4782C430.196 89.5413 430.635 89.2041 430.698 88.7249C430.761 88.2458 430.424 87.8063 429.945 87.7432C429.466 87.6801 429.026 88.0174 428.963 88.4965Z" fill="#07038D"/>
<path d="M390.004 86L402.039 85.25L407.998 86L402.039 86.75L390.004 86Z" fill="#07038D"/>
<path d="M391.041 83.5035C391.104 83.0244 390.766 82.5848 390.287 82.5218C389.808 82.4587 389.369 82.7959 389.306 83.2751C389.243 83.7542 389.58 84.1937 390.059 84.2568C390.538 84.3199 390.978 83.9826 391.041 83.5035Z" fill="#07038D"/>
<path d="M429.318 91.1766L417.498 88.7861L411.937 86.5194L417.887 87.3372L429.318 91.1766Z" fill="#07038D"/>
<path d="M427.669 93.3184C427.485 93.7648 427.697 94.2767 428.143 94.4616C428.589 94.6466 429.101 94.4345 429.286 93.9881C429.471 93.5416 429.259 93.0298 428.813 92.8448C428.366 92.6599 427.854 92.8719 427.669 93.3184Z" fill="#07038D"/>
<path d="M390.682 80.8234L402.502 83.2139L408.063 85.4806L402.113 84.6628L390.682 80.8234Z" fill="#07038D"/>
<path d="M392.331 78.6816C392.515 78.2352 392.303 77.7233 391.857 77.5384C391.411 77.3534 390.899 77.5655 390.714 78.0119C390.529 78.4584 390.741 78.9702 391.187 79.1552C391.634 79.3401 392.146 79.1281 392.331 78.6816Z" fill="#07038D"/>
<path d="M427.316 96.0001L416.519 90.632L411.733 87.003L417.269 89.333L427.316 96.0001Z" fill="#07038D"/>
<path d="M425.169 97.6425C424.875 98.0259 424.947 98.5752 425.33 98.8694C425.714 99.1636 426.263 99.0912 426.557 98.7079C426.851 98.3245 426.779 97.7752 426.396 97.481C426.012 97.1868 425.463 97.2591 425.169 97.6425Z" fill="#07038D"/>
<path d="M392.68 75.9999L403.477 81.368L408.263 84.997L402.727 82.667L392.68 75.9999Z" fill="#07038D"/>
<path d="M394.827 74.3575C395.121 73.9741 395.049 73.4248 394.666 73.1306C394.282 72.8364 393.733 72.9088 393.439 73.2921C393.145 73.6755 393.217 74.2248 393.6 74.519C393.984 74.8132 394.533 74.7409 394.827 74.3575Z" fill="#07038D"/>
<path d="M424.138 100.142L415.097 92.1618L411.414 87.4179L416.158 91.1011L424.138 100.142Z" fill="#07038D"/>
<path d="M421.639 101.172C421.256 101.466 421.183 102.015 421.477 102.398C421.772 102.782 422.321 102.854 422.704 102.56C423.088 102.266 423.16 101.717 422.866 101.333C422.572 100.95 422.022 100.877 421.639 101.172Z" fill="#07038D"/>
<path d="M395.858 71.8574L404.899 79.8372L408.582 84.5811L403.838 80.8979L395.858 71.8574Z" fill="#07038D"/>
<path d="M398.357 70.8274C398.741 70.5332 398.813 69.9839 398.519 69.6005C398.225 69.2171 397.675 69.1448 397.292 69.439C396.908 69.7332 396.836 70.2825 397.13 70.6659C397.425 71.0493 397.974 71.1216 398.357 70.8274Z" fill="#07038D"/>
<path d="M420.003 103.32L413.336 93.2725L411.006 87.7369L414.635 92.5225L420.003 103.32Z" fill="#07038D"/>
<path d="M417.323 103.669C416.876 103.854 416.664 104.366 416.849 104.812C417.034 105.259 417.546 105.471 417.992 105.286C418.439 105.101 418.651 104.589 418.466 104.143C418.281 103.696 417.769 103.484 417.323 103.669Z" fill="#07038D"/>
<path d="M400.001 68.6797L406.668 78.7275L408.998 84.2631L405.369 79.4775L400.001 68.6797Z" fill="#07038D"/>
<path d="M402.681 68.3308C403.128 68.1458 403.34 67.634 403.155 67.1875C402.97 66.7411 402.458 66.529 402.012 66.714C401.565 66.8989 401.353 67.4108 401.538 67.8572C401.723 68.3037 402.235 68.5157 402.681 68.3308Z" fill="#07038D"/>
<path d="M415.174 105.318L411.335 93.8871L410.517 87.9371L412.783 93.4989L415.174 105.318Z" fill="#07038D"/>
<path d="M412.494 104.961C412.015 105.024 411.678 105.464 411.741 105.943C411.804 106.422 412.243 106.759 412.722 106.696C413.201 106.633 413.539 106.194 413.476 105.715C413.413 105.235 412.973 104.898 412.494 104.961Z" fill="#07038D"/>
<path d="M404.822 66.6819L408.661 78.1129L409.479 84.0629L407.213 78.5011L404.822 66.6819Z" fill="#07038D"/>
<path d="M407.502 67.0388C407.981 66.9757 408.319 66.5362 408.255 66.0571C408.192 65.5779 407.753 65.2407 407.274 65.3038C406.795 65.3668 406.457 65.8064 406.52 66.2855C406.584 66.7646 407.023 67.1019 407.502 67.0388Z" fill="#07038D"/>
</g>
</g>
<path d="M388.244 209.248V211.96H383.78V226H380.42V211.96H375.956V209.248H388.244ZM389.831 219.304C389.831 217.96 390.095 216.768 390.623 215.728C391.167 214.688 391.895 213.888 392.807 213.328C393.735 212.768 394.767 212.488 395.903 212.488C396.895 212.488 397.759 212.688 398.495 213.088C399.247 213.488 399.847 213.992 400.295 214.6V212.704H403.679V226H400.295V224.056C399.863 224.68 399.263 225.2 398.495 225.616C397.743 226.016 396.871 226.216 395.879 226.216C394.759 226.216 393.735 225.928 392.807 225.352C391.895 224.776 391.167 223.968 390.623 222.928C390.095 221.872 389.831 220.664 389.831 219.304ZM400.295 219.352C400.295 218.536 400.135 217.84 399.815 217.264C399.495 216.672 399.063 216.224 398.519 215.92C397.975 215.6 397.391 215.44 396.767 215.44C396.143 215.44 395.567 215.592 395.039 215.896C394.511 216.2 394.079 216.648 393.743 217.24C393.423 217.816 393.263 218.504 393.263 219.304C393.263 220.104 393.423 220.808 393.743 221.416C394.079 222.008 394.511 222.464 395.039 222.784C395.583 223.104 396.159 223.264 396.767 223.264C397.391 223.264 397.975 223.112 398.519 222.808C399.063 222.488 399.495 222.04 399.815 221.464C400.135 220.872 400.295 220.168 400.295 219.352ZM423.473 212.512C425.105 212.512 426.417 213.016 427.409 214.024C428.417 215.016 428.921 216.408 428.921 218.2V226H425.561V218.656C425.561 217.616 425.297 216.824 424.769 216.28C424.241 215.72 423.521 215.44 422.609 215.44C421.697 215.44 420.969 215.72 420.425 216.28C419.897 216.824 419.633 217.616 419.633 218.656V226H416.273V218.656C416.273 217.616 416.009 216.824 415.481 216.28C414.953 215.72 414.233 215.44 413.321 215.44C412.393 215.44 411.657 215.72 411.113 216.28C410.585 216.824 410.321 217.616 410.321 218.656V226H406.961V212.704H410.321V214.312C410.753 213.752 411.305 213.312 411.977 212.992C412.665 212.672 413.417 212.512 414.233 212.512C415.273 212.512 416.201 212.736 417.017 213.184C417.833 213.616 418.465 214.24 418.913 215.056C419.345 214.288 419.969 213.672 420.785 213.208C421.617 212.744 422.513 212.512 423.473 212.512ZM433.813 211.12C433.221 211.12 432.725 210.936 432.325 210.568C431.941 210.184 431.749 209.712 431.749 209.152C431.749 208.592 431.941 208.128 432.325 207.76C432.725 207.376 433.221 207.184 433.813 207.184C434.405 207.184 434.893 207.376 435.277 207.76C435.677 208.128 435.877 208.592 435.877 209.152C435.877 209.712 435.677 210.184 435.277 210.568C434.893 210.936 434.405 211.12 433.813 211.12ZM435.469 212.704V226H432.109V212.704H435.469ZM442.149 208.24V226H438.789V208.24H442.149Z" fill="black"/>
<g clip-path="url(#clip4_307_771)">
<circle cx="690.5" cy="86" r="75" fill="#D9D9D9"/>
<g clip-path="url(#clip5_307_771)">
<path d="M840.5 11H615.5V161H840.5V11Z" fill="#A51931"/>
<path d="M840.5 36H615.5V136H840.5V36Z" fill="#F4F5F8"/>
<path d="M840.5 61H615.5V111H840.5V61Z" fill="#2D2A4A"/>
</g>
</g>
<path d="M677.224 209.248V211.96H672.76V226H669.4V211.96H664.936V209.248H677.224ZM687.164 212.512C688.172 212.512 689.068 212.736 689.852 213.184C690.636 213.616 691.244 214.264 691.676 215.128C692.124 215.976 692.348 217 692.348 218.2V226H688.988V218.656C688.988 217.6 688.724 216.792 688.196 216.232C687.668 215.656 686.948 215.368 686.036 215.368C685.108 215.368 684.372 215.656 683.828 216.232C683.3 216.792 683.036 217.6 683.036 218.656V226H679.676V208.24H683.036V214.36C683.468 213.784 684.044 213.336 684.764 213.016C685.484 212.68 686.284 212.512 687.164 212.512ZM694.679 219.304C694.679 217.96 694.943 216.768 695.471 215.728C696.015 214.688 696.743 213.888 697.655 213.328C698.583 212.768 699.615 212.488 700.751 212.488C701.743 212.488 702.607 212.688 703.343 213.088C704.095 213.488 704.695 213.992 705.143 214.6V212.704H708.527V226H705.143V224.056C704.711 224.68 704.111 225.2 703.343 225.616C702.591 226.016 701.719 226.216 700.727 226.216C699.607 226.216 698.583 225.928 697.655 225.352C696.743 224.776 696.015 223.968 695.471 222.928C694.943 221.872 694.679 220.664 694.679 219.304ZM705.143 219.352C705.143 218.536 704.983 217.84 704.663 217.264C704.343 216.672 703.911 216.224 703.367 215.92C702.823 215.6 702.239 215.44 701.615 215.44C700.991 215.44 700.415 215.592 699.887 215.896C699.359 216.2 698.927 216.648 698.591 217.24C698.271 217.816 698.111 218.504 698.111 219.304C698.111 220.104 698.271 220.808 698.591 221.416C698.927 222.008 699.359 222.464 699.887 222.784C700.431 223.104 701.007 223.264 701.615 223.264C702.239 223.264 702.823 223.112 703.367 222.808C703.911 222.488 704.343 222.04 704.663 221.464C704.983 220.872 705.143 220.168 705.143 219.352ZM713.512 211.12C712.92 211.12 712.424 210.936 712.024 210.568C711.64 210.184 711.448 209.712 711.448 209.152C711.448 208.592 711.64 208.128 712.024 207.76C712.424 207.376 712.92 207.184 713.512 207.184C714.104 207.184 714.592 207.376 714.976 207.76C715.376 208.128 715.576 208.592 715.576 209.152C715.576 209.712 715.376 210.184 714.976 210.568C714.592 210.936 714.104 211.12 713.512 211.12ZM715.168 212.704V226H711.808V212.704H715.168Z" fill="black"/>
<g clip-path="url(#clip6_307_771)">
<circle cx="971.5" cy="86" r="75" fill="#D9D9D9"/>
<g clip-path="url(#clip7_307_771)">
<path d="M876.5 11H1101.5V161H876.5V11Z" fill="#E30A17"/>
<path d="M980.876 86L1014.8 74.98L993.831 103.833V68.1675L1014.8 97.02L980.876 86ZM983.188 106.053C978.844 112.918 972.387 118.187 964.789 121.066C957.192 123.946 948.865 124.279 941.061 122.018C933.258 119.756 926.399 115.021 921.519 108.525C916.639 102.03 914 94.1248 914 86C914 77.8752 916.639 69.9702 921.519 63.4745C926.399 56.9789 933.258 52.2439 941.061 49.9822C948.865 47.7205 957.192 48.0545 964.789 50.9337C972.387 53.813 978.844 59.0819 983.188 65.9475C979.131 61.4329 973.8 58.2552 967.899 56.834C961.998 55.4128 955.805 55.815 950.137 57.9874C944.469 60.1599 939.594 64.0005 936.155 69.0019C932.716 74.0033 930.875 79.9303 930.875 86C930.875 92.0697 932.716 97.9967 936.155 102.998C939.594 108 944.469 111.84 950.137 114.013C955.805 116.185 961.998 116.587 967.899 115.166C973.8 113.745 979.131 110.567 983.188 106.053Z" fill="white"/>
</g>
</g>
<path d="M954.497 209.248V211.96H950.033V226H946.673V211.96H942.209V209.248H954.497ZM969.501 212.704V226H966.117V224.32C965.685 224.896 965.117 225.352 964.413 225.688C963.725 226.008 962.973 226.168 962.157 226.168C961.117 226.168 960.197 225.952 959.397 225.52C958.597 225.072 957.965 224.424 957.501 223.576C957.053 222.712 956.829 221.688 956.829 220.504V212.704H960.189V220.024C960.189 221.08 960.453 221.896 960.981 222.472C961.509 223.032 962.229 223.312 963.141 223.312C964.069 223.312 964.797 223.032 965.325 222.472C965.853 221.896 966.117 221.08 966.117 220.024V212.704H969.501ZM976.176 214.768C976.608 214.064 977.168 213.512 977.856 213.112C978.56 212.712 979.36 212.512 980.256 212.512V216.04H979.368C978.312 216.04 977.512 216.288 976.968 216.784C976.44 217.28 976.176 218.144 976.176 219.376V226H972.816V212.704H976.176V214.768ZM990.391 226L985.879 220.336V226H982.519V208.24H985.879V218.344L990.343 212.704H994.711L988.855 219.376L994.759 226H990.391ZM998.239 211.12C997.647 211.12 997.151 210.936 996.751 210.568C996.367 210.184 996.175 209.712 996.175 209.152C996.175 208.592 996.367 208.128 996.751 207.76C997.151 207.376 997.647 207.184 998.239 207.184C998.831 207.184 999.319 207.376 999.703 207.76C1000.1 208.128 1000.3 208.592 1000.3 209.152C1000.3 209.712 1000.1 210.184 999.703 210.568C999.319 210.936 998.831 211.12 998.239 211.12ZM999.895 212.704V226H996.535V212.704H999.895Z" fill="black"/>
<defs>
<clipPath id="clip0_307_771">
<rect x="53.5" y="11" width="150" height="150" rx="75" fill="white"/>
</clipPath>
<clipPath id="clip1_307_771">
<rect width="240" height="150" fill="white" transform="translate(20.5 11)"/>
</clipPath>
<clipPath id="clip2_307_771">
<rect x="334.5" y="11" width="150" height="150" rx="75" fill="white"/>
</clipPath>
<clipPath id="clip3_307_771">
<rect width="225" height="150" fill="white" transform="translate(297.5 11)"/>
</clipPath>
<clipPath id="clip4_307_771">
<rect x="615.5" y="11" width="150" height="150" rx="75" fill="white"/>
</clipPath>
<clipPath id="clip5_307_771">
<rect width="225" height="150" fill="white" transform="translate(615.5 11)"/>
</clipPath>
<clipPath id="clip6_307_771">
<rect x="896.5" y="11" width="150" height="150" rx="75" fill="white"/>
</clipPath>
<clipPath id="clip7_307_771">
<rect width="225" height="150" fill="white" transform="translate(876.5 11)"/>
</clipPath>
</defs>
</svg>
