<svg width="1100" height="240" viewBox="0 0 1100 240" fill="none" xmlns="http://www.w3.org/2000/svg">
<g clip-path="url(#clip0_307_619)">
<circle cx="128.5" cy="86" r="75" fill="#D9D9D9"/>
<g clip-path="url(#clip1_307_619)">
<path d="M15.5 11H240.5V161H15.5V11Z" fill="white"/>
<path d="M15.5 11H240.5V86H15.5V11Z" fill="#FF0000"/>
</g>
</g>
<path d="M73.1058 209.248V226H69.7458V209.248H73.1058ZM83.7935 212.512C85.3775 212.512 86.6575 213.016 87.6335 214.024C88.6095 215.016 89.0975 216.408 89.0975 218.2V226H85.7375V218.656C85.7375 217.6 85.4735 216.792 84.9455 216.232C84.4175 215.656 83.6975 215.368 82.7855 215.368C81.8575 215.368 81.1215 215.656 80.5775 216.232C80.0495 216.792 79.7855 217.6 79.7855 218.656V226H76.4255V212.704H79.7855V214.36C80.2335 213.784 80.8015 213.336 81.4895 213.016C82.1935 212.68 82.9615 212.512 83.7935 212.512ZM91.4287 219.304C91.4287 217.96 91.6927 216.768 92.2207 215.728C92.7647 214.688 93.5007 213.888 94.4287 213.328C95.3567 212.768 96.3887 212.488 97.5247 212.488C98.3887 212.488 99.2127 212.68 99.9967 213.064C100.781 213.432 101.405 213.928 101.869 214.552V208.24H105.277V226H101.869V224.032C101.453 224.688 100.869 225.216 100.117 225.616C99.3647 226.016 98.4927 226.216 97.5007 226.216C96.3807 226.216 95.3567 225.928 94.4287 225.352C93.5007 224.776 92.7647 223.968 92.2207 222.928C91.6927 221.872 91.4287 220.664 91.4287 219.304ZM101.893 219.352C101.893 218.536 101.733 217.84 101.413 217.264C101.093 216.672 100.661 216.224 100.117 215.92C99.5727 215.6 98.9887 215.44 98.3647 215.44C97.7407 215.44 97.1647 215.592 96.6367 215.896C96.1087 216.2 95.6767 216.648 95.3407 217.24C95.0207 217.816 94.8607 218.504 94.8607 219.304C94.8607 220.104 95.0207 220.808 95.3407 221.416C95.6767 222.008 96.1087 222.464 96.6367 222.784C97.1807 223.104 97.7567 223.264 98.3647 223.264C98.9887 223.264 99.5727 223.112 100.117 222.808C100.661 222.488 101.093 222.04 101.413 221.464C101.733 220.872 101.893 220.168 101.893 219.352ZM114.462 226.216C113.182 226.216 112.03 225.936 111.006 225.376C109.982 224.8 109.174 223.992 108.582 222.952C108.006 221.912 107.718 220.712 107.718 219.352C107.718 217.992 108.014 216.792 108.606 215.752C109.214 214.712 110.038 213.912 111.078 213.352C112.118 212.776 113.278 212.488 114.558 212.488C115.838 212.488 116.998 212.776 118.038 213.352C119.078 213.912 119.894 214.712 120.486 215.752C121.094 216.792 121.398 217.992 121.398 219.352C121.398 220.712 121.086 221.912 120.462 222.952C119.854 223.992 119.022 224.8 117.966 225.376C116.926 225.936 115.758 226.216 114.462 226.216ZM114.462 223.288C115.07 223.288 115.638 223.144 116.166 222.856C116.71 222.552 117.142 222.104 117.462 221.512C117.782 220.92 117.942 220.2 117.942 219.352C117.942 218.088 117.606 217.12 116.934 216.448C116.278 215.76 115.47 215.416 114.51 215.416C113.55 215.416 112.742 215.76 112.086 216.448C111.446 217.12 111.126 218.088 111.126 219.352C111.126 220.616 111.438 221.592 112.062 222.28C112.702 222.952 113.502 223.288 114.462 223.288ZM131.231 212.512C132.815 212.512 134.095 213.016 135.071 214.024C136.047 215.016 136.535 216.408 136.535 218.2V226H133.175V218.656C133.175 217.6 132.911 216.792 132.383 216.232C131.855 215.656 131.135 215.368 130.223 215.368C129.295 215.368 128.559 215.656 128.015 216.232C127.487 216.792 127.223 217.6 127.223 218.656V226H123.863V212.704H127.223V214.36C127.671 213.784 128.239 213.336 128.927 213.016C129.631 212.68 130.399 212.512 131.231 212.512ZM152.09 219.064C152.09 219.544 152.058 219.976 151.994 220.36H142.274C142.354 221.32 142.69 222.072 143.282 222.616C143.874 223.16 144.602 223.432 145.466 223.432C146.714 223.432 147.602 222.896 148.13 221.824H151.754C151.37 223.104 150.634 224.16 149.546 224.992C148.458 225.808 147.122 226.216 145.538 226.216C144.258 226.216 143.106 225.936 142.082 225.376C141.074 224.8 140.282 223.992 139.706 222.952C139.146 221.912 138.866 220.712 138.866 219.352C138.866 217.976 139.146 216.768 139.706 215.728C140.266 214.688 141.05 213.888 142.058 213.328C143.066 212.768 144.226 212.488 145.538 212.488C146.802 212.488 147.93 212.76 148.922 213.304C149.93 213.848 150.706 214.624 151.25 215.632C151.81 216.624 152.09 217.768 152.09 219.064ZM148.61 218.104C148.594 217.24 148.282 216.552 147.674 216.04C147.066 215.512 146.322 215.248 145.442 215.248C144.61 215.248 143.906 215.504 143.33 216.016C142.77 216.512 142.426 217.208 142.298 218.104H148.61ZM159.631 226.216C158.543 226.216 157.567 226.024 156.703 225.64C155.839 225.24 155.151 224.704 154.639 224.032C154.143 223.36 153.871 222.616 153.823 221.8H157.207C157.271 222.312 157.519 222.736 157.951 223.072C158.399 223.408 158.951 223.576 159.607 223.576C160.247 223.576 160.743 223.448 161.095 223.192C161.463 222.936 161.647 222.608 161.647 222.208C161.647 221.776 161.423 221.456 160.975 221.248C160.543 221.024 159.847 220.784 158.887 220.528C157.895 220.288 157.079 220.04 156.439 219.784C155.815 219.528 155.271 219.136 154.807 218.608C154.359 218.08 154.135 217.368 154.135 216.472C154.135 215.736 154.343 215.064 154.759 214.456C155.191 213.848 155.799 213.368 156.583 213.016C157.383 212.664 158.319 212.488 159.391 212.488C160.975 212.488 162.239 212.888 163.183 213.688C164.127 214.472 164.647 215.536 164.743 216.88H161.527C161.479 216.352 161.255 215.936 160.855 215.632C160.471 215.312 159.951 215.152 159.295 215.152C158.687 215.152 158.215 215.264 157.879 215.488C157.559 215.712 157.399 216.024 157.399 216.424C157.399 216.872 157.623 217.216 158.071 217.456C158.519 217.68 159.215 217.912 160.159 218.152C161.119 218.392 161.911 218.64 162.535 218.896C163.159 219.152 163.695 219.552 164.143 220.096C164.607 220.624 164.847 221.328 164.863 222.208C164.863 222.976 164.647 223.664 164.215 224.272C163.799 224.88 163.191 225.36 162.391 225.712C161.607 226.048 160.687 226.216 159.631 226.216ZM169.325 211.12C168.733 211.12 168.237 210.936 167.837 210.568C167.453 210.184 167.261 209.712 167.261 209.152C167.261 208.592 167.453 208.128 167.837 207.76C168.237 207.376 168.733 207.184 169.325 207.184C169.917 207.184 170.405 207.376 170.789 207.76C171.189 208.128 171.389 208.592 171.389 209.152C171.389 209.712 171.189 210.184 170.789 210.568C170.405 210.936 169.917 211.12 169.325 211.12ZM170.981 212.704V226H167.621V212.704H170.981ZM173.437 219.304C173.437 217.96 173.701 216.768 174.229 215.728C174.773 214.688 175.501 213.888 176.413 213.328C177.341 212.768 178.373 212.488 179.509 212.488C180.501 212.488 181.365 212.688 182.101 213.088C182.853 213.488 183.453 213.992 183.901 214.6V212.704H187.285V226H183.901V224.056C183.469 224.68 182.869 225.2 182.101 225.616C181.349 226.016 180.477 226.216 179.485 226.216C178.365 226.216 177.341 225.928 176.413 225.352C175.501 224.776 174.773 223.968 174.229 222.928C173.701 221.872 173.437 220.664 173.437 219.304ZM183.901 219.352C183.901 218.536 183.741 217.84 183.421 217.264C183.101 216.672 182.669 216.224 182.125 215.92C181.581 215.6 180.997 215.44 180.373 215.44C179.749 215.44 179.173 215.592 178.645 215.896C178.117 216.2 177.685 216.648 177.349 217.24C177.029 217.816 176.869 218.504 176.869 219.304C176.869 220.104 177.029 220.808 177.349 221.416C177.685 222.008 178.117 222.464 178.645 222.784C179.189 223.104 179.765 223.264 180.373 223.264C180.997 223.264 181.581 223.112 182.125 222.808C182.669 222.488 183.101 222.04 183.421 221.464C183.741 220.872 183.901 220.168 183.901 219.352Z" fill="black"/>
<g clip-path="url(#clip2_307_619)">
<circle cx="409.5" cy="86" r="75" fill="#D9D9D9"/>
<g clip-path="url(#clip3_307_619)">
<path d="M296.5 11H581.5V161H296.5" fill="#BF0A30"/>
<path d="M296.5 28.3076H581.5H296.5ZM581.5 51.3845H296.5H581.5ZM296.5 74.4615H581.5H296.5ZM581.5 97.5384H296.5H581.5ZM296.5 120.615H581.5H296.5ZM581.5 143.692H296.5H581.5Z" fill="black"/>
<path d="M296.5 28.3076H581.5M581.5 51.3845H296.5M296.5 74.4615H581.5M581.5 97.5384H296.5M296.5 120.615H581.5M581.5 143.692H296.5" stroke="white" stroke-width="10"/>
<path d="M296.5 11H410.5V91.7692H296.5" fill="#00205B"/>
<path d="M334.499 22.5391L337.212 30.8884L330.109 25.7282H338.888L331.786 30.8884L334.499 22.5391Z" fill="white"/>
<path d="M334.499 38.6934L337.212 47.0427L330.109 41.8825H338.888L331.786 47.0427L334.499 38.6934Z" fill="white"/>
<path d="M334.499 54.8467L337.212 63.196L330.109 58.0358H338.888L331.786 63.196L334.499 54.8467Z" fill="white"/>
<path d="M334.499 71.001L337.212 79.3503L330.109 74.1901H338.888L331.786 79.3503L334.499 71.001Z" fill="white"/>
<path d="M343.999 14.4619L346.712 22.8112L339.609 17.6511H348.388L341.286 22.8112L343.999 14.4619Z" fill="white"/>
<path d="M343.999 30.6162L346.712 38.9655L339.609 33.8054H348.388L341.286 38.9655L343.999 30.6162Z" fill="white"/>
<path d="M343.999 46.7695L346.712 55.1188L339.609 49.9587H348.388L341.286 55.1188L343.999 46.7695Z" fill="white"/>
<path d="M343.999 62.9238L346.712 71.2731L339.609 66.113H348.388L341.286 71.2731L343.999 62.9238Z" fill="white"/>
<path d="M343.999 79.0771L346.712 87.4265L339.609 82.2663H348.388L341.286 87.4265L343.999 79.0771Z" fill="white"/>
<path d="M353.499 22.5391L356.212 30.8884L349.109 25.7282H357.888L350.786 30.8884L353.499 22.5391Z" fill="white"/>
<path d="M353.499 38.6934L356.212 47.0427L349.109 41.8825H357.888L350.786 47.0427L353.499 38.6934Z" fill="white"/>
<path d="M353.499 54.8467L356.212 63.196L349.109 58.0358H357.888L350.786 63.196L353.499 54.8467Z" fill="white"/>
<path d="M353.499 71.001L356.212 79.3503L349.109 74.1901H357.888L350.786 79.3503L353.499 71.001Z" fill="white"/>
<path d="M362.999 14.4619L365.712 22.8112L358.609 17.6511H367.388L360.286 22.8112L362.999 14.4619Z" fill="white"/>
<path d="M362.999 30.6162L365.712 38.9655L358.609 33.8054H367.388L360.286 38.9655L362.999 30.6162Z" fill="white"/>
<path d="M362.999 46.7695L365.712 55.1188L358.609 49.9587H367.388L360.286 55.1188L362.999 46.7695Z" fill="white"/>
<path d="M362.999 62.9238L365.712 71.2731L358.609 66.113H367.388L360.286 71.2731L362.999 62.9238Z" fill="white"/>
<path d="M362.999 79.0771L365.712 87.4265L358.609 82.2663H367.388L360.286 87.4265L362.999 79.0771Z" fill="white"/>
<path d="M372.499 22.5391L375.212 30.8884L368.109 25.7282H376.888L369.786 30.8884L372.499 22.5391Z" fill="white"/>
<path d="M372.499 38.6934L375.212 47.0427L368.109 41.8825H376.888L369.786 47.0427L372.499 38.6934Z" fill="white"/>
<path d="M372.499 54.8467L375.212 63.196L368.109 58.0358H376.888L369.786 63.196L372.499 54.8467Z" fill="white"/>
<path d="M372.499 71.001L375.212 79.3503L368.109 74.1901H376.888L369.786 79.3503L372.499 71.001Z" fill="white"/>
<path d="M381.999 14.4619L384.712 22.8112L377.609 17.6511H386.388L379.286 22.8112L381.999 14.4619Z" fill="white"/>
<path d="M381.999 30.6162L384.712 38.9655L377.609 33.8054H386.388L379.286 38.9655L381.999 30.6162Z" fill="white"/>
<path d="M381.999 46.7695L384.712 55.1188L377.609 49.9587H386.388L379.286 55.1188L381.999 46.7695Z" fill="white"/>
<path d="M381.999 62.9238L384.712 71.2731L377.609 66.113H386.388L379.286 71.2731L381.999 62.9238Z" fill="white"/>
<path d="M381.999 79.0771L384.712 87.4265L377.609 82.2663H386.388L379.286 87.4265L381.999 79.0771Z" fill="white"/>
<path d="M391.499 22.5391L394.212 30.8884L387.109 25.7282H395.888L388.786 30.8884L391.499 22.5391Z" fill="white"/>
<path d="M391.499 38.6934L394.212 47.0427L387.109 41.8825H395.888L388.786 47.0427L391.499 38.6934Z" fill="white"/>
<path d="M391.499 54.8467L394.212 63.196L387.109 58.0358H395.888L388.786 63.196L391.499 54.8467Z" fill="white"/>
<path d="M391.499 71.001L394.212 79.3503L387.109 74.1901H395.888L388.786 79.3503L391.499 71.001Z" fill="white"/>
<path d="M400.999 14.4619L403.712 22.8112L396.609 17.6511H405.388L398.286 22.8112L400.999 14.4619Z" fill="white"/>
<path d="M400.999 30.6162L403.712 38.9655L396.609 33.8054H405.388L398.286 38.9655L400.999 30.6162Z" fill="white"/>
<path d="M400.999 46.7695L403.712 55.1188L396.609 49.9587H405.388L398.286 55.1188L400.999 46.7695Z" fill="white"/>
<path d="M400.999 62.9238L403.712 71.2731L396.609 66.113H405.388L398.286 71.2731L400.999 62.9238Z" fill="white"/>
<path d="M400.999 79.0771L403.712 87.4265L396.609 82.2663H405.388L398.286 87.4265L400.999 79.0771Z" fill="white"/>
</g>
</g>
<path d="M372.246 209.248V226H368.886V209.248H372.246ZM382.934 212.512C384.518 212.512 385.798 213.016 386.774 214.024C387.75 215.016 388.238 216.408 388.238 218.2V226H384.878V218.656C384.878 217.6 384.614 216.792 384.086 216.232C383.558 215.656 382.838 215.368 381.926 215.368C380.998 215.368 380.262 215.656 379.718 216.232C379.19 216.792 378.926 217.6 378.926 218.656V226H375.566V212.704H378.926V214.36C379.374 213.784 379.942 213.336 380.63 213.016C381.334 212.68 382.102 212.512 382.934 212.512ZM396.641 212.488C397.633 212.488 398.505 212.688 399.257 213.088C400.009 213.472 400.601 213.976 401.033 214.6V212.704H404.417V226.096C404.417 227.328 404.169 228.424 403.673 229.384C403.177 230.36 402.433 231.128 401.441 231.688C400.449 232.264 399.249 232.552 397.841 232.552C395.953 232.552 394.401 232.112 393.185 231.232C391.985 230.352 391.305 229.152 391.145 227.632H394.481C394.657 228.24 395.033 228.72 395.609 229.072C396.201 229.44 396.913 229.624 397.745 229.624C398.721 229.624 399.513 229.328 400.121 228.736C400.729 228.16 401.033 227.28 401.033 226.096V224.032C400.601 224.656 400.001 225.176 399.233 225.592C398.481 226.008 397.617 226.216 396.641 226.216C395.521 226.216 394.497 225.928 393.569 225.352C392.641 224.776 391.905 223.968 391.361 222.928C390.833 221.872 390.569 220.664 390.569 219.304C390.569 217.96 390.833 216.768 391.361 215.728C391.905 214.688 392.633 213.888 393.545 213.328C394.473 212.768 395.505 212.488 396.641 212.488ZM401.033 219.352C401.033 218.536 400.873 217.84 400.553 217.264C400.233 216.672 399.801 216.224 399.257 215.92C398.713 215.6 398.129 215.44 397.505 215.44C396.881 215.44 396.305 215.592 395.777 215.896C395.249 216.2 394.817 216.648 394.481 217.24C394.161 217.816 394.001 218.504 394.001 219.304C394.001 220.104 394.161 220.808 394.481 221.416C394.817 222.008 395.249 222.464 395.777 222.784C396.321 223.104 396.897 223.264 397.505 223.264C398.129 223.264 398.713 223.112 399.257 222.808C399.801 222.488 400.233 222.04 400.553 221.464C400.873 220.872 401.033 220.168 401.033 219.352ZM412.907 212.488C413.899 212.488 414.771 212.688 415.523 213.088C416.275 213.472 416.867 213.976 417.299 214.6V212.704H420.683V226.096C420.683 227.328 420.435 228.424 419.939 229.384C419.443 230.36 418.699 231.128 417.707 231.688C416.715 232.264 415.515 232.552 414.107 232.552C412.219 232.552 410.667 232.112 409.451 231.232C408.251 230.352 407.571 229.152 407.411 227.632H410.747C410.923 228.24 411.299 228.72 411.875 229.072C412.467 229.44 413.179 229.624 414.011 229.624C414.987 229.624 415.779 229.328 416.387 228.736C416.995 228.16 417.299 227.28 417.299 226.096V224.032C416.867 224.656 416.267 225.176 415.499 225.592C414.747 226.008 413.883 226.216 412.907 226.216C411.787 226.216 410.763 225.928 409.835 225.352C408.907 224.776 408.171 223.968 407.627 222.928C407.099 221.872 406.835 220.664 406.835 219.304C406.835 217.96 407.099 216.768 407.627 215.728C408.171 214.688 408.899 213.888 409.811 213.328C410.739 212.768 411.771 212.488 412.907 212.488ZM417.299 219.352C417.299 218.536 417.139 217.84 416.819 217.264C416.499 216.672 416.067 216.224 415.523 215.92C414.979 215.6 414.395 215.44 413.771 215.44C413.147 215.44 412.571 215.592 412.043 215.896C411.515 216.2 411.083 216.648 410.747 217.24C410.427 217.816 410.267 218.504 410.267 219.304C410.267 220.104 410.427 220.808 410.747 221.416C411.083 222.008 411.515 222.464 412.043 222.784C412.587 223.104 413.163 223.264 413.771 223.264C414.395 223.264 414.979 223.112 415.523 222.808C416.067 222.488 416.499 222.04 416.819 221.464C417.139 220.872 417.299 220.168 417.299 219.352ZM427.325 214.768C427.757 214.064 428.317 213.512 429.005 213.112C429.709 212.712 430.509 212.512 431.405 212.512V216.04H430.517C429.461 216.04 428.661 216.288 428.117 216.784C427.589 217.28 427.325 218.144 427.325 219.376V226H423.965V212.704H427.325V214.768ZM435.372 211.12C434.78 211.12 434.284 210.936 433.884 210.568C433.5 210.184 433.308 209.712 433.308 209.152C433.308 208.592 433.5 208.128 433.884 207.76C434.284 207.376 434.78 207.184 435.372 207.184C435.964 207.184 436.452 207.376 436.836 207.76C437.236 208.128 437.436 208.592 437.436 209.152C437.436 209.712 437.236 210.184 436.836 210.568C436.452 210.936 435.964 211.12 435.372 211.12ZM437.028 212.704V226H433.668V212.704H437.028ZM445.435 226.216C444.347 226.216 443.371 226.024 442.507 225.64C441.643 225.24 440.955 224.704 440.443 224.032C439.947 223.36 439.675 222.616 439.627 221.8H443.011C443.075 222.312 443.323 222.736 443.755 223.072C444.203 223.408 444.755 223.576 445.411 223.576C446.051 223.576 446.547 223.448 446.899 223.192C447.267 222.936 447.451 222.608 447.451 222.208C447.451 221.776 447.227 221.456 446.779 221.248C446.347 221.024 445.651 220.784 444.691 220.528C443.699 220.288 442.883 220.04 442.243 219.784C441.619 219.528 441.075 219.136 440.611 218.608C440.163 218.08 439.939 217.368 439.939 216.472C439.939 215.736 440.147 215.064 440.563 214.456C440.995 213.848 441.603 213.368 442.387 213.016C443.187 212.664 444.123 212.488 445.195 212.488C446.779 212.488 448.043 212.888 448.987 213.688C449.931 214.472 450.451 215.536 450.547 216.88H447.331C447.283 216.352 447.059 215.936 446.659 215.632C446.275 215.312 445.755 215.152 445.099 215.152C444.491 215.152 444.019 215.264 443.683 215.488C443.363 215.712 443.203 216.024 443.203 216.424C443.203 216.872 443.427 217.216 443.875 217.456C444.323 217.68 445.019 217.912 445.963 218.152C446.923 218.392 447.715 218.64 448.339 218.896C448.963 219.152 449.499 219.552 449.947 220.096C450.411 220.624 450.651 221.328 450.667 222.208C450.667 222.976 450.451 223.664 450.019 224.272C449.603 224.88 448.995 225.36 448.195 225.712C447.411 226.048 446.491 226.216 445.435 226.216Z" fill="black"/>
<g clip-path="url(#clip4_307_619)">
<circle cx="690.5" cy="86" r="75" fill="#D9D9D9"/>
<g clip-path="url(#clip5_307_619)">
<path d="M565.5 11V161H815.5V11H565.5Z" fill="#012169"/>
<path d="M565.5 11L815.5 161L565.5 11ZM815.5 11L565.5 161L815.5 11Z" fill="black"/>
<path d="M565.5 11L815.5 161M815.5 11L565.5 161" stroke="white" stroke-width="20"/>
<mask id="mask0_307_619" style="mask-type:luminance" maskUnits="userSpaceOnUse" x="565" y="11" width="251" height="150">
<path d="M690.5 86H815.5V161L690.5 86ZM690.5 86V161H565.5L690.5 86ZM690.5 86H565.5V11L690.5 86ZM690.5 86V11H815.5L690.5 86Z" fill="white"/>
</mask>
<g mask="url(#mask0_307_619)">
<path d="M565.5 11L815.5 161L565.5 11ZM815.5 11L565.5 161L815.5 11Z" fill="black"/>
<path d="M565.5 11L815.5 161M815.5 11L565.5 161" stroke="#C8102E" stroke-width="15"/>
</g>
<path d="M560.5 66H670.5V6H710.5V66H820.5V106H710.5V166H670.5V106H560.5V66Z" fill="#C8102E" stroke="white" stroke-width="10"/>
</g>
</g>
<path d="M590.645 209.248V226H587.285V209.248H590.645ZM601.333 212.512C602.917 212.512 604.197 213.016 605.173 214.024C606.149 215.016 606.637 216.408 606.637 218.2V226H603.277V218.656C603.277 217.6 603.013 216.792 602.485 216.232C601.957 215.656 601.237 215.368 600.325 215.368C599.397 215.368 598.661 215.656 598.117 216.232C597.589 216.792 597.325 217.6 597.325 218.656V226H593.965V212.704H597.325V214.36C597.773 213.784 598.341 213.336 599.029 213.016C599.733 212.68 600.501 212.512 601.333 212.512ZM615.04 212.488C616.032 212.488 616.904 212.688 617.656 213.088C618.408 213.472 619 213.976 619.432 214.6V212.704H622.816V226.096C622.816 227.328 622.568 228.424 622.072 229.384C621.576 230.36 620.832 231.128 619.84 231.688C618.848 232.264 617.648 232.552 616.24 232.552C614.352 232.552 612.8 232.112 611.584 231.232C610.384 230.352 609.704 229.152 609.544 227.632H612.88C613.056 228.24 613.432 228.72 614.008 229.072C614.6 229.44 615.312 229.624 616.144 229.624C617.12 229.624 617.912 229.328 618.52 228.736C619.128 228.16 619.432 227.28 619.432 226.096V224.032C619 224.656 618.4 225.176 617.632 225.592C616.88 226.008 616.016 226.216 615.04 226.216C613.92 226.216 612.896 225.928 611.968 225.352C611.04 224.776 610.304 223.968 609.76 222.928C609.232 221.872 608.968 220.664 608.968 219.304C608.968 217.96 609.232 216.768 609.76 215.728C610.304 214.688 611.032 213.888 611.944 213.328C612.872 212.768 613.904 212.488 615.04 212.488ZM619.432 219.352C619.432 218.536 619.272 217.84 618.952 217.264C618.632 216.672 618.2 216.224 617.656 215.92C617.112 215.6 616.528 215.44 615.904 215.44C615.28 215.44 614.704 215.592 614.176 215.896C613.648 216.2 613.216 216.648 612.88 217.24C612.56 217.816 612.4 218.504 612.4 219.304C612.4 220.104 612.56 220.808 612.88 221.416C613.216 222.008 613.648 222.464 614.176 222.784C614.72 223.104 615.296 223.264 615.904 223.264C616.528 223.264 617.112 223.112 617.656 222.808C618.2 222.488 618.632 222.04 618.952 221.464C619.272 220.872 619.432 220.168 619.432 219.352ZM631.305 212.488C632.297 212.488 633.169 212.688 633.921 213.088C634.673 213.472 635.265 213.976 635.697 214.6V212.704H639.081V226.096C639.081 227.328 638.833 228.424 638.337 229.384C637.841 230.36 637.097 231.128 636.105 231.688C635.113 232.264 633.913 232.552 632.505 232.552C630.617 232.552 629.065 232.112 627.849 231.232C626.649 230.352 625.969 229.152 625.809 227.632H629.145C629.321 228.24 629.697 228.72 630.273 229.072C630.865 229.44 631.577 229.624 632.409 229.624C633.385 229.624 634.177 229.328 634.785 228.736C635.393 228.16 635.697 227.28 635.697 226.096V224.032C635.265 224.656 634.665 225.176 633.897 225.592C633.145 226.008 632.281 226.216 631.305 226.216C630.185 226.216 629.161 225.928 628.233 225.352C627.305 224.776 626.569 223.968 626.025 222.928C625.497 221.872 625.233 220.664 625.233 219.304C625.233 217.96 625.497 216.768 626.025 215.728C626.569 214.688 627.297 213.888 628.209 213.328C629.137 212.768 630.169 212.488 631.305 212.488ZM635.697 219.352C635.697 218.536 635.537 217.84 635.217 217.264C634.897 216.672 634.465 216.224 633.921 215.92C633.377 215.6 632.793 215.44 632.169 215.44C631.545 215.44 630.969 215.592 630.441 215.896C629.913 216.2 629.481 216.648 629.145 217.24C628.825 217.816 628.665 218.504 628.665 219.304C628.665 220.104 628.825 220.808 629.145 221.416C629.481 222.008 629.913 222.464 630.441 222.784C630.985 223.104 631.561 223.264 632.169 223.264C632.793 223.264 633.377 223.112 633.921 222.808C634.465 222.488 634.897 222.04 635.217 221.464C635.537 220.872 635.697 220.168 635.697 219.352ZM645.723 214.768C646.155 214.064 646.715 213.512 647.403 213.112C648.107 212.712 648.907 212.512 649.803 212.512V216.04H648.915C647.859 216.04 647.059 216.288 646.515 216.784C645.987 217.28 645.723 218.144 645.723 219.376V226H642.363V212.704H645.723V214.768ZM653.77 211.12C653.178 211.12 652.682 210.936 652.282 210.568C651.898 210.184 651.706 209.712 651.706 209.152C651.706 208.592 651.898 208.128 652.282 207.76C652.682 207.376 653.178 207.184 653.77 207.184C654.362 207.184 654.85 207.376 655.234 207.76C655.634 208.128 655.834 208.592 655.834 209.152C655.834 209.712 655.634 210.184 655.234 210.568C654.85 210.936 654.362 211.12 653.77 211.12ZM655.426 212.704V226H652.066V212.704H655.426ZM663.834 226.216C662.746 226.216 661.77 226.024 660.906 225.64C660.042 225.24 659.354 224.704 658.842 224.032C658.346 223.36 658.074 222.616 658.026 221.8H661.41C661.474 222.312 661.722 222.736 662.154 223.072C662.602 223.408 663.154 223.576 663.81 223.576C664.45 223.576 664.946 223.448 665.298 223.192C665.666 222.936 665.85 222.608 665.85 222.208C665.85 221.776 665.626 221.456 665.178 221.248C664.746 221.024 664.05 220.784 663.09 220.528C662.098 220.288 661.282 220.04 660.642 219.784C660.018 219.528 659.474 219.136 659.01 218.608C658.562 218.08 658.338 217.368 658.338 216.472C658.338 215.736 658.546 215.064 658.962 214.456C659.394 213.848 660.002 213.368 660.786 213.016C661.586 212.664 662.522 212.488 663.594 212.488C665.178 212.488 666.442 212.888 667.386 213.688C668.33 214.472 668.85 215.536 668.946 216.88H665.73C665.682 216.352 665.458 215.936 665.058 215.632C664.674 215.312 664.154 215.152 663.498 215.152C662.89 215.152 662.418 215.264 662.082 215.488C661.762 215.712 661.602 216.024 661.602 216.424C661.602 216.872 661.826 217.216 662.274 217.456C662.722 217.68 663.418 217.912 664.362 218.152C665.322 218.392 666.114 218.64 666.738 218.896C667.362 219.152 667.898 219.552 668.346 220.096C668.81 220.624 669.05 221.328 669.066 222.208C669.066 222.976 668.85 223.664 668.418 224.272C668.002 224.88 667.394 225.36 666.594 225.712C665.81 226.048 664.89 226.216 663.834 226.216ZM683.351 230.728C681.799 229.224 680.591 227.304 679.727 224.968C678.879 222.632 678.455 220.128 678.455 217.456C678.455 214.72 678.903 212.152 679.799 209.752C680.695 207.336 681.999 205.36 683.711 203.824H687.095V204.136C685.335 205.816 683.991 207.832 683.063 210.184C682.151 212.536 681.695 214.96 681.695 217.456C681.695 219.888 682.127 222.24 682.991 224.512C683.871 226.768 685.119 228.728 686.735 230.392V230.728H683.351ZM698.695 217.408C699.639 217.584 700.415 218.056 701.023 218.824C701.631 219.592 701.935 220.472 701.935 221.464C701.935 222.36 701.711 223.152 701.263 223.84C700.831 224.512 700.199 225.04 699.367 225.424C698.535 225.808 697.551 226 696.415 226H689.191V209.248H696.103C697.239 209.248 698.215 209.432 699.031 209.8C699.863 210.168 700.487 210.68 700.903 211.336C701.335 211.992 701.551 212.736 701.551 213.568C701.551 214.544 701.287 215.36 700.759 216.016C700.247 216.672 699.559 217.136 698.695 217.408ZM692.551 216.16H695.623C696.423 216.16 697.039 215.984 697.471 215.632C697.903 215.264 698.119 214.744 698.119 214.072C698.119 213.4 697.903 212.88 697.471 212.512C697.039 212.144 696.423 211.96 695.623 211.96H692.551V216.16ZM695.935 223.264C696.751 223.264 697.383 223.072 697.831 222.688C698.295 222.304 698.527 221.76 698.527 221.056C698.527 220.336 698.287 219.776 697.807 219.376C697.327 218.96 696.679 218.752 695.863 218.752H692.551V223.264H695.935ZM707.973 214.768C708.405 214.064 708.965 213.512 709.653 213.112C710.357 212.712 711.157 212.512 712.053 212.512V216.04H711.165C710.109 216.04 709.309 216.288 708.765 216.784C708.237 217.28 707.973 218.144 707.973 219.376V226H704.613V212.704H707.973V214.768ZM716.02 211.12C715.428 211.12 714.932 210.936 714.532 210.568C714.148 210.184 713.956 209.712 713.956 209.152C713.956 208.592 714.148 208.128 714.532 207.76C714.932 207.376 715.428 207.184 716.02 207.184C716.612 207.184 717.1 207.376 717.484 207.76C717.884 208.128 718.084 208.592 718.084 209.152C718.084 209.712 717.884 210.184 717.484 210.568C717.1 210.936 716.612 211.12 716.02 211.12ZM717.676 212.704V226H714.316V212.704H717.676ZM724.908 215.464V221.896C724.908 222.344 725.012 222.672 725.22 222.88C725.444 223.072 725.812 223.168 726.324 223.168H727.884V226H725.772C722.94 226 721.524 224.624 721.524 221.872V215.464H719.94V212.704H721.524V209.416H724.908V212.704H727.884V215.464H724.908ZM729.437 219.304C729.437 217.96 729.701 216.768 730.229 215.728C730.773 214.688 731.501 213.888 732.413 213.328C733.341 212.768 734.373 212.488 735.509 212.488C736.501 212.488 737.365 212.688 738.101 213.088C738.853 213.488 739.453 213.992 739.901 214.6V212.704H743.285V226H739.901V224.056C739.469 224.68 738.869 225.2 738.101 225.616C737.349 226.016 736.477 226.216 735.485 226.216C734.365 226.216 733.341 225.928 732.413 225.352C731.501 224.776 730.773 223.968 730.229 222.928C729.701 221.872 729.437 220.664 729.437 219.304ZM739.901 219.352C739.901 218.536 739.741 217.84 739.421 217.264C739.101 216.672 738.669 216.224 738.125 215.92C737.581 215.6 736.997 215.44 736.373 215.44C735.749 215.44 735.173 215.592 734.645 215.896C734.117 216.2 733.685 216.648 733.349 217.24C733.029 217.816 732.869 218.504 732.869 219.304C732.869 220.104 733.029 220.808 733.349 221.416C733.685 222.008 734.117 222.464 734.645 222.784C735.189 223.104 735.765 223.264 736.373 223.264C736.997 223.264 737.581 223.112 738.125 222.808C738.669 222.488 739.101 222.04 739.421 221.464C739.741 220.872 739.901 220.168 739.901 219.352ZM753.934 212.512C755.518 212.512 756.798 213.016 757.774 214.024C758.75 215.016 759.238 216.408 759.238 218.2V226H755.878V218.656C755.878 217.6 755.614 216.792 755.086 216.232C754.558 215.656 753.838 215.368 752.926 215.368C751.998 215.368 751.262 215.656 750.718 216.232C750.19 216.792 749.926 217.6 749.926 218.656V226H746.566V212.704H749.926V214.36C750.374 213.784 750.942 213.336 751.63 213.016C752.334 212.68 753.102 212.512 753.934 212.512ZM764.137 211.12C763.545 211.12 763.049 210.936 762.649 210.568C762.265 210.184 762.073 209.712 762.073 209.152C762.073 208.592 762.265 208.128 762.649 207.76C763.049 207.376 763.545 207.184 764.137 207.184C764.729 207.184 765.217 207.376 765.601 207.76C766.001 208.128 766.201 208.592 766.201 209.152C766.201 209.712 766.001 210.184 765.601 210.568C765.217 210.936 764.729 211.12 764.137 211.12ZM765.793 212.704V226H762.433V212.704H765.793ZM768.249 219.304C768.249 217.96 768.513 216.768 769.041 215.728C769.585 214.688 770.313 213.888 771.225 213.328C772.153 212.768 773.185 212.488 774.321 212.488C775.313 212.488 776.177 212.688 776.913 213.088C777.665 213.488 778.265 213.992 778.713 214.6V212.704H782.097V226H778.713V224.056C778.281 224.68 777.681 225.2 776.913 225.616C776.161 226.016 775.289 226.216 774.297 226.216C773.177 226.216 772.153 225.928 771.225 225.352C770.313 224.776 769.585 223.968 769.041 222.928C768.513 221.872 768.249 220.664 768.249 219.304ZM778.713 219.352C778.713 218.536 778.553 217.84 778.233 217.264C777.913 216.672 777.481 216.224 776.937 215.92C776.393 215.6 775.809 215.44 775.185 215.44C774.561 215.44 773.985 215.592 773.457 215.896C772.929 216.2 772.497 216.648 772.161 217.24C771.841 217.816 771.681 218.504 771.681 219.304C771.681 220.104 771.841 220.808 772.161 221.416C772.497 222.008 772.929 222.464 773.457 222.784C774.001 223.104 774.577 223.264 775.185 223.264C775.809 223.264 776.393 223.112 776.937 222.808C777.481 222.488 777.913 222.04 778.233 221.464C778.553 220.872 778.713 220.168 778.713 219.352ZM784.515 230.728V230.392C786.131 228.728 787.371 226.768 788.235 224.512C789.115 222.24 789.555 219.888 789.555 217.456C789.555 214.96 789.091 212.536 788.163 210.184C787.251 207.832 785.915 205.816 784.155 204.136V203.824H787.539C789.251 205.36 790.555 207.336 791.451 209.752C792.347 212.152 792.795 214.72 792.795 217.456C792.795 220.128 792.363 222.632 791.499 224.968C790.651 227.304 789.451 229.224 787.899 230.728H784.515Z" fill="black"/>
<g clip-path="url(#clip6_307_619)">
<circle cx="971.5" cy="86" r="75" fill="#D9D9D9"/>
<g clip-path="url(#clip7_307_619)">
<path d="M867.5 11H1075.5V161H867.5V11Z" fill="#02529C"/>
<path d="M867.5 86H1075.5H867.5ZM942.38 11V161V11Z" fill="black"/>
<path d="M867.5 86H1075.5M942.38 11V161" stroke="white" stroke-width="30"/>
<path d="M867.5 86H1075.5H867.5ZM942.38 11V161V11Z" fill="black"/>
<path d="M867.5 86H1075.5M942.38 11V161" stroke="#DC1E35" stroke-width="20"/>
</g>
</g>
<path d="M927.625 209.248V226H924.265V209.248H927.625ZM936.033 226.216C934.945 226.216 933.969 226.024 933.105 225.64C932.241 225.24 931.553 224.704 931.041 224.032C930.545 223.36 930.273 222.616 930.225 221.8H933.609C933.673 222.312 933.921 222.736 934.353 223.072C934.801 223.408 935.353 223.576 936.009 223.576C936.649 223.576 937.145 223.448 937.497 223.192C937.865 222.936 938.049 222.608 938.049 222.208C938.049 221.776 937.825 221.456 937.377 221.248C936.945 221.024 936.249 220.784 935.289 220.528C934.297 220.288 933.481 220.04 932.841 219.784C932.217 219.528 931.673 219.136 931.209 218.608C930.761 218.08 930.537 217.368 930.537 216.472C930.537 215.736 930.745 215.064 931.161 214.456C931.593 213.848 932.201 213.368 932.985 213.016C933.785 212.664 934.721 212.488 935.793 212.488C937.377 212.488 938.641 212.888 939.585 213.688C940.529 214.472 941.049 215.536 941.145 216.88H937.929C937.881 216.352 937.657 215.936 937.257 215.632C936.873 215.312 936.353 215.152 935.697 215.152C935.089 215.152 934.617 215.264 934.281 215.488C933.961 215.712 933.801 216.024 933.801 216.424C933.801 216.872 934.025 217.216 934.473 217.456C934.921 217.68 935.617 217.912 936.561 218.152C937.521 218.392 938.313 218.64 938.937 218.896C939.561 219.152 940.097 219.552 940.545 220.096C941.009 220.624 941.249 221.328 941.265 222.208C941.265 222.976 941.049 223.664 940.617 224.272C940.201 224.88 939.593 225.36 938.793 225.712C938.009 226.048 937.089 226.216 936.033 226.216ZM947.383 208.24V226H944.023V208.24H947.383ZM949.839 219.304C949.839 217.96 950.103 216.768 950.631 215.728C951.175 214.688 951.903 213.888 952.815 213.328C953.743 212.768 954.775 212.488 955.911 212.488C956.903 212.488 957.767 212.688 958.503 213.088C959.255 213.488 959.855 213.992 960.303 214.6V212.704H963.687V226H960.303V224.056C959.871 224.68 959.271 225.2 958.503 225.616C957.751 226.016 956.879 226.216 955.887 226.216C954.767 226.216 953.743 225.928 952.815 225.352C951.903 224.776 951.175 223.968 950.631 222.928C950.103 221.872 949.839 220.664 949.839 219.304ZM960.303 219.352C960.303 218.536 960.143 217.84 959.823 217.264C959.503 216.672 959.071 216.224 958.527 215.92C957.983 215.6 957.399 215.44 956.775 215.44C956.151 215.44 955.575 215.592 955.047 215.896C954.519 216.2 954.087 216.648 953.751 217.24C953.431 217.816 953.271 218.504 953.271 219.304C953.271 220.104 953.431 220.808 953.751 221.416C954.087 222.008 954.519 222.464 955.047 222.784C955.591 223.104 956.167 223.264 956.775 223.264C957.399 223.264 957.983 223.112 958.527 222.808C959.071 222.488 959.503 222.04 959.823 221.464C960.143 220.872 960.303 220.168 960.303 219.352ZM974.337 212.512C975.921 212.512 977.201 213.016 978.177 214.024C979.153 215.016 979.641 216.408 979.641 218.2V226H976.281V218.656C976.281 217.6 976.017 216.792 975.489 216.232C974.961 215.656 974.241 215.368 973.329 215.368C972.401 215.368 971.665 215.656 971.121 216.232C970.593 216.792 970.329 217.6 970.329 218.656V226H966.969V212.704H970.329V214.36C970.777 213.784 971.345 213.336 972.033 213.016C972.737 212.68 973.505 212.512 974.337 212.512ZM981.972 219.304C981.972 217.96 982.236 216.768 982.764 215.728C983.308 214.688 984.044 213.888 984.972 213.328C985.9 212.768 986.932 212.488 988.068 212.488C988.932 212.488 989.756 212.68 990.54 213.064C991.324 213.432 991.948 213.928 992.412 214.552V208.24H995.82V226H992.412V224.032C991.996 224.688 991.412 225.216 990.66 225.616C989.908 226.016 989.036 226.216 988.044 226.216C986.924 226.216 985.9 225.928 984.972 225.352C984.044 224.776 983.308 223.968 982.764 222.928C982.236 221.872 981.972 220.664 981.972 219.304ZM992.436 219.352C992.436 218.536 992.276 217.84 991.956 217.264C991.636 216.672 991.204 216.224 990.66 215.92C990.116 215.6 989.532 215.44 988.908 215.44C988.284 215.44 987.708 215.592 987.18 215.896C986.652 216.2 986.22 216.648 985.884 217.24C985.564 217.816 985.404 218.504 985.404 219.304C985.404 220.104 985.564 220.808 985.884 221.416C986.22 222.008 986.652 222.464 987.18 222.784C987.724 223.104 988.3 223.264 988.908 223.264C989.532 223.264 990.116 223.112 990.66 222.808C991.204 222.488 991.636 222.04 991.956 221.464C992.276 220.872 992.436 220.168 992.436 219.352ZM1000.81 211.12C1000.21 211.12 999.717 210.936 999.317 210.568C998.933 210.184 998.741 209.712 998.741 209.152C998.741 208.592 998.933 208.128 999.317 207.76C999.717 207.376 1000.21 207.184 1000.81 207.184C1001.4 207.184 1001.89 207.376 1002.27 207.76C1002.67 208.128 1002.87 208.592 1002.87 209.152C1002.87 209.712 1002.67 210.184 1002.27 210.568C1001.89 210.936 1001.4 211.12 1000.81 211.12ZM1002.46 212.704V226H999.101V212.704H1002.46ZM1004.92 219.304C1004.92 217.96 1005.18 216.768 1005.71 215.728C1006.25 214.688 1006.98 213.888 1007.89 213.328C1008.82 212.768 1009.85 212.488 1010.99 212.488C1011.98 212.488 1012.85 212.688 1013.58 213.088C1014.33 213.488 1014.93 213.992 1015.38 214.6V212.704H1018.77V226H1015.38V224.056C1014.95 224.68 1014.35 225.2 1013.58 225.616C1012.83 226.016 1011.96 226.216 1010.97 226.216C1009.85 226.216 1008.82 225.928 1007.89 225.352C1006.98 224.776 1006.25 223.968 1005.71 222.928C1005.18 221.872 1004.92 220.664 1004.92 219.304ZM1015.38 219.352C1015.38 218.536 1015.22 217.84 1014.9 217.264C1014.58 216.672 1014.15 216.224 1013.61 215.92C1013.06 215.6 1012.48 215.44 1011.85 215.44C1011.23 215.44 1010.65 215.592 1010.12 215.896C1009.6 216.2 1009.17 216.648 1008.83 217.24C1008.51 217.816 1008.35 218.504 1008.35 219.304C1008.35 220.104 1008.51 220.808 1008.83 221.416C1009.17 222.008 1009.6 222.464 1010.12 222.784C1010.67 223.104 1011.25 223.264 1011.85 223.264C1012.48 223.264 1013.06 223.112 1013.61 222.808C1014.15 222.488 1014.58 222.04 1014.9 221.464C1015.22 220.872 1015.38 220.168 1015.38 219.352Z" fill="black"/>
<defs>
<clipPath id="clip0_307_619">
<rect x="53.5" y="11" width="150" height="150" rx="75" fill="white"/>
</clipPath>
<clipPath id="clip1_307_619">
<rect width="225" height="150" fill="white" transform="translate(15.5 11)"/>
</clipPath>
<clipPath id="clip2_307_619">
<rect x="334.5" y="11" width="150" height="150" rx="75" fill="white"/>
</clipPath>
<clipPath id="clip3_307_619">
<rect width="285" height="150" fill="white" transform="translate(296.5 11)"/>
</clipPath>
<clipPath id="clip4_307_619">
<rect x="615.5" y="11" width="150" height="150" rx="75" fill="white"/>
</clipPath>
<clipPath id="clip5_307_619">
<rect width="250" height="150" fill="white" transform="translate(565.5 11)"/>
</clipPath>
<clipPath id="clip6_307_619">
<rect x="896.5" y="11" width="150" height="150" rx="75" fill="white"/>
</clipPath>
<clipPath id="clip7_307_619">
<rect width="208" height="150" fill="white" transform="translate(867.5 11)"/>
</clipPath>
</defs>
</svg>
