<svg width="1100" height="240" viewBox="0 0 1100 240" fill="none" xmlns="http://www.w3.org/2000/svg">
<g clip-path="url(#clip0_307_638)">
<circle cx="128.5" cy="86" r="75" fill="#D9D9D9"/>
<g clip-path="url(#clip1_307_638)">
<path d="M241.5 11H16.5V161H241.5V11Z" fill="#009246"/>
<path d="M241.5 11H91.5V161H241.5V11Z" fill="white"/>
<path d="M241.5 11H166.5V161H241.5V11Z" fill="#CE2B37"/>
</g>
</g>
<path d="M102.579 209.248V226H99.2185V209.248H102.579ZM109.81 215.464V221.896C109.81 222.344 109.914 222.672 110.122 222.88C110.346 223.072 110.714 223.168 111.226 223.168H112.786V226H110.674C107.842 226 106.426 224.624 106.426 221.872V215.464H104.842V212.704H106.426V209.416H109.81V212.704H112.786V215.464H109.81ZM114.339 219.304C114.339 217.96 114.603 216.768 115.131 215.728C115.675 214.688 116.403 213.888 117.315 213.328C118.243 212.768 119.275 212.488 120.411 212.488C121.403 212.488 122.267 212.688 123.003 213.088C123.755 213.488 124.355 213.992 124.803 214.6V212.704H128.187V226H124.803V224.056C124.371 224.68 123.771 225.2 123.003 225.616C122.251 226.016 121.379 226.216 120.387 226.216C119.267 226.216 118.243 225.928 117.315 225.352C116.403 224.776 115.675 223.968 115.131 222.928C114.603 221.872 114.339 220.664 114.339 219.304ZM124.803 219.352C124.803 218.536 124.643 217.84 124.323 217.264C124.003 216.672 123.571 216.224 123.027 215.92C122.483 215.6 121.899 215.44 121.275 215.44C120.651 215.44 120.075 215.592 119.547 215.896C119.019 216.2 118.587 216.648 118.251 217.24C117.931 217.816 117.771 218.504 117.771 219.304C117.771 220.104 117.931 220.808 118.251 221.416C118.587 222.008 119.019 222.464 119.547 222.784C120.091 223.104 120.667 223.264 121.275 223.264C121.899 223.264 122.483 223.112 123.027 222.808C123.571 222.488 124.003 222.04 124.323 221.464C124.643 220.872 124.803 220.168 124.803 219.352ZM134.829 208.24V226H131.469V208.24H134.829ZM139.852 211.12C139.26 211.12 138.764 210.936 138.364 210.568C137.98 210.184 137.788 209.712 137.788 209.152C137.788 208.592 137.98 208.128 138.364 207.76C138.764 207.376 139.26 207.184 139.852 207.184C140.444 207.184 140.932 207.376 141.316 207.76C141.716 208.128 141.916 208.592 141.916 209.152C141.916 209.712 141.716 210.184 141.316 210.568C140.932 210.936 140.444 211.12 139.852 211.12ZM141.508 212.704V226H138.148V212.704H141.508ZM143.964 219.304C143.964 217.96 144.228 216.768 144.756 215.728C145.3 214.688 146.028 213.888 146.94 213.328C147.868 212.768 148.9 212.488 150.036 212.488C151.028 212.488 151.892 212.688 152.628 213.088C153.38 213.488 153.98 213.992 154.428 214.6V212.704H157.812V226H154.428V224.056C153.996 224.68 153.396 225.2 152.628 225.616C151.876 226.016 151.004 226.216 150.012 226.216C148.892 226.216 147.868 225.928 146.94 225.352C146.028 224.776 145.3 223.968 144.756 222.928C144.228 221.872 143.964 220.664 143.964 219.304ZM154.428 219.352C154.428 218.536 154.268 217.84 153.948 217.264C153.628 216.672 153.196 216.224 152.652 215.92C152.108 215.6 151.524 215.44 150.9 215.44C150.276 215.44 149.7 215.592 149.172 215.896C148.644 216.2 148.212 216.648 147.876 217.24C147.556 217.816 147.396 218.504 147.396 219.304C147.396 220.104 147.556 220.808 147.876 221.416C148.212 222.008 148.644 222.464 149.172 222.784C149.716 223.104 150.292 223.264 150.9 223.264C151.524 223.264 152.108 223.112 152.652 222.808C153.196 222.488 153.628 222.04 153.948 221.464C154.268 220.872 154.428 220.168 154.428 219.352Z" fill="black"/>
<g clip-path="url(#clip2_307_638)">
<circle cx="409.5" cy="86" r="75" fill="#D9D9D9"/>
<g clip-path="url(#clip3_307_638)">
<path d="M296.5 11H521.5V161H296.5V11Z" fill="white"/>
<path d="M296.5 11H521.5V86H296.5V11Z" fill="#FF0000"/>
</g>
</g>
<path d="M387.69 209.248V221.008C387.69 222.64 387.218 223.912 386.274 224.824C385.33 225.72 384.066 226.168 382.482 226.168C380.882 226.168 379.586 225.704 378.594 224.776C377.618 223.848 377.13 222.552 377.13 220.888H380.49C380.506 221.608 380.674 222.168 380.994 222.568C381.33 222.968 381.81 223.168 382.434 223.168C383.042 223.168 383.506 222.976 383.826 222.592C384.146 222.208 384.306 221.68 384.306 221.008V209.248H387.69ZM390.745 219.304C390.745 217.96 391.009 216.768 391.537 215.728C392.081 214.688 392.809 213.888 393.721 213.328C394.649 212.768 395.681 212.488 396.817 212.488C397.809 212.488 398.673 212.688 399.409 213.088C400.161 213.488 400.761 213.992 401.209 214.6V212.704H404.593V226H401.209V224.056C400.777 224.68 400.177 225.2 399.409 225.616C398.657 226.016 397.785 226.216 396.793 226.216C395.673 226.216 394.649 225.928 393.721 225.352C392.809 224.776 392.081 223.968 391.537 222.928C391.009 221.872 390.745 220.664 390.745 219.304ZM401.209 219.352C401.209 218.536 401.049 217.84 400.729 217.264C400.409 216.672 399.977 216.224 399.433 215.92C398.889 215.6 398.305 215.44 397.681 215.44C397.057 215.44 396.481 215.592 395.953 215.896C395.425 216.2 394.993 216.648 394.657 217.24C394.337 217.816 394.177 218.504 394.177 219.304C394.177 220.104 394.337 220.808 394.657 221.416C394.993 222.008 395.425 222.464 395.953 222.784C396.497 223.104 397.073 223.264 397.681 223.264C398.305 223.264 398.889 223.112 399.433 222.808C399.977 222.488 400.409 222.04 400.729 221.464C401.049 220.872 401.209 220.168 401.209 219.352ZM426.307 212.704L422.419 226H418.795L416.371 216.712L413.947 226H410.299L406.387 212.704H409.795L412.147 222.832L414.691 212.704H418.243L420.739 222.808L423.091 212.704H426.307ZM427.261 219.304C427.261 217.96 427.525 216.768 428.053 215.728C428.597 214.688 429.325 213.888 430.237 213.328C431.165 212.768 432.197 212.488 433.333 212.488C434.325 212.488 435.189 212.688 435.925 213.088C436.677 213.488 437.277 213.992 437.725 214.6V212.704H441.109V226H437.725V224.056C437.293 224.68 436.693 225.2 435.925 225.616C435.173 226.016 434.301 226.216 433.309 226.216C432.189 226.216 431.165 225.928 430.237 225.352C429.325 224.776 428.597 223.968 428.053 222.928C427.525 221.872 427.261 220.664 427.261 219.304ZM437.725 219.352C437.725 218.536 437.565 217.84 437.245 217.264C436.925 216.672 436.493 216.224 435.949 215.92C435.405 215.6 434.821 215.44 434.197 215.44C433.573 215.44 432.997 215.592 432.469 215.896C431.941 216.2 431.509 216.648 431.173 217.24C430.853 217.816 430.693 218.504 430.693 219.304C430.693 220.104 430.853 220.808 431.173 221.416C431.509 222.008 431.941 222.464 432.469 222.784C433.013 223.104 433.589 223.264 434.197 223.264C434.821 223.264 435.405 223.112 435.949 222.808C436.493 222.488 436.925 222.04 437.245 221.464C437.565 220.872 437.725 220.168 437.725 219.352Z" fill="black"/>
<g clip-path="url(#clip4_307_638)">
<circle cx="690.5" cy="86" r="75" fill="#D9D9D9"/>
<g clip-path="url(#clip5_307_638)">
<path d="M802.5 11H577.5V161H802.5V11Z" fill="white"/>
<path d="M690 131C714.853 131 735 110.853 735 86C735 61.1472 714.853 41 690 41C665.147 41 645 61.1472 645 86C645 110.853 665.147 131 690 131Z" fill="#BC002D"/>
</g>
</g>
<path d="M655.342 209.248V221.008C655.342 222.64 654.87 223.912 653.926 224.824C652.982 225.72 651.718 226.168 650.134 226.168C648.534 226.168 647.238 225.704 646.246 224.776C645.27 223.848 644.782 222.552 644.782 220.888H648.142C648.158 221.608 648.326 222.168 648.646 222.568C648.982 222.968 649.462 223.168 650.086 223.168C650.694 223.168 651.158 222.976 651.478 222.592C651.798 222.208 651.958 221.68 651.958 221.008V209.248H655.342ZM671.621 219.064C671.621 219.544 671.589 219.976 671.525 220.36H661.805C661.885 221.32 662.221 222.072 662.813 222.616C663.405 223.16 664.133 223.432 664.997 223.432C666.245 223.432 667.133 222.896 667.661 221.824H671.285C670.901 223.104 670.165 224.16 669.077 224.992C667.989 225.808 666.653 226.216 665.069 226.216C663.789 226.216 662.637 225.936 661.613 225.376C660.605 224.8 659.813 223.992 659.237 222.952C658.677 221.912 658.397 220.712 658.397 219.352C658.397 217.976 658.677 216.768 659.237 215.728C659.797 214.688 660.581 213.888 661.589 213.328C662.597 212.768 663.757 212.488 665.069 212.488C666.333 212.488 667.461 212.76 668.453 213.304C669.461 213.848 670.237 214.624 670.781 215.632C671.341 216.624 671.621 217.768 671.621 219.064ZM668.141 218.104C668.125 217.24 667.813 216.552 667.205 216.04C666.597 215.512 665.853 215.248 664.973 215.248C664.141 215.248 663.437 215.504 662.861 216.016C662.301 216.512 661.957 217.208 661.829 218.104H668.141ZM677.434 214.624C677.866 214.016 678.458 213.512 679.21 213.112C679.978 212.696 680.85 212.488 681.826 212.488C682.962 212.488 683.986 212.768 684.898 213.328C685.826 213.888 686.554 214.688 687.082 215.728C687.626 216.752 687.898 217.944 687.898 219.304C687.898 220.664 687.626 221.872 687.082 222.928C686.554 223.968 685.826 224.776 684.898 225.352C683.986 225.928 682.962 226.216 681.826 226.216C680.85 226.216 679.986 226.016 679.234 225.616C678.498 225.216 677.898 224.712 677.434 224.104V232.336H674.074V212.704H677.434V214.624ZM684.466 219.304C684.466 218.504 684.298 217.816 683.962 217.24C683.642 216.648 683.21 216.2 682.666 215.896C682.138 215.592 681.562 215.44 680.938 215.44C680.33 215.44 679.754 215.6 679.21 215.92C678.682 216.224 678.25 216.672 677.914 217.264C677.594 217.856 677.434 218.552 677.434 219.352C677.434 220.152 677.594 220.848 677.914 221.44C678.25 222.032 678.682 222.488 679.21 222.808C679.754 223.112 680.33 223.264 680.938 223.264C681.562 223.264 682.138 223.104 682.666 222.784C683.21 222.464 683.642 222.008 683.962 221.416C684.298 220.824 684.466 220.12 684.466 219.304ZM689.476 219.304C689.476 217.96 689.74 216.768 690.268 215.728C690.812 214.688 691.54 213.888 692.452 213.328C693.38 212.768 694.412 212.488 695.548 212.488C696.54 212.488 697.404 212.688 698.14 213.088C698.892 213.488 699.492 213.992 699.94 214.6V212.704H703.324V226H699.94V224.056C699.508 224.68 698.908 225.2 698.14 225.616C697.388 226.016 696.516 226.216 695.524 226.216C694.404 226.216 693.38 225.928 692.452 225.352C691.54 224.776 690.812 223.968 690.268 222.928C689.74 221.872 689.476 220.664 689.476 219.304ZM699.94 219.352C699.94 218.536 699.78 217.84 699.46 217.264C699.14 216.672 698.708 216.224 698.164 215.92C697.62 215.6 697.036 215.44 696.412 215.44C695.788 215.44 695.212 215.592 694.684 215.896C694.156 216.2 693.724 216.648 693.388 217.24C693.068 217.816 692.908 218.504 692.908 219.304C692.908 220.104 693.068 220.808 693.388 221.416C693.724 222.008 694.156 222.464 694.684 222.784C695.228 223.104 695.804 223.264 696.412 223.264C697.036 223.264 697.62 223.112 698.164 222.808C698.708 222.488 699.14 222.04 699.46 221.464C699.78 220.872 699.94 220.168 699.94 219.352ZM713.973 212.512C715.557 212.512 716.837 213.016 717.813 214.024C718.789 215.016 719.277 216.408 719.277 218.2V226H715.917V218.656C715.917 217.6 715.653 216.792 715.125 216.232C714.597 215.656 713.877 215.368 712.965 215.368C712.037 215.368 711.301 215.656 710.757 216.232C710.229 216.792 709.965 217.6 709.965 218.656V226H706.605V212.704H709.965V214.36C710.413 213.784 710.981 213.336 711.669 213.016C712.373 212.68 713.141 212.512 713.973 212.512ZM727.68 212.488C728.672 212.488 729.544 212.688 730.296 213.088C731.048 213.472 731.64 213.976 732.072 214.6V212.704H735.456V226.096C735.456 227.328 735.208 228.424 734.712 229.384C734.216 230.36 733.472 231.128 732.48 231.688C731.488 232.264 730.288 232.552 728.88 232.552C726.992 232.552 725.44 232.112 724.224 231.232C723.024 230.352 722.344 229.152 722.184 227.632H725.52C725.696 228.24 726.072 228.72 726.648 229.072C727.24 229.44 727.952 229.624 728.784 229.624C729.76 229.624 730.552 229.328 731.16 228.736C731.768 228.16 732.072 227.28 732.072 226.096V224.032C731.64 224.656 731.04 225.176 730.272 225.592C729.52 226.008 728.656 226.216 727.68 226.216C726.56 226.216 725.536 225.928 724.608 225.352C723.68 224.776 722.944 223.968 722.4 222.928C721.872 221.872 721.608 220.664 721.608 219.304C721.608 217.96 721.872 216.768 722.4 215.728C722.944 214.688 723.672 213.888 724.584 213.328C725.512 212.768 726.544 212.488 727.68 212.488ZM732.072 219.352C732.072 218.536 731.912 217.84 731.592 217.264C731.272 216.672 730.84 216.224 730.296 215.92C729.752 215.6 729.168 215.44 728.544 215.44C727.92 215.44 727.344 215.592 726.816 215.896C726.288 216.2 725.856 216.648 725.52 217.24C725.2 217.816 725.04 218.504 725.04 219.304C725.04 220.104 725.2 220.808 725.52 221.416C725.856 222.008 726.288 222.464 726.816 222.784C727.36 223.104 727.936 223.264 728.544 223.264C729.168 223.264 729.752 223.112 730.296 222.808C730.84 222.488 731.272 222.04 731.592 221.464C731.912 220.872 732.072 220.168 732.072 219.352Z" fill="black"/>
<g clip-path="url(#clip6_307_638)">
<circle cx="971.5" cy="86" r="75" fill="#D9D9D9"/>
<g clip-path="url(#clip7_307_638)">
<path d="M1096.5 11H846.5V161H1096.5V11Z" fill="black"/>
<path d="M1096.5 61H846.5V161H1096.5V61Z" fill="#DD0000"/>
<path d="M1096.5 111H846.5V161H1096.5V111Z" fill="#FFCE00"/>
</g>
</g>
<path d="M935.182 209.248V221.008C935.182 222.64 934.71 223.912 933.766 224.824C932.822 225.72 931.558 226.168 929.974 226.168C928.374 226.168 927.078 225.704 926.086 224.776C925.11 223.848 924.622 222.552 924.622 220.888H927.982C927.998 221.608 928.166 222.168 928.486 222.568C928.822 222.968 929.302 223.168 929.926 223.168C930.534 223.168 930.998 222.976 931.318 222.592C931.638 222.208 931.798 221.68 931.798 221.008V209.248H935.182ZM951.461 219.064C951.461 219.544 951.429 219.976 951.365 220.36H941.645C941.725 221.32 942.061 222.072 942.653 222.616C943.245 223.16 943.973 223.432 944.837 223.432C946.085 223.432 946.973 222.896 947.501 221.824H951.125C950.741 223.104 950.005 224.16 948.917 224.992C947.829 225.808 946.493 226.216 944.909 226.216C943.629 226.216 942.477 225.936 941.453 225.376C940.445 224.8 939.653 223.992 939.077 222.952C938.517 221.912 938.237 220.712 938.237 219.352C938.237 217.976 938.517 216.768 939.077 215.728C939.637 214.688 940.421 213.888 941.429 213.328C942.437 212.768 943.597 212.488 944.909 212.488C946.173 212.488 947.301 212.76 948.293 213.304C949.301 213.848 950.077 214.624 950.621 215.632C951.181 216.624 951.461 217.768 951.461 219.064ZM947.981 218.104C947.965 217.24 947.653 216.552 947.045 216.04C946.437 215.512 945.693 215.248 944.813 215.248C943.981 215.248 943.277 215.504 942.701 216.016C942.141 216.512 941.797 217.208 941.669 218.104H947.981ZM957.274 214.768C957.706 214.064 958.266 213.512 958.954 213.112C959.658 212.712 960.458 212.512 961.354 212.512V216.04H960.466C959.41 216.04 958.61 216.288 958.066 216.784C957.538 217.28 957.274 218.144 957.274 219.376V226H953.914V212.704H957.274V214.768ZM980.129 212.512C981.761 212.512 983.073 213.016 984.065 214.024C985.073 215.016 985.577 216.408 985.577 218.2V226H982.217V218.656C982.217 217.616 981.953 216.824 981.425 216.28C980.897 215.72 980.177 215.44 979.265 215.44C978.353 215.44 977.625 215.72 977.081 216.28C976.553 216.824 976.289 217.616 976.289 218.656V226H972.929V218.656C972.929 217.616 972.665 216.824 972.137 216.28C971.609 215.72 970.889 215.44 969.977 215.44C969.049 215.44 968.313 215.72 967.769 216.28C967.241 216.824 966.977 217.616 966.977 218.656V226H963.617V212.704H966.977V214.312C967.409 213.752 967.961 213.312 968.633 212.992C969.321 212.672 970.073 212.512 970.889 212.512C971.929 212.512 972.857 212.736 973.673 213.184C974.489 213.616 975.121 214.24 975.569 215.056C976.001 214.288 976.625 213.672 977.441 213.208C978.273 212.744 979.169 212.512 980.129 212.512ZM987.901 219.304C987.901 217.96 988.165 216.768 988.693 215.728C989.237 214.688 989.965 213.888 990.877 213.328C991.805 212.768 992.837 212.488 993.973 212.488C994.965 212.488 995.829 212.688 996.565 213.088C997.317 213.488 997.917 213.992 998.365 214.6V212.704H1001.75V226H998.365V224.056C997.933 224.68 997.333 225.2 996.565 225.616C995.813 226.016 994.941 226.216 993.949 226.216C992.829 226.216 991.805 225.928 990.877 225.352C989.965 224.776 989.237 223.968 988.693 222.928C988.165 221.872 987.901 220.664 987.901 219.304ZM998.365 219.352C998.365 218.536 998.205 217.84 997.885 217.264C997.565 216.672 997.133 216.224 996.589 215.92C996.045 215.6 995.461 215.44 994.837 215.44C994.213 215.44 993.637 215.592 993.109 215.896C992.581 216.2 992.149 216.648 991.813 217.24C991.493 217.816 991.333 218.504 991.333 219.304C991.333 220.104 991.493 220.808 991.813 221.416C992.149 222.008 992.581 222.464 993.109 222.784C993.653 223.104 994.229 223.264 994.837 223.264C995.461 223.264 996.045 223.112 996.589 222.808C997.133 222.488 997.565 222.04 997.885 221.464C998.205 220.872 998.365 220.168 998.365 219.352ZM1012.4 212.512C1013.98 212.512 1015.26 213.016 1016.24 214.024C1017.22 215.016 1017.7 216.408 1017.7 218.2V226H1014.34V218.656C1014.34 217.6 1014.08 216.792 1013.55 216.232C1013.02 215.656 1012.3 215.368 1011.39 215.368C1010.46 215.368 1009.73 215.656 1009.18 216.232C1008.66 216.792 1008.39 217.6 1008.39 218.656V226H1005.03V212.704H1008.39V214.36C1008.84 213.784 1009.41 213.336 1010.1 213.016C1010.8 212.68 1011.57 212.512 1012.4 212.512Z" fill="black"/>
<defs>
<clipPath id="clip0_307_638">
<rect x="53.5" y="11" width="150" height="150" rx="75" fill="white"/>
</clipPath>
<clipPath id="clip1_307_638">
<rect width="225" height="150" fill="white" transform="translate(16.5 11)"/>
</clipPath>
<clipPath id="clip2_307_638">
<rect x="334.5" y="11" width="150" height="150" rx="75" fill="white"/>
</clipPath>
<clipPath id="clip3_307_638">
<rect width="225" height="150" fill="white" transform="translate(296.5 11)"/>
</clipPath>
<clipPath id="clip4_307_638">
<rect x="615.5" y="11" width="150" height="150" rx="75" fill="white"/>
</clipPath>
<clipPath id="clip5_307_638">
<rect width="225" height="150" fill="white" transform="translate(577.5 11)"/>
</clipPath>
<clipPath id="clip6_307_638">
<rect x="896.5" y="11" width="150" height="150" rx="75" fill="white"/>
</clipPath>
<clipPath id="clip7_307_638">
<rect width="250" height="150" fill="white" transform="translate(846.5 11)"/>
</clipPath>
</defs>
</svg>
