<?xml version="1.0" encoding="UTF-8"?>
<svg id="Layer_1" data-name="Layer 1" xmlns="http://www.w3.org/2000/svg" version="1.1" viewBox="0 0 1080 1080">
  <defs>
    <style>
      .cls-1 {
        fill: #000;
      }

      .cls-1, .cls-2, .cls-3 {
        stroke-width: 0px;
      }

      .cls-2 {
        fill: #a9023a;
      }

      .cls-3 {
        fill: #fff;
      }
    </style>
  </defs>
  <g>
    <path class="cls-2" d="M62.8,129.7c.1,0,.2,0,.4,0,.6.5.8,1.2.8,2,0,1,0,2.1,0,3.1,0,48.3,0,96.7,0,145,0,1.2.3,2.5-.9,3.5-.1,0-.2,0-.3,0v-153.6Z"/>
    <path class="cls-2" d="M705.4,306.2c-1.1.1-2.1.3-3.2.4-9.5,1.5-19.1,2.3-28.6.6-8.7-1.5-16.5-5-22.3-11.9-1.2-1.4-1.3-1.4.5-1.9,18.2-5.5,33.5-15.3,45.3-30.3,15.5-19.8,21.3-42.2,16.7-66.9-4.1-21.6-15.6-39-33.3-52-20.5-15.1-43.6-20.5-68.8-17.1-17.9,2.5-34,9.5-47.5,21.5-22.9,20.4-32.8,46-28,76.5,3.3,21.4,14.3,38.5,31,52,8.8,7.1,18.8,12.3,29.6,15.7.7.2,1.3.5,1.5,1.4,1.9,8.4,6.5,15.4,12.1,21.8,13.7,15.5,31.5,22.5,51.6,24.4,7.1.7,14.3.4,21.4-.3,1.2-.1,2.1-.6,2.8-1.6,6.4-10.2,12.9-20.4,19.4-30.7.3-.5.7-.9.6-1.6-.2,0-.4,0-.7,0ZM592.4,245.2c-9.6-7-15.9-16.4-17.5-28.4-1.6-11.5,1.7-21.8,9.1-30.7,8.5-10.2,19.6-15.8,32.6-17.8,2.8-.4,5.6-.7,8.4-.7,15.8.4,29.4,5.6,40.2,17.5,13.1,14.5,13.6,36.8,1.1,51.8-8.8,10.6-20.3,16.4-33.8,18.2-14.6,1.9-28.1-1.2-40-9.9Z"/>
    <path class="cls-2" d="M737.8,186c0-17.5,0-35,0-52.4,0-1.7.4-2.2,2.1-2.2,12.2,0,24.4,0,36.5,0,2.3,0,2.3,0,2.3,2.4,0,28.6,0,57.2,0,85.9,0,6.1.2,12.2,1.4,18.2,1.4,6.9,5.3,11.1,12.3,12.2,9.4,1.5,18.8,1.7,28.1,0,8.7-1.6,11-5.5,12.6-14.2.9-5,1.1-10.1,1.1-15.2,0-29,0-57.9,0-86.9q0-2.3,2.3-2.3c12.2,0,24.4,0,36.5,0,1.8,0,2.2.5,2.2,2.2-.1,33.8.2,67.6-.2,101.5-.1,8.4-.8,16.8-3.9,24.7-5.4,13.7-15.7,21.8-29.8,25.2-8.1,1.9-16.3,2.2-24.5,2.3-9.7,0-19.4.2-29.2-.2-8-.4-15.9-1.4-23.4-4.5-13.4-5.8-21.1-16.2-24.3-30.2-1.6-7.3-2-14.7-2.1-22.1-.1-14.7,0-29.4,0-44.1Z"/>
    <path class="cls-2" d="M529.6,283.5c-3.7-13.1-7.4-26.3-11.1-39.5-10.4-37-20.8-73.9-31.2-110.9-.4-1.3-.8-1.8-2.3-1.8-10,0-20,0-30,0-9.8,0-19.7,0-29.5,0-1.6,0-2.3.4-2.7,2-3.8,13.4-7.7,26.8-11.5,40.2-10.5,36.6-21,73.1-31.5,109.7-.6,2-.6,2.1,1.6,2.1,13.4,0,26.8,0,40.1,0,1.5,0,2-.5,2.4-1.9,2-7.8,4.1-15.6,6.1-23.5.3-1.2.8-1.5,2-1.5,15.2,0,30.3,0,45.5,0,1.3,0,1.8.5,2.1,1.7,2,7.8,4.1,15.7,6,23.5.3,1.3.8,1.7,2.2,1.7,13.6,0,27.1,0,40.7,0,1.6,0,1.8-.4,1.3-1.8ZM469.6,227.1c-5,0-10,0-14.9,0s-10,0-14.9,0c-1.4,0-1.8-.3-1.5-1.7,5-20.3,10.1-40.6,15-60.8.3-1,.7-1.3,1.8-1.4,1.1,0,1.4.5,1.7,1.5,3.8,15.7,7.5,31.4,11.3,47.2,1.1,4.4,2.1,8.9,3.1,13.3.5,1.9.4,2-1.6,2Z"/>
    <path class="cls-2" d="M901.5,208.4c0-24.8,0-49.6,0-74.4q0-2.5,2.5-2.6c36.9,0,73.9,0,110.8,0,2.4,0,2.4,0,2.4,2.3,0,9.9,0,19.9,0,29.8,0,1.8-.5,2.2-2.2,2.2-23.3,0-46.6,0-69.8,0q-2.4,0-2.4,2.4c0,7.7,0,15.4,0,23.1q0,2.4,2.5,2.4c23.1,0,46.2,0,69.3,0q2.6,0,2.6,2.6c0,8.3,0,16.6,0,24.9,0,1.8-.5,2.2-2.2,2.2-23.3,0-46.6,0-69.8,0-2.4,0-2.4,0-2.4,2.3,0,7.8,0,15.7,0,23.5,0,1.7.5,2.1,2.1,2.1,23.3,0,46.6,0,69.8,0q2.5,0,2.5,2.4c0,9.9,0,19.9,0,29.8,0,1.6-.4,2.1-2.1,2.1-37.2,0-74.3,0-111.5,0-1.9,0-2.1-.6-2.1-2.3,0-24.9,0-49.8,0-74.7Z"/>
    <path class="cls-2" d="M63.1,283.3c0-50.1,0-100.2,0-150.3,0-1.1,0-2.2,0-3.3.6,0,1.3,0,1.9,0,37.1,0,74.1,0,111.2,0q2.5,0,2.5,2.5c0,9.9,0,19.8,0,29.7,0,1.7-.5,2.1-2.1,2.1-23.3,0-46.5,0-69.8,0q-2.5,0-2.5,2.5c0,7.7,0,15.3,0,23,0,2.8-.3,2.4,2.5,2.4,23.2,0,46.4,0,69.6,0q2.2,0,2.2,2.2c0,8.3,0,16.7,0,25q0,2.3-2.4,2.3c-23.2,0-46.4,0-69.6,0q-2.4,0-2.4,2.4c0,7.8,0,15.7,0,23.5,0,1.7.4,2.2,2.2,2.2,23.2,0,46.4,0,69.6,0q2.6,0,2.6,2.5c0,9.8,0,19.5,0,29.3,0,2.3,0,2.3-2.2,2.3-37.2,0-74.3,0-111.5,0-.6,0-1.2,0-1.9-.1Z"/>
    <path class="cls-2" d="M192.5,284.5c2.6-3.2,4.8-6,7.1-8.8,11.8-14.6,23.6-29.2,35.4-43.8,6.4-7.9,12.8-15.8,19.2-23.7.8-.9.7-1.5,0-2.3-12.2-15-24.4-30.1-36.5-45.1-8-9.9-16-19.8-24-29.7-.3-.3-.8-.6-.6-1.1.2-.5.8-.2,1.3-.3,2.6,0,5.3,0,7.9,0,1.2,0,1.9.4,2.6,1.2,6.4,8,12.8,15.9,19.2,23.9,9.7,12,19.4,24.1,29.2,36.1.3.4.5.7.8,1.1.2,0,.4-.1.5-.2,0-2-.1-4,0-6,.2-2.2-.6-3.8-2-5.5-13.3-16.3-26.4-32.7-39.6-49-.3-.4-1-.7-.7-1.2.2-.5.9-.3,1.4-.3,2.5,0,5,0,7.5,0,1.3,0,2.1.4,2.9,1.3,6.4,8,12.8,15.9,19.2,23.9,3.4,4.3,6.9,8.5,10.3,12.8.1.2.3.3.8.6,0-3.3.1-6.3,0-9.4,0-.9-1.2-1.8-1.9-2.6-6.8-8.4-13.6-16.8-20.4-25.2-.3-.4-.9-.7-.6-1.3.2-.4.8-.2,1.3-.2,2.3,0,4.6.1,6.9,0,1.9-.1,3.1.6,4.3,2.1,13.8,17.1,27.6,34.2,41.4,51.3.2.3.4.7.9.8.4-.5.2-1.1.2-1.6,0-4.2,0-8.3,0-12.5,0-1,.2-1.8.9-2.6,9.8-12.1,19.5-24.1,29.3-36.3.6-.7,1.2-1.1,2.1-1.1,15.7,0,31.3,0,47,0,.3,0,.7,0,1.2.1-1,1.9-2.4,3.3-3.7,4.8-17.7,21.9-35.4,43.8-53.1,65.7-1.4,1.8-2.8,3.6-4.3,5.3-1,1.1-1,1.8,0,2.9,4.5,5.5,9,11.1,13.5,16.6,12.2,15.1,24.5,30.3,36.7,45.4,3.1,3.8,6.2,7.6,9.3,11.5.6.7,1.1,1.4,1.7,2.1-.5.6-1.2.4-1.7.4-15.3,0-30.7,0-46,0-1.2,0-2-.4-2.8-1.3-9.6-12-19.3-23.9-29-35.8-.8-1-1.2-2.1-1.1-3.4,0-4.5,0-9,0-13.9-1.9,1.6-3,3.4-4.3,5-13.1,16.2-26.1,32.3-39.2,48.5-.4.4-.7,1-1.3,1-3.4,0-6.8,0-10.7,0,2.1-2.7,4-5,5.9-7.3,5.6-7,11.3-14,16.9-20.9.6-.7.9-1.4.8-2.3,0-2.6,0-5.1,0-7.8-1,.1-1.3.9-1.7,1.4-9.7,12-19.4,24-29.1,36-.4.5-.7,1-1.5,1-3.4,0-6.7,0-10.4,0,1.1-2,2.5-3.4,3.7-4.9,12.7-15.7,25.3-31.4,38-47,.6-.7.9-1.5.9-2.5,0-2.6,0-5.1,0-7.7-.7-.3-.9.3-1.1.6-15.4,19.1-30.9,38.2-46.2,57.4-2.4,3-4.7,4.9-8.8,4.2-1.8-.3-3.6,0-6,0Z"/>
  </g>
  <g>
    <path class="cls-1" d="M62.8,436.1c.1,0,.2,0,.4,0,.6.5.8,1.2.8,2,0,1,0,2.1,0,3.1,0,48.3,0,96.7,0,145,0,1.2.3,2.5-.9,3.5-.1,0-.2,0-.3,0v-153.6Z"/>
    <path class="cls-1" d="M705.4,612.7c-1.1.1-2.1.3-3.2.4-9.5,1.5-19.1,2.3-28.6.6-8.7-1.5-16.5-5-22.3-11.9-1.2-1.4-1.3-1.4.5-1.9,18.2-5.5,33.5-15.3,45.3-30.3,15.5-19.8,21.3-42.2,16.7-66.9-4.1-21.6-15.6-39-33.3-52-20.5-15.1-43.6-20.5-68.8-17.1-17.9,2.5-34,9.5-47.5,21.5-22.9,20.4-32.8,46-28,76.5,3.3,21.4,14.3,38.5,31,52,8.8,7.1,18.8,12.3,29.6,15.7.7.2,1.3.5,1.5,1.4,1.9,8.4,6.5,15.4,12.1,21.8,13.7,15.5,31.5,22.5,51.6,24.4,7.1.7,14.3.4,21.4-.3,1.2-.1,2.1-.6,2.8-1.6,6.4-10.2,12.9-20.4,19.4-30.7.3-.5.7-.9.6-1.6-.2,0-.4,0-.7,0ZM592.4,551.7c-9.6-7-15.9-16.4-17.5-28.4-1.6-11.5,1.7-21.8,9.1-30.7,8.5-10.2,19.6-15.8,32.6-17.8,2.8-.4,5.6-.7,8.4-.7,15.8.4,29.4,5.6,40.2,17.5,13.1,14.5,13.6,36.8,1.1,51.8-8.8,10.6-20.3,16.4-33.8,18.2-14.6,1.9-28.1-1.2-40-9.9Z"/>
    <path class="cls-1" d="M737.8,492.5c0-17.5,0-35,0-52.4,0-1.7.4-2.2,2.1-2.2,12.2,0,24.4,0,36.5,0,2.3,0,2.3,0,2.3,2.4,0,28.6,0,57.2,0,85.9,0,6.1.2,12.2,1.4,18.2,1.4,6.9,5.3,11.1,12.3,12.2,9.4,1.5,18.8,1.7,28.1,0,8.7-1.6,11-5.5,12.6-14.2.9-5,1.1-10.1,1.1-15.2,0-29,0-57.9,0-86.9q0-2.3,2.3-2.3c12.2,0,24.4,0,36.5,0,1.8,0,2.2.5,2.2,2.2-.1,33.8.2,67.6-.2,101.5-.1,8.4-.8,16.8-3.9,24.7-5.4,13.7-15.7,21.8-29.8,25.2-8.1,1.9-16.3,2.2-24.5,2.3-9.7,0-19.4.2-29.2-.2-8-.4-15.9-1.4-23.4-4.5-13.4-5.8-21.1-16.2-24.3-30.2-1.6-7.3-2-14.7-2.1-22.1-.1-14.7,0-29.4,0-44.1Z"/>
    <path class="cls-1" d="M529.6,589.9c-3.7-13.1-7.4-26.3-11.1-39.5-10.4-37-20.8-73.9-31.2-110.9-.4-1.3-.8-1.8-2.3-1.8-10,0-20,0-30,0-9.8,0-19.7,0-29.5,0-1.6,0-2.3.4-2.7,2-3.8,13.4-7.7,26.8-11.5,40.2-10.5,36.6-21,73.1-31.5,109.7-.6,2-.6,2.1,1.6,2.1,13.4,0,26.8,0,40.1,0,1.5,0,2-.5,2.4-1.9,2-7.8,4.1-15.6,6.1-23.5.3-1.2.8-1.5,2-1.5,15.2,0,30.3,0,45.5,0,1.3,0,1.8.5,2.1,1.7,2,7.8,4.1,15.7,6,23.5.3,1.3.8,1.7,2.2,1.7,13.6,0,27.1,0,40.7,0,1.6,0,1.8-.4,1.3-1.8ZM469.6,533.6c-5,0-10,0-14.9,0s-10,0-14.9,0c-1.4,0-1.8-.3-1.5-1.7,5-20.3,10.1-40.6,15-60.8.3-1,.7-1.3,1.8-1.4,1.1,0,1.4.5,1.7,1.5,3.8,15.7,7.5,31.4,11.3,47.2,1.1,4.4,2.1,8.9,3.1,13.3.5,1.9.4,2-1.6,2Z"/>
    <path class="cls-1" d="M901.5,514.8c0-24.8,0-49.6,0-74.4q0-2.5,2.5-2.6c36.9,0,73.9,0,110.8,0,2.4,0,2.4,0,2.4,2.3,0,9.9,0,19.9,0,29.8,0,1.8-.5,2.2-2.2,2.2-23.3,0-46.6,0-69.8,0q-2.4,0-2.4,2.4c0,7.7,0,15.4,0,23.1q0,2.4,2.5,2.4c23.1,0,46.2,0,69.3,0q2.6,0,2.6,2.6c0,8.3,0,16.6,0,24.9,0,1.8-.5,2.2-2.2,2.2-23.3,0-46.6,0-69.8,0-2.4,0-2.4,0-2.4,2.3,0,7.8,0,15.7,0,23.5,0,1.7.5,2.1,2.1,2.1,23.3,0,46.6,0,69.8,0q2.5,0,2.5,2.4c0,9.9,0,19.9,0,29.8,0,1.6-.4,2.1-2.1,2.1-37.2,0-74.3,0-111.5,0-1.9,0-2.1-.6-2.1-2.3,0-24.9,0-49.8,0-74.7Z"/>
    <path class="cls-1" d="M63.1,589.7c0-50.1,0-100.2,0-150.3,0-1.1,0-2.2,0-3.3.6,0,1.3,0,1.9,0,37.1,0,74.1,0,111.2,0q2.5,0,2.5,2.5c0,9.9,0,19.8,0,29.7,0,1.7-.5,2.1-2.1,2.1-23.3,0-46.5,0-69.8,0q-2.5,0-2.5,2.5c0,7.7,0,15.3,0,23,0,2.8-.3,2.4,2.5,2.4,23.2,0,46.4,0,69.6,0q2.2,0,2.2,2.2c0,8.3,0,16.7,0,25q0,2.3-2.4,2.3c-23.2,0-46.4,0-69.6,0q-2.4,0-2.4,2.4c0,7.8,0,15.7,0,23.5,0,1.7.4,2.2,2.2,2.2,23.2,0,46.4,0,69.6,0q2.6,0,2.6,2.5c0,9.8,0,19.5,0,29.3,0,2.3,0,2.3-2.2,2.3-37.2,0-74.3,0-111.5,0-.6,0-1.2,0-1.9-.1Z"/>
    <path class="cls-1" d="M192.5,591c2.6-3.2,4.8-6,7.1-8.8,11.8-14.6,23.6-29.2,35.4-43.8,6.4-7.9,12.8-15.8,19.2-23.7.8-.9.7-1.5,0-2.3-12.2-15-24.4-30.1-36.5-45.1-8-9.9-16-19.8-24-29.7-.3-.3-.8-.6-.6-1.1.2-.5.8-.2,1.3-.3,2.6,0,5.3,0,7.9,0,1.2,0,1.9.4,2.6,1.2,6.4,8,12.8,15.9,19.2,23.9,9.7,12,19.4,24.1,29.2,36.1.3.4.5.7.8,1.1.2,0,.4-.1.5-.2,0-2-.1-4,0-6,.2-2.2-.6-3.8-2-5.5-13.3-16.3-26.4-32.7-39.6-49-.3-.4-1-.7-.7-1.2.2-.5.9-.3,1.4-.3,2.5,0,5,0,7.5,0,1.3,0,2.1.4,2.9,1.3,6.4,8,12.8,15.9,19.2,23.9,3.4,4.3,6.9,8.5,10.3,12.8.1.2.3.3.8.6,0-3.3.1-6.3,0-9.4,0-.9-1.2-1.8-1.9-2.6-6.8-8.4-13.6-16.8-20.4-25.2-.3-.4-.9-.7-.6-1.3.2-.4.8-.2,1.3-.2,2.3,0,4.6.1,6.9,0,1.9-.1,3.1.6,4.3,2.1,13.8,17.1,27.6,34.2,41.4,51.3.2.3.4.7.9.8.4-.5.2-1.1.2-1.6,0-4.2,0-8.3,0-12.5,0-1,.2-1.8.9-2.6,9.8-12.1,19.5-24.1,29.3-36.3.6-.7,1.2-1.1,2.1-1.1,15.7,0,31.3,0,47,0,.3,0,.7,0,1.2.1-1,1.9-2.4,3.3-3.7,4.8-17.7,21.9-35.4,43.8-53.1,65.7-1.4,1.8-2.8,3.6-4.3,5.3-1,1.1-1,1.8,0,2.9,4.5,5.5,9,11.1,13.5,16.6,12.2,15.1,24.5,30.3,36.7,45.4,3.1,3.8,6.2,7.6,9.3,11.5.6.7,1.1,1.4,1.7,2.1-.5.6-1.2.4-1.7.4-15.3,0-30.7,0-46,0-1.2,0-2-.4-2.8-1.3-9.6-12-19.3-23.9-29-35.8-.8-1-1.2-2.1-1.1-3.4,0-4.5,0-9,0-13.9-1.9,1.6-3,3.4-4.3,5-13.1,16.2-26.1,32.3-39.2,48.5-.4.4-.7,1-1.3,1-3.4,0-6.8,0-10.7,0,2.1-2.7,4-5,5.9-7.3,5.6-7,11.3-14,16.9-20.9.6-.7.9-1.4.8-2.3,0-2.6,0-5.1,0-7.8-1,.1-1.3.9-1.7,1.4-9.7,12-19.4,24-29.1,36-.4.5-.7,1-1.5,1-3.4,0-6.7,0-10.4,0,1.1-2,2.5-3.4,3.7-4.9,12.7-15.7,25.3-31.4,38-47,.6-.7.9-1.5.9-2.5,0-2.6,0-5.1,0-7.7-.7-.3-.9.3-1.1.6-15.4,19.1-30.9,38.2-46.2,57.4-2.4,3-4.7,4.9-8.8,4.2-1.8-.3-3.6,0-6,0Z"/>
  </g>
  <g>
    <path class="cls-3" d="M62.8,742.5c.1,0,.2,0,.4,0,.6.5.8,1.2.8,2,0,1,0,2.1,0,3.1,0,48.3,0,96.7,0,145,0,1.2.3,2.5-.9,3.5-.1,0-.2,0-.3,0v-153.6Z"/>
    <path class="cls-3" d="M705.4,919.1c-1.1.1-2.1.3-3.2.4-9.5,1.5-19.1,2.3-28.6.6-8.7-1.5-16.5-5-22.3-11.9-1.2-1.4-1.3-1.4.5-1.9,18.2-5.5,33.5-15.3,45.3-30.3,15.5-19.8,21.3-42.2,16.7-66.9-4.1-21.6-15.6-39-33.3-52-20.5-15.1-43.6-20.5-68.8-17.1-17.9,2.5-34,9.5-47.5,21.5-22.9,20.4-32.8,46-28,76.5,3.3,21.4,14.3,38.5,31,52,8.8,7.1,18.8,12.3,29.6,15.7.7.2,1.3.5,1.5,1.4,1.9,8.4,6.5,15.4,12.1,21.8,13.7,15.5,31.5,22.5,51.6,24.4,7.1.7,14.3.4,21.4-.3,1.2-.1,2.1-.6,2.8-1.6,6.4-10.2,12.9-20.4,19.4-30.7.3-.5.7-.9.6-1.6-.2,0-.4,0-.7,0ZM592.4,858.1c-9.6-7-15.9-16.4-17.5-28.4-1.6-11.5,1.7-21.8,9.1-30.7,8.5-10.2,19.6-15.8,32.6-17.8,2.8-.4,5.6-.7,8.4-.7,15.8.4,29.4,5.6,40.2,17.5,13.1,14.5,13.6,36.8,1.1,51.8-8.8,10.6-20.3,16.4-33.8,18.2-14.6,1.9-28.1-1.2-40-9.9Z"/>
    <path class="cls-3" d="M737.8,798.9c0-17.5,0-35,0-52.4,0-1.7.4-2.2,2.1-2.2,12.2,0,24.4,0,36.5,0,2.3,0,2.3,0,2.3,2.4,0,28.6,0,57.2,0,85.9,0,6.1.2,12.2,1.4,18.2,1.4,6.9,5.3,11.1,12.3,12.2,9.4,1.5,18.8,1.7,28.1,0,8.7-1.6,11-5.5,12.6-14.2.9-5,1.1-10.1,1.1-15.2,0-29,0-57.9,0-86.9q0-2.3,2.3-2.3c12.2,0,24.4,0,36.5,0,1.8,0,2.2.5,2.2,2.2-.1,33.8.2,67.6-.2,101.5-.1,8.4-.8,16.8-3.9,24.7-5.4,13.7-15.7,21.8-29.8,25.2-8.1,1.9-16.3,2.2-24.5,2.3-9.7,0-19.4.2-29.2-.2-8-.4-15.9-1.4-23.4-4.5-13.4-5.8-21.1-16.2-24.3-30.2-1.6-7.3-2-14.7-2.1-22.1-.1-14.7,0-29.4,0-44.1Z"/>
    <path class="cls-3" d="M529.6,896.4c-3.7-13.1-7.4-26.3-11.1-39.5-10.4-37-20.8-73.9-31.2-110.9-.4-1.3-.8-1.8-2.3-1.8-10,0-20,0-30,0-9.8,0-19.7,0-29.5,0-1.6,0-2.3.4-2.7,2-3.8,13.4-7.7,26.8-11.5,40.2-10.5,36.6-21,73.1-31.5,109.7-.6,2-.6,2.1,1.6,2.1,13.4,0,26.8,0,40.1,0,1.5,0,2-.5,2.4-1.9,2-7.8,4.1-15.6,6.1-23.5.3-1.2.8-1.5,2-1.5,15.2,0,30.3,0,45.5,0,1.3,0,1.8.5,2.1,1.7,2,7.8,4.1,15.7,6,23.5.3,1.3.8,1.7,2.2,1.7,13.6,0,27.1,0,40.7,0,1.6,0,1.8-.4,1.3-1.8ZM469.6,840c-5,0-10,0-14.9,0s-10,0-14.9,0c-1.4,0-1.8-.3-1.5-1.7,5-20.3,10.1-40.6,15-60.8.3-1,.7-1.3,1.8-1.4,1.1,0,1.4.5,1.7,1.5,3.8,15.7,7.5,31.4,11.3,47.2,1.1,4.4,2.1,8.9,3.1,13.3.5,1.9.4,2-1.6,2Z"/>
    <path class="cls-3" d="M901.5,821.2c0-24.8,0-49.6,0-74.4q0-2.5,2.5-2.6c36.9,0,73.9,0,110.8,0,2.4,0,2.4,0,2.4,2.3,0,9.9,0,19.9,0,29.8,0,1.8-.5,2.2-2.2,2.2-23.3,0-46.6,0-69.8,0q-2.4,0-2.4,2.4c0,7.7,0,15.4,0,23.1q0,2.4,2.5,2.4c23.1,0,46.2,0,69.3,0q2.6,0,2.6,2.6c0,8.3,0,16.6,0,24.9,0,1.8-.5,2.2-2.2,2.2-23.3,0-46.6,0-69.8,0-2.4,0-2.4,0-2.4,2.3,0,7.8,0,15.7,0,23.5,0,1.7.5,2.1,2.1,2.1,23.3,0,46.6,0,69.8,0q2.5,0,2.5,2.4c0,9.9,0,19.9,0,29.8,0,1.6-.4,2.1-2.1,2.1-37.2,0-74.3,0-111.5,0-1.9,0-2.1-.6-2.1-2.3,0-24.9,0-49.8,0-74.7Z"/>
    <path class="cls-3" d="M63.1,896.1c0-50.1,0-100.2,0-150.3,0-1.1,0-2.2,0-3.3.6,0,1.3,0,1.9,0,37.1,0,74.1,0,111.2,0q2.5,0,2.5,2.5c0,9.9,0,19.8,0,29.7,0,1.7-.5,2.1-2.1,2.1-23.3,0-46.5,0-69.8,0q-2.5,0-2.5,2.5c0,7.7,0,15.3,0,23,0,2.8-.3,2.4,2.5,2.4,23.2,0,46.4,0,69.6,0q2.2,0,2.2,2.2c0,8.3,0,16.7,0,25q0,2.3-2.4,2.3c-23.2,0-46.4,0-69.6,0q-2.4,0-2.4,2.4c0,7.8,0,15.7,0,23.5,0,1.7.4,2.2,2.2,2.2,23.2,0,46.4,0,69.6,0q2.6,0,2.6,2.5c0,9.8,0,19.5,0,29.3,0,2.3,0,2.3-2.2,2.3-37.2,0-74.3,0-111.5,0-.6,0-1.2,0-1.9-.1Z"/>
    <path class="cls-3" d="M192.5,897.4c2.6-3.2,4.8-6,7.1-8.8,11.8-14.6,23.6-29.2,35.4-43.8,6.4-7.9,12.8-15.8,19.2-23.7.8-.9.7-1.5,0-2.3-12.2-15-24.4-30.1-36.5-45.1-8-9.9-16-19.8-24-29.7-.3-.3-.8-.6-.6-1.1.2-.5.8-.2,1.3-.3,2.6,0,5.3,0,7.9,0,1.2,0,1.9.4,2.6,1.2,6.4,8,12.8,15.9,19.2,23.9,9.7,12,19.4,24.1,29.2,36.1.3.4.5.7.8,1.1.2,0,.4-.1.5-.2,0-2-.1-4,0-6,.2-2.2-.6-3.8-2-5.5-13.3-16.3-26.4-32.7-39.6-49-.3-.4-1-.7-.7-1.2.2-.5.9-.3,1.4-.3,2.5,0,5,0,7.5,0,1.3,0,2.1.4,2.9,1.3,6.4,8,12.8,15.9,19.2,23.9,3.4,4.3,6.9,8.5,10.3,12.8.1.2.3.3.8.6,0-3.3.1-6.3,0-9.4,0-.9-1.2-1.8-1.9-2.6-6.8-8.4-13.6-16.8-20.4-25.2-.3-.4-.9-.7-.6-1.3.2-.4.8-.2,1.3-.2,2.3,0,4.6.1,6.9,0,1.9-.1,3.1.6,4.3,2.1,13.8,17.1,27.6,34.2,41.4,51.3.2.3.4.7.9.8.4-.5.2-1.1.2-1.6,0-4.2,0-8.3,0-12.5,0-1,.2-1.8.9-2.6,9.8-12.1,19.5-24.1,29.3-36.3.6-.7,1.2-1.1,2.1-1.1,15.7,0,31.3,0,47,0,.3,0,.7,0,1.2.1-1,1.9-2.4,3.3-3.7,4.8-17.7,21.9-35.4,43.8-53.1,65.7-1.4,1.8-2.8,3.6-4.3,5.3-1,1.1-1,1.8,0,2.9,4.5,5.5,9,11.1,13.5,16.6,12.2,15.1,24.5,30.3,36.7,45.4,3.1,3.8,6.2,7.6,9.3,11.5.6.7,1.1,1.4,1.7,2.1-.5.6-1.2.4-1.7.4-15.3,0-30.7,0-46,0-1.2,0-2-.4-2.8-1.3-9.6-12-19.3-23.9-29-35.8-.8-1-1.2-2.1-1.1-3.4,0-4.5,0-9,0-13.9-1.9,1.6-3,3.4-4.3,5-13.1,16.2-26.1,32.3-39.2,48.5-.4.4-.7,1-1.3,1-3.4,0-6.8,0-10.7,0,2.1-2.7,4-5,5.9-7.3,5.6-7,11.3-14,16.9-20.9.6-.7.9-1.4.8-2.3,0-2.6,0-5.1,0-7.8-1,.1-1.3.9-1.7,1.4-9.7,12-19.4,24-29.1,36-.4.5-.7,1-1.5,1-3.4,0-6.7,0-10.4,0,1.1-2,2.5-3.4,3.7-4.9,12.7-15.7,25.3-31.4,38-47,.6-.7.9-1.5.9-2.5,0-2.6,0-5.1,0-7.7-.7-.3-.9.3-1.1.6-15.4,19.1-30.9,38.2-46.2,57.4-2.4,3-4.7,4.9-8.8,4.2-1.8-.3-3.6,0-6,0Z"/>
  </g>
</svg>