<svg width="955" height="215" viewBox="0 0 955 215" fill="none" xmlns="http://www.w3.org/2000/svg">
<path d="M0 3.57883C0.1 3.57883 0.200002 3.57883 0.400002 3.57883C1 4.07883 1.2 4.77883 1.2 5.57883C1.2 6.57883 1.2 7.67884 1.2 8.67884C1.2 56.9788 1.2 105.379 1.2 153.679C1.2 154.879 1.5 156.179 0.299999 157.179C0.199999 157.179 0.1 157.179 0 157.179V3.57883Z" fill="#A9023A"/>
<path d="M642.6 180.079C641.5 180.179 640.5 180.379 639.4 180.479C629.9 181.979 620.3 182.779 610.8 181.079C602.1 179.579 594.3 176.079 588.5 169.179C587.3 167.779 587.2 167.779 589 167.279C607.2 161.779 622.5 151.979 634.3 136.979C649.8 117.179 655.6 94.7788 651 70.0788C646.9 48.4788 635.4 31.0788 617.7 18.0788C597.2 2.97883 574.1 -2.42117 548.9 0.978833C531 3.47883 514.9 10.4788 501.4 22.4788C478.5 42.8788 468.6 68.4788 473.4 98.9788C476.7 120.379 487.7 137.479 504.4 150.979C513.2 158.079 523.2 163.279 534 166.679C534.7 166.879 535.3 167.179 535.5 168.079C537.4 176.479 542 183.479 547.6 189.879C561.3 205.379 579.1 212.379 599.2 214.279C606.3 214.979 613.5 214.679 620.6 213.979C621.8 213.879 622.7 213.379 623.4 212.379C629.8 202.179 636.3 191.979 642.8 181.679C643.1 181.179 643.5 180.779 643.4 180.079C643.2 180.079 643 180.079 642.7 180.079H642.6ZM529.6 119.079C520 112.079 513.7 102.679 512.1 90.6788C510.5 79.1788 513.8 68.8788 521.2 59.9788C529.7 49.7788 540.8 44.1788 553.8 42.1788C556.6 41.7788 559.4 41.4788 562.2 41.4788C578 41.8788 591.6 47.0788 602.4 58.9788C615.5 73.4788 616 95.7788 603.5 110.779C594.7 121.379 583.2 127.179 569.7 128.979C555.1 130.879 541.6 127.779 529.7 119.079H529.6Z" fill="#A9023A"/>
<path d="M675 59.8788C675 42.3788 675 24.8788 675 7.47884C675 5.77884 675.4 5.27883 677.1 5.27883C689.3 5.27883 701.5 5.27883 713.6 5.27883C715.9 5.27883 715.9 5.27884 715.9 7.67884C715.9 36.2788 715.9 64.8788 715.9 93.5788C715.9 99.6788 716.1 105.779 717.3 111.779C718.7 118.679 722.6 122.879 729.6 123.979C739 125.479 748.4 125.679 757.7 123.979C766.4 122.379 768.7 118.479 770.3 109.779C771.2 104.779 771.4 99.6788 771.4 94.5788C771.4 65.5788 771.4 36.6788 771.4 7.67884C771.4 6.14551 772.167 5.37884 773.7 5.37884C785.9 5.37884 798.1 5.37884 810.2 5.37884C812 5.37884 812.4 5.87883 812.4 7.57883C812.3 41.3788 812.6 75.1788 812.2 109.079C812.1 117.479 811.4 125.879 808.3 133.779C802.9 147.479 792.6 155.579 778.5 158.979C770.4 160.879 762.2 161.179 754 161.279C744.3 161.279 734.6 161.479 724.8 161.079C716.8 160.679 708.9 159.679 701.4 156.579C688 150.779 680.3 140.379 677.1 126.379C675.5 119.079 675.1 111.679 675 104.279C674.9 89.5788 675 74.8788 675 60.1788V59.8788Z" fill="#A9023A"/>
<path d="M466.8 157.379C463.1 144.279 459.4 131.079 455.7 117.879C445.3 80.8788 434.9 43.9788 424.5 6.97884C424.1 5.67884 423.7 5.17884 422.2 5.17884C412.2 5.17884 402.2 5.17884 392.2 5.17884C382.4 5.17884 372.5 5.17884 362.7 5.17884C361.1 5.17884 360.4 5.57884 360 7.17884C356.2 20.5788 352.3 33.9788 348.5 47.3788C338 83.9788 327.5 120.479 317 157.079C316.4 159.079 316.4 159.179 318.6 159.179C332 159.179 345.4 159.179 358.7 159.179C360.2 159.179 360.7 158.679 361.1 157.279C363.1 149.479 365.2 141.679 367.2 133.779C367.5 132.579 368 132.279 369.2 132.279C384.4 132.279 399.5 132.279 414.7 132.279C416 132.279 416.5 132.779 416.8 133.979C418.8 141.779 420.9 149.679 422.8 157.479C423.1 158.779 423.6 159.179 425 159.179C438.6 159.179 452.1 159.179 465.7 159.179C467.3 159.179 467.5 158.779 467 157.379H466.8ZM406.8 100.979C401.8 100.979 396.8 100.979 391.9 100.979C387 100.979 381.9 100.979 377 100.979C375.6 100.979 375.2 100.679 375.5 99.2788C380.5 78.9788 385.6 58.6788 390.5 38.4788C390.8 37.4788 391.2 37.1788 392.3 37.0788C393.4 37.0788 393.7 37.5788 394 38.5788C397.8 54.2788 401.5 69.9788 405.3 85.7788C406.4 90.1788 407.4 94.6788 408.4 99.0788C408.9 100.979 408.8 101.079 406.8 101.079V100.979Z" fill="#A9023A"/>
<path d="M838.7 82.2788C838.7 57.4788 838.7 32.6788 838.7 7.87884C838.7 6.21217 839.533 5.3455 841.2 5.27883C878.1 5.27883 915.1 5.27883 952 5.27883C954.4 5.27883 954.4 5.27883 954.4 7.57883C954.4 17.4788 954.4 27.4788 954.4 37.3788C954.4 39.1788 953.9 39.5788 952.2 39.5788C928.9 39.5788 905.6 39.5788 882.4 39.5788C880.8 39.5788 880 40.3788 880 41.9788C880 49.6788 880 57.3788 880 65.0788C880 66.6788 880.833 67.4788 882.5 67.4788C905.6 67.4788 928.7 67.4788 951.8 67.4788C953.533 67.4788 954.4 68.3455 954.4 70.0788C954.4 78.3788 954.4 86.6788 954.4 94.9788C954.4 96.7788 953.9 97.1788 952.2 97.1788C928.9 97.1788 905.6 97.1788 882.4 97.1788C880 97.1788 880 97.1788 880 99.4788C880 107.279 880 115.179 880 122.979C880 124.679 880.5 125.079 882.1 125.079C905.4 125.079 928.7 125.079 951.9 125.079C953.567 125.079 954.4 125.879 954.4 127.479C954.4 137.379 954.4 147.379 954.4 157.279C954.4 158.879 954 159.379 952.3 159.379C915.1 159.379 878 159.379 840.8 159.379C838.9 159.379 838.7 158.779 838.7 157.079C838.7 132.179 838.7 107.279 838.7 82.3788V82.2788Z" fill="#A9023A"/>
<path d="M0.29995 157.179C0.29995 107.079 0.29995 56.9788 0.29995 6.87884C0.29995 5.77884 0.29995 4.67883 0.29995 3.57883C0.89995 3.57883 1.59995 3.57883 2.19995 3.57883C39.2999 3.57883 76.2999 3.57883 113.4 3.57883C115.067 3.57883 115.9 4.41217 115.9 6.07883C115.9 15.9788 115.9 25.8788 115.9 35.7788C115.9 37.4788 115.4 37.8788 113.8 37.8788C90.5 37.8788 67.3 37.8788 44 37.8788C42.3333 37.8788 41.5 38.7122 41.5 40.3788C41.5 48.0788 41.5 55.6788 41.5 63.3788C41.5 66.1788 41.2 65.7788 44 65.7788C67.2 65.7788 90.3999 65.7788 113.6 65.7788C115.067 65.7788 115.8 66.5122 115.8 67.9788C115.8 76.2788 115.8 84.6788 115.8 92.9788C115.8 94.5122 115 95.2788 113.4 95.2788C90.1999 95.2788 67 95.2788 43.7999 95.2788C42.1999 95.2788 41.3999 96.0788 41.3999 97.6788C41.3999 105.479 41.3999 113.379 41.3999 121.179C41.3999 122.879 41.8 123.379 43.6 123.379C66.8 123.379 90 123.379 113.2 123.379C114.933 123.379 115.8 124.212 115.8 125.879C115.8 135.679 115.8 145.379 115.8 155.179C115.8 157.479 115.8 157.479 113.6 157.479C76.3999 157.479 39.3 157.479 2.09995 157.479C1.49995 157.479 0.899951 157.479 0.199951 157.379L0.29995 157.179Z" fill="#A9023A"/>
<path d="M129.7 158.379C132.3 155.179 134.5 152.379 136.8 149.579C148.6 134.979 160.4 120.379 172.2 105.779C178.6 97.8788 185 89.9788 191.4 82.0788C192.2 81.1788 192.1 80.5788 191.4 79.7788C179.2 64.7788 167 49.6788 154.9 34.6788C146.9 24.7788 138.9 14.8788 130.9 4.97884C130.6 4.67884 130.1 4.37884 130.3 3.87884C130.5 3.37884 131.1 3.67883 131.6 3.57883C134.2 3.57883 136.9 3.57883 139.5 3.57883C140.7 3.57883 141.4 3.97883 142.1 4.77883C148.5 12.7788 154.9 20.6788 161.3 28.6788C171 40.6788 180.7 52.7788 190.5 64.7788C190.8 65.1788 191 65.4788 191.3 65.8788C191.5 65.8788 191.7 65.7788 191.8 65.6788C191.8 63.6788 191.7 61.6788 191.8 59.6788C192 57.4788 191.2 55.8788 189.8 54.1788C176.5 37.8788 163.4 21.4788 150.2 5.17884C149.9 4.77884 149.2 4.47884 149.5 3.97884C149.7 3.47884 150.4 3.67884 150.9 3.67884C153.4 3.67884 155.9 3.67884 158.4 3.67884C159.7 3.67884 160.5 4.07884 161.3 4.97884C167.7 12.9788 174.1 20.8788 180.5 28.8788C183.9 33.1788 187.4 37.3788 190.8 41.6788C190.9 41.8788 191.1 41.9788 191.6 42.2788C191.6 38.9788 191.7 35.9788 191.6 32.8788C191.6 31.9788 190.4 31.0788 189.7 30.2788C182.9 21.8788 176.1 13.4788 169.3 5.07883C169 4.67883 168.4 4.37883 168.7 3.77883C168.9 3.37883 169.5 3.57883 170 3.57883C172.3 3.57883 174.6 3.67883 176.9 3.57883C178.8 3.47883 180 4.17884 181.2 5.67884C195 22.7788 208.8 39.8788 222.6 56.9788C222.8 57.2788 223 57.6788 223.5 57.7788C223.9 57.2788 223.7 56.6788 223.7 56.1788C223.7 51.9788 223.7 47.8788 223.7 43.6788C223.7 42.6788 223.9 41.8788 224.6 41.0788C234.4 28.9788 244.1 16.9788 253.9 4.77883C254.5 4.07883 255.1 3.67884 256 3.67884C271.7 3.67884 287.3 3.67884 303 3.67884C303.3 3.67884 303.7 3.67883 304.2 3.77883C303.2 5.67883 301.8 7.07883 300.5 8.57883C282.8 30.4788 265.1 52.3788 247.4 74.2788C246 76.0788 244.6 77.8788 243.1 79.5788C242.1 80.6788 242.1 81.3788 243.1 82.4788C247.6 87.9788 252.1 93.5788 256.6 99.0788C268.8 114.179 281.1 129.379 293.3 144.479C296.4 148.279 299.5 152.079 302.6 155.979C303.2 156.679 303.7 157.379 304.3 158.079C303.8 158.679 303.1 158.479 302.6 158.479C287.3 158.479 271.9 158.479 256.6 158.479C255.4 158.479 254.6 158.079 253.8 157.179C244.2 145.179 234.5 133.279 224.8 121.379C224 120.379 223.6 119.279 223.7 117.979C223.7 113.479 223.7 108.979 223.7 104.079C221.8 105.679 220.7 107.479 219.4 109.079C206.3 125.279 193.3 141.379 180.2 157.579C179.8 157.979 179.5 158.579 178.9 158.579C175.5 158.579 172.1 158.579 168.2 158.579C170.3 155.879 172.2 153.579 174.1 151.279C179.7 144.279 185.4 137.279 191 130.379C191.6 129.679 191.9 128.979 191.8 128.079C191.8 125.479 191.8 122.979 191.8 120.279C190.8 120.379 190.5 121.179 190.1 121.679C180.4 133.679 170.7 145.679 161 157.679C160.6 158.179 160.3 158.679 159.5 158.679C156.1 158.679 152.8 158.679 149.1 158.679C150.2 156.679 151.6 155.279 152.8 153.779C165.5 138.079 178.1 122.379 190.8 106.779C191.4 106.079 191.7 105.279 191.7 104.279C191.7 101.679 191.7 99.1788 191.7 96.5788C191 96.2788 190.8 96.8788 190.6 97.1788C175.2 116.279 159.7 135.379 144.4 154.579C142 157.579 139.7 159.479 135.6 158.779C133.8 158.479 132 158.779 129.6 158.779L129.7 158.379Z" fill="#A9023A"/>
</svg>
